<?xml version="1.0" encoding="utf-8" standalone="no"?>
<!DOCTYPE svg PUBLIC "-//W3C//DTD SVG 1.1//EN"
  "http://www.w3.org/Graphics/SVG/1.1/DTD/svg11.dtd">
<!-- Created with matplotlib (https://matplotlib.org/) -->
<svg height="600pt" version="1.1" viewBox="0 0 600 600" width="600pt" xmlns="http://www.w3.org/2000/svg" xmlns:xlink="http://www.w3.org/1999/xlink">
 <defs>
  <style type="text/css">
*{stroke-linecap:butt;stroke-linejoin:round;}
  </style>
 </defs>
 <g id="figure_1">
  <g id="patch_1">
   <path d="M 0 600 
L 600 600 
L 600 0 
L 0 0 
z
" style="fill:#ffffff;"/>
  </g>
  <g id="axes_1">
   <g id="patch_2">
    <path d="M 75 534 
L 540 534 
L 540 72 
L 75 72 
z
" style="fill:#eaeaf2;"/>
   </g>
   <g id="matplotlib.axis_1">
    <g id="xtick_1">
     <g id="line2d_1">
      <path clip-path="url(#p5c135ebbf8)" d="M 96.136364 534 
L 96.136364 72 
" style="fill:none;stroke:#ffffff;stroke-linecap:round;"/>
     </g>
     <g id="text_1">
      <!-- 1996 -->
      <defs>
       <path d="M 37.25 0 
L 28.46875 0 
L 28.46875 56 
Q 25.296875 52.984375 20.140625 49.953125 
Q 14.984375 46.921875 10.890625 45.40625 
L 10.890625 53.90625 
Q 18.265625 57.375 23.78125 62.296875 
Q 29.296875 67.234375 31.59375 71.875 
L 37.25 71.875 
z
" id="ArialMT-49"/>
       <path d="M 5.46875 16.546875 
L 13.921875 17.328125 
Q 14.984375 11.375 18.015625 8.6875 
Q 21.046875 6 25.78125 6 
Q 29.828125 6 32.875 7.859375 
Q 35.9375 9.71875 37.890625 12.8125 
Q 39.84375 15.921875 41.15625 21.1875 
Q 42.484375 26.46875 42.484375 31.9375 
Q 42.484375 32.515625 42.4375 33.6875 
Q 39.796875 29.5 35.234375 26.875 
Q 30.671875 24.265625 25.34375 24.265625 
Q 16.453125 24.265625 10.296875 30.703125 
Q 4.15625 37.15625 4.15625 47.703125 
Q 4.15625 58.59375 10.578125 65.234375 
Q 17 71.875 26.65625 71.875 
Q 33.640625 71.875 39.421875 68.109375 
Q 45.21875 64.359375 48.21875 57.390625 
Q 51.21875 50.4375 51.21875 37.25 
Q 51.21875 23.53125 48.234375 15.40625 
Q 45.265625 7.28125 39.375 3.03125 
Q 33.5 -1.21875 25.59375 -1.21875 
Q 17.1875 -1.21875 11.859375 3.4375 
Q 6.546875 8.109375 5.46875 16.546875 
z
M 41.453125 48.140625 
Q 41.453125 55.71875 37.421875 60.15625 
Q 33.40625 64.59375 27.734375 64.59375 
Q 21.875 64.59375 17.53125 59.8125 
Q 13.1875 55.03125 13.1875 47.40625 
Q 13.1875 40.578125 17.3125 36.296875 
Q 21.4375 32.03125 27.484375 32.03125 
Q 33.59375 32.03125 37.515625 36.296875 
Q 41.453125 40.578125 41.453125 48.140625 
z
" id="ArialMT-57"/>
       <path d="M 49.75 54.046875 
L 41.015625 53.375 
Q 39.84375 58.546875 37.703125 60.890625 
Q 34.125 64.65625 28.90625 64.65625 
Q 24.703125 64.65625 21.53125 62.3125 
Q 17.390625 59.28125 14.984375 53.46875 
Q 12.59375 47.65625 12.5 36.921875 
Q 15.671875 41.75 20.265625 44.09375 
Q 24.859375 46.4375 29.890625 46.4375 
Q 38.671875 46.4375 44.84375 39.96875 
Q 51.03125 33.5 51.03125 23.25 
Q 51.03125 16.5 48.125 10.71875 
Q 45.21875 4.9375 40.140625 1.859375 
Q 35.0625 -1.21875 28.609375 -1.21875 
Q 17.625 -1.21875 10.6875 6.859375 
Q 3.765625 14.9375 3.765625 33.5 
Q 3.765625 54.25 11.421875 63.671875 
Q 18.109375 71.875 29.4375 71.875 
Q 37.890625 71.875 43.28125 67.140625 
Q 48.6875 62.40625 49.75 54.046875 
z
M 13.875 23.1875 
Q 13.875 18.65625 15.796875 14.5 
Q 17.71875 10.359375 21.1875 8.171875 
Q 24.65625 6 28.46875 6 
Q 34.03125 6 38.03125 10.484375 
Q 42.046875 14.984375 42.046875 22.703125 
Q 42.046875 30.125 38.078125 34.390625 
Q 34.125 38.671875 28.125 38.671875 
Q 22.171875 38.671875 18.015625 34.390625 
Q 13.875 30.125 13.875 23.1875 
z
" id="ArialMT-54"/>
      </defs>
      <g style="fill:#262626;" transform="translate(75.338457 550.885109)scale(0.187 -0.187)">
       <use xlink:href="#ArialMT-49"/>
       <use x="55.615234" xlink:href="#ArialMT-57"/>
       <use x="111.230469" xlink:href="#ArialMT-57"/>
       <use x="166.845703" xlink:href="#ArialMT-54"/>
      </g>
     </g>
    </g>
    <g id="xtick_2">
     <g id="line2d_2">
      <path clip-path="url(#p5c135ebbf8)" d="M 161.171329 534 
L 161.171329 72 
" style="fill:none;stroke:#ffffff;stroke-linecap:round;"/>
     </g>
     <g id="text_2">
      <!-- 1998 -->
      <defs>
       <path d="M 17.671875 38.8125 
Q 12.203125 40.828125 9.5625 44.53125 
Q 6.9375 48.25 6.9375 53.421875 
Q 6.9375 61.234375 12.546875 66.546875 
Q 18.171875 71.875 27.484375 71.875 
Q 36.859375 71.875 42.578125 66.421875 
Q 48.296875 60.984375 48.296875 53.171875 
Q 48.296875 48.1875 45.671875 44.5 
Q 43.0625 40.828125 37.75 38.8125 
Q 44.34375 36.671875 47.78125 31.875 
Q 51.21875 27.09375 51.21875 20.453125 
Q 51.21875 11.28125 44.71875 5.03125 
Q 38.234375 -1.21875 27.640625 -1.21875 
Q 17.046875 -1.21875 10.546875 5.046875 
Q 4.046875 11.328125 4.046875 20.703125 
Q 4.046875 27.6875 7.59375 32.390625 
Q 11.140625 37.109375 17.671875 38.8125 
z
M 15.921875 53.71875 
Q 15.921875 48.640625 19.1875 45.40625 
Q 22.46875 42.1875 27.6875 42.1875 
Q 32.765625 42.1875 36.015625 45.375 
Q 39.265625 48.578125 39.265625 53.21875 
Q 39.265625 58.0625 35.90625 61.359375 
Q 32.5625 64.65625 27.59375 64.65625 
Q 22.5625 64.65625 19.234375 61.421875 
Q 15.921875 58.203125 15.921875 53.71875 
z
M 13.09375 20.65625 
Q 13.09375 16.890625 14.875 13.375 
Q 16.65625 9.859375 20.171875 7.921875 
Q 23.6875 6 27.734375 6 
Q 34.03125 6 38.125 10.046875 
Q 42.234375 14.109375 42.234375 20.359375 
Q 42.234375 26.703125 38.015625 30.859375 
Q 33.796875 35.015625 27.4375 35.015625 
Q 21.234375 35.015625 17.15625 30.90625 
Q 13.09375 26.8125 13.09375 20.65625 
z
" id="ArialMT-56"/>
      </defs>
      <g style="fill:#262626;" transform="translate(140.373422 550.885109)scale(0.187 -0.187)">
       <use xlink:href="#ArialMT-49"/>
       <use x="55.615234" xlink:href="#ArialMT-57"/>
       <use x="111.230469" xlink:href="#ArialMT-57"/>
       <use x="166.845703" xlink:href="#ArialMT-56"/>
      </g>
     </g>
    </g>
    <g id="xtick_3">
     <g id="line2d_3">
      <path clip-path="url(#p5c135ebbf8)" d="M 226.206294 534 
L 226.206294 72 
" style="fill:none;stroke:#ffffff;stroke-linecap:round;"/>
     </g>
     <g id="text_3">
      <!-- 2000 -->
      <defs>
       <path d="M 50.34375 8.453125 
L 50.34375 0 
L 3.03125 0 
Q 2.9375 3.171875 4.046875 6.109375 
Q 5.859375 10.9375 9.828125 15.625 
Q 13.8125 20.3125 21.34375 26.46875 
Q 33.015625 36.03125 37.109375 41.625 
Q 41.21875 47.21875 41.21875 52.203125 
Q 41.21875 57.421875 37.46875 61 
Q 33.734375 64.59375 27.734375 64.59375 
Q 21.390625 64.59375 17.578125 60.78125 
Q 13.765625 56.984375 13.71875 50.25 
L 4.6875 51.171875 
Q 5.609375 61.28125 11.65625 66.578125 
Q 17.71875 71.875 27.9375 71.875 
Q 38.234375 71.875 44.234375 66.15625 
Q 50.25 60.453125 50.25 52 
Q 50.25 47.703125 48.484375 43.546875 
Q 46.734375 39.40625 42.65625 34.8125 
Q 38.578125 30.21875 29.109375 22.21875 
Q 21.1875 15.578125 18.9375 13.203125 
Q 16.703125 10.84375 15.234375 8.453125 
z
" id="ArialMT-50"/>
       <path d="M 4.15625 35.296875 
Q 4.15625 48 6.765625 55.734375 
Q 9.375 63.484375 14.515625 67.671875 
Q 19.671875 71.875 27.484375 71.875 
Q 33.25 71.875 37.59375 69.546875 
Q 41.9375 67.234375 44.765625 62.859375 
Q 47.609375 58.5 49.21875 52.21875 
Q 50.828125 45.953125 50.828125 35.296875 
Q 50.828125 22.703125 48.234375 14.96875 
Q 45.65625 7.234375 40.5 3 
Q 35.359375 -1.21875 27.484375 -1.21875 
Q 17.140625 -1.21875 11.234375 6.203125 
Q 4.15625 15.140625 4.15625 35.296875 
z
M 13.1875 35.296875 
Q 13.1875 17.671875 17.3125 11.828125 
Q 21.4375 6 27.484375 6 
Q 33.546875 6 37.671875 11.859375 
Q 41.796875 17.71875 41.796875 35.296875 
Q 41.796875 52.984375 37.671875 58.78125 
Q 33.546875 64.59375 27.390625 64.59375 
Q 21.34375 64.59375 17.71875 59.46875 
Q 13.1875 52.9375 13.1875 35.296875 
z
" id="ArialMT-48"/>
      </defs>
      <g style="fill:#262626;" transform="translate(205.408387 550.885109)scale(0.187 -0.187)">
       <use xlink:href="#ArialMT-50"/>
       <use x="55.615234" xlink:href="#ArialMT-48"/>
       <use x="111.230469" xlink:href="#ArialMT-48"/>
       <use x="166.845703" xlink:href="#ArialMT-48"/>
      </g>
     </g>
    </g>
    <g id="xtick_4">
     <g id="line2d_4">
      <path clip-path="url(#p5c135ebbf8)" d="M 291.241259 534 
L 291.241259 72 
" style="fill:none;stroke:#ffffff;stroke-linecap:round;"/>
     </g>
     <g id="text_4">
      <!-- 2002 -->
      <g style="fill:#262626;" transform="translate(270.443352 550.885109)scale(0.187 -0.187)">
       <use xlink:href="#ArialMT-50"/>
       <use x="55.615234" xlink:href="#ArialMT-48"/>
       <use x="111.230469" xlink:href="#ArialMT-48"/>
       <use x="166.845703" xlink:href="#ArialMT-50"/>
      </g>
     </g>
    </g>
    <g id="xtick_5">
     <g id="line2d_5">
      <path clip-path="url(#p5c135ebbf8)" d="M 356.276224 534 
L 356.276224 72 
" style="fill:none;stroke:#ffffff;stroke-linecap:round;"/>
     </g>
     <g id="text_5">
      <!-- 2004 -->
      <defs>
       <path d="M 32.328125 0 
L 32.328125 17.140625 
L 1.265625 17.140625 
L 1.265625 25.203125 
L 33.9375 71.578125 
L 41.109375 71.578125 
L 41.109375 25.203125 
L 50.78125 25.203125 
L 50.78125 17.140625 
L 41.109375 17.140625 
L 41.109375 0 
z
M 32.328125 25.203125 
L 32.328125 57.46875 
L 9.90625 25.203125 
z
" id="ArialMT-52"/>
      </defs>
      <g style="fill:#262626;" transform="translate(335.478318 550.885109)scale(0.187 -0.187)">
       <use xlink:href="#ArialMT-50"/>
       <use x="55.615234" xlink:href="#ArialMT-48"/>
       <use x="111.230469" xlink:href="#ArialMT-48"/>
       <use x="166.845703" xlink:href="#ArialMT-52"/>
      </g>
     </g>
    </g>
    <g id="xtick_6">
     <g id="line2d_6">
      <path clip-path="url(#p5c135ebbf8)" d="M 421.311189 534 
L 421.311189 72 
" style="fill:none;stroke:#ffffff;stroke-linecap:round;"/>
     </g>
     <g id="text_6">
      <!-- 2006 -->
      <g style="fill:#262626;" transform="translate(400.513283 550.885109)scale(0.187 -0.187)">
       <use xlink:href="#ArialMT-50"/>
       <use x="55.615234" xlink:href="#ArialMT-48"/>
       <use x="111.230469" xlink:href="#ArialMT-48"/>
       <use x="166.845703" xlink:href="#ArialMT-54"/>
      </g>
     </g>
    </g>
    <g id="xtick_7">
     <g id="line2d_7">
      <path clip-path="url(#p5c135ebbf8)" d="M 486.346154 534 
L 486.346154 72 
" style="fill:none;stroke:#ffffff;stroke-linecap:round;"/>
     </g>
     <g id="text_7">
      <!-- 2008 -->
      <g style="fill:#262626;" transform="translate(465.548248 550.885109)scale(0.187 -0.187)">
       <use xlink:href="#ArialMT-50"/>
       <use x="55.615234" xlink:href="#ArialMT-48"/>
       <use x="111.230469" xlink:href="#ArialMT-48"/>
       <use x="166.845703" xlink:href="#ArialMT-56"/>
      </g>
     </g>
    </g>
    <g id="text_8">
     <!-- Year -->
     <defs>
      <path d="M 27.875 0 
L 27.875 30.328125 
L 0.296875 71.578125 
L 11.8125 71.578125 
L 25.921875 50 
Q 29.828125 43.953125 33.203125 37.890625 
Q 36.421875 43.5 41.015625 50.53125 
L 54.890625 71.578125 
L 65.921875 71.578125 
L 37.359375 30.328125 
L 37.359375 0 
z
" id="ArialMT-89"/>
      <path d="M 42.09375 16.703125 
L 51.171875 15.578125 
Q 49.03125 7.625 43.21875 3.21875 
Q 37.40625 -1.171875 28.375 -1.171875 
Q 17 -1.171875 10.328125 5.828125 
Q 3.65625 12.84375 3.65625 25.484375 
Q 3.65625 38.578125 10.390625 45.796875 
Q 17.140625 53.03125 27.875 53.03125 
Q 38.28125 53.03125 44.875 45.953125 
Q 51.46875 38.875 51.46875 26.03125 
Q 51.46875 25.25 51.421875 23.6875 
L 12.75 23.6875 
Q 13.234375 15.140625 17.578125 10.59375 
Q 21.921875 6.0625 28.421875 6.0625 
Q 33.25 6.0625 36.671875 8.59375 
Q 40.09375 11.140625 42.09375 16.703125 
z
M 13.234375 30.90625 
L 42.1875 30.90625 
Q 41.609375 37.453125 38.875 40.71875 
Q 34.671875 45.796875 27.984375 45.796875 
Q 21.921875 45.796875 17.796875 41.75 
Q 13.671875 37.703125 13.234375 30.90625 
z
" id="ArialMT-101"/>
      <path d="M 40.4375 6.390625 
Q 35.546875 2.25 31.03125 0.53125 
Q 26.515625 -1.171875 21.34375 -1.171875 
Q 12.796875 -1.171875 8.203125 3 
Q 3.609375 7.171875 3.609375 13.671875 
Q 3.609375 17.484375 5.34375 20.625 
Q 7.078125 23.78125 9.890625 25.6875 
Q 12.703125 27.59375 16.21875 28.5625 
Q 18.796875 29.25 24.03125 29.890625 
Q 34.671875 31.15625 39.703125 32.90625 
Q 39.75 34.71875 39.75 35.203125 
Q 39.75 40.578125 37.25 42.78125 
Q 33.890625 45.75 27.25 45.75 
Q 21.046875 45.75 18.09375 43.578125 
Q 15.140625 41.40625 13.71875 35.890625 
L 5.125 37.0625 
Q 6.296875 42.578125 8.984375 45.96875 
Q 11.671875 49.359375 16.75 51.1875 
Q 21.828125 53.03125 28.515625 53.03125 
Q 35.15625 53.03125 39.296875 51.46875 
Q 43.453125 49.90625 45.40625 47.53125 
Q 47.359375 45.171875 48.140625 41.546875 
Q 48.578125 39.3125 48.578125 33.453125 
L 48.578125 21.734375 
Q 48.578125 9.46875 49.140625 6.21875 
Q 49.703125 2.984375 51.375 0 
L 42.1875 0 
Q 40.828125 2.734375 40.4375 6.390625 
z
M 39.703125 26.03125 
Q 34.90625 24.078125 25.34375 22.703125 
Q 19.921875 21.921875 17.671875 20.9375 
Q 15.4375 19.96875 14.203125 18.09375 
Q 12.984375 16.21875 12.984375 13.921875 
Q 12.984375 10.40625 15.640625 8.0625 
Q 18.3125 5.71875 23.4375 5.71875 
Q 28.515625 5.71875 32.46875 7.9375 
Q 36.421875 10.15625 38.28125 14.015625 
Q 39.703125 17 39.703125 22.796875 
z
" id="ArialMT-97"/>
      <path d="M 6.5 0 
L 6.5 51.859375 
L 14.40625 51.859375 
L 14.40625 44 
Q 17.4375 49.515625 20 51.265625 
Q 22.5625 53.03125 25.640625 53.03125 
Q 30.078125 53.03125 34.671875 50.203125 
L 31.640625 42.046875 
Q 28.421875 43.953125 25.203125 43.953125 
Q 22.3125 43.953125 20.015625 42.21875 
Q 17.71875 40.484375 16.75 37.40625 
Q 15.28125 32.71875 15.28125 27.15625 
L 15.28125 0 
z
" id="ArialMT-114"/>
     </defs>
     <g style="fill:#262626;" transform="translate(285.970031 573.203672)scale(0.204 -0.204)">
      <use xlink:href="#ArialMT-89"/>
      <use x="66.558594" xlink:href="#ArialMT-101"/>
      <use x="122.173828" xlink:href="#ArialMT-97"/>
      <use x="177.789062" xlink:href="#ArialMT-114"/>
     </g>
    </g>
   </g>
   <g id="matplotlib.axis_2">
    <g id="ytick_1">
     <g id="line2d_8">
      <path clip-path="url(#p5c135ebbf8)" d="M 75 506.366745 
L 540 506.366745 
" style="fill:none;stroke:#ffffff;stroke-linecap:round;"/>
     </g>
     <g id="text_9">
      <!-- 0.8 -->
      <defs>
       <path d="M 9.078125 0 
L 9.078125 10.015625 
L 19.09375 10.015625 
L 19.09375 0 
z
" id="ArialMT-46"/>
      </defs>
      <g style="fill:#262626;" transform="translate(45.507 513.0593)scale(0.187 -0.187)">
       <use xlink:href="#ArialMT-48"/>
       <use x="55.615234" xlink:href="#ArialMT-46"/>
       <use x="83.398438" xlink:href="#ArialMT-56"/>
      </g>
     </g>
    </g>
    <g id="ytick_2">
     <g id="line2d_9">
      <path clip-path="url(#p5c135ebbf8)" d="M 75 411.326197 
L 540 411.326197 
" style="fill:none;stroke:#ffffff;stroke-linecap:round;"/>
     </g>
     <g id="text_10">
      <!-- 1.0 -->
      <g style="fill:#262626;" transform="translate(45.507 418.018752)scale(0.187 -0.187)">
       <use xlink:href="#ArialMT-49"/>
       <use x="55.615234" xlink:href="#ArialMT-46"/>
       <use x="83.398438" xlink:href="#ArialMT-48"/>
      </g>
     </g>
    </g>
    <g id="ytick_3">
     <g id="line2d_10">
      <path clip-path="url(#p5c135ebbf8)" d="M 75 316.28565 
L 540 316.28565 
" style="fill:none;stroke:#ffffff;stroke-linecap:round;"/>
     </g>
     <g id="text_11">
      <!-- 1.2 -->
      <g style="fill:#262626;" transform="translate(45.507 322.978205)scale(0.187 -0.187)">
       <use xlink:href="#ArialMT-49"/>
       <use x="55.615234" xlink:href="#ArialMT-46"/>
       <use x="83.398438" xlink:href="#ArialMT-50"/>
      </g>
     </g>
    </g>
    <g id="ytick_4">
     <g id="line2d_11">
      <path clip-path="url(#p5c135ebbf8)" d="M 75 221.245102 
L 540 221.245102 
" style="fill:none;stroke:#ffffff;stroke-linecap:round;"/>
     </g>
     <g id="text_12">
      <!-- 1.4 -->
      <g style="fill:#262626;" transform="translate(45.507 227.937657)scale(0.187 -0.187)">
       <use xlink:href="#ArialMT-49"/>
       <use x="55.615234" xlink:href="#ArialMT-46"/>
       <use x="83.398438" xlink:href="#ArialMT-52"/>
      </g>
     </g>
    </g>
    <g id="ytick_5">
     <g id="line2d_12">
      <path clip-path="url(#p5c135ebbf8)" d="M 75 126.204555 
L 540 126.204555 
" style="fill:none;stroke:#ffffff;stroke-linecap:round;"/>
     </g>
     <g id="text_13">
      <!-- 1.6 -->
      <g style="fill:#262626;" transform="translate(45.507 132.89711)scale(0.187 -0.187)">
       <use xlink:href="#ArialMT-49"/>
       <use x="55.615234" xlink:href="#ArialMT-46"/>
       <use x="83.398438" xlink:href="#ArialMT-54"/>
      </g>
     </g>
    </g>
    <g id="text_14">
     <!-- Log10 of number of citations -->
     <defs>
      <path d="M 7.328125 0 
L 7.328125 71.578125 
L 16.796875 71.578125 
L 16.796875 8.453125 
L 52.046875 8.453125 
L 52.046875 0 
z
" id="ArialMT-76"/>
      <path d="M 3.328125 25.921875 
Q 3.328125 40.328125 11.328125 47.265625 
Q 18.015625 53.03125 27.640625 53.03125 
Q 38.328125 53.03125 45.109375 46.015625 
Q 51.90625 39.015625 51.90625 26.65625 
Q 51.90625 16.65625 48.90625 10.90625 
Q 45.90625 5.171875 40.15625 2 
Q 34.421875 -1.171875 27.640625 -1.171875 
Q 16.75 -1.171875 10.03125 5.8125 
Q 3.328125 12.796875 3.328125 25.921875 
z
M 12.359375 25.921875 
Q 12.359375 15.96875 16.703125 11.015625 
Q 21.046875 6.0625 27.640625 6.0625 
Q 34.1875 6.0625 38.53125 11.03125 
Q 42.875 16.015625 42.875 26.21875 
Q 42.875 35.84375 38.5 40.796875 
Q 34.125 45.75 27.640625 45.75 
Q 21.046875 45.75 16.703125 40.8125 
Q 12.359375 35.890625 12.359375 25.921875 
z
" id="ArialMT-111"/>
      <path d="M 4.984375 -4.296875 
L 13.53125 -5.5625 
Q 14.0625 -9.515625 16.5 -11.328125 
Q 19.78125 -13.765625 25.4375 -13.765625 
Q 31.546875 -13.765625 34.859375 -11.328125 
Q 38.1875 -8.890625 39.359375 -4.5 
Q 40.046875 -1.8125 39.984375 6.78125 
Q 34.234375 0 25.640625 0 
Q 14.9375 0 9.078125 7.71875 
Q 3.21875 15.4375 3.21875 26.21875 
Q 3.21875 33.640625 5.90625 39.90625 
Q 8.59375 46.1875 13.6875 49.609375 
Q 18.796875 53.03125 25.6875 53.03125 
Q 34.859375 53.03125 40.828125 45.609375 
L 40.828125 51.859375 
L 48.921875 51.859375 
L 48.921875 7.03125 
Q 48.921875 -5.078125 46.453125 -10.125 
Q 44 -15.1875 38.640625 -18.109375 
Q 33.296875 -21.046875 25.484375 -21.046875 
Q 16.21875 -21.046875 10.5 -16.875 
Q 4.78125 -12.703125 4.984375 -4.296875 
z
M 12.25 26.859375 
Q 12.25 16.65625 16.296875 11.96875 
Q 20.359375 7.28125 26.46875 7.28125 
Q 32.515625 7.28125 36.609375 11.9375 
Q 40.71875 16.609375 40.71875 26.5625 
Q 40.71875 36.078125 36.5 40.90625 
Q 32.28125 45.75 26.3125 45.75 
Q 20.453125 45.75 16.34375 40.984375 
Q 12.25 36.234375 12.25 26.859375 
z
" id="ArialMT-103"/>
      <path id="ArialMT-32"/>
      <path d="M 8.6875 0 
L 8.6875 45.015625 
L 0.921875 45.015625 
L 0.921875 51.859375 
L 8.6875 51.859375 
L 8.6875 57.375 
Q 8.6875 62.59375 9.625 65.140625 
Q 10.890625 68.5625 14.078125 70.671875 
Q 17.28125 72.796875 23.046875 72.796875 
Q 26.765625 72.796875 31.25 71.921875 
L 29.9375 64.265625 
Q 27.203125 64.75 24.75 64.75 
Q 20.75 64.75 19.09375 63.03125 
Q 17.4375 61.328125 17.4375 56.640625 
L 17.4375 51.859375 
L 27.546875 51.859375 
L 27.546875 45.015625 
L 17.4375 45.015625 
L 17.4375 0 
z
" id="ArialMT-102"/>
      <path d="M 6.59375 0 
L 6.59375 51.859375 
L 14.5 51.859375 
L 14.5 44.484375 
Q 20.21875 53.03125 31 53.03125 
Q 35.6875 53.03125 39.625 51.34375 
Q 43.5625 49.65625 45.515625 46.921875 
Q 47.46875 44.1875 48.25 40.4375 
Q 48.734375 37.984375 48.734375 31.890625 
L 48.734375 0 
L 39.9375 0 
L 39.9375 31.546875 
Q 39.9375 36.921875 38.90625 39.578125 
Q 37.890625 42.234375 35.28125 43.8125 
Q 32.671875 45.40625 29.15625 45.40625 
Q 23.53125 45.40625 19.453125 41.84375 
Q 15.375 38.28125 15.375 28.328125 
L 15.375 0 
z
" id="ArialMT-110"/>
      <path d="M 40.578125 0 
L 40.578125 7.625 
Q 34.515625 -1.171875 24.125 -1.171875 
Q 19.53125 -1.171875 15.546875 0.578125 
Q 11.578125 2.34375 9.640625 5 
Q 7.71875 7.671875 6.9375 11.53125 
Q 6.390625 14.109375 6.390625 19.734375 
L 6.390625 51.859375 
L 15.1875 51.859375 
L 15.1875 23.09375 
Q 15.1875 16.21875 15.71875 13.8125 
Q 16.546875 10.359375 19.234375 8.375 
Q 21.921875 6.390625 25.875 6.390625 
Q 29.828125 6.390625 33.296875 8.421875 
Q 36.765625 10.453125 38.203125 13.9375 
Q 39.65625 17.4375 39.65625 24.078125 
L 39.65625 51.859375 
L 48.4375 51.859375 
L 48.4375 0 
z
" id="ArialMT-117"/>
      <path d="M 6.59375 0 
L 6.59375 51.859375 
L 14.453125 51.859375 
L 14.453125 44.578125 
Q 16.890625 48.390625 20.9375 50.703125 
Q 25 53.03125 30.171875 53.03125 
Q 35.9375 53.03125 39.625 50.640625 
Q 43.3125 48.25 44.828125 43.953125 
Q 50.984375 53.03125 60.84375 53.03125 
Q 68.5625 53.03125 72.703125 48.75 
Q 76.859375 44.484375 76.859375 35.59375 
L 76.859375 0 
L 68.109375 0 
L 68.109375 32.671875 
Q 68.109375 37.9375 67.25 40.25 
Q 66.40625 42.578125 64.15625 43.984375 
Q 61.921875 45.40625 58.890625 45.40625 
Q 53.421875 45.40625 49.796875 41.765625 
Q 46.1875 38.140625 46.1875 30.125 
L 46.1875 0 
L 37.40625 0 
L 37.40625 33.6875 
Q 37.40625 39.546875 35.25 42.46875 
Q 33.109375 45.40625 28.21875 45.40625 
Q 24.515625 45.40625 21.359375 43.453125 
Q 18.21875 41.5 16.796875 37.734375 
Q 15.375 33.984375 15.375 26.90625 
L 15.375 0 
z
" id="ArialMT-109"/>
      <path d="M 14.703125 0 
L 6.546875 0 
L 6.546875 71.578125 
L 15.328125 71.578125 
L 15.328125 46.046875 
Q 20.90625 53.03125 29.546875 53.03125 
Q 34.328125 53.03125 38.59375 51.09375 
Q 42.875 49.171875 45.625 45.671875 
Q 48.390625 42.1875 49.953125 37.25 
Q 51.515625 32.328125 51.515625 26.703125 
Q 51.515625 13.375 44.921875 6.09375 
Q 38.328125 -1.171875 29.109375 -1.171875 
Q 19.921875 -1.171875 14.703125 6.5 
z
M 14.59375 26.3125 
Q 14.59375 17 17.140625 12.84375 
Q 21.296875 6.0625 28.375 6.0625 
Q 34.125 6.0625 38.328125 11.0625 
Q 42.53125 16.0625 42.53125 25.984375 
Q 42.53125 36.140625 38.5 40.96875 
Q 34.46875 45.796875 28.765625 45.796875 
Q 23 45.796875 18.796875 40.796875 
Q 14.59375 35.796875 14.59375 26.3125 
z
" id="ArialMT-98"/>
      <path d="M 40.4375 19 
L 49.078125 17.875 
Q 47.65625 8.9375 41.8125 3.875 
Q 35.984375 -1.171875 27.484375 -1.171875 
Q 16.84375 -1.171875 10.375 5.78125 
Q 3.90625 12.75 3.90625 25.734375 
Q 3.90625 34.125 6.6875 40.421875 
Q 9.46875 46.734375 15.15625 49.875 
Q 20.84375 53.03125 27.546875 53.03125 
Q 35.984375 53.03125 41.359375 48.75 
Q 46.734375 44.484375 48.25 36.625 
L 39.703125 35.296875 
Q 38.484375 40.53125 35.375 43.15625 
Q 32.28125 45.796875 27.875 45.796875 
Q 21.234375 45.796875 17.078125 41.03125 
Q 12.9375 36.28125 12.9375 25.984375 
Q 12.9375 15.53125 16.9375 10.796875 
Q 20.953125 6.0625 27.390625 6.0625 
Q 32.5625 6.0625 36.03125 9.234375 
Q 39.5 12.40625 40.4375 19 
z
" id="ArialMT-99"/>
      <path d="M 6.640625 61.46875 
L 6.640625 71.578125 
L 15.4375 71.578125 
L 15.4375 61.46875 
z
M 6.640625 0 
L 6.640625 51.859375 
L 15.4375 51.859375 
L 15.4375 0 
z
" id="ArialMT-105"/>
      <path d="M 25.78125 7.859375 
L 27.046875 0.09375 
Q 23.34375 -0.6875 20.40625 -0.6875 
Q 15.625 -0.6875 12.984375 0.828125 
Q 10.359375 2.34375 9.28125 4.8125 
Q 8.203125 7.28125 8.203125 15.1875 
L 8.203125 45.015625 
L 1.765625 45.015625 
L 1.765625 51.859375 
L 8.203125 51.859375 
L 8.203125 64.703125 
L 16.9375 69.96875 
L 16.9375 51.859375 
L 25.78125 51.859375 
L 25.78125 45.015625 
L 16.9375 45.015625 
L 16.9375 14.703125 
Q 16.9375 10.9375 17.40625 9.859375 
Q 17.875 8.796875 18.921875 8.15625 
Q 19.96875 7.515625 21.921875 7.515625 
Q 23.390625 7.515625 25.78125 7.859375 
z
" id="ArialMT-116"/>
      <path d="M 3.078125 15.484375 
L 11.765625 16.84375 
Q 12.5 11.625 15.84375 8.84375 
Q 19.1875 6.0625 25.203125 6.0625 
Q 31.25 6.0625 34.171875 8.515625 
Q 37.109375 10.984375 37.109375 14.3125 
Q 37.109375 17.28125 34.515625 19 
Q 32.71875 20.171875 25.53125 21.96875 
Q 15.875 24.421875 12.140625 26.203125 
Q 8.40625 27.984375 6.46875 31.125 
Q 4.546875 34.28125 4.546875 38.09375 
Q 4.546875 41.546875 6.125 44.5 
Q 7.71875 47.46875 10.453125 49.421875 
Q 12.5 50.921875 16.03125 51.96875 
Q 19.578125 53.03125 23.640625 53.03125 
Q 29.734375 53.03125 34.34375 51.265625 
Q 38.96875 49.515625 41.15625 46.5 
Q 43.359375 43.5 44.1875 38.484375 
L 35.59375 37.3125 
Q 35.015625 41.3125 32.203125 43.546875 
Q 29.390625 45.796875 24.265625 45.796875 
Q 18.21875 45.796875 15.625 43.796875 
Q 13.03125 41.796875 13.03125 39.109375 
Q 13.03125 37.40625 14.109375 36.03125 
Q 15.1875 34.625 17.484375 33.6875 
Q 18.796875 33.203125 25.25 31.453125 
Q 34.578125 28.953125 38.25 27.359375 
Q 41.9375 25.78125 44.03125 22.75 
Q 46.140625 19.734375 46.140625 15.234375 
Q 46.140625 10.84375 43.578125 6.953125 
Q 41.015625 3.078125 36.171875 0.953125 
Q 31.34375 -1.171875 25.25 -1.171875 
Q 15.140625 -1.171875 9.84375 3.03125 
Q 4.546875 7.234375 3.078125 15.484375 
z
" id="ArialMT-115"/>
     </defs>
     <g style="fill:#262626;" transform="translate(37.213437 431.704875)rotate(-90)scale(0.204 -0.204)">
      <use xlink:href="#ArialMT-76"/>
      <use x="55.615234" xlink:href="#ArialMT-111"/>
      <use x="111.230469" xlink:href="#ArialMT-103"/>
      <use x="166.845703" xlink:href="#ArialMT-49"/>
      <use x="222.460938" xlink:href="#ArialMT-48"/>
      <use x="278.076172" xlink:href="#ArialMT-32"/>
      <use x="305.859375" xlink:href="#ArialMT-111"/>
      <use x="361.474609" xlink:href="#ArialMT-102"/>
      <use x="389.257812" xlink:href="#ArialMT-32"/>
      <use x="417.041016" xlink:href="#ArialMT-110"/>
      <use x="472.65625" xlink:href="#ArialMT-117"/>
      <use x="528.271484" xlink:href="#ArialMT-109"/>
      <use x="611.572266" xlink:href="#ArialMT-98"/>
      <use x="667.1875" xlink:href="#ArialMT-101"/>
      <use x="722.802734" xlink:href="#ArialMT-114"/>
      <use x="756.103516" xlink:href="#ArialMT-32"/>
      <use x="783.886719" xlink:href="#ArialMT-111"/>
      <use x="839.501953" xlink:href="#ArialMT-102"/>
      <use x="867.285156" xlink:href="#ArialMT-32"/>
      <use x="895.068359" xlink:href="#ArialMT-99"/>
      <use x="945.068359" xlink:href="#ArialMT-105"/>
      <use x="967.285156" xlink:href="#ArialMT-116"/>
      <use x="995.068359" xlink:href="#ArialMT-97"/>
      <use x="1050.683594" xlink:href="#ArialMT-116"/>
      <use x="1078.466797" xlink:href="#ArialMT-105"/>
      <use x="1100.683594" xlink:href="#ArialMT-111"/>
      <use x="1156.298828" xlink:href="#ArialMT-110"/>
      <use x="1211.914062" xlink:href="#ArialMT-115"/>
     </g>
    </g>
   </g>
   <g id="line2d_13">
    <path clip-path="url(#p5c135ebbf8)" d="M 96.136364 183.636014 
L 128.653846 178.429809 
L 161.171329 157.55553 
L 193.688811 161.024148 
L 226.206294 147.313976 
L 258.723776 149.217686 
L 291.241259 143.671249 
L 323.758741 155.334778 
L 356.276224 150.554975 
L 388.793706 176.106082 
L 421.311189 192.520625 
L 453.828671 208.183628 
L 486.346154 209.731857 
L 518.863636 227.915252 
" style="fill:none;stroke:#808080;stroke-linecap:round;stroke-opacity:0.4;"/>
   </g>
   <g id="line2d_14">
    <path clip-path="url(#p5c135ebbf8)" d="M 96.136364 153.847684 
L 128.653846 193.02163 
L 161.171329 177.497176 
L 193.688811 147.199162 
L 226.206294 157.374576 
L 258.723776 161.39268 
L 291.241259 163.493552 
L 323.758741 160.96279 
L 356.276224 161.269763 
L 388.793706 175.118153 
L 421.311189 199.647844 
L 453.828671 209.343709 
L 486.346154 223.38298 
L 518.863636 237.112259 
" style="fill:none;stroke:#808080;stroke-linecap:round;stroke-opacity:0.4;"/>
   </g>
   <g id="line2d_15">
    <path clip-path="url(#p5c135ebbf8)" d="M 96.136364 177.763213 
L 128.653846 172.247216 
L 161.171329 166.93796 
L 193.688811 153.906963 
L 226.206294 146.397249 
L 258.723776 148.696748 
L 291.241259 139.151232 
L 323.758741 137.556723 
L 356.276224 148.870248 
L 388.793706 147.716329 
L 421.311189 178.630208 
L 453.828671 185.285947 
L 486.346154 188.415579 
L 518.863636 200.984109 
" style="fill:none;stroke:#808080;stroke-linecap:round;stroke-opacity:0.4;"/>
   </g>
   <g id="line2d_16">
    <path clip-path="url(#p5c135ebbf8)" d="M 96.136364 284.923994 
L 128.653846 290.939284 
L 161.171329 269.517917 
L 193.688811 263.582991 
L 226.206294 243.235614 
L 258.723776 256.250503 
L 291.241259 247.390085 
L 323.758741 255.861477 
L 356.276224 254.409129 
L 388.793706 257.912091 
L 421.311189 302.911731 
L 453.828671 310.874254 
L 486.346154 320.082713 
L 518.863636 342.624138 
" style="fill:none;stroke:#808080;stroke-linecap:round;stroke-opacity:0.4;"/>
   </g>
   <g id="line2d_17">
    <path clip-path="url(#p5c135ebbf8)" d="M 96.136364 284.923994 
L 128.653846 290.939284 
L 161.171329 269.517917 
L 193.688811 263.582991 
L 226.206294 243.235614 
L 258.723776 256.250503 
L 291.241259 247.390085 
L 323.758741 255.861477 
L 356.276224 254.409129 
L 388.793706 257.912091 
L 421.311189 302.911731 
L 453.828671 310.874254 
L 486.346154 320.082713 
L 518.863636 342.624138 
" style="fill:none;stroke:#0000ff;stroke-linecap:round;stroke-opacity:0.7;stroke-width:4;"/>
   </g>
   <g id="line2d_18">
    <path clip-path="url(#p5c135ebbf8)" d="M 96.136364 152.488958 
L 128.653846 147.141779 
L 161.171329 134.026953 
L 193.688811 128.974284 
L 226.206294 123.734799 
L 258.723776 123.121035 
L 291.241259 138.434929 
L 323.758741 134.674075 
L 356.276224 141.650121 
L 388.793706 163.928751 
L 421.311189 182.747778 
L 453.828671 198.173183 
L 486.346154 204.36312 
L 518.863636 218.218139 
" style="fill:none;stroke:#808080;stroke-linecap:round;stroke-opacity:0.4;"/>
   </g>
   <g id="line2d_19">
    <path clip-path="url(#p5c135ebbf8)" d="M 96.136364 438.884129 
L 128.653846 425.417443 
L 161.171329 427.638971 
L 193.688811 392.785059 
L 226.206294 376.12095 
L 258.723776 382.841648 
L 291.241259 343.5137 
L 323.758741 327.647149 
L 356.276224 343.06844 
L 388.793706 375.77322 
L 421.311189 386.65181 
L 453.828671 385.192013 
L 486.346154 388.30652 
L 518.863636 394.489889 
" style="fill:none;stroke:#808080;stroke-linecap:round;stroke-opacity:0.4;"/>
   </g>
   <g id="line2d_20">
    <path clip-path="url(#p5c135ebbf8)" d="M 96.136364 438.884129 
L 128.653846 425.417443 
L 161.171329 427.638971 
L 193.688811 392.785059 
L 226.206294 376.12095 
L 258.723776 382.841648 
L 291.241259 343.5137 
L 323.758741 327.647149 
L 356.276224 343.06844 
L 388.793706 375.77322 
L 421.311189 386.65181 
L 453.828671 385.192013 
L 486.346154 388.30652 
L 518.863636 394.489889 
" style="fill:none;stroke:#0000ff;stroke-linecap:round;stroke-opacity:0.7;stroke-width:4;"/>
   </g>
   <g id="line2d_21">
    <path clip-path="url(#p5c135ebbf8)" d="M 96.136364 342.03322 
L 128.653846 338.37783 
L 161.171329 316.923806 
L 193.688811 314.844414 
L 226.206294 287.286482 
L 258.723776 309.106011 
L 291.241259 301.573584 
L 323.758741 283.91972 
L 356.276224 284.253935 
L 388.793706 292.325927 
L 421.311189 303.522859 
L 453.828671 317.577936 
L 486.346154 320.880053 
L 518.863636 329.027609 
" style="fill:none;stroke:#808080;stroke-linecap:round;stroke-opacity:0.4;"/>
   </g>
   <g id="line2d_22">
    <path clip-path="url(#p5c135ebbf8)" d="M 96.136364 174.396666 
L 128.653846 151.724921 
L 161.171329 144.802709 
L 193.688811 140.925107 
L 226.206294 127.560552 
L 258.723776 136.464196 
L 291.241259 131.72462 
L 323.758741 136.300815 
L 356.276224 163.928751 
L 388.793706 173.351712 
L 421.311189 195.182675 
L 453.828671 198.099726 
L 486.346154 204.817865 
L 518.863636 228.339986 
" style="fill:none;stroke:#808080;stroke-linecap:round;stroke-opacity:0.4;"/>
   </g>
   <g id="line2d_23">
    <path clip-path="url(#p5c135ebbf8)" d="M 96.136364 197.879511 
L 128.653846 192.306281 
L 161.171329 177.43072 
L 193.688811 177.032435 
L 226.206294 167.380492 
L 258.723776 172.182429 
L 291.241259 174.462152 
L 323.758741 174.527658 
L 356.276224 182.952417 
L 388.793706 190.457896 
L 421.311189 217.329448 
L 453.828671 225.972658 
L 486.346154 235.52133 
L 518.863636 248.137494 
" style="fill:none;stroke:#808080;stroke-linecap:round;stroke-opacity:0.4;"/>
   </g>
   <g id="line2d_24">
    <path clip-path="url(#p5c135ebbf8)" d="M 96.136364 196.636046 
L 128.653846 198.835477 
L 161.171329 182.67961 
L 193.688811 171.019734 
L 226.206294 166.055733 
L 258.723776 168.586456 
L 291.241259 168.45918 
L 323.758741 170.184064 
L 356.276224 177.89636 
L 388.793706 190.953912 
L 421.311189 214.209118 
L 453.828671 219.599142 
L 486.346154 229.448401 
L 518.863636 238.26894 
" style="fill:none;stroke:#808080;stroke-linecap:round;stroke-opacity:0.4;"/>
   </g>
   <g id="line2d_25">
    <path clip-path="url(#p5c135ebbf8)" d="M 96.136364 266.52912 
L 128.653846 252.679695 
L 161.171329 229.961992 
L 193.688811 242.414662 
L 226.206294 219.110673 
L 258.723776 213.733227 
L 291.241259 210.432367 
L 323.758741 209.965096 
L 356.276224 218.542251 
L 388.793706 226.05674 
L 421.311189 248.512215 
L 453.828671 262.878113 
L 486.346154 267.863576 
L 518.863636 265.610296 
" style="fill:none;stroke:#808080;stroke-linecap:round;stroke-opacity:0.4;"/>
   </g>
   <g id="line2d_26">
    <path clip-path="url(#p5c135ebbf8)" d="M 96.136364 230.305098 
L 128.653846 239.073533 
L 161.171329 209.188655 
L 193.688811 181.795472 
L 226.206294 176.106082 
L 258.723776 183.704499 
L 291.241259 160.533793 
L 323.758741 165.930008 
L 356.276224 174.527658 
L 388.793706 188.275472 
L 421.311189 218.218139 
L 453.828671 202.704246 
L 486.346154 221.400151 
L 518.863636 233.767896 
" style="fill:none;stroke:#808080;stroke-linecap:round;stroke-opacity:0.4;"/>
   </g>
   <g id="line2d_27">
    <path clip-path="url(#p5c135ebbf8)" d="M 96.136364 345.754524 
L 128.653846 348.171863 
L 161.171329 328.198225 
L 193.688811 320.880053 
L 226.206294 292.210017 
L 258.723776 294.657906 
L 291.241259 282.920309 
L 323.758741 281.375226 
L 356.276224 280.169296 
L 388.793706 291.400464 
L 421.311189 304.627471 
L 453.828671 316.141576 
L 486.346154 333.649771 
L 518.863636 343.5137 
" style="fill:none;stroke:#808080;stroke-linecap:round;stroke-opacity:0.4;"/>
   </g>
   <g id="line2d_28">
    <path clip-path="url(#p5c135ebbf8)" d="M 96.136364 208.569598 
L 128.653846 173.612455 
L 161.171329 173.221464 
L 193.688811 161.823468 
L 226.206294 171.342048 
L 258.723776 133.167268 
L 291.241259 164.801914 
L 323.758741 169.927614 
L 356.276224 178.296317 
L 388.793706 190.104327 
L 421.311189 195.182675 
L 453.828671 205.959128 
L 486.346154 213.416575 
L 518.863636 215.723386 
" style="fill:none;stroke:#808080;stroke-linecap:round;stroke-opacity:0.4;"/>
   </g>
   <g id="line2d_29">
    <path clip-path="url(#p5c135ebbf8)" d="M 96.136364 171.535679 
L 128.653846 161.269763 
L 161.171329 143.38935 
L 193.688811 143.784116 
L 226.206294 141.705997 
L 258.723776 125.019367 
L 291.241259 144.292784 
L 323.758741 146.282944 
L 356.276224 151.900986 
L 388.793706 161.454166 
L 421.311189 184.596871 
L 453.828671 203.75835 
L 486.346154 206.723491 
L 518.863636 230.476864 
" style="fill:none;stroke:#808080;stroke-linecap:round;stroke-opacity:0.4;"/>
   </g>
   <g id="line2d_30">
    <path clip-path="url(#p5c135ebbf8)" d="M 96.136364 227.660831 
L 128.653846 221.482389 
L 161.171329 193.164997 
L 193.688811 187.227689 
L 226.206294 183.225584 
L 258.723776 184.596871 
L 291.241259 175.315361 
L 323.758741 186.462681 
L 356.276224 185.562222 
L 388.793706 193.164997 
L 421.311189 220.989448 
L 453.828671 229.619456 
L 486.346154 235.873811 
L 518.863636 244.979534 
" style="fill:none;stroke:#808080;stroke-linecap:round;stroke-opacity:0.4;"/>
   </g>
   <g id="line2d_31">
    <path clip-path="url(#p5c135ebbf8)" d="M 96.136364 266.52912 
L 128.653846 259.488255 
L 161.171329 243.509992 
L 193.688811 240.331391 
L 226.206294 229.277488 
L 258.723776 229.533911 
L 291.241259 235.697495 
L 323.758741 235.52133 
L 356.276224 239.79137 
L 388.793706 265.610296 
L 421.311189 285.371911 
L 453.828671 290.020004 
L 486.346154 301.573584 
L 518.863636 316.923806 
" style="fill:none;stroke:#808080;stroke-linecap:round;stroke-opacity:0.4;"/>
   </g>
   <g id="line2d_32">
    <path clip-path="url(#p5c135ebbf8)" d="M 96.136364 145.712366 
L 128.653846 127.717156 
L 161.171329 119.878104 
L 193.688811 106.73167 
L 226.206294 103.502195 
L 258.723776 103.409337 
L 291.241259 108.865407 
L 323.758741 99.364384 
L 356.276224 110.876997 
L 388.793706 125.019367 
L 421.311189 149.333628 
L 453.828671 155.394485 
L 486.346154 170.697922 
L 518.863636 179.500861 
" style="fill:none;stroke:#808080;stroke-linecap:round;stroke-opacity:0.4;"/>
   </g>
   <g id="line2d_33">
    <path clip-path="url(#p5c135ebbf8)" d="M 96.136364 167.253958 
L 128.653846 174.921134 
L 161.171329 166.181535 
L 193.688811 174.462152 
L 226.206294 138.820322 
L 258.723776 170.248226 
L 291.241259 170.890949 
L 323.758741 160.595024 
L 356.276224 162.811515 
L 388.793706 180.577501 
L 421.311189 184.52809 
L 453.828671 213.812466 
L 486.346154 224.966344 
L 518.863636 237.201005 
" style="fill:none;stroke:#808080;stroke-linecap:round;stroke-opacity:0.4;"/>
   </g>
   <g id="line2d_34">
    <path clip-path="url(#p5c135ebbf8)" d="M 96.136364 193.523853 
L 128.653846 179.433757 
L 161.171329 158.644598 
L 193.688811 153.847684 
L 226.206294 141.873716 
L 258.723776 129.922181 
L 291.241259 133.704151 
L 323.758741 131.086666 
L 356.276224 142.041571 
L 388.793706 153.492371 
L 421.311189 181.931247 
L 453.828671 194.17137 
L 486.346154 196.854938 
L 518.863636 217.007234 
" style="fill:none;stroke:#808080;stroke-linecap:round;stroke-opacity:0.4;"/>
   </g>
   <g id="line2d_35">
    <path clip-path="url(#p5c135ebbf8)" d="M 96.136364 345.604377 
L 128.653846 348.019947 
L 161.171329 322.215838 
L 193.688811 323.290725 
L 226.206294 304.25861 
L 258.723776 311.255142 
L 291.241259 326.686292 
L 323.758741 313.298504 
L 356.276224 318.760621 
L 388.793706 329.721317 
L 421.311189 350.157015 
L 453.828671 341.44399 
L 486.346154 367.932984 
L 518.863636 372.327766 
" style="fill:none;stroke:#808080;stroke-linecap:round;stroke-opacity:0.4;"/>
   </g>
   <g id="line2d_36">
    <path clip-path="url(#p5c135ebbf8)" d="M 96.136364 265.203238 
L 128.653846 256.055899 
L 161.171329 245.44092 
L 193.688811 195.110274 
L 226.206294 215.9635 
L 258.723776 203.75835 
L 291.241259 188.205454 
L 323.758741 205.425753 
L 356.276224 192.735192 
L 388.793706 208.492346 
L 421.311189 229.362927 
L 453.828671 232.549296 
L 486.346154 248.043919 
L 518.863636 251.534738 
" style="fill:none;stroke:#808080;stroke-linecap:round;stroke-opacity:0.4;"/>
   </g>
   <g id="line2d_37">
    <path clip-path="url(#p5c135ebbf8)" d="M 96.136364 429.658999 
L 128.653846 411.739367 
L 161.171329 411.532679 
L 193.688811 394.299766 
L 226.206294 392.408113 
L 258.723776 406.230187 
L 291.241259 408.050288 
L 323.758741 387.201907 
L 356.276224 372.669734 
L 388.793706 390.533641 
L 421.311189 395.252135 
L 453.828671 404.425998 
L 486.346154 410.502332 
L 518.863636 439.120125 
" style="fill:none;stroke:#808080;stroke-linecap:round;stroke-opacity:0.4;"/>
   </g>
   <g id="line2d_38">
    <path clip-path="url(#p5c135ebbf8)" d="M 96.136364 256.250503 
L 128.653846 259.587166 
L 161.171329 228.510124 
L 193.688811 249.452007 
L 226.206294 216.284087 
L 258.723776 206.723491 
L 291.241259 196.271743 
L 323.758741 190.245682 
L 356.276224 197.95289 
L 388.793706 190.882979 
L 421.311189 216.524855 
L 453.828671 222.554485 
L 486.346154 221.976511 
L 518.863636 218.948107 
" style="fill:none;stroke:#808080;stroke-linecap:round;stroke-opacity:0.4;"/>
   </g>
   <g id="line2d_39">
    <path clip-path="url(#p5c135ebbf8)" d="M 96.136364 300.847327 
L 128.653846 304.750572 
L 161.171329 277.562382 
L 193.688811 268.79251 
L 226.206294 238.001438 
L 258.723776 244.427229 
L 291.241259 238.26894 
L 323.758741 240.241289 
L 356.276224 245.90334 
L 388.793706 261.77529 
L 421.311189 295.12748 
L 453.828671 304.504444 
L 486.346154 306.605945 
L 518.863636 303.767818 
" style="fill:none;stroke:#808080;stroke-linecap:round;stroke-opacity:0.4;"/>
   </g>
   <g id="line2d_40">
    <path clip-path="url(#p5c135ebbf8)" d="M 96.136364 241.869169 
L 128.653846 231.424146 
L 161.171329 216.765904 
L 193.688811 205.121585 
L 226.206294 198.982942 
L 258.723776 200.537725 
L 291.241259 195.037899 
L 323.758741 195.182675 
L 356.276224 199.130513 
L 388.793706 209.809574 
L 421.311189 228.936085 
L 453.828671 237.734282 
L 486.346154 246.459615 
L 518.863636 257.81398 
" style="fill:none;stroke:#808080;stroke-linecap:round;stroke-opacity:0.4;"/>
   </g>
   <g id="line2d_41">
    <path clip-path="url(#p5c135ebbf8)" d="M 96.136364 142.939112 
L 128.653846 142.658211 
L 161.171329 135.865762 
L 193.688811 126.779309 
L 226.206294 119.476297 
L 258.723776 111.6002 
L 291.241259 122.916852 
L 323.758741 110.348254 
L 356.276224 127.560552 
L 388.793706 137.666295 
L 421.311189 163.245277 
L 453.828671 172.896204 
L 486.346154 183.157258 
L 518.863636 192.234882 
" style="fill:none;stroke:#808080;stroke-linecap:round;stroke-opacity:0.4;"/>
   </g>
   <g id="line2d_42">
    <path clip-path="url(#p5c135ebbf8)" d="M 96.136364 128.397149 
L 128.653846 100.551254 
L 161.171329 103.54864 
L 193.688811 103.781022 
L 226.206294 93 
L 258.723776 97.732213 
L 291.241259 96.112848 
L 323.758741 101.330992 
L 356.276224 99.911322 
L 388.793706 112.616961 
L 421.311189 140.646932 
L 453.828671 154.560152 
L 486.346154 158.644598 
L 518.863636 166.622446 
" style="fill:none;stroke:#808080;stroke-linecap:round;stroke-opacity:0.4;"/>
   </g>
   <g id="line2d_43">
    <path clip-path="url(#p5c135ebbf8)" d="M 96.136364 291.169745 
L 128.653846 287.286482 
L 161.171329 280.935891 
L 193.688811 265.101599 
L 226.206294 249.829125 
L 258.723776 251.725123 
L 291.241259 241.234578 
L 323.758741 242.141735 
L 356.276224 249.64048 
L 388.793706 264.898472 
L 421.311189 290.020004 
L 453.828671 307.977232 
L 486.346154 308.729065 
L 518.863636 318.234146 
" style="fill:none;stroke:#808080;stroke-linecap:round;stroke-opacity:0.4;"/>
   </g>
   <g id="line2d_44">
    <path clip-path="url(#p5c135ebbf8)" d="M 96.136364 354.342066 
L 128.653846 333.791465 
L 161.171329 318.234146 
L 193.688811 315.103195 
L 226.206294 276.271171 
L 258.723776 284.812166 
L 291.241259 280.607001 
L 323.758741 285.259841 
L 356.276224 279.187841 
L 388.793706 288.762644 
L 421.311189 316.271742 
L 453.828671 309.988238 
L 486.346154 330.277967 
L 518.863636 352.782135 
" style="fill:none;stroke:#808080;stroke-linecap:round;stroke-opacity:0.4;"/>
   </g>
   <g id="line2d_45">
    <path clip-path="url(#p5c135ebbf8)" d="M 96.136364 513 
L 128.653846 511.989167 
L 161.171329 511.318019 
L 193.688811 453.291276 
L 226.206294 468.235633 
L 258.723776 494.284184 
L 291.241259 463.398429 
L 323.758741 444.381492 
L 356.276224 433.989562 
L 388.793706 439.35639 
L 421.311189 440.779692 
L 453.828671 431.926911 
L 486.346154 438.177758 
L 518.863636 479.122186 
" style="fill:none;stroke:#808080;stroke-linecap:round;stroke-opacity:0.4;"/>
   </g>
   <g id="line2d_46">
    <path clip-path="url(#p5c135ebbf8)" d="M 96.136364 172.571455 
L 128.653846 164.115547 
L 161.171329 151.842281 
L 193.688811 145.484575 
L 226.206294 131.458566 
L 258.723776 137.556723 
L 291.241259 132.417969 
L 323.758741 140.313616 
L 356.276224 144.916197 
L 388.793706 161.454166 
L 421.311189 186.740538 
L 453.828671 198.614476 
L 486.346154 211.370095 
L 518.863636 221.564661 
" style="fill:none;stroke:#808080;stroke-linecap:round;stroke-opacity:0.4;"/>
   </g>
   <g id="line2d_47">
    <path clip-path="url(#p5c135ebbf8)" d="M 96.136364 138.600009 
L 128.653846 131.299098 
L 161.171329 117.379551 
L 193.688811 112.956998 
L 226.206294 102.067563 
L 258.723776 103.920576 
L 291.241259 110.780761 
L 323.758741 119.52648 
L 356.276224 130.980532 
L 388.793706 153.137668 
L 421.311189 176.502582 
L 453.828671 189.892476 
L 486.346154 200.092305 
L 518.863636 215.164204 
" style="fill:none;stroke:#808080;stroke-linecap:round;stroke-opacity:0.4;"/>
   </g>
   <g id="line2d_48">
    <path clip-path="url(#p5c135ebbf8)" d="M 96.136364 138.600009 
L 128.653846 131.299098 
L 161.171329 117.379551 
L 193.688811 112.956998 
L 226.206294 102.067563 
L 258.723776 103.920576 
L 291.241259 110.780761 
L 323.758741 119.52648 
L 356.276224 130.980532 
L 388.793706 153.137668 
L 421.311189 176.502582 
L 453.828671 189.892476 
L 486.346154 200.092305 
L 518.863636 215.164204 
" style="fill:none;stroke:#0000ff;stroke-linecap:round;stroke-opacity:0.7;stroke-width:4;"/>
   </g>
   <g id="line2d_49">
    <path clip-path="url(#p5c135ebbf8)" d="M 96.136364 290.82415 
L 128.653846 252.297336 
L 161.171329 236.226896 
L 193.688811 258.01025 
L 226.206294 240.241289 
L 258.723776 246.552473 
L 291.241259 239.252758 
L 323.758741 226.393409 
L 356.276224 220.007084 
L 388.793706 238.62615 
L 421.311189 250.017943 
L 453.828671 266.324583 
L 486.346154 269.103087 
L 518.863636 288.534854 
" style="fill:none;stroke:#808080;stroke-linecap:round;stroke-opacity:0.4;"/>
   </g>
   <g id="line2d_50">
    <path clip-path="url(#p5c135ebbf8)" d="M 96.136364 144.745989 
L 128.653846 139.206436 
L 161.171329 119.576676 
L 193.688811 112.325947 
L 226.206294 99.546536 
L 258.723776 96.875965 
L 291.241259 112.132165 
L 323.758741 99.774452 
L 356.276224 105.978293 
L 388.793706 116.734852 
L 421.311189 139.648595 
L 453.828671 152.253568 
L 486.346154 161.638734 
L 518.863636 169.351765 
" style="fill:none;stroke:#808080;stroke-linecap:round;stroke-opacity:0.4;"/>
   </g>
   <g id="line2d_51">
    <path clip-path="url(#p5c135ebbf8)" d="M 96.136364 293.605253 
L 128.653846 293.72195 
L 161.171329 268.689089 
L 193.688811 264.189094 
L 226.206294 248.324769 
L 258.723776 241.234578 
L 291.241259 234.467483 
L 323.758741 214.845351 
L 356.276224 225.050016 
L 388.793706 243.418492 
L 421.311189 265.406667 
L 453.828671 276.593217 
L 486.346154 291.169745 
L 518.863636 308.227539 
" style="fill:none;stroke:#808080;stroke-linecap:round;stroke-opacity:0.4;"/>
   </g>
   <g id="line2d_52">
    <path clip-path="url(#p5c135ebbf8)" d="M 96.136364 287.966475 
L 128.653846 269.103087 
L 161.171329 263.280606 
L 193.688811 254.312668 
L 226.206294 235.081573 
L 258.723776 255.08562 
L 291.241259 262.878113 
L 323.758741 267.246601 
L 356.276224 259.290575 
L 388.793706 279.841625 
L 421.311189 306.481733 
L 453.828671 317.577936 
L 486.346154 317.054466 
L 518.863636 340.856436 
" style="fill:none;stroke:#808080;stroke-linecap:round;stroke-opacity:0.4;"/>
   </g>
   <g id="line2d_53">
    <path clip-path="url(#p5c135ebbf8)" d="M 96.136364 284.14247 
L 128.653846 277.454472 
L 161.171329 251.725123 
L 193.688811 214.050366 
L 226.206294 227.745603 
L 258.723776 239.521889 
L 291.241259 249.923513 
L 323.758741 236.846251 
L 356.276224 218.623358 
L 388.793706 221.811672 
L 421.311189 259.587166 
L 453.828671 267.143951 
L 486.346154 264.695543 
L 518.863636 290.24944 
" style="fill:none;stroke:#808080;stroke-linecap:round;stroke-opacity:0.4;"/>
   </g>
   <g id="patch_3">
    <path d="M 75 534 
L 75 72 
" style="fill:none;"/>
   </g>
   <g id="patch_4">
    <path d="M 540 534 
L 540 72 
" style="fill:none;"/>
   </g>
   <g id="patch_5">
    <path d="M 75 534 
L 540 534 
" style="fill:none;"/>
   </g>
   <g id="patch_6">
    <path d="M 75 72 
L 540 72 
" style="fill:none;"/>
   </g>
   <g id="text_15">
    <!-- Belgium -->
    <defs>
     <path d="M 7.328125 0 
L 7.328125 71.578125 
L 34.1875 71.578125 
Q 42.390625 71.578125 47.34375 69.40625 
Q 52.296875 67.234375 55.09375 62.71875 
Q 57.90625 58.203125 57.90625 53.265625 
Q 57.90625 48.6875 55.421875 44.625 
Q 52.9375 40.578125 47.90625 38.09375 
Q 54.390625 36.1875 57.875 31.59375 
Q 61.375 27 61.375 20.75 
Q 61.375 15.71875 59.25 11.390625 
Q 57.125 7.078125 54 4.734375 
Q 50.875 2.390625 46.15625 1.1875 
Q 41.453125 0 34.625 0 
z
M 16.796875 41.5 
L 32.28125 41.5 
Q 38.578125 41.5 41.3125 42.328125 
Q 44.921875 43.40625 46.75 45.890625 
Q 48.578125 48.390625 48.578125 52.15625 
Q 48.578125 55.71875 46.875 58.421875 
Q 45.171875 61.140625 41.984375 62.140625 
Q 38.8125 63.140625 31.109375 63.140625 
L 16.796875 63.140625 
z
M 16.796875 8.453125 
L 34.625 8.453125 
Q 39.203125 8.453125 41.0625 8.796875 
Q 44.34375 9.375 46.53125 10.734375 
Q 48.734375 12.109375 50.140625 14.71875 
Q 51.5625 17.328125 51.5625 20.75 
Q 51.5625 24.75 49.515625 27.703125 
Q 47.46875 30.671875 43.828125 31.859375 
Q 40.1875 33.0625 33.34375 33.0625 
L 16.796875 33.0625 
z
" id="ArialMT-66"/>
     <path d="M 6.390625 0 
L 6.390625 71.578125 
L 15.1875 71.578125 
L 15.1875 0 
z
" id="ArialMT-108"/>
    </defs>
    <g style="fill:#808080;" transform="translate(518.863636 200.984109)scale(0.05 -0.05)">
     <use xlink:href="#ArialMT-66"/>
     <use x="66.699219" xlink:href="#ArialMT-101"/>
     <use x="122.314453" xlink:href="#ArialMT-108"/>
     <use x="144.53125" xlink:href="#ArialMT-103"/>
     <use x="200.146484" xlink:href="#ArialMT-105"/>
     <use x="222.363281" xlink:href="#ArialMT-117"/>
     <use x="277.978516" xlink:href="#ArialMT-109"/>
    </g>
   </g>
   <g id="text_16">
    <!-- Brazil -->
    <defs>
     <path d="M 1.953125 0 
L 1.953125 7.125 
L 34.96875 45.015625 
Q 29.34375 44.734375 25.046875 44.734375 
L 3.90625 44.734375 
L 3.90625 51.859375 
L 46.296875 51.859375 
L 46.296875 46.046875 
L 18.21875 13.140625 
L 12.796875 7.125 
Q 18.703125 7.5625 23.875 7.5625 
L 47.859375 7.5625 
L 47.859375 0 
z
" id="ArialMT-122"/>
    </defs>
    <g style="fill:#0000ff;" transform="translate(421.311189 342.624138)scale(0.15 -0.15)">
     <use xlink:href="#ArialMT-66"/>
     <use x="66.699219" xlink:href="#ArialMT-114"/>
     <use x="100" xlink:href="#ArialMT-97"/>
     <use x="155.615234" xlink:href="#ArialMT-122"/>
     <use x="205.615234" xlink:href="#ArialMT-105"/>
     <use x="227.832031" xlink:href="#ArialMT-108"/>
    </g>
   </g>
   <g id="text_17">
    <!-- China -->
    <defs>
     <path d="M 58.796875 25.09375 
L 68.265625 22.703125 
Q 65.28125 11.03125 57.546875 4.90625 
Q 49.8125 -1.21875 38.625 -1.21875 
Q 27.046875 -1.21875 19.796875 3.484375 
Q 12.546875 8.203125 8.765625 17.140625 
Q 4.984375 26.078125 4.984375 36.328125 
Q 4.984375 47.515625 9.25 55.828125 
Q 13.53125 64.15625 21.40625 68.46875 
Q 29.296875 72.796875 38.765625 72.796875 
Q 49.515625 72.796875 56.828125 67.328125 
Q 64.15625 61.859375 67.046875 51.953125 
L 57.71875 49.75 
Q 55.21875 57.5625 50.484375 61.125 
Q 45.75 64.703125 38.578125 64.703125 
Q 30.328125 64.703125 24.78125 60.734375 
Q 19.234375 56.78125 16.984375 50.109375 
Q 14.75 43.453125 14.75 36.375 
Q 14.75 27.25 17.40625 20.4375 
Q 20.0625 13.625 25.671875 10.25 
Q 31.296875 6.890625 37.84375 6.890625 
Q 45.796875 6.890625 51.3125 11.46875 
Q 56.84375 16.0625 58.796875 25.09375 
z
" id="ArialMT-67"/>
     <path d="M 6.59375 0 
L 6.59375 71.578125 
L 15.375 71.578125 
L 15.375 45.90625 
Q 21.53125 53.03125 30.90625 53.03125 
Q 36.671875 53.03125 40.921875 50.75 
Q 45.171875 48.484375 47 44.484375 
Q 48.828125 40.484375 48.828125 32.859375 
L 48.828125 0 
L 40.046875 0 
L 40.046875 32.859375 
Q 40.046875 39.453125 37.1875 42.453125 
Q 34.328125 45.453125 29.109375 45.453125 
Q 25.203125 45.453125 21.75 43.421875 
Q 18.3125 41.40625 16.84375 37.9375 
Q 15.375 34.46875 15.375 28.375 
L 15.375 0 
z
" id="ArialMT-104"/>
    </defs>
    <g style="fill:#0000ff;" transform="translate(518.863636 394.489889)scale(0.15 -0.15)">
     <use xlink:href="#ArialMT-67"/>
     <use x="72.216797" xlink:href="#ArialMT-104"/>
     <use x="127.832031" xlink:href="#ArialMT-105"/>
     <use x="150.048828" xlink:href="#ArialMT-110"/>
     <use x="205.664062" xlink:href="#ArialMT-97"/>
    </g>
   </g>
   <g id="text_18">
    <!-- Finland -->
    <defs>
     <path d="M 8.203125 0 
L 8.203125 71.578125 
L 56.5 71.578125 
L 56.5 63.140625 
L 17.671875 63.140625 
L 17.671875 40.96875 
L 51.265625 40.96875 
L 51.265625 32.515625 
L 17.671875 32.515625 
L 17.671875 0 
z
" id="ArialMT-70"/>
     <path d="M 40.234375 0 
L 40.234375 6.546875 
Q 35.296875 -1.171875 25.734375 -1.171875 
Q 19.53125 -1.171875 14.328125 2.25 
Q 9.125 5.671875 6.265625 11.796875 
Q 3.421875 17.921875 3.421875 25.875 
Q 3.421875 33.640625 6 39.96875 
Q 8.59375 46.296875 13.765625 49.65625 
Q 18.953125 53.03125 25.34375 53.03125 
Q 30.03125 53.03125 33.6875 51.046875 
Q 37.359375 49.078125 39.65625 45.90625 
L 39.65625 71.578125 
L 48.390625 71.578125 
L 48.390625 0 
z
M 12.453125 25.875 
Q 12.453125 15.921875 16.640625 10.984375 
Q 20.84375 6.0625 26.5625 6.0625 
Q 32.328125 6.0625 36.34375 10.765625 
Q 40.375 15.484375 40.375 25.140625 
Q 40.375 35.796875 36.265625 40.765625 
Q 32.171875 45.75 26.171875 45.75 
Q 20.3125 45.75 16.375 40.96875 
Q 12.453125 36.1875 12.453125 25.875 
z
" id="ArialMT-100"/>
    </defs>
    <g style="fill:#808080;" transform="translate(518.863636 228.339986)scale(0.05 -0.05)">
     <use xlink:href="#ArialMT-70"/>
     <use x="61.083984" xlink:href="#ArialMT-105"/>
     <use x="83.300781" xlink:href="#ArialMT-110"/>
     <use x="138.916016" xlink:href="#ArialMT-108"/>
     <use x="161.132812" xlink:href="#ArialMT-97"/>
     <use x="216.748047" xlink:href="#ArialMT-110"/>
     <use x="272.363281" xlink:href="#ArialMT-100"/>
    </g>
   </g>
   <g id="text_19">
    <!-- France -->
    <g style="fill:#808080;" transform="translate(518.863636 248.137494)scale(0.05 -0.05)">
     <use xlink:href="#ArialMT-70"/>
     <use x="61.083984" xlink:href="#ArialMT-114"/>
     <use x="94.384766" xlink:href="#ArialMT-97"/>
     <use x="150" xlink:href="#ArialMT-110"/>
     <use x="205.615234" xlink:href="#ArialMT-99"/>
     <use x="255.615234" xlink:href="#ArialMT-101"/>
    </g>
   </g>
   <g id="text_20">
    <!-- Germany -->
    <defs>
     <path d="M 41.21875 28.078125 
L 41.21875 36.46875 
L 71.53125 36.53125 
L 71.53125 9.96875 
Q 64.546875 4.390625 57.125 1.578125 
Q 49.703125 -1.21875 41.890625 -1.21875 
Q 31.34375 -1.21875 22.71875 3.296875 
Q 14.109375 7.8125 9.71875 16.359375 
Q 5.328125 24.90625 5.328125 35.453125 
Q 5.328125 45.90625 9.6875 54.953125 
Q 14.0625 64.015625 22.265625 68.40625 
Q 30.46875 72.796875 41.15625 72.796875 
Q 48.921875 72.796875 55.1875 70.28125 
Q 61.46875 67.78125 65.03125 63.28125 
Q 68.609375 58.796875 70.453125 51.5625 
L 61.921875 49.21875 
Q 60.296875 54.6875 57.90625 57.8125 
Q 55.515625 60.9375 51.0625 62.8125 
Q 46.625 64.703125 41.21875 64.703125 
Q 34.71875 64.703125 29.984375 62.71875 
Q 25.25 60.75 22.34375 57.515625 
Q 19.4375 54.296875 17.828125 50.4375 
Q 15.09375 43.796875 15.09375 36.03125 
Q 15.09375 26.46875 18.390625 20.015625 
Q 21.6875 13.578125 27.984375 10.453125 
Q 34.28125 7.328125 41.359375 7.328125 
Q 47.515625 7.328125 53.375 9.6875 
Q 59.234375 12.0625 62.25 14.75 
L 62.25 28.078125 
z
" id="ArialMT-71"/>
     <path d="M 6.203125 -19.96875 
L 5.21875 -11.71875 
Q 8.109375 -12.5 10.25 -12.5 
Q 13.1875 -12.5 14.9375 -11.515625 
Q 16.703125 -10.546875 17.828125 -8.796875 
Q 18.65625 -7.46875 20.515625 -2.25 
Q 20.75 -1.515625 21.296875 -0.09375 
L 1.609375 51.859375 
L 11.078125 51.859375 
L 21.875 21.828125 
Q 23.96875 16.109375 25.640625 9.8125 
Q 27.15625 15.875 29.25 21.625 
L 40.328125 51.859375 
L 49.125 51.859375 
L 29.390625 -0.875 
Q 26.21875 -9.421875 24.46875 -12.640625 
Q 22.125 -17 19.09375 -19.015625 
Q 16.0625 -21.046875 11.859375 -21.046875 
Q 9.328125 -21.046875 6.203125 -19.96875 
z
" id="ArialMT-121"/>
    </defs>
    <g style="fill:#808080;" transform="translate(518.863636 238.26894)scale(0.05 -0.05)">
     <use xlink:href="#ArialMT-71"/>
     <use x="77.783203" xlink:href="#ArialMT-101"/>
     <use x="133.398438" xlink:href="#ArialMT-114"/>
     <use x="166.699219" xlink:href="#ArialMT-109"/>
     <use x="250" xlink:href="#ArialMT-97"/>
     <use x="305.615234" xlink:href="#ArialMT-110"/>
     <use x="361.230469" xlink:href="#ArialMT-121"/>
    </g>
   </g>
   <g id="text_21">
    <!-- India -->
    <defs>
     <path d="M 9.328125 0 
L 9.328125 71.578125 
L 18.796875 71.578125 
L 18.796875 0 
z
" id="ArialMT-73"/>
    </defs>
    <g style="fill:#808080;" transform="translate(518.863636 343.5137)scale(0.05 -0.05)">
     <use xlink:href="#ArialMT-73"/>
     <use x="27.783203" xlink:href="#ArialMT-110"/>
     <use x="83.398438" xlink:href="#ArialMT-100"/>
     <use x="139.013672" xlink:href="#ArialMT-105"/>
     <use x="161.230469" xlink:href="#ArialMT-97"/>
    </g>
   </g>
   <g id="text_22">
    <!-- Japan -->
    <defs>
     <path d="M 2.875 20.3125 
L 11.421875 21.484375 
Q 11.765625 13.28125 14.5 10.25 
Q 17.234375 7.234375 22.078125 7.234375 
Q 25.640625 7.234375 28.21875 8.859375 
Q 30.8125 10.5 31.78125 13.296875 
Q 32.765625 16.109375 32.765625 22.265625 
L 32.765625 71.578125 
L 42.234375 71.578125 
L 42.234375 22.796875 
Q 42.234375 13.8125 40.0625 8.875 
Q 37.890625 3.953125 33.171875 1.359375 
Q 28.46875 -1.21875 22.125 -1.21875 
Q 12.703125 -1.21875 7.6875 4.203125 
Q 2.6875 9.625 2.875 20.3125 
z
" id="ArialMT-74"/>
     <path d="M 6.59375 -19.875 
L 6.59375 51.859375 
L 14.59375 51.859375 
L 14.59375 45.125 
Q 17.4375 49.078125 21 51.046875 
Q 24.5625 53.03125 29.640625 53.03125 
Q 36.28125 53.03125 41.359375 49.609375 
Q 46.4375 46.1875 49.015625 39.953125 
Q 51.609375 33.734375 51.609375 26.3125 
Q 51.609375 18.359375 48.75 11.984375 
Q 45.90625 5.609375 40.453125 2.21875 
Q 35.015625 -1.171875 29 -1.171875 
Q 24.609375 -1.171875 21.109375 0.6875 
Q 17.625 2.546875 15.375 5.375 
L 15.375 -19.875 
z
M 14.546875 25.640625 
Q 14.546875 15.625 18.59375 10.84375 
Q 22.65625 6.0625 28.421875 6.0625 
Q 34.28125 6.0625 38.453125 11.015625 
Q 42.625 15.96875 42.625 26.375 
Q 42.625 36.28125 38.546875 41.203125 
Q 34.46875 46.140625 28.8125 46.140625 
Q 23.1875 46.140625 18.859375 40.890625 
Q 14.546875 35.640625 14.546875 25.640625 
z
" id="ArialMT-112"/>
    </defs>
    <g style="fill:#808080;" transform="translate(518.863636 316.923806)scale(0.05 -0.05)">
     <use xlink:href="#ArialMT-74"/>
     <use x="50" xlink:href="#ArialMT-97"/>
     <use x="105.615234" xlink:href="#ArialMT-112"/>
     <use x="161.230469" xlink:href="#ArialMT-97"/>
     <use x="216.845703" xlink:href="#ArialMT-110"/>
    </g>
   </g>
   <g id="text_23">
    <!-- Netherlands -->
    <defs>
     <path d="M 7.625 0 
L 7.625 71.578125 
L 17.328125 71.578125 
L 54.9375 15.375 
L 54.9375 71.578125 
L 64.015625 71.578125 
L 64.015625 0 
L 54.296875 0 
L 16.703125 56.25 
L 16.703125 0 
z
" id="ArialMT-78"/>
    </defs>
    <g style="fill:#808080;" transform="translate(518.863636 179.500861)scale(0.05 -0.05)">
     <use xlink:href="#ArialMT-78"/>
     <use x="72.216797" xlink:href="#ArialMT-101"/>
     <use x="127.832031" xlink:href="#ArialMT-116"/>
     <use x="155.615234" xlink:href="#ArialMT-104"/>
     <use x="211.230469" xlink:href="#ArialMT-101"/>
     <use x="266.845703" xlink:href="#ArialMT-114"/>
     <use x="300.146484" xlink:href="#ArialMT-108"/>
     <use x="322.363281" xlink:href="#ArialMT-97"/>
     <use x="377.978516" xlink:href="#ArialMT-110"/>
     <use x="433.59375" xlink:href="#ArialMT-100"/>
     <use x="489.208984" xlink:href="#ArialMT-115"/>
    </g>
   </g>
   <g id="text_24">
    <!-- New Zealand -->
    <defs>
     <path d="M 16.15625 0 
L 0.296875 51.859375 
L 9.375 51.859375 
L 17.625 21.921875 
L 20.703125 10.796875 
Q 20.90625 11.625 23.390625 21.484375 
L 31.640625 51.859375 
L 40.671875 51.859375 
L 48.4375 21.78125 
L 51.03125 11.859375 
L 54 21.875 
L 62.890625 51.859375 
L 71.4375 51.859375 
L 55.21875 0 
L 46.09375 0 
L 37.84375 31.0625 
L 35.84375 39.890625 
L 25.34375 0 
z
" id="ArialMT-119"/>
     <path d="M 2 0 
L 2 8.796875 
L 38.671875 54.640625 
Q 42.578125 59.515625 46.09375 63.140625 
L 6.15625 63.140625 
L 6.15625 71.578125 
L 57.421875 71.578125 
L 57.421875 63.140625 
L 17.234375 13.484375 
L 12.890625 8.453125 
L 58.59375 8.453125 
L 58.59375 0 
z
" id="ArialMT-90"/>
    </defs>
    <g style="fill:#808080;" transform="translate(518.863636 237.201005)scale(0.05 -0.05)">
     <use xlink:href="#ArialMT-78"/>
     <use x="72.216797" xlink:href="#ArialMT-101"/>
     <use x="127.832031" xlink:href="#ArialMT-119"/>
     <use x="200.048828" xlink:href="#ArialMT-32"/>
     <use x="227.832031" xlink:href="#ArialMT-90"/>
     <use x="288.916016" xlink:href="#ArialMT-101"/>
     <use x="344.53125" xlink:href="#ArialMT-97"/>
     <use x="400.146484" xlink:href="#ArialMT-108"/>
     <use x="422.363281" xlink:href="#ArialMT-97"/>
     <use x="477.978516" xlink:href="#ArialMT-110"/>
     <use x="533.59375" xlink:href="#ArialMT-100"/>
    </g>
   </g>
   <g id="text_25">
    <!-- Norway -->
    <g style="fill:#808080;" transform="translate(518.863636 217.007234)scale(0.05 -0.05)">
     <use xlink:href="#ArialMT-78"/>
     <use x="72.216797" xlink:href="#ArialMT-111"/>
     <use x="127.832031" xlink:href="#ArialMT-114"/>
     <use x="161.132812" xlink:href="#ArialMT-119"/>
     <use x="233.349609" xlink:href="#ArialMT-97"/>
     <use x="288.964844" xlink:href="#ArialMT-121"/>
    </g>
   </g>
   <g id="text_26">
    <!-- Poland -->
    <defs>
     <path d="M 7.71875 0 
L 7.71875 71.578125 
L 34.71875 71.578125 
Q 41.84375 71.578125 45.609375 70.90625 
Q 50.875 70.015625 54.4375 67.546875 
Q 58.015625 65.09375 60.1875 60.640625 
Q 62.359375 56.203125 62.359375 50.875 
Q 62.359375 41.75 56.546875 35.421875 
Q 50.734375 29.109375 35.546875 29.109375 
L 17.1875 29.109375 
L 17.1875 0 
z
M 17.1875 37.546875 
L 35.6875 37.546875 
Q 44.875 37.546875 48.734375 40.96875 
Q 52.59375 44.390625 52.59375 50.59375 
Q 52.59375 55.078125 50.3125 58.265625 
Q 48.046875 61.46875 44.34375 62.5 
Q 41.9375 63.140625 35.5 63.140625 
L 17.1875 63.140625 
z
" id="ArialMT-80"/>
    </defs>
    <g style="fill:#808080;" transform="translate(518.863636 372.327766)scale(0.05 -0.05)">
     <use xlink:href="#ArialMT-80"/>
     <use x="66.699219" xlink:href="#ArialMT-111"/>
     <use x="122.314453" xlink:href="#ArialMT-108"/>
     <use x="144.53125" xlink:href="#ArialMT-97"/>
     <use x="200.146484" xlink:href="#ArialMT-110"/>
     <use x="255.761719" xlink:href="#ArialMT-100"/>
    </g>
   </g>
   <g id="text_27">
    <!-- Russian Federation -->
    <defs>
     <path d="M 7.859375 0 
L 7.859375 71.578125 
L 39.59375 71.578125 
Q 49.171875 71.578125 54.140625 69.640625 
Q 59.125 67.71875 62.109375 62.828125 
Q 65.09375 57.953125 65.09375 52.046875 
Q 65.09375 44.4375 60.15625 39.203125 
Q 55.21875 33.984375 44.921875 32.5625 
Q 48.6875 30.765625 50.640625 29 
Q 54.78125 25.203125 58.5 19.484375 
L 70.953125 0 
L 59.03125 0 
L 49.5625 14.890625 
Q 45.40625 21.34375 42.71875 24.75 
Q 40.046875 28.171875 37.921875 29.53125 
Q 35.796875 30.90625 33.59375 31.453125 
Q 31.984375 31.78125 28.328125 31.78125 
L 17.328125 31.78125 
L 17.328125 0 
z
M 17.328125 39.984375 
L 37.703125 39.984375 
Q 44.1875 39.984375 47.84375 41.328125 
Q 51.515625 42.671875 53.421875 45.625 
Q 55.328125 48.578125 55.328125 52.046875 
Q 55.328125 57.125 51.640625 60.390625 
Q 47.953125 63.671875 39.984375 63.671875 
L 17.328125 63.671875 
z
" id="ArialMT-82"/>
    </defs>
    <g style="fill:#808080;" transform="translate(518.863636 439.120125)scale(0.05 -0.05)">
     <use xlink:href="#ArialMT-82"/>
     <use x="72.216797" xlink:href="#ArialMT-117"/>
     <use x="127.832031" xlink:href="#ArialMT-115"/>
     <use x="177.832031" xlink:href="#ArialMT-115"/>
     <use x="227.832031" xlink:href="#ArialMT-105"/>
     <use x="250.048828" xlink:href="#ArialMT-97"/>
     <use x="305.664062" xlink:href="#ArialMT-110"/>
     <use x="361.279297" xlink:href="#ArialMT-32"/>
     <use x="389.0625" xlink:href="#ArialMT-70"/>
     <use x="450.146484" xlink:href="#ArialMT-101"/>
     <use x="505.761719" xlink:href="#ArialMT-100"/>
     <use x="561.376953" xlink:href="#ArialMT-101"/>
     <use x="616.992188" xlink:href="#ArialMT-114"/>
     <use x="650.292969" xlink:href="#ArialMT-97"/>
     <use x="705.908203" xlink:href="#ArialMT-116"/>
     <use x="733.691406" xlink:href="#ArialMT-105"/>
     <use x="755.908203" xlink:href="#ArialMT-111"/>
     <use x="811.523438" xlink:href="#ArialMT-110"/>
    </g>
   </g>
   <g id="text_28">
    <!-- South Korea -->
    <defs>
     <path d="M 4.5 23 
L 13.421875 23.78125 
Q 14.0625 18.40625 16.375 14.96875 
Q 18.703125 11.53125 23.578125 9.40625 
Q 28.46875 7.28125 34.578125 7.28125 
Q 39.984375 7.28125 44.140625 8.890625 
Q 48.296875 10.5 50.3125 13.296875 
Q 52.34375 16.109375 52.34375 19.4375 
Q 52.34375 22.796875 50.390625 25.3125 
Q 48.4375 27.828125 43.953125 29.546875 
Q 41.0625 30.671875 31.203125 33.03125 
Q 21.34375 35.40625 17.390625 37.5 
Q 12.25 40.1875 9.734375 44.15625 
Q 7.234375 48.140625 7.234375 53.078125 
Q 7.234375 58.5 10.296875 63.203125 
Q 13.375 67.921875 19.28125 70.359375 
Q 25.203125 72.796875 32.421875 72.796875 
Q 40.375 72.796875 46.453125 70.234375 
Q 52.546875 67.671875 55.8125 62.6875 
Q 59.078125 57.71875 59.328125 51.421875 
L 50.25 50.734375 
Q 49.515625 57.515625 45.28125 60.984375 
Q 41.0625 64.453125 32.8125 64.453125 
Q 24.21875 64.453125 20.28125 61.296875 
Q 16.359375 58.15625 16.359375 53.71875 
Q 16.359375 49.859375 19.140625 47.359375 
Q 21.875 44.875 33.421875 42.265625 
Q 44.96875 39.65625 49.265625 37.703125 
Q 55.515625 34.8125 58.484375 30.390625 
Q 61.46875 25.984375 61.46875 20.21875 
Q 61.46875 14.5 58.203125 9.4375 
Q 54.9375 4.390625 48.796875 1.578125 
Q 42.671875 -1.21875 35.015625 -1.21875 
Q 25.296875 -1.21875 18.71875 1.609375 
Q 12.15625 4.4375 8.421875 10.125 
Q 4.6875 15.828125 4.5 23 
z
" id="ArialMT-83"/>
     <path d="M 7.328125 0 
L 7.328125 71.578125 
L 16.796875 71.578125 
L 16.796875 36.078125 
L 52.34375 71.578125 
L 65.1875 71.578125 
L 35.15625 42.578125 
L 66.5 0 
L 54 0 
L 28.515625 36.234375 
L 16.796875 24.8125 
L 16.796875 0 
z
" id="ArialMT-75"/>
    </defs>
    <g style="fill:#808080;" transform="translate(518.863636 303.767818)scale(0.05 -0.05)">
     <use xlink:href="#ArialMT-83"/>
     <use x="66.699219" xlink:href="#ArialMT-111"/>
     <use x="122.314453" xlink:href="#ArialMT-117"/>
     <use x="177.929688" xlink:href="#ArialMT-116"/>
     <use x="205.712891" xlink:href="#ArialMT-104"/>
     <use x="261.328125" xlink:href="#ArialMT-32"/>
     <use x="289.111328" xlink:href="#ArialMT-75"/>
     <use x="355.810547" xlink:href="#ArialMT-111"/>
     <use x="411.425781" xlink:href="#ArialMT-114"/>
     <use x="444.726562" xlink:href="#ArialMT-101"/>
     <use x="500.341797" xlink:href="#ArialMT-97"/>
    </g>
   </g>
   <g id="text_29">
    <!-- Spain -->
    <g style="fill:#808080;" transform="translate(518.863636 257.81398)scale(0.05 -0.05)">
     <use xlink:href="#ArialMT-83"/>
     <use x="66.699219" xlink:href="#ArialMT-112"/>
     <use x="122.314453" xlink:href="#ArialMT-97"/>
     <use x="177.929688" xlink:href="#ArialMT-105"/>
     <use x="200.146484" xlink:href="#ArialMT-110"/>
    </g>
   </g>
   <g id="text_30">
    <!-- Sweden -->
    <g style="fill:#808080;" transform="translate(518.863636 192.234882)scale(0.05 -0.05)">
     <use xlink:href="#ArialMT-83"/>
     <use x="66.699219" xlink:href="#ArialMT-119"/>
     <use x="138.916016" xlink:href="#ArialMT-101"/>
     <use x="194.53125" xlink:href="#ArialMT-100"/>
     <use x="250.146484" xlink:href="#ArialMT-101"/>
     <use x="305.761719" xlink:href="#ArialMT-110"/>
    </g>
   </g>
   <g id="text_31">
    <!-- United Kingdom -->
    <defs>
     <path d="M 54.6875 71.578125 
L 64.15625 71.578125 
L 64.15625 30.21875 
Q 64.15625 19.4375 61.71875 13.078125 
Q 59.28125 6.734375 52.90625 2.75 
Q 46.53125 -1.21875 36.1875 -1.21875 
Q 26.125 -1.21875 19.71875 2.25 
Q 13.328125 5.71875 10.59375 12.28125 
Q 7.859375 18.84375 7.859375 30.21875 
L 7.859375 71.578125 
L 17.328125 71.578125 
L 17.328125 30.28125 
Q 17.328125 20.953125 19.0625 16.53125 
Q 20.796875 12.109375 25.015625 9.71875 
Q 29.25 7.328125 35.359375 7.328125 
Q 45.796875 7.328125 50.234375 12.0625 
Q 54.6875 16.796875 54.6875 30.28125 
z
" id="ArialMT-85"/>
    </defs>
    <g style="fill:#808080;" transform="translate(518.863636 221.564661)scale(0.05 -0.05)">
     <use xlink:href="#ArialMT-85"/>
     <use x="72.216797" xlink:href="#ArialMT-110"/>
     <use x="127.832031" xlink:href="#ArialMT-105"/>
     <use x="150.048828" xlink:href="#ArialMT-116"/>
     <use x="177.832031" xlink:href="#ArialMT-101"/>
     <use x="233.447266" xlink:href="#ArialMT-100"/>
     <use x="289.0625" xlink:href="#ArialMT-32"/>
     <use x="316.845703" xlink:href="#ArialMT-75"/>
     <use x="383.544922" xlink:href="#ArialMT-105"/>
     <use x="405.761719" xlink:href="#ArialMT-110"/>
     <use x="461.376953" xlink:href="#ArialMT-103"/>
     <use x="516.992188" xlink:href="#ArialMT-100"/>
     <use x="572.607422" xlink:href="#ArialMT-111"/>
     <use x="628.222656" xlink:href="#ArialMT-109"/>
    </g>
   </g>
   <g id="text_32">
    <!-- United States -->
    <g style="fill:#0000ff;" transform="translate(356.276224 215.164204)scale(0.15 -0.15)">
     <use xlink:href="#ArialMT-85"/>
     <use x="72.216797" xlink:href="#ArialMT-110"/>
     <use x="127.832031" xlink:href="#ArialMT-105"/>
     <use x="150.048828" xlink:href="#ArialMT-116"/>
     <use x="177.832031" xlink:href="#ArialMT-101"/>
     <use x="233.447266" xlink:href="#ArialMT-100"/>
     <use x="289.0625" xlink:href="#ArialMT-32"/>
     <use x="316.845703" xlink:href="#ArialMT-83"/>
     <use x="383.544922" xlink:href="#ArialMT-116"/>
     <use x="411.328125" xlink:href="#ArialMT-97"/>
     <use x="466.943359" xlink:href="#ArialMT-116"/>
     <use x="494.726562" xlink:href="#ArialMT-101"/>
     <use x="550.341797" xlink:href="#ArialMT-115"/>
    </g>
   </g>
   <g id="text_33">
    <!-- Number of citations per publication by Country (1996-2018) -->
    <defs>
     <path d="M 23.390625 -21.046875 
Q 16.109375 -11.859375 11.078125 0.4375 
Q 6.0625 12.75 6.0625 25.921875 
Q 6.0625 37.546875 9.8125 48.1875 
Q 14.203125 60.546875 23.390625 72.796875 
L 29.6875 72.796875 
Q 23.78125 62.640625 21.875 58.296875 
Q 18.890625 51.5625 17.1875 44.234375 
Q 15.09375 35.109375 15.09375 25.875 
Q 15.09375 2.390625 29.6875 -21.046875 
z
" id="ArialMT-40"/>
     <path d="M 3.171875 21.484375 
L 3.171875 30.328125 
L 30.171875 30.328125 
L 30.171875 21.484375 
z
" id="ArialMT-45"/>
     <path d="M 12.359375 -21.046875 
L 6.0625 -21.046875 
Q 20.65625 2.390625 20.65625 25.875 
Q 20.65625 35.0625 18.5625 44.09375 
Q 16.890625 51.421875 13.921875 58.15625 
Q 12.015625 62.546875 6.0625 72.796875 
L 12.359375 72.796875 
Q 21.53125 60.546875 25.921875 48.1875 
Q 29.6875 37.546875 29.6875 25.921875 
Q 29.6875 12.75 24.625 0.4375 
Q 19.578125 -11.859375 12.359375 -21.046875 
z
" id="ArialMT-41"/>
    </defs>
    <g transform="translate(150.09375 66)scale(0.12 -0.12)">
     <use xlink:href="#ArialMT-78"/>
     <use x="72.216797" xlink:href="#ArialMT-117"/>
     <use x="127.832031" xlink:href="#ArialMT-109"/>
     <use x="211.132812" xlink:href="#ArialMT-98"/>
     <use x="266.748047" xlink:href="#ArialMT-101"/>
     <use x="322.363281" xlink:href="#ArialMT-114"/>
     <use x="355.664062" xlink:href="#ArialMT-32"/>
     <use x="383.447266" xlink:href="#ArialMT-111"/>
     <use x="439.0625" xlink:href="#ArialMT-102"/>
     <use x="466.845703" xlink:href="#ArialMT-32"/>
     <use x="494.628906" xlink:href="#ArialMT-99"/>
     <use x="544.628906" xlink:href="#ArialMT-105"/>
     <use x="566.845703" xlink:href="#ArialMT-116"/>
     <use x="594.628906" xlink:href="#ArialMT-97"/>
     <use x="650.244141" xlink:href="#ArialMT-116"/>
     <use x="678.027344" xlink:href="#ArialMT-105"/>
     <use x="700.244141" xlink:href="#ArialMT-111"/>
     <use x="755.859375" xlink:href="#ArialMT-110"/>
     <use x="811.474609" xlink:href="#ArialMT-115"/>
     <use x="861.474609" xlink:href="#ArialMT-32"/>
     <use x="889.257812" xlink:href="#ArialMT-112"/>
     <use x="944.873047" xlink:href="#ArialMT-101"/>
     <use x="1000.488281" xlink:href="#ArialMT-114"/>
     <use x="1033.789062" xlink:href="#ArialMT-32"/>
     <use x="1061.572266" xlink:href="#ArialMT-112"/>
     <use x="1117.1875" xlink:href="#ArialMT-117"/>
     <use x="1172.802734" xlink:href="#ArialMT-98"/>
     <use x="1228.417969" xlink:href="#ArialMT-108"/>
     <use x="1250.634766" xlink:href="#ArialMT-105"/>
     <use x="1272.851562" xlink:href="#ArialMT-99"/>
     <use x="1322.851562" xlink:href="#ArialMT-97"/>
     <use x="1378.466797" xlink:href="#ArialMT-116"/>
     <use x="1406.25" xlink:href="#ArialMT-105"/>
     <use x="1428.466797" xlink:href="#ArialMT-111"/>
     <use x="1484.082031" xlink:href="#ArialMT-110"/>
     <use x="1539.697266" xlink:href="#ArialMT-32"/>
     <use x="1567.480469" xlink:href="#ArialMT-98"/>
     <use x="1623.095703" xlink:href="#ArialMT-121"/>
     <use x="1673.095703" xlink:href="#ArialMT-32"/>
     <use x="1700.878906" xlink:href="#ArialMT-67"/>
     <use x="1773.095703" xlink:href="#ArialMT-111"/>
     <use x="1828.710938" xlink:href="#ArialMT-117"/>
     <use x="1884.326172" xlink:href="#ArialMT-110"/>
     <use x="1939.941406" xlink:href="#ArialMT-116"/>
     <use x="1967.724609" xlink:href="#ArialMT-114"/>
     <use x="2001.025391" xlink:href="#ArialMT-121"/>
     <use x="2051.025391" xlink:href="#ArialMT-32"/>
     <use x="2078.808594" xlink:href="#ArialMT-40"/>
     <use x="2112.109375" xlink:href="#ArialMT-49"/>
     <use x="2167.724609" xlink:href="#ArialMT-57"/>
     <use x="2223.339844" xlink:href="#ArialMT-57"/>
     <use x="2278.955078" xlink:href="#ArialMT-54"/>
     <use x="2334.570312" xlink:href="#ArialMT-45"/>
     <use x="2367.871094" xlink:href="#ArialMT-50"/>
     <use x="2423.486328" xlink:href="#ArialMT-48"/>
     <use x="2479.101562" xlink:href="#ArialMT-49"/>
     <use x="2534.716797" xlink:href="#ArialMT-56"/>
     <use x="2590.332031" xlink:href="#ArialMT-41"/>
    </g>
   </g>
  </g>
 </g>
 <defs>
  <clipPath id="p5c135ebbf8">
   <rect height="462" width="465" x="75" y="72"/>
  </clipPath>
 </defs>
</svg>
