<?xml version="1.0" encoding="utf-8" standalone="no"?>
<!DOCTYPE svg PUBLIC "-//W3C//DTD SVG 1.1//EN"
  "http://www.w3.org/Graphics/SVG/1.1/DTD/svg11.dtd">
<!-- Created with matplotlib (https://matplotlib.org/) -->
<svg height="600pt" version="1.1" viewBox="0 0 600 600" width="600pt" xmlns="http://www.w3.org/2000/svg" xmlns:xlink="http://www.w3.org/1999/xlink">
 <defs>
  <style type="text/css">
*{stroke-linecap:butt;stroke-linejoin:round;}
  </style>
 </defs>
 <g id="figure_1">
  <g id="patch_1">
   <path d="M 0 600 
L 600 600 
L 600 0 
L 0 0 
z
" style="fill:#ffffff;"/>
  </g>
  <g id="axes_1">
   <g id="patch_2">
    <path d="M 75 534 
L 540 534 
L 540 72 
L 75 72 
z
" style="fill:#eaeaf2;"/>
   </g>
   <g id="matplotlib.axis_1">
    <g id="xtick_1">
     <g id="line2d_1">
      <path clip-path="url(#p18b9c352f6)" d="M 96.136364 534 
L 96.136364 72 
" style="fill:none;stroke:#ffffff;stroke-linecap:round;"/>
     </g>
     <g id="text_1">
      <!-- 1996 -->
      <defs>
       <path d="M 37.25 0 
L 28.46875 0 
L 28.46875 56 
Q 25.296875 52.984375 20.140625 49.953125 
Q 14.984375 46.921875 10.890625 45.40625 
L 10.890625 53.90625 
Q 18.265625 57.375 23.78125 62.296875 
Q 29.296875 67.234375 31.59375 71.875 
L 37.25 71.875 
z
" id="ArialMT-49"/>
       <path d="M 5.46875 16.546875 
L 13.921875 17.328125 
Q 14.984375 11.375 18.015625 8.6875 
Q 21.046875 6 25.78125 6 
Q 29.828125 6 32.875 7.859375 
Q 35.9375 9.71875 37.890625 12.8125 
Q 39.84375 15.921875 41.15625 21.1875 
Q 42.484375 26.46875 42.484375 31.9375 
Q 42.484375 32.515625 42.4375 33.6875 
Q 39.796875 29.5 35.234375 26.875 
Q 30.671875 24.265625 25.34375 24.265625 
Q 16.453125 24.265625 10.296875 30.703125 
Q 4.15625 37.15625 4.15625 47.703125 
Q 4.15625 58.59375 10.578125 65.234375 
Q 17 71.875 26.65625 71.875 
Q 33.640625 71.875 39.421875 68.109375 
Q 45.21875 64.359375 48.21875 57.390625 
Q 51.21875 50.4375 51.21875 37.25 
Q 51.21875 23.53125 48.234375 15.40625 
Q 45.265625 7.28125 39.375 3.03125 
Q 33.5 -1.21875 25.59375 -1.21875 
Q 17.1875 -1.21875 11.859375 3.4375 
Q 6.546875 8.109375 5.46875 16.546875 
z
M 41.453125 48.140625 
Q 41.453125 55.71875 37.421875 60.15625 
Q 33.40625 64.59375 27.734375 64.59375 
Q 21.875 64.59375 17.53125 59.8125 
Q 13.1875 55.03125 13.1875 47.40625 
Q 13.1875 40.578125 17.3125 36.296875 
Q 21.4375 32.03125 27.484375 32.03125 
Q 33.59375 32.03125 37.515625 36.296875 
Q 41.453125 40.578125 41.453125 48.140625 
z
" id="ArialMT-57"/>
       <path d="M 49.75 54.046875 
L 41.015625 53.375 
Q 39.84375 58.546875 37.703125 60.890625 
Q 34.125 64.65625 28.90625 64.65625 
Q 24.703125 64.65625 21.53125 62.3125 
Q 17.390625 59.28125 14.984375 53.46875 
Q 12.59375 47.65625 12.5 36.921875 
Q 15.671875 41.75 20.265625 44.09375 
Q 24.859375 46.4375 29.890625 46.4375 
Q 38.671875 46.4375 44.84375 39.96875 
Q 51.03125 33.5 51.03125 23.25 
Q 51.03125 16.5 48.125 10.71875 
Q 45.21875 4.9375 40.140625 1.859375 
Q 35.0625 -1.21875 28.609375 -1.21875 
Q 17.625 -1.21875 10.6875 6.859375 
Q 3.765625 14.9375 3.765625 33.5 
Q 3.765625 54.25 11.421875 63.671875 
Q 18.109375 71.875 29.4375 71.875 
Q 37.890625 71.875 43.28125 67.140625 
Q 48.6875 62.40625 49.75 54.046875 
z
M 13.875 23.1875 
Q 13.875 18.65625 15.796875 14.5 
Q 17.71875 10.359375 21.1875 8.171875 
Q 24.65625 6 28.46875 6 
Q 34.03125 6 38.03125 10.484375 
Q 42.046875 14.984375 42.046875 22.703125 
Q 42.046875 30.125 38.078125 34.390625 
Q 34.125 38.671875 28.125 38.671875 
Q 22.171875 38.671875 18.015625 34.390625 
Q 13.875 30.125 13.875 23.1875 
z
" id="ArialMT-54"/>
      </defs>
      <g style="fill:#262626;" transform="translate(75.338457 550.885109)scale(0.187 -0.187)">
       <use xlink:href="#ArialMT-49"/>
       <use x="55.615234" xlink:href="#ArialMT-57"/>
       <use x="111.230469" xlink:href="#ArialMT-57"/>
       <use x="166.845703" xlink:href="#ArialMT-54"/>
      </g>
     </g>
    </g>
    <g id="xtick_2">
     <g id="line2d_2">
      <path clip-path="url(#p18b9c352f6)" d="M 161.171329 534 
L 161.171329 72 
" style="fill:none;stroke:#ffffff;stroke-linecap:round;"/>
     </g>
     <g id="text_2">
      <!-- 1998 -->
      <defs>
       <path d="M 17.671875 38.8125 
Q 12.203125 40.828125 9.5625 44.53125 
Q 6.9375 48.25 6.9375 53.421875 
Q 6.9375 61.234375 12.546875 66.546875 
Q 18.171875 71.875 27.484375 71.875 
Q 36.859375 71.875 42.578125 66.421875 
Q 48.296875 60.984375 48.296875 53.171875 
Q 48.296875 48.1875 45.671875 44.5 
Q 43.0625 40.828125 37.75 38.8125 
Q 44.34375 36.671875 47.78125 31.875 
Q 51.21875 27.09375 51.21875 20.453125 
Q 51.21875 11.28125 44.71875 5.03125 
Q 38.234375 -1.21875 27.640625 -1.21875 
Q 17.046875 -1.21875 10.546875 5.046875 
Q 4.046875 11.328125 4.046875 20.703125 
Q 4.046875 27.6875 7.59375 32.390625 
Q 11.140625 37.109375 17.671875 38.8125 
z
M 15.921875 53.71875 
Q 15.921875 48.640625 19.1875 45.40625 
Q 22.46875 42.1875 27.6875 42.1875 
Q 32.765625 42.1875 36.015625 45.375 
Q 39.265625 48.578125 39.265625 53.21875 
Q 39.265625 58.0625 35.90625 61.359375 
Q 32.5625 64.65625 27.59375 64.65625 
Q 22.5625 64.65625 19.234375 61.421875 
Q 15.921875 58.203125 15.921875 53.71875 
z
M 13.09375 20.65625 
Q 13.09375 16.890625 14.875 13.375 
Q 16.65625 9.859375 20.171875 7.921875 
Q 23.6875 6 27.734375 6 
Q 34.03125 6 38.125 10.046875 
Q 42.234375 14.109375 42.234375 20.359375 
Q 42.234375 26.703125 38.015625 30.859375 
Q 33.796875 35.015625 27.4375 35.015625 
Q 21.234375 35.015625 17.15625 30.90625 
Q 13.09375 26.8125 13.09375 20.65625 
z
" id="ArialMT-56"/>
      </defs>
      <g style="fill:#262626;" transform="translate(140.373422 550.885109)scale(0.187 -0.187)">
       <use xlink:href="#ArialMT-49"/>
       <use x="55.615234" xlink:href="#ArialMT-57"/>
       <use x="111.230469" xlink:href="#ArialMT-57"/>
       <use x="166.845703" xlink:href="#ArialMT-56"/>
      </g>
     </g>
    </g>
    <g id="xtick_3">
     <g id="line2d_3">
      <path clip-path="url(#p18b9c352f6)" d="M 226.206294 534 
L 226.206294 72 
" style="fill:none;stroke:#ffffff;stroke-linecap:round;"/>
     </g>
     <g id="text_3">
      <!-- 2000 -->
      <defs>
       <path d="M 50.34375 8.453125 
L 50.34375 0 
L 3.03125 0 
Q 2.9375 3.171875 4.046875 6.109375 
Q 5.859375 10.9375 9.828125 15.625 
Q 13.8125 20.3125 21.34375 26.46875 
Q 33.015625 36.03125 37.109375 41.625 
Q 41.21875 47.21875 41.21875 52.203125 
Q 41.21875 57.421875 37.46875 61 
Q 33.734375 64.59375 27.734375 64.59375 
Q 21.390625 64.59375 17.578125 60.78125 
Q 13.765625 56.984375 13.71875 50.25 
L 4.6875 51.171875 
Q 5.609375 61.28125 11.65625 66.578125 
Q 17.71875 71.875 27.9375 71.875 
Q 38.234375 71.875 44.234375 66.15625 
Q 50.25 60.453125 50.25 52 
Q 50.25 47.703125 48.484375 43.546875 
Q 46.734375 39.40625 42.65625 34.8125 
Q 38.578125 30.21875 29.109375 22.21875 
Q 21.1875 15.578125 18.9375 13.203125 
Q 16.703125 10.84375 15.234375 8.453125 
z
" id="ArialMT-50"/>
       <path d="M 4.15625 35.296875 
Q 4.15625 48 6.765625 55.734375 
Q 9.375 63.484375 14.515625 67.671875 
Q 19.671875 71.875 27.484375 71.875 
Q 33.25 71.875 37.59375 69.546875 
Q 41.9375 67.234375 44.765625 62.859375 
Q 47.609375 58.5 49.21875 52.21875 
Q 50.828125 45.953125 50.828125 35.296875 
Q 50.828125 22.703125 48.234375 14.96875 
Q 45.65625 7.234375 40.5 3 
Q 35.359375 -1.21875 27.484375 -1.21875 
Q 17.140625 -1.21875 11.234375 6.203125 
Q 4.15625 15.140625 4.15625 35.296875 
z
M 13.1875 35.296875 
Q 13.1875 17.671875 17.3125 11.828125 
Q 21.4375 6 27.484375 6 
Q 33.546875 6 37.671875 11.859375 
Q 41.796875 17.71875 41.796875 35.296875 
Q 41.796875 52.984375 37.671875 58.78125 
Q 33.546875 64.59375 27.390625 64.59375 
Q 21.34375 64.59375 17.71875 59.46875 
Q 13.1875 52.9375 13.1875 35.296875 
z
" id="ArialMT-48"/>
      </defs>
      <g style="fill:#262626;" transform="translate(205.408387 550.885109)scale(0.187 -0.187)">
       <use xlink:href="#ArialMT-50"/>
       <use x="55.615234" xlink:href="#ArialMT-48"/>
       <use x="111.230469" xlink:href="#ArialMT-48"/>
       <use x="166.845703" xlink:href="#ArialMT-48"/>
      </g>
     </g>
    </g>
    <g id="xtick_4">
     <g id="line2d_4">
      <path clip-path="url(#p18b9c352f6)" d="M 291.241259 534 
L 291.241259 72 
" style="fill:none;stroke:#ffffff;stroke-linecap:round;"/>
     </g>
     <g id="text_4">
      <!-- 2002 -->
      <g style="fill:#262626;" transform="translate(270.443352 550.885109)scale(0.187 -0.187)">
       <use xlink:href="#ArialMT-50"/>
       <use x="55.615234" xlink:href="#ArialMT-48"/>
       <use x="111.230469" xlink:href="#ArialMT-48"/>
       <use x="166.845703" xlink:href="#ArialMT-50"/>
      </g>
     </g>
    </g>
    <g id="xtick_5">
     <g id="line2d_5">
      <path clip-path="url(#p18b9c352f6)" d="M 356.276224 534 
L 356.276224 72 
" style="fill:none;stroke:#ffffff;stroke-linecap:round;"/>
     </g>
     <g id="text_5">
      <!-- 2004 -->
      <defs>
       <path d="M 32.328125 0 
L 32.328125 17.140625 
L 1.265625 17.140625 
L 1.265625 25.203125 
L 33.9375 71.578125 
L 41.109375 71.578125 
L 41.109375 25.203125 
L 50.78125 25.203125 
L 50.78125 17.140625 
L 41.109375 17.140625 
L 41.109375 0 
z
M 32.328125 25.203125 
L 32.328125 57.46875 
L 9.90625 25.203125 
z
" id="ArialMT-52"/>
      </defs>
      <g style="fill:#262626;" transform="translate(335.478318 550.885109)scale(0.187 -0.187)">
       <use xlink:href="#ArialMT-50"/>
       <use x="55.615234" xlink:href="#ArialMT-48"/>
       <use x="111.230469" xlink:href="#ArialMT-48"/>
       <use x="166.845703" xlink:href="#ArialMT-52"/>
      </g>
     </g>
    </g>
    <g id="xtick_6">
     <g id="line2d_6">
      <path clip-path="url(#p18b9c352f6)" d="M 421.311189 534 
L 421.311189 72 
" style="fill:none;stroke:#ffffff;stroke-linecap:round;"/>
     </g>
     <g id="text_6">
      <!-- 2006 -->
      <g style="fill:#262626;" transform="translate(400.513283 550.885109)scale(0.187 -0.187)">
       <use xlink:href="#ArialMT-50"/>
       <use x="55.615234" xlink:href="#ArialMT-48"/>
       <use x="111.230469" xlink:href="#ArialMT-48"/>
       <use x="166.845703" xlink:href="#ArialMT-54"/>
      </g>
     </g>
    </g>
    <g id="xtick_7">
     <g id="line2d_7">
      <path clip-path="url(#p18b9c352f6)" d="M 486.346154 534 
L 486.346154 72 
" style="fill:none;stroke:#ffffff;stroke-linecap:round;"/>
     </g>
     <g id="text_7">
      <!-- 2008 -->
      <g style="fill:#262626;" transform="translate(465.548248 550.885109)scale(0.187 -0.187)">
       <use xlink:href="#ArialMT-50"/>
       <use x="55.615234" xlink:href="#ArialMT-48"/>
       <use x="111.230469" xlink:href="#ArialMT-48"/>
       <use x="166.845703" xlink:href="#ArialMT-56"/>
      </g>
     </g>
    </g>
    <g id="text_8">
     <!-- Year -->
     <defs>
      <path d="M 27.875 0 
L 27.875 30.328125 
L 0.296875 71.578125 
L 11.8125 71.578125 
L 25.921875 50 
Q 29.828125 43.953125 33.203125 37.890625 
Q 36.421875 43.5 41.015625 50.53125 
L 54.890625 71.578125 
L 65.921875 71.578125 
L 37.359375 30.328125 
L 37.359375 0 
z
" id="ArialMT-89"/>
      <path d="M 42.09375 16.703125 
L 51.171875 15.578125 
Q 49.03125 7.625 43.21875 3.21875 
Q 37.40625 -1.171875 28.375 -1.171875 
Q 17 -1.171875 10.328125 5.828125 
Q 3.65625 12.84375 3.65625 25.484375 
Q 3.65625 38.578125 10.390625 45.796875 
Q 17.140625 53.03125 27.875 53.03125 
Q 38.28125 53.03125 44.875 45.953125 
Q 51.46875 38.875 51.46875 26.03125 
Q 51.46875 25.25 51.421875 23.6875 
L 12.75 23.6875 
Q 13.234375 15.140625 17.578125 10.59375 
Q 21.921875 6.0625 28.421875 6.0625 
Q 33.25 6.0625 36.671875 8.59375 
Q 40.09375 11.140625 42.09375 16.703125 
z
M 13.234375 30.90625 
L 42.1875 30.90625 
Q 41.609375 37.453125 38.875 40.71875 
Q 34.671875 45.796875 27.984375 45.796875 
Q 21.921875 45.796875 17.796875 41.75 
Q 13.671875 37.703125 13.234375 30.90625 
z
" id="ArialMT-101"/>
      <path d="M 40.4375 6.390625 
Q 35.546875 2.25 31.03125 0.53125 
Q 26.515625 -1.171875 21.34375 -1.171875 
Q 12.796875 -1.171875 8.203125 3 
Q 3.609375 7.171875 3.609375 13.671875 
Q 3.609375 17.484375 5.34375 20.625 
Q 7.078125 23.78125 9.890625 25.6875 
Q 12.703125 27.59375 16.21875 28.5625 
Q 18.796875 29.25 24.03125 29.890625 
Q 34.671875 31.15625 39.703125 32.90625 
Q 39.75 34.71875 39.75 35.203125 
Q 39.75 40.578125 37.25 42.78125 
Q 33.890625 45.75 27.25 45.75 
Q 21.046875 45.75 18.09375 43.578125 
Q 15.140625 41.40625 13.71875 35.890625 
L 5.125 37.0625 
Q 6.296875 42.578125 8.984375 45.96875 
Q 11.671875 49.359375 16.75 51.1875 
Q 21.828125 53.03125 28.515625 53.03125 
Q 35.15625 53.03125 39.296875 51.46875 
Q 43.453125 49.90625 45.40625 47.53125 
Q 47.359375 45.171875 48.140625 41.546875 
Q 48.578125 39.3125 48.578125 33.453125 
L 48.578125 21.734375 
Q 48.578125 9.46875 49.140625 6.21875 
Q 49.703125 2.984375 51.375 0 
L 42.1875 0 
Q 40.828125 2.734375 40.4375 6.390625 
z
M 39.703125 26.03125 
Q 34.90625 24.078125 25.34375 22.703125 
Q 19.921875 21.921875 17.671875 20.9375 
Q 15.4375 19.96875 14.203125 18.09375 
Q 12.984375 16.21875 12.984375 13.921875 
Q 12.984375 10.40625 15.640625 8.0625 
Q 18.3125 5.71875 23.4375 5.71875 
Q 28.515625 5.71875 32.46875 7.9375 
Q 36.421875 10.15625 38.28125 14.015625 
Q 39.703125 17 39.703125 22.796875 
z
" id="ArialMT-97"/>
      <path d="M 6.5 0 
L 6.5 51.859375 
L 14.40625 51.859375 
L 14.40625 44 
Q 17.4375 49.515625 20 51.265625 
Q 22.5625 53.03125 25.640625 53.03125 
Q 30.078125 53.03125 34.671875 50.203125 
L 31.640625 42.046875 
Q 28.421875 43.953125 25.203125 43.953125 
Q 22.3125 43.953125 20.015625 42.21875 
Q 17.71875 40.484375 16.75 37.40625 
Q 15.28125 32.71875 15.28125 27.15625 
L 15.28125 0 
z
" id="ArialMT-114"/>
     </defs>
     <g style="fill:#262626;" transform="translate(285.970031 573.203672)scale(0.204 -0.204)">
      <use xlink:href="#ArialMT-89"/>
      <use x="66.558594" xlink:href="#ArialMT-101"/>
      <use x="122.173828" xlink:href="#ArialMT-97"/>
      <use x="177.789062" xlink:href="#ArialMT-114"/>
     </g>
    </g>
   </g>
   <g id="matplotlib.axis_2">
    <g id="ytick_1">
     <g id="line2d_8">
      <path clip-path="url(#p18b9c352f6)" d="M 75 513.365942 
L 540 513.365942 
" style="fill:none;stroke:#ffffff;stroke-linecap:round;"/>
     </g>
     <g id="text_9">
      <!-- 0.6 -->
      <defs>
       <path d="M 9.078125 0 
L 9.078125 10.015625 
L 19.09375 10.015625 
L 19.09375 0 
z
" id="ArialMT-46"/>
      </defs>
      <g style="fill:#262626;" transform="translate(45.507 520.058497)scale(0.187 -0.187)">
       <use xlink:href="#ArialMT-48"/>
       <use x="55.615234" xlink:href="#ArialMT-46"/>
       <use x="83.398438" xlink:href="#ArialMT-54"/>
      </g>
     </g>
    </g>
    <g id="ytick_2">
     <g id="line2d_9">
      <path clip-path="url(#p18b9c352f6)" d="M 75 438.13854 
L 540 438.13854 
" style="fill:none;stroke:#ffffff;stroke-linecap:round;"/>
     </g>
     <g id="text_10">
      <!-- 0.8 -->
      <g style="fill:#262626;" transform="translate(45.507 444.831095)scale(0.187 -0.187)">
       <use xlink:href="#ArialMT-48"/>
       <use x="55.615234" xlink:href="#ArialMT-46"/>
       <use x="83.398438" xlink:href="#ArialMT-56"/>
      </g>
     </g>
    </g>
    <g id="ytick_3">
     <g id="line2d_10">
      <path clip-path="url(#p18b9c352f6)" d="M 75 362.911139 
L 540 362.911139 
" style="fill:none;stroke:#ffffff;stroke-linecap:round;"/>
     </g>
     <g id="text_11">
      <!-- 1.0 -->
      <g style="fill:#262626;" transform="translate(45.507 369.603694)scale(0.187 -0.187)">
       <use xlink:href="#ArialMT-49"/>
       <use x="55.615234" xlink:href="#ArialMT-46"/>
       <use x="83.398438" xlink:href="#ArialMT-48"/>
      </g>
     </g>
    </g>
    <g id="ytick_4">
     <g id="line2d_11">
      <path clip-path="url(#p18b9c352f6)" d="M 75 287.683737 
L 540 287.683737 
" style="fill:none;stroke:#ffffff;stroke-linecap:round;"/>
     </g>
     <g id="text_12">
      <!-- 1.2 -->
      <g style="fill:#262626;" transform="translate(45.507 294.376292)scale(0.187 -0.187)">
       <use xlink:href="#ArialMT-49"/>
       <use x="55.615234" xlink:href="#ArialMT-46"/>
       <use x="83.398438" xlink:href="#ArialMT-50"/>
      </g>
     </g>
    </g>
    <g id="ytick_5">
     <g id="line2d_12">
      <path clip-path="url(#p18b9c352f6)" d="M 75 212.456336 
L 540 212.456336 
" style="fill:none;stroke:#ffffff;stroke-linecap:round;"/>
     </g>
     <g id="text_13">
      <!-- 1.4 -->
      <g style="fill:#262626;" transform="translate(45.507 219.14889)scale(0.187 -0.187)">
       <use xlink:href="#ArialMT-49"/>
       <use x="55.615234" xlink:href="#ArialMT-46"/>
       <use x="83.398438" xlink:href="#ArialMT-52"/>
      </g>
     </g>
    </g>
    <g id="ytick_6">
     <g id="line2d_13">
      <path clip-path="url(#p18b9c352f6)" d="M 75 137.228934 
L 540 137.228934 
" style="fill:none;stroke:#ffffff;stroke-linecap:round;"/>
     </g>
     <g id="text_14">
      <!-- 1.6 -->
      <g style="fill:#262626;" transform="translate(45.507 143.921489)scale(0.187 -0.187)">
       <use xlink:href="#ArialMT-49"/>
       <use x="55.615234" xlink:href="#ArialMT-46"/>
       <use x="83.398438" xlink:href="#ArialMT-54"/>
      </g>
     </g>
    </g>
    <g id="text_15">
     <!-- Log10 of number of citations -->
     <defs>
      <path d="M 7.328125 0 
L 7.328125 71.578125 
L 16.796875 71.578125 
L 16.796875 8.453125 
L 52.046875 8.453125 
L 52.046875 0 
z
" id="ArialMT-76"/>
      <path d="M 3.328125 25.921875 
Q 3.328125 40.328125 11.328125 47.265625 
Q 18.015625 53.03125 27.640625 53.03125 
Q 38.328125 53.03125 45.109375 46.015625 
Q 51.90625 39.015625 51.90625 26.65625 
Q 51.90625 16.65625 48.90625 10.90625 
Q 45.90625 5.171875 40.15625 2 
Q 34.421875 -1.171875 27.640625 -1.171875 
Q 16.75 -1.171875 10.03125 5.8125 
Q 3.328125 12.796875 3.328125 25.921875 
z
M 12.359375 25.921875 
Q 12.359375 15.96875 16.703125 11.015625 
Q 21.046875 6.0625 27.640625 6.0625 
Q 34.1875 6.0625 38.53125 11.03125 
Q 42.875 16.015625 42.875 26.21875 
Q 42.875 35.84375 38.5 40.796875 
Q 34.125 45.75 27.640625 45.75 
Q 21.046875 45.75 16.703125 40.8125 
Q 12.359375 35.890625 12.359375 25.921875 
z
" id="ArialMT-111"/>
      <path d="M 4.984375 -4.296875 
L 13.53125 -5.5625 
Q 14.0625 -9.515625 16.5 -11.328125 
Q 19.78125 -13.765625 25.4375 -13.765625 
Q 31.546875 -13.765625 34.859375 -11.328125 
Q 38.1875 -8.890625 39.359375 -4.5 
Q 40.046875 -1.8125 39.984375 6.78125 
Q 34.234375 0 25.640625 0 
Q 14.9375 0 9.078125 7.71875 
Q 3.21875 15.4375 3.21875 26.21875 
Q 3.21875 33.640625 5.90625 39.90625 
Q 8.59375 46.1875 13.6875 49.609375 
Q 18.796875 53.03125 25.6875 53.03125 
Q 34.859375 53.03125 40.828125 45.609375 
L 40.828125 51.859375 
L 48.921875 51.859375 
L 48.921875 7.03125 
Q 48.921875 -5.078125 46.453125 -10.125 
Q 44 -15.1875 38.640625 -18.109375 
Q 33.296875 -21.046875 25.484375 -21.046875 
Q 16.21875 -21.046875 10.5 -16.875 
Q 4.78125 -12.703125 4.984375 -4.296875 
z
M 12.25 26.859375 
Q 12.25 16.65625 16.296875 11.96875 
Q 20.359375 7.28125 26.46875 7.28125 
Q 32.515625 7.28125 36.609375 11.9375 
Q 40.71875 16.609375 40.71875 26.5625 
Q 40.71875 36.078125 36.5 40.90625 
Q 32.28125 45.75 26.3125 45.75 
Q 20.453125 45.75 16.34375 40.984375 
Q 12.25 36.234375 12.25 26.859375 
z
" id="ArialMT-103"/>
      <path id="ArialMT-32"/>
      <path d="M 8.6875 0 
L 8.6875 45.015625 
L 0.921875 45.015625 
L 0.921875 51.859375 
L 8.6875 51.859375 
L 8.6875 57.375 
Q 8.6875 62.59375 9.625 65.140625 
Q 10.890625 68.5625 14.078125 70.671875 
Q 17.28125 72.796875 23.046875 72.796875 
Q 26.765625 72.796875 31.25 71.921875 
L 29.9375 64.265625 
Q 27.203125 64.75 24.75 64.75 
Q 20.75 64.75 19.09375 63.03125 
Q 17.4375 61.328125 17.4375 56.640625 
L 17.4375 51.859375 
L 27.546875 51.859375 
L 27.546875 45.015625 
L 17.4375 45.015625 
L 17.4375 0 
z
" id="ArialMT-102"/>
      <path d="M 6.59375 0 
L 6.59375 51.859375 
L 14.5 51.859375 
L 14.5 44.484375 
Q 20.21875 53.03125 31 53.03125 
Q 35.6875 53.03125 39.625 51.34375 
Q 43.5625 49.65625 45.515625 46.921875 
Q 47.46875 44.1875 48.25 40.4375 
Q 48.734375 37.984375 48.734375 31.890625 
L 48.734375 0 
L 39.9375 0 
L 39.9375 31.546875 
Q 39.9375 36.921875 38.90625 39.578125 
Q 37.890625 42.234375 35.28125 43.8125 
Q 32.671875 45.40625 29.15625 45.40625 
Q 23.53125 45.40625 19.453125 41.84375 
Q 15.375 38.28125 15.375 28.328125 
L 15.375 0 
z
" id="ArialMT-110"/>
      <path d="M 40.578125 0 
L 40.578125 7.625 
Q 34.515625 -1.171875 24.125 -1.171875 
Q 19.53125 -1.171875 15.546875 0.578125 
Q 11.578125 2.34375 9.640625 5 
Q 7.71875 7.671875 6.9375 11.53125 
Q 6.390625 14.109375 6.390625 19.734375 
L 6.390625 51.859375 
L 15.1875 51.859375 
L 15.1875 23.09375 
Q 15.1875 16.21875 15.71875 13.8125 
Q 16.546875 10.359375 19.234375 8.375 
Q 21.921875 6.390625 25.875 6.390625 
Q 29.828125 6.390625 33.296875 8.421875 
Q 36.765625 10.453125 38.203125 13.9375 
Q 39.65625 17.4375 39.65625 24.078125 
L 39.65625 51.859375 
L 48.4375 51.859375 
L 48.4375 0 
z
" id="ArialMT-117"/>
      <path d="M 6.59375 0 
L 6.59375 51.859375 
L 14.453125 51.859375 
L 14.453125 44.578125 
Q 16.890625 48.390625 20.9375 50.703125 
Q 25 53.03125 30.171875 53.03125 
Q 35.9375 53.03125 39.625 50.640625 
Q 43.3125 48.25 44.828125 43.953125 
Q 50.984375 53.03125 60.84375 53.03125 
Q 68.5625 53.03125 72.703125 48.75 
Q 76.859375 44.484375 76.859375 35.59375 
L 76.859375 0 
L 68.109375 0 
L 68.109375 32.671875 
Q 68.109375 37.9375 67.25 40.25 
Q 66.40625 42.578125 64.15625 43.984375 
Q 61.921875 45.40625 58.890625 45.40625 
Q 53.421875 45.40625 49.796875 41.765625 
Q 46.1875 38.140625 46.1875 30.125 
L 46.1875 0 
L 37.40625 0 
L 37.40625 33.6875 
Q 37.40625 39.546875 35.25 42.46875 
Q 33.109375 45.40625 28.21875 45.40625 
Q 24.515625 45.40625 21.359375 43.453125 
Q 18.21875 41.5 16.796875 37.734375 
Q 15.375 33.984375 15.375 26.90625 
L 15.375 0 
z
" id="ArialMT-109"/>
      <path d="M 14.703125 0 
L 6.546875 0 
L 6.546875 71.578125 
L 15.328125 71.578125 
L 15.328125 46.046875 
Q 20.90625 53.03125 29.546875 53.03125 
Q 34.328125 53.03125 38.59375 51.09375 
Q 42.875 49.171875 45.625 45.671875 
Q 48.390625 42.1875 49.953125 37.25 
Q 51.515625 32.328125 51.515625 26.703125 
Q 51.515625 13.375 44.921875 6.09375 
Q 38.328125 -1.171875 29.109375 -1.171875 
Q 19.921875 -1.171875 14.703125 6.5 
z
M 14.59375 26.3125 
Q 14.59375 17 17.140625 12.84375 
Q 21.296875 6.0625 28.375 6.0625 
Q 34.125 6.0625 38.328125 11.0625 
Q 42.53125 16.0625 42.53125 25.984375 
Q 42.53125 36.140625 38.5 40.96875 
Q 34.46875 45.796875 28.765625 45.796875 
Q 23 45.796875 18.796875 40.796875 
Q 14.59375 35.796875 14.59375 26.3125 
z
" id="ArialMT-98"/>
      <path d="M 40.4375 19 
L 49.078125 17.875 
Q 47.65625 8.9375 41.8125 3.875 
Q 35.984375 -1.171875 27.484375 -1.171875 
Q 16.84375 -1.171875 10.375 5.78125 
Q 3.90625 12.75 3.90625 25.734375 
Q 3.90625 34.125 6.6875 40.421875 
Q 9.46875 46.734375 15.15625 49.875 
Q 20.84375 53.03125 27.546875 53.03125 
Q 35.984375 53.03125 41.359375 48.75 
Q 46.734375 44.484375 48.25 36.625 
L 39.703125 35.296875 
Q 38.484375 40.53125 35.375 43.15625 
Q 32.28125 45.796875 27.875 45.796875 
Q 21.234375 45.796875 17.078125 41.03125 
Q 12.9375 36.28125 12.9375 25.984375 
Q 12.9375 15.53125 16.9375 10.796875 
Q 20.953125 6.0625 27.390625 6.0625 
Q 32.5625 6.0625 36.03125 9.234375 
Q 39.5 12.40625 40.4375 19 
z
" id="ArialMT-99"/>
      <path d="M 6.640625 61.46875 
L 6.640625 71.578125 
L 15.4375 71.578125 
L 15.4375 61.46875 
z
M 6.640625 0 
L 6.640625 51.859375 
L 15.4375 51.859375 
L 15.4375 0 
z
" id="ArialMT-105"/>
      <path d="M 25.78125 7.859375 
L 27.046875 0.09375 
Q 23.34375 -0.6875 20.40625 -0.6875 
Q 15.625 -0.6875 12.984375 0.828125 
Q 10.359375 2.34375 9.28125 4.8125 
Q 8.203125 7.28125 8.203125 15.1875 
L 8.203125 45.015625 
L 1.765625 45.015625 
L 1.765625 51.859375 
L 8.203125 51.859375 
L 8.203125 64.703125 
L 16.9375 69.96875 
L 16.9375 51.859375 
L 25.78125 51.859375 
L 25.78125 45.015625 
L 16.9375 45.015625 
L 16.9375 14.703125 
Q 16.9375 10.9375 17.40625 9.859375 
Q 17.875 8.796875 18.921875 8.15625 
Q 19.96875 7.515625 21.921875 7.515625 
Q 23.390625 7.515625 25.78125 7.859375 
z
" id="ArialMT-116"/>
      <path d="M 3.078125 15.484375 
L 11.765625 16.84375 
Q 12.5 11.625 15.84375 8.84375 
Q 19.1875 6.0625 25.203125 6.0625 
Q 31.25 6.0625 34.171875 8.515625 
Q 37.109375 10.984375 37.109375 14.3125 
Q 37.109375 17.28125 34.515625 19 
Q 32.71875 20.171875 25.53125 21.96875 
Q 15.875 24.421875 12.140625 26.203125 
Q 8.40625 27.984375 6.46875 31.125 
Q 4.546875 34.28125 4.546875 38.09375 
Q 4.546875 41.546875 6.125 44.5 
Q 7.71875 47.46875 10.453125 49.421875 
Q 12.5 50.921875 16.03125 51.96875 
Q 19.578125 53.03125 23.640625 53.03125 
Q 29.734375 53.03125 34.34375 51.265625 
Q 38.96875 49.515625 41.15625 46.5 
Q 43.359375 43.5 44.1875 38.484375 
L 35.59375 37.3125 
Q 35.015625 41.3125 32.203125 43.546875 
Q 29.390625 45.796875 24.265625 45.796875 
Q 18.21875 45.796875 15.625 43.796875 
Q 13.03125 41.796875 13.03125 39.109375 
Q 13.03125 37.40625 14.109375 36.03125 
Q 15.1875 34.625 17.484375 33.6875 
Q 18.796875 33.203125 25.25 31.453125 
Q 34.578125 28.953125 38.25 27.359375 
Q 41.9375 25.78125 44.03125 22.75 
Q 46.140625 19.734375 46.140625 15.234375 
Q 46.140625 10.84375 43.578125 6.953125 
Q 41.015625 3.078125 36.171875 0.953125 
Q 31.34375 -1.171875 25.25 -1.171875 
Q 15.140625 -1.171875 9.84375 3.03125 
Q 4.546875 7.234375 3.078125 15.484375 
z
" id="ArialMT-115"/>
     </defs>
     <g style="fill:#262626;" transform="translate(37.213437 431.704875)rotate(-90)scale(0.204 -0.204)">
      <use xlink:href="#ArialMT-76"/>
      <use x="55.615234" xlink:href="#ArialMT-111"/>
      <use x="111.230469" xlink:href="#ArialMT-103"/>
      <use x="166.845703" xlink:href="#ArialMT-49"/>
      <use x="222.460938" xlink:href="#ArialMT-48"/>
      <use x="278.076172" xlink:href="#ArialMT-32"/>
      <use x="305.859375" xlink:href="#ArialMT-111"/>
      <use x="361.474609" xlink:href="#ArialMT-102"/>
      <use x="389.257812" xlink:href="#ArialMT-32"/>
      <use x="417.041016" xlink:href="#ArialMT-110"/>
      <use x="472.65625" xlink:href="#ArialMT-117"/>
      <use x="528.271484" xlink:href="#ArialMT-109"/>
      <use x="611.572266" xlink:href="#ArialMT-98"/>
      <use x="667.1875" xlink:href="#ArialMT-101"/>
      <use x="722.802734" xlink:href="#ArialMT-114"/>
      <use x="756.103516" xlink:href="#ArialMT-32"/>
      <use x="783.886719" xlink:href="#ArialMT-111"/>
      <use x="839.501953" xlink:href="#ArialMT-102"/>
      <use x="867.285156" xlink:href="#ArialMT-32"/>
      <use x="895.068359" xlink:href="#ArialMT-99"/>
      <use x="945.068359" xlink:href="#ArialMT-105"/>
      <use x="967.285156" xlink:href="#ArialMT-116"/>
      <use x="995.068359" xlink:href="#ArialMT-97"/>
      <use x="1050.683594" xlink:href="#ArialMT-116"/>
      <use x="1078.466797" xlink:href="#ArialMT-105"/>
      <use x="1100.683594" xlink:href="#ArialMT-111"/>
      <use x="1156.298828" xlink:href="#ArialMT-110"/>
      <use x="1211.914062" xlink:href="#ArialMT-115"/>
     </g>
    </g>
   </g>
   <g id="line2d_14">
    <path clip-path="url(#p18b9c352f6)" d="M 96.136364 328.299587 
L 128.653846 377.779542 
L 161.171329 282.69915 
L 193.688811 212.774422 
L 226.206294 287.363833 
L 258.723776 349.584703 
L 291.241259 276.423066 
L 323.758741 254.489938 
L 356.276224 178.197245 
L 388.793706 253.818388 
L 421.311189 271.588906 
L 453.828671 274.795732 
L 486.346154 279.334983 
L 518.863636 414.320469 
" style="fill:none;stroke:#808080;stroke-linecap:round;stroke-opacity:0.4;"/>
   </g>
   <g id="line2d_15">
    <path clip-path="url(#p18b9c352f6)" d="M 96.136364 310.534355 
L 128.653846 332.313406 
L 161.171329 293.869486 
L 193.688811 339.371739 
L 226.206294 304.826568 
L 258.723776 286.952879 
L 291.241259 294.835764 
L 323.758741 321.567715 
L 356.276224 308.180507 
L 388.793706 329.227362 
L 421.311189 329.493411 
L 453.828671 343.961448 
L 486.346154 334.083832 
L 518.863636 352.317458 
" style="fill:none;stroke:#808080;stroke-linecap:round;stroke-opacity:0.4;"/>
   </g>
   <g id="line2d_16">
    <path clip-path="url(#p18b9c352f6)" d="M 96.136364 385.097865 
L 128.653846 320.052827 
L 161.171329 338.525342 
L 193.688811 306.437115 
L 226.206294 261.449545 
L 258.723776 284.104788 
L 291.241259 313.645958 
L 323.758741 284.205655 
L 356.276224 285.319323 
L 388.793706 269.731533 
L 421.311189 228.206966 
L 453.828671 271.962929 
L 486.346154 221.403939 
L 518.863636 323.738143 
" style="fill:none;stroke:#808080;stroke-linecap:round;stroke-opacity:0.4;"/>
   </g>
   <g id="line2d_17">
    <path clip-path="url(#p18b9c352f6)" d="M 96.136364 510.158985 
L 128.653846 500.397765 
L 161.171329 437.09524 
L 193.688811 449.379284 
L 226.206294 426.63301 
L 258.723776 477.122738 
L 291.241259 416.120534 
L 323.758741 420.709438 
L 356.276224 503.458355 
L 388.793706 439.166319 
L 421.311189 392.563505 
L 453.828671 513 
L 486.346154 377.60072 
L 518.863636 503.072631 
" style="fill:none;stroke:#808080;stroke-linecap:round;stroke-opacity:0.4;"/>
   </g>
   <g id="line2d_18">
    <path clip-path="url(#p18b9c352f6)" d="M 96.136364 441.528108 
L 128.653846 365.712036 
L 161.171329 412.318827 
L 193.688811 301.764649 
L 226.206294 369.920261 
L 258.723776 310.415853 
L 291.241259 268.352232 
L 323.758741 341.507118 
L 356.276224 358.877496 
L 388.793706 354.010263 
L 421.311189 360.157458 
L 453.828671 352.317458 
L 486.346154 361.933942 
L 518.863636 364.717991 
" style="fill:none;stroke:#808080;stroke-linecap:round;stroke-opacity:0.4;"/>
   </g>
   <g id="line2d_19">
    <path clip-path="url(#p18b9c352f6)" d="M 96.136364 297.003735 
L 128.653846 313.766827 
L 161.171329 306.206063 
L 193.688811 291.636819 
L 226.206294 247.814763 
L 258.723776 272.713553 
L 291.241259 248.057188 
L 323.758741 251.489469 
L 356.276224 225.015659 
L 388.793706 240.087109 
L 421.311189 265.718162 
L 453.828671 299.311502 
L 486.346154 310.652942 
L 518.863636 327.377051 
" style="fill:none;stroke:#808080;stroke-linecap:round;stroke-opacity:0.4;"/>
   </g>
   <g id="line2d_20">
    <path clip-path="url(#p18b9c352f6)" d="M 96.136364 430.046506 
L 128.653846 405.182431 
L 161.171329 394.335901 
L 193.688811 350.945366 
L 226.206294 356.818715 
L 258.723776 340.934949 
L 291.241259 366.545053 
L 323.758741 383.79326 
L 356.276224 356.976165 
L 388.793706 389.844109 
L 421.311189 385.660186 
L 453.828671 404.970969 
L 486.346154 329.493411 
L 518.863636 401.624287 
" style="fill:none;stroke:#808080;stroke-linecap:round;stroke-opacity:0.4;"/>
   </g>
   <g id="line2d_21">
    <path clip-path="url(#p18b9c352f6)" d="M 96.136364 324.511114 
L 128.653846 324.898975 
L 161.171329 302.665916 
L 193.688811 309.824632 
L 226.206294 278.846044 
L 258.723776 300.868328 
L 291.241259 280.711848 
L 323.758741 293.762473 
L 356.276224 287.158227 
L 388.793706 309.470924 
L 421.311189 285.014842 
L 453.828671 322.840942 
L 486.346154 313.404488 
L 518.863636 347.341818 
" style="fill:none;stroke:#808080;stroke-linecap:round;stroke-opacity:0.4;"/>
   </g>
   <g id="line2d_22">
    <path clip-path="url(#p18b9c352f6)" d="M 96.136364 234.484978 
L 128.653846 232.7822 
L 161.171329 178.619622 
L 193.688811 180.640964 
L 226.206294 184.212282 
L 258.723776 189.833268 
L 291.241259 201.99575 
L 323.758741 181.338258 
L 356.276224 189.437394 
L 388.793706 211.994376 
L 421.311189 237.640954 
L 453.828671 245.410094 
L 486.346154 259.010077 
L 518.863636 272.713553 
" style="fill:none;stroke:#808080;stroke-linecap:round;stroke-opacity:0.4;"/>
   </g>
   <g id="line2d_23">
    <path clip-path="url(#p18b9c352f6)" d="M 96.136364 239.856219 
L 128.653846 237.18635 
L 161.171329 235.980222 
L 193.688811 240.627123 
L 226.206294 219.763548 
L 258.723776 236.959522 
L 291.241259 233.668391 
L 323.758741 233.003297 
L 356.276224 234.484978 
L 388.793706 202.117793 
L 421.311189 253.902181 
L 453.828671 277.969626 
L 486.346154 282.399509 
L 518.863636 310.652942 
" style="fill:none;stroke:#808080;stroke-linecap:round;stroke-opacity:0.4;"/>
   </g>
   <g id="line2d_24">
    <path clip-path="url(#p18b9c352f6)" d="M 96.136364 375.823181 
L 128.653846 353.238631 
L 161.171329 315.8354 
L 193.688811 344.398419 
L 226.206294 349.735329 
L 258.723776 335.873656 
L 291.241259 328.696559 
L 323.758741 326.852218 
L 356.276224 308.297397 
L 388.793706 316.941224 
L 421.311189 334.907468 
L 453.828671 349.434216 
L 486.346154 353.855645 
L 518.863636 354.165028 
" style="fill:none;stroke:#808080;stroke-linecap:round;stroke-opacity:0.4;"/>
   </g>
   <g id="line2d_25">
    <path clip-path="url(#p18b9c352f6)" d="M 96.136364 334.083832 
L 128.653846 406.243866 
L 161.171329 272.901749 
L 193.688811 346.453216 
L 226.206294 347.787938 
L 258.723776 324.511114 
L 291.241259 356.190429 
L 323.758741 316.941224 
L 356.276224 307.830337 
L 388.793706 332.720266 
L 421.311189 369.069898 
L 453.828671 376.354415 
L 486.346154 360.801219 
L 518.863636 403.917747 
" style="fill:none;stroke:#ff0000;stroke-linecap:round;stroke-opacity:0.7;stroke-width:4;"/>
   </g>
   <g id="line2d_26">
    <path clip-path="url(#p18b9c352f6)" d="M 96.136364 171.280109 
L 128.653846 250.912391 
L 161.171329 182.254618 
L 193.688811 206.197225 
L 226.206294 167.779884 
L 258.723776 234.187565 
L 291.241259 168.076982 
L 323.758741 168.076982 
L 356.276224 197.840156 
L 388.793706 247.089638 
L 421.311189 236.883982 
L 453.828671 242.726921 
L 486.346154 257.97564 
L 518.863636 280.218777 
" style="fill:none;stroke:#808080;stroke-linecap:round;stroke-opacity:0.4;"/>
   </g>
   <g id="line2d_27">
    <path clip-path="url(#p18b9c352f6)" d="M 96.136364 200.901449 
L 128.653846 246.287701 
L 161.171329 233.224694 
L 193.688811 207.706282 
L 226.206294 168.772319 
L 258.723776 161.044172 
L 291.241259 191.999196 
L 323.758741 209.740291 
L 356.276224 129.341929 
L 388.793706 174.495747 
L 421.311189 196.773252 
L 453.828671 226.426326 
L 486.346154 147.607732 
L 518.863636 236.055345 
" style="fill:none;stroke:#808080;stroke-linecap:round;stroke-opacity:0.4;"/>
   </g>
   <g id="line2d_28">
    <path clip-path="url(#p18b9c352f6)" d="M 96.136364 326.852218 
L 128.653846 315.590674 
L 161.171329 294.943482 
L 193.688811 296.241668 
L 226.206294 280.514441 
L 258.723776 296.350317 
L 291.241259 274.510231 
L 323.758741 277.484751 
L 356.276224 279.041444 
L 388.793706 278.261243 
L 421.311189 285.420943 
L 453.828671 296.241668 
L 486.346154 298.208499 
L 518.863636 321.440936 
" style="fill:none;stroke:#808080;stroke-linecap:round;stroke-opacity:0.4;"/>
   </g>
   <g id="line2d_29">
    <path clip-path="url(#p18b9c352f6)" d="M 96.136364 231.388822 
L 128.653846 218.004852 
L 161.171329 197.661854 
L 193.688811 208.402619 
L 226.206294 208.656571 
L 258.723776 207.390743 
L 291.241259 221.197987 
L 323.758741 207.706282 
L 356.276224 173.77567 
L 388.793706 179.627167 
L 421.311189 225.508008 
L 453.828671 218.949489 
L 486.346154 235.680076 
L 518.863636 246.527869 
" style="fill:none;stroke:#808080;stroke-linecap:round;stroke-opacity:0.4;"/>
   </g>
   <g id="line2d_30">
    <path clip-path="url(#p18b9c352f6)" d="M 96.136364 259.096576 
L 128.653846 249.927832 
L 161.171329 251.324382 
L 193.688811 215.468037 
L 226.206294 210.252775 
L 258.723776 218.004852 
L 291.241259 249.519344 
L 323.758741 209.61242 
L 356.276224 234.261868 
L 388.793706 224.594824 
L 421.311189 238.553975 
L 453.828671 247.734034 
L 486.346154 272.995928 
L 518.863636 262.594659 
" style="fill:none;stroke:#808080;stroke-linecap:round;stroke-opacity:0.4;"/>
   </g>
   <g id="line2d_31">
    <path clip-path="url(#p18b9c352f6)" d="M 96.136364 329.759894 
L 128.653846 319.550971 
L 161.171329 328.564128 
L 193.688811 296.241668 
L 226.206294 223.06097 
L 258.723776 206.134649 
L 291.241259 247.572697 
L 323.758741 321.440936 
L 356.276224 282.999342 
L 388.793706 342.081299 
L 421.311189 304.141164 
L 453.828671 300.310614 
L 486.346154 259.35635 
L 518.863636 320.178533 
" style="fill:none;stroke:#808080;stroke-linecap:round;stroke-opacity:0.4;"/>
   </g>
   <g id="line2d_32">
    <path clip-path="url(#p18b9c352f6)" d="M 96.136364 281.50387 
L 128.653846 271.775811 
L 161.171329 253.986017 
L 193.688811 246.768391 
L 226.206294 245.09213 
L 258.723776 216.73152 
L 291.241259 231.02411 
L 323.758741 224.454786 
L 356.276224 188.311586 
L 388.793706 221.610151 
L 421.311189 235.230889 
L 453.828671 262.771545 
L 486.346154 218.611491 
L 518.863636 293.015344 
" style="fill:none;stroke:#808080;stroke-linecap:round;stroke-opacity:0.4;"/>
   </g>
   <g id="line2d_33">
    <path clip-path="url(#p18b9c352f6)" d="M 96.136364 118.087292 
L 128.653846 110.110261 
L 161.171329 110.527869 
L 193.688811 152.8053 
L 226.206294 97.088427 
L 258.723776 114.014488 
L 291.241259 98.66861 
L 323.758741 95.937139 
L 356.276224 93 
L 388.793706 124.868305 
L 421.311189 132.062263 
L 453.828671 125.745632 
L 486.346154 174.753688 
L 518.863636 144.489529 
" style="fill:none;stroke:#808080;stroke-linecap:round;stroke-opacity:0.4;"/>
   </g>
   <g id="line2d_34">
    <path clip-path="url(#p18b9c352f6)" d="M 96.136364 236.733008 
L 128.653846 244.537177 
L 161.171329 244.299915 
L 193.688811 248.543121 
L 226.206294 211.218038 
L 258.723776 212.709276 
L 291.241259 227.349836 
L 323.758741 232.929565 
L 356.276224 231.02411 
L 388.793706 241.168929 
L 421.311189 271.30895 
L 453.828671 266.98448 
L 486.346154 264.372198 
L 518.863636 273.467642 
" style="fill:none;stroke:#808080;stroke-linecap:round;stroke-opacity:0.4;"/>
   </g>
   <g id="line2d_35">
    <path clip-path="url(#p18b9c352f6)" d="M 96.136364 297.222123 
L 128.653846 299.311502 
L 161.171329 256.436165 
L 193.688811 255.248746 
L 226.206294 270.101322 
L 258.723776 263.836902 
L 291.241259 272.619536 
L 323.758741 259.529762 
L 356.276224 271.869343 
L 388.793706 287.055521 
L 421.311189 298.318464 
L 453.828671 301.091947 
L 486.346154 317.806515 
L 518.863636 321.440936 
" style="fill:none;stroke:#808080;stroke-linecap:round;stroke-opacity:0.4;"/>
   </g>
   <g id="line2d_36">
    <path clip-path="url(#p18b9c352f6)" d="M 96.136364 393.545794 
L 128.653846 374.239767 
L 161.171329 390.616471 
L 193.688811 338.666104 
L 226.206294 276.711933 
L 258.723776 361.771643 
L 291.241259 371.806787 
L 323.758741 346.600981 
L 356.276224 330.561962 
L 388.793706 354.474998 
L 421.311189 362.096403 
L 453.828671 321.06119 
L 486.346154 390.229833 
L 518.863636 421.175499 
" style="fill:none;stroke:#808080;stroke-linecap:round;stroke-opacity:0.4;"/>
   </g>
   <g id="line2d_37">
    <path clip-path="url(#p18b9c352f6)" d="M 96.136364 328.696559 
L 128.653846 300.980099 
L 161.171329 297.440804 
L 193.688811 300.756632 
L 226.206294 261.889024 
L 258.723776 273.656709 
L 291.241259 286.952879 
L 323.758741 267.257116 
L 356.276224 243.432895 
L 388.793706 296.024586 
L 421.311189 284.205655 
L 453.828671 336.984913 
L 486.346154 319.300619 
L 518.863636 333.673566 
" style="fill:none;stroke:#808080;stroke-linecap:round;stroke-opacity:0.4;"/>
   </g>
   <g id="line2d_38">
    <path clip-path="url(#p18b9c352f6)" d="M 96.136364 376.709533 
L 128.653846 435.558982 
L 161.171329 424.475696 
L 193.688811 292.802505 
L 226.206294 353.084741 
L 258.723776 311.009222 
L 291.241259 400.592355 
L 323.758741 360.31816 
L 356.276224 366.044733 
L 388.793706 407.741558 
L 421.311189 369.749834 
L 453.828671 377.958561 
L 486.346154 408.603587 
L 518.863636 409.036314 
" style="fill:none;stroke:#808080;stroke-linecap:round;stroke-opacity:0.4;"/>
   </g>
   <g id="line2d_39">
    <path clip-path="url(#p18b9c352f6)" d="M 96.136364 199.333622 
L 128.653846 158.687607 
L 161.171329 207.516885 
L 193.688811 169.820905 
L 226.206294 145.9546 
L 258.723776 181.123389 
L 291.241259 171.229574 
L 323.758741 170.071564 
L 356.276224 173.263266 
L 388.793706 172.192421 
L 421.311189 211.92954 
L 453.828671 203.281769 
L 486.346154 205.634904 
L 518.863636 227.920756 
" style="fill:none;stroke:#808080;stroke-linecap:round;stroke-opacity:0.4;"/>
   </g>
   <g id="line2d_40">
    <path clip-path="url(#p18b9c352f6)" d="M 96.136364 311.485474 
L 128.653846 288.70662 
L 161.171329 299.533 
L 193.688811 278.358565 
" style="fill:none;stroke:#808080;stroke-linecap:round;stroke-opacity:0.4;"/>
   </g>
   <g id="line2d_41">
    <path clip-path="url(#p18b9c352f6)" d="M 96.136364 316.448822 
L 128.653846 337.263913 
L 161.171329 272.525573 
L 193.688811 303.231744 
L 226.206294 277.291204 
L 258.723776 297.331427 
L 291.241259 286.645341 
L 323.758741 279.139232 
L 356.276224 238.020759 
L 388.793706 258.750853 
L 421.311189 296.350317 
L 453.828671 329.626598 
L 486.346154 338.384701 
L 518.863636 364.387983 
" style="fill:none;stroke:#808080;stroke-linecap:round;stroke-opacity:0.4;"/>
   </g>
   <g id="line2d_42">
    <path clip-path="url(#p18b9c352f6)" d="M 96.136364 263.65886 
L 128.653846 231.60804 
L 161.171329 270.379214 
L 193.688811 253.149588 
L 226.206294 247.492088 
L 258.723776 250.583545 
L 291.241259 247.814763 
L 323.758741 242.10194 
L 356.276224 237.640954 
L 388.793706 276.423066 
L 421.311189 270.564739 
L 453.828671 280.120341 
L 486.346154 277.969626 
L 518.863636 280.021965 
" style="fill:none;stroke:#808080;stroke-linecap:round;stroke-opacity:0.4;"/>
   </g>
   <g id="line2d_43">
    <path clip-path="url(#p18b9c352f6)" d="M 96.136364 319.550971 
L 128.653846 331.772497 
L 161.171329 303.799538 
L 193.688811 273.18445 
L 226.206294 278.16398 
L 258.723776 316.817984 
L 291.241259 322.968812 
L 323.758741 308.531429 
L 356.276224 302.778925 
L 388.793706 315.10232 
L 421.311189 328.829098 
L 453.828671 333.264327 
L 486.346154 358.559067 
L 518.863636 376.177145 
" style="fill:none;stroke:#808080;stroke-linecap:round;stroke-opacity:0.4;"/>
   </g>
   <g id="line2d_44">
    <path clip-path="url(#p18b9c352f6)" d="M 96.136364 280.613114 
L 128.653846 304.59778 
L 161.171329 282.299751 
L 193.688811 263.747857 
L 226.206294 262.86006 
L 258.723776 249.111875 
L 291.241259 264.640505 
L 323.758741 271.775811 
L 356.276224 250.25536 
L 388.793706 289.122016 
L 421.311189 309.706644 
L 453.828671 304.59778 
L 486.346154 337.54339 
L 518.863636 332.99207 
" style="fill:none;stroke:#808080;stroke-linecap:round;stroke-opacity:0.4;"/>
   </g>
   <g id="line2d_45">
    <path clip-path="url(#p18b9c352f6)" d="M 96.136364 291.953909 
L 128.653846 321.694592 
L 161.171329 290.689225 
L 193.688811 305.860095 
L 226.206294 303.458625 
L 258.723776 307.132241 
L 291.241259 282.100417 
L 323.758741 292.90889 
L 356.276224 287.775824 
L 388.793706 293.228461 
L 421.311189 296.459039 
L 453.828671 317.311502 
L 486.346154 300.980099 
L 518.863636 366.712167 
" style="fill:none;stroke:#808080;stroke-linecap:round;stroke-opacity:0.4;"/>
   </g>
   <g id="line2d_46">
    <path clip-path="url(#p18b9c352f6)" d="M 96.136364 362.747866 
L 128.653846 334.495131 
L 161.171329 324.898975 
L 193.688811 312.202465 
L 226.206294 310.060864 
L 258.723776 310.297438 
L 291.241259 327.771786 
L 323.758741 287.055521 
L 356.276224 304.712134 
L 388.793706 297.112893 
L 421.311189 351.401451 
L 453.828671 344.982871 
L 486.346154 357.765698 
L 518.863636 395.927672 
" style="fill:none;stroke:#808080;stroke-linecap:round;stroke-opacity:0.4;"/>
   </g>
   <g id="line2d_47">
    <path clip-path="url(#p18b9c352f6)" d="M 96.136364 355.252507 
L 128.653846 338.806987 
L 161.171329 336.01215 
L 193.688811 338.103782 
L 226.206294 309.470924 
L 258.723776 331.772497 
L 291.241259 327.508523 
L 323.758741 300.756632 
L 356.276224 296.459039 
L 388.793706 319.67629 
L 421.311189 325.028468 
L 453.828671 309.588742 
L 486.346154 302.778925 
L 518.863636 334.769907 
" style="fill:none;stroke:#808080;stroke-linecap:round;stroke-opacity:0.4;"/>
   </g>
   <g id="line2d_48">
    <path clip-path="url(#p18b9c352f6)" d="M 96.136364 256.606503 
L 128.653846 233.224694 
L 161.171329 178.091821 
L 193.688811 189.493889 
L 226.206294 183.666129 
L 258.723776 200.901449 
L 291.241259 216.798291 
L 323.758741 165.032721 
L 356.276224 173.007666 
L 388.793706 200.417436 
L 421.311189 255.926214 
L 453.828671 208.402619 
L 486.346154 209.868261 
L 518.863636 240.781742 
" style="fill:none;stroke:#808080;stroke-linecap:round;stroke-opacity:0.4;"/>
   </g>
   <g id="line2d_49">
    <path clip-path="url(#p18b9c352f6)" d="M 96.136364 183.121795 
L 128.653846 158.033816 
L 161.171329 176.466393 
L 193.688811 171.078063 
L 226.206294 168.176135 
L 258.723776 206.824305 
L 291.241259 179.999939 
L 323.758741 203.158854 
L 356.276224 179.999939 
L 388.793706 197.840156 
L 421.311189 204.330299 
L 453.828671 211.347172 
L 486.346154 244.458051 
L 518.863636 225.085904 
" style="fill:none;stroke:#808080;stroke-linecap:round;stroke-opacity:0.4;"/>
   </g>
   <g id="line2d_50">
    <path clip-path="url(#p18b9c352f6)" d="M 96.136364 161.329258 
L 128.653846 193.671682 
L 161.171329 182.904569 
L 193.688811 141.935737 
L 226.206294 173.416819 
L 258.723776 192.17142 
L 291.241259 183.938977 
L 323.758741 219.152624 
L 356.276224 184.815167 
L 388.793706 173.416819 
L 421.311189 221.197987 
L 453.828671 238.325241 
L 486.346154 233.150862 
L 518.863636 198.914073 
" style="fill:none;stroke:#808080;stroke-linecap:round;stroke-opacity:0.4;"/>
   </g>
   <g id="line2d_51">
    <path clip-path="url(#p18b9c352f6)" d="M 96.136364 399.158516 
L 128.653846 366.712167 
L 161.171329 390.423038 
L 193.688811 253.902181 
L 226.206294 387.358859 
L 258.723776 373.36668 
L 291.241259 368.730989 
L 323.758741 280.514441 
L 356.276224 254.911062 
L 388.793706 329.094499 
L 421.311189 312.922617 
L 453.828671 352.011552 
L 486.346154 322.585502 
L 518.863636 287.98221 
" style="fill:none;stroke:#808080;stroke-linecap:round;stroke-opacity:0.4;"/>
   </g>
   <g id="line2d_52">
    <path clip-path="url(#p18b9c352f6)" d="M 96.136364 374.765868 
L 128.653846 363.729959 
L 161.171329 346.158087 
L 193.688811 349.735329 
L 226.206294 330.428011 
L 258.723776 338.103782 
L 291.241259 315.224272 
L 323.758741 327.245685 
L 356.276224 309.588742 
L 388.793706 320.304335 
L 421.311189 346.158087 
L 453.828671 359.676296 
L 486.346154 367.886779 
L 518.863636 420.244703 
" style="fill:none;stroke:#808080;stroke-linecap:round;stroke-opacity:0.4;"/>
   </g>
   <g id="line2d_53">
    <path clip-path="url(#p18b9c352f6)" d="M 96.136364 322.968812 
L 128.653846 318.054585 
L 161.171329 302.440133 
L 193.688811 294.620541 
L 226.206294 287.466734 
L 258.723776 287.055521 
L 291.241259 267.803756 
L 323.758741 280.810641 
L 356.276224 288.81037 
L 388.793706 311.247174 
L 421.311189 322.713172 
L 453.828671 321.314256 
L 486.346154 327.377051 
L 518.863636 315.590674 
" style="fill:none;stroke:#808080;stroke-linecap:round;stroke-opacity:0.4;"/>
   </g>
   <g id="line2d_54">
    <path clip-path="url(#p18b9c352f6)" d="M 96.136364 383.79326 
L 128.653846 412.097929 
L 161.171329 359.196548 
L 193.688811 367.04691 
L 226.206294 355.877189 
L 258.723776 333.810206 
L 291.241259 336.567305 
L 323.758741 319.67629 
L 356.276224 314.98046 
L 388.793706 328.167476 
L 421.311189 313.163375 
L 453.828671 340.792219 
L 486.346154 322.968812 
L 518.863636 339.230368 
" style="fill:none;stroke:#808080;stroke-linecap:round;stroke-opacity:0.4;"/>
   </g>
   <g id="line2d_55">
    <path clip-path="url(#p18b9c352f6)" d="M 96.136364 327.377051 
L 128.653846 306.206063 
L 161.171329 330.160436 
L 193.688811 295.48314 
L 226.206294 322.33046 
L 258.723776 295.807792 
L 291.241259 307.71378 
L 323.758741 299.86581 
L 356.276224 282.200053 
L 388.793706 292.483765 
L 421.311189 280.909494 
L 453.828671 295.375065 
L 486.346154 308.180507 
L 518.863636 338.103782 
" style="fill:none;stroke:#808080;stroke-linecap:round;stroke-opacity:0.4;"/>
   </g>
   <g id="line2d_56">
    <path clip-path="url(#p18b9c352f6)" d="M 96.136364 289.747096 
L 128.653846 276.711933 
L 161.171329 254.826751 
L 193.688811 261.713091 
L 226.206294 268.260692 
L 258.723776 258.319725 
L 291.241259 253.06618 
L 323.758741 238.78303 
L 356.276224 263.303355 
L 388.793706 255.079817 
L 421.311189 241.091418 
L 453.828671 270.843421 
L 486.346154 274.320174 
L 518.863636 262.771545 
" style="fill:none;stroke:#808080;stroke-linecap:round;stroke-opacity:0.4;"/>
   </g>
   <g id="line2d_57">
    <path clip-path="url(#p18b9c352f6)" d="M 96.136364 238.78303 
L 128.653846 230.007229 
L 161.171329 233.96486 
L 193.688811 230.369674 
L 226.206294 227.563697 
L 258.723776 248.219005 
L 291.241259 232.634967 
L 323.758741 207.264698 
L 356.276224 201.569317 
L 388.793706 209.932284 
L 421.311189 253.902181 
L 453.828671 252.649778 
L 486.346154 276.711933 
L 518.863636 273.562148 
" style="fill:none;stroke:#808080;stroke-linecap:round;stroke-opacity:0.4;"/>
   </g>
   <g id="line2d_58">
    <path clip-path="url(#p18b9c352f6)" d="M 96.136364 364.387983 
L 128.653846 272.244009 
L 161.171329 283.199776 
L 193.688811 339.796587 
L 226.206294 310.534355 
L 258.723776 285.828057 
L 291.241259 304.255199 
L 323.758741 306.206063 
L 356.276224 325.547465 
L 388.793706 280.711848 
L 421.311189 330.294168 
L 453.828671 319.550971 
L 486.346154 331.233374 
L 518.863636 341.650474 
" style="fill:none;stroke:#808080;stroke-linecap:round;stroke-opacity:0.4;"/>
   </g>
   <g id="line2d_59">
    <path clip-path="url(#p18b9c352f6)" d="M 96.136364 284.913474 
L 128.653846 275.368236 
L 161.171329 312.202465 
L 193.688811 305.514859 
L 226.206294 301.877036 
L 258.723776 288.292278 
L 291.241259 291.214988 
L 323.758741 276.230771 
L 356.276224 267.348096 
L 388.793706 307.016181 
L 421.311189 291.636819 
L 453.828671 318.427399 
L 486.346154 292.696189 
L 518.863636 308.765797 
" style="fill:none;stroke:#808080;stroke-linecap:round;stroke-opacity:0.4;"/>
   </g>
   <g id="line2d_60">
    <path clip-path="url(#p18b9c352f6)" d="M 96.136364 199.81443 
L 128.653846 199.333622 
L 161.171329 195.889458 
L 193.688811 155.215302 
L 226.206294 178.619622 
L 258.723776 200.477859 
L 291.241259 203.097431 
L 323.758741 199.694095 
L 356.276224 184.925021 
L 388.793706 217.534574 
L 421.311189 230.732926 
L 453.828671 214.280001 
L 486.346154 196.41916 
L 518.863636 247.97634 
" style="fill:none;stroke:#808080;stroke-linecap:round;stroke-opacity:0.4;"/>
   </g>
   <g id="line2d_61">
    <path clip-path="url(#p18b9c352f6)" d="M 96.136364 284.003983 
L 128.653846 282.69915 
L 161.171329 251.324382 
L 193.688811 268.169202 
L 226.206294 290.479393 
L 258.723776 267.895041 
L 291.241259 280.514441 
L 323.758741 239.395417 
L 356.276224 246.367718 
L 388.793706 283.400457 
L 421.311189 314.372516 
L 453.828671 313.525178 
L 486.346154 343.380632 
L 518.863636 358.718204 
" style="fill:none;stroke:#808080;stroke-linecap:round;stroke-opacity:0.4;"/>
   </g>
   <g id="line2d_62">
    <path clip-path="url(#p18b9c352f6)" d="M 96.136364 258.40586 
L 128.653846 293.976568 
L 161.171329 241.946067 
L 193.688811 222.575931 
L 226.206294 172.599535 
L 258.723776 181.230788 
L 291.241259 217.199489 
L 323.758741 206.009569 
L 356.276224 196.537106 
L 388.793706 211.86473 
L 421.311189 222.29941 
L 453.828671 245.808422 
L 486.346154 259.269713 
L 518.863636 294.083721 
" style="fill:none;stroke:#808080;stroke-linecap:round;stroke-opacity:0.4;"/>
   </g>
   <g id="patch_3">
    <path d="M 75 534 
L 75 72 
" style="fill:none;"/>
   </g>
   <g id="patch_4">
    <path d="M 540 534 
L 540 72 
" style="fill:none;"/>
   </g>
   <g id="patch_5">
    <path d="M 75 534 
L 540 534 
" style="fill:none;"/>
   </g>
   <g id="patch_6">
    <path d="M 75 72 
L 540 72 
" style="fill:none;"/>
   </g>
   <g id="text_16">
    <!-- Chile -->
    <defs>
     <path d="M 58.796875 25.09375 
L 68.265625 22.703125 
Q 65.28125 11.03125 57.546875 4.90625 
Q 49.8125 -1.21875 38.625 -1.21875 
Q 27.046875 -1.21875 19.796875 3.484375 
Q 12.546875 8.203125 8.765625 17.140625 
Q 4.984375 26.078125 4.984375 36.328125 
Q 4.984375 47.515625 9.25 55.828125 
Q 13.53125 64.15625 21.40625 68.46875 
Q 29.296875 72.796875 38.765625 72.796875 
Q 49.515625 72.796875 56.828125 67.328125 
Q 64.15625 61.859375 67.046875 51.953125 
L 57.71875 49.75 
Q 55.21875 57.5625 50.484375 61.125 
Q 45.75 64.703125 38.578125 64.703125 
Q 30.328125 64.703125 24.78125 60.734375 
Q 19.234375 56.78125 16.984375 50.109375 
Q 14.75 43.453125 14.75 36.375 
Q 14.75 27.25 17.40625 20.4375 
Q 20.0625 13.625 25.671875 10.25 
Q 31.296875 6.890625 37.84375 6.890625 
Q 45.796875 6.890625 51.3125 11.46875 
Q 56.84375 16.0625 58.796875 25.09375 
z
" id="ArialMT-67"/>
     <path d="M 6.59375 0 
L 6.59375 71.578125 
L 15.375 71.578125 
L 15.375 45.90625 
Q 21.53125 53.03125 30.90625 53.03125 
Q 36.671875 53.03125 40.921875 50.75 
Q 45.171875 48.484375 47 44.484375 
Q 48.828125 40.484375 48.828125 32.859375 
L 48.828125 0 
L 40.046875 0 
L 40.046875 32.859375 
Q 40.046875 39.453125 37.1875 42.453125 
Q 34.328125 45.453125 29.109375 45.453125 
Q 25.203125 45.453125 21.75 43.421875 
Q 18.3125 41.40625 16.84375 37.9375 
Q 15.375 34.46875 15.375 28.375 
L 15.375 0 
z
" id="ArialMT-104"/>
     <path d="M 6.390625 0 
L 6.390625 71.578125 
L 15.1875 71.578125 
L 15.1875 0 
z
" id="ArialMT-108"/>
    </defs>
    <g style="fill:#808080;" transform="translate(518.863636 272.713553)scale(0.05 -0.05)">
     <use xlink:href="#ArialMT-67"/>
     <use x="72.216797" xlink:href="#ArialMT-104"/>
     <use x="127.832031" xlink:href="#ArialMT-105"/>
     <use x="150.048828" xlink:href="#ArialMT-108"/>
     <use x="172.265625" xlink:href="#ArialMT-101"/>
    </g>
   </g>
   <g id="text_17">
    <!-- Colombia -->
    <g style="fill:#808080;" transform="translate(518.863636 310.652942)scale(0.05 -0.05)">
     <use xlink:href="#ArialMT-67"/>
     <use x="72.216797" xlink:href="#ArialMT-111"/>
     <use x="127.832031" xlink:href="#ArialMT-108"/>
     <use x="150.048828" xlink:href="#ArialMT-111"/>
     <use x="205.664062" xlink:href="#ArialMT-109"/>
     <use x="288.964844" xlink:href="#ArialMT-98"/>
     <use x="344.580078" xlink:href="#ArialMT-105"/>
     <use x="366.796875" xlink:href="#ArialMT-97"/>
    </g>
   </g>
   <g id="text_18">
    <!-- Croatia -->
    <g style="fill:#808080;" transform="translate(518.863636 354.165028)scale(0.05 -0.05)">
     <use xlink:href="#ArialMT-67"/>
     <use x="72.216797" xlink:href="#ArialMT-114"/>
     <use x="105.517578" xlink:href="#ArialMT-111"/>
     <use x="161.132812" xlink:href="#ArialMT-97"/>
     <use x="216.748047" xlink:href="#ArialMT-116"/>
     <use x="244.53125" xlink:href="#ArialMT-105"/>
     <use x="266.748047" xlink:href="#ArialMT-97"/>
    </g>
   </g>
   <g id="text_19">
    <!-- Cuba -->
    <g style="fill:#ff0000;" transform="translate(421.311189 360.801219)scale(0.169932 -0.169932)">
     <use xlink:href="#ArialMT-67"/>
     <use x="72.216797" xlink:href="#ArialMT-117"/>
     <use x="127.832031" xlink:href="#ArialMT-98"/>
     <use x="183.447266" xlink:href="#ArialMT-97"/>
    </g>
   </g>
   <g id="text_20">
    <!-- Cyprus -->
    <defs>
     <path d="M 6.203125 -19.96875 
L 5.21875 -11.71875 
Q 8.109375 -12.5 10.25 -12.5 
Q 13.1875 -12.5 14.9375 -11.515625 
Q 16.703125 -10.546875 17.828125 -8.796875 
Q 18.65625 -7.46875 20.515625 -2.25 
Q 20.75 -1.515625 21.296875 -0.09375 
L 1.609375 51.859375 
L 11.078125 51.859375 
L 21.875 21.828125 
Q 23.96875 16.109375 25.640625 9.8125 
Q 27.15625 15.875 29.25 21.625 
L 40.328125 51.859375 
L 49.125 51.859375 
L 29.390625 -0.875 
Q 26.21875 -9.421875 24.46875 -12.640625 
Q 22.125 -17 19.09375 -19.015625 
Q 16.0625 -21.046875 11.859375 -21.046875 
Q 9.328125 -21.046875 6.203125 -19.96875 
z
" id="ArialMT-121"/>
     <path d="M 6.59375 -19.875 
L 6.59375 51.859375 
L 14.59375 51.859375 
L 14.59375 45.125 
Q 17.4375 49.078125 21 51.046875 
Q 24.5625 53.03125 29.640625 53.03125 
Q 36.28125 53.03125 41.359375 49.609375 
Q 46.4375 46.1875 49.015625 39.953125 
Q 51.609375 33.734375 51.609375 26.3125 
Q 51.609375 18.359375 48.75 11.984375 
Q 45.90625 5.609375 40.453125 2.21875 
Q 35.015625 -1.171875 29 -1.171875 
Q 24.609375 -1.171875 21.109375 0.6875 
Q 17.625 2.546875 15.375 5.375 
L 15.375 -19.875 
z
M 14.546875 25.640625 
Q 14.546875 15.625 18.59375 10.84375 
Q 22.65625 6.0625 28.421875 6.0625 
Q 34.28125 6.0625 38.453125 11.015625 
Q 42.625 15.96875 42.625 26.375 
Q 42.625 36.28125 38.546875 41.203125 
Q 34.46875 46.140625 28.8125 46.140625 
Q 23.1875 46.140625 18.859375 40.890625 
Q 14.546875 35.640625 14.546875 25.640625 
z
" id="ArialMT-112"/>
    </defs>
    <g style="fill:#808080;" transform="translate(518.863636 280.218777)scale(0.05 -0.05)">
     <use xlink:href="#ArialMT-67"/>
     <use x="72.216797" xlink:href="#ArialMT-121"/>
     <use x="122.216797" xlink:href="#ArialMT-112"/>
     <use x="177.832031" xlink:href="#ArialMT-114"/>
     <use x="211.132812" xlink:href="#ArialMT-117"/>
     <use x="266.748047" xlink:href="#ArialMT-115"/>
    </g>
   </g>
   <g id="text_21">
    <!-- Ecuador -->
    <defs>
     <path d="M 7.90625 0 
L 7.90625 71.578125 
L 59.671875 71.578125 
L 59.671875 63.140625 
L 17.390625 63.140625 
L 17.390625 41.21875 
L 56.984375 41.21875 
L 56.984375 32.8125 
L 17.390625 32.8125 
L 17.390625 8.453125 
L 61.328125 8.453125 
L 61.328125 0 
z
" id="ArialMT-69"/>
     <path d="M 40.234375 0 
L 40.234375 6.546875 
Q 35.296875 -1.171875 25.734375 -1.171875 
Q 19.53125 -1.171875 14.328125 2.25 
Q 9.125 5.671875 6.265625 11.796875 
Q 3.421875 17.921875 3.421875 25.875 
Q 3.421875 33.640625 6 39.96875 
Q 8.59375 46.296875 13.765625 49.65625 
Q 18.953125 53.03125 25.34375 53.03125 
Q 30.03125 53.03125 33.6875 51.046875 
Q 37.359375 49.078125 39.65625 45.90625 
L 39.65625 71.578125 
L 48.390625 71.578125 
L 48.390625 0 
z
M 12.453125 25.875 
Q 12.453125 15.921875 16.640625 10.984375 
Q 20.84375 6.0625 26.5625 6.0625 
Q 32.328125 6.0625 36.34375 10.765625 
Q 40.375 15.484375 40.375 25.140625 
Q 40.375 35.796875 36.265625 40.765625 
Q 32.171875 45.75 26.171875 45.75 
Q 20.3125 45.75 16.375 40.96875 
Q 12.453125 36.1875 12.453125 25.875 
z
" id="ArialMT-100"/>
    </defs>
    <g style="fill:#808080;" transform="translate(518.863636 236.055345)scale(0.05 -0.05)">
     <use xlink:href="#ArialMT-69"/>
     <use x="66.699219" xlink:href="#ArialMT-99"/>
     <use x="116.699219" xlink:href="#ArialMT-117"/>
     <use x="172.314453" xlink:href="#ArialMT-97"/>
     <use x="227.929688" xlink:href="#ArialMT-100"/>
     <use x="283.544922" xlink:href="#ArialMT-111"/>
     <use x="339.160156" xlink:href="#ArialMT-114"/>
    </g>
   </g>
   <g id="text_22">
    <!-- Iran -->
    <defs>
     <path d="M 9.328125 0 
L 9.328125 71.578125 
L 18.796875 71.578125 
L 18.796875 0 
z
" id="ArialMT-73"/>
    </defs>
    <g style="fill:#808080;" transform="translate(518.863636 321.440936)scale(0.05 -0.05)">
     <use xlink:href="#ArialMT-73"/>
     <use x="27.783203" xlink:href="#ArialMT-114"/>
     <use x="61.083984" xlink:href="#ArialMT-97"/>
     <use x="116.699219" xlink:href="#ArialMT-110"/>
    </g>
   </g>
   <g id="text_23">
    <!-- Peru -->
    <defs>
     <path d="M 7.71875 0 
L 7.71875 71.578125 
L 34.71875 71.578125 
Q 41.84375 71.578125 45.609375 70.90625 
Q 50.875 70.015625 54.4375 67.546875 
Q 58.015625 65.09375 60.1875 60.640625 
Q 62.359375 56.203125 62.359375 50.875 
Q 62.359375 41.75 56.546875 35.421875 
Q 50.734375 29.109375 35.546875 29.109375 
L 17.1875 29.109375 
L 17.1875 0 
z
M 17.1875 37.546875 
L 35.6875 37.546875 
Q 44.875 37.546875 48.734375 40.96875 
Q 52.59375 44.390625 52.59375 50.59375 
Q 52.59375 55.078125 50.3125 58.265625 
Q 48.046875 61.46875 44.34375 62.5 
Q 41.9375 63.140625 35.5 63.140625 
L 17.1875 63.140625 
z
" id="ArialMT-80"/>
    </defs>
    <g style="fill:#808080;" transform="translate(518.863636 240.781742)scale(0.05 -0.05)">
     <use xlink:href="#ArialMT-80"/>
     <use x="66.699219" xlink:href="#ArialMT-101"/>
     <use x="122.314453" xlink:href="#ArialMT-114"/>
     <use x="155.615234" xlink:href="#ArialMT-117"/>
    </g>
   </g>
   <g id="text_24">
    <!-- Philippines -->
    <g style="fill:#808080;" transform="translate(518.863636 225.085904)scale(0.05 -0.05)">
     <use xlink:href="#ArialMT-80"/>
     <use x="66.699219" xlink:href="#ArialMT-104"/>
     <use x="122.314453" xlink:href="#ArialMT-105"/>
     <use x="144.53125" xlink:href="#ArialMT-108"/>
     <use x="166.748047" xlink:href="#ArialMT-105"/>
     <use x="188.964844" xlink:href="#ArialMT-112"/>
     <use x="244.580078" xlink:href="#ArialMT-112"/>
     <use x="300.195312" xlink:href="#ArialMT-105"/>
     <use x="322.412109" xlink:href="#ArialMT-110"/>
     <use x="378.027344" xlink:href="#ArialMT-101"/>
     <use x="433.642578" xlink:href="#ArialMT-115"/>
    </g>
   </g>
   <g id="text_25">
    <!-- Puerto Rico -->
    <defs>
     <path d="M 7.859375 0 
L 7.859375 71.578125 
L 39.59375 71.578125 
Q 49.171875 71.578125 54.140625 69.640625 
Q 59.125 67.71875 62.109375 62.828125 
Q 65.09375 57.953125 65.09375 52.046875 
Q 65.09375 44.4375 60.15625 39.203125 
Q 55.21875 33.984375 44.921875 32.5625 
Q 48.6875 30.765625 50.640625 29 
Q 54.78125 25.203125 58.5 19.484375 
L 70.953125 0 
L 59.03125 0 
L 49.5625 14.890625 
Q 45.40625 21.34375 42.71875 24.75 
Q 40.046875 28.171875 37.921875 29.53125 
Q 35.796875 30.90625 33.59375 31.453125 
Q 31.984375 31.78125 28.328125 31.78125 
L 17.328125 31.78125 
L 17.328125 0 
z
M 17.328125 39.984375 
L 37.703125 39.984375 
Q 44.1875 39.984375 47.84375 41.328125 
Q 51.515625 42.671875 53.421875 45.625 
Q 55.328125 48.578125 55.328125 52.046875 
Q 55.328125 57.125 51.640625 60.390625 
Q 47.953125 63.671875 39.984375 63.671875 
L 17.328125 63.671875 
z
" id="ArialMT-82"/>
    </defs>
    <g style="fill:#808080;" transform="translate(518.863636 198.914073)scale(0.05 -0.05)">
     <use xlink:href="#ArialMT-80"/>
     <use x="66.699219" xlink:href="#ArialMT-117"/>
     <use x="122.314453" xlink:href="#ArialMT-101"/>
     <use x="177.929688" xlink:href="#ArialMT-114"/>
     <use x="211.230469" xlink:href="#ArialMT-116"/>
     <use x="239.013672" xlink:href="#ArialMT-111"/>
     <use x="294.628906" xlink:href="#ArialMT-32"/>
     <use x="322.412109" xlink:href="#ArialMT-82"/>
     <use x="394.628906" xlink:href="#ArialMT-105"/>
     <use x="416.845703" xlink:href="#ArialMT-99"/>
     <use x="466.845703" xlink:href="#ArialMT-111"/>
    </g>
   </g>
   <g id="text_26">
    <!-- Uruguay -->
    <defs>
     <path d="M 54.6875 71.578125 
L 64.15625 71.578125 
L 64.15625 30.21875 
Q 64.15625 19.4375 61.71875 13.078125 
Q 59.28125 6.734375 52.90625 2.75 
Q 46.53125 -1.21875 36.1875 -1.21875 
Q 26.125 -1.21875 19.71875 2.25 
Q 13.328125 5.71875 10.59375 12.28125 
Q 7.859375 18.84375 7.859375 30.21875 
L 7.859375 71.578125 
L 17.328125 71.578125 
L 17.328125 30.28125 
Q 17.328125 20.953125 19.0625 16.53125 
Q 20.796875 12.109375 25.015625 9.71875 
Q 29.25 7.328125 35.359375 7.328125 
Q 45.796875 7.328125 50.234375 12.0625 
Q 54.6875 16.796875 54.6875 30.28125 
z
" id="ArialMT-85"/>
    </defs>
    <g style="fill:#808080;" transform="translate(518.863636 247.97634)scale(0.05 -0.05)">
     <use xlink:href="#ArialMT-85"/>
     <use x="72.216797" xlink:href="#ArialMT-114"/>
     <use x="105.517578" xlink:href="#ArialMT-117"/>
     <use x="161.132812" xlink:href="#ArialMT-103"/>
     <use x="216.748047" xlink:href="#ArialMT-117"/>
     <use x="272.363281" xlink:href="#ArialMT-97"/>
     <use x="327.978516" xlink:href="#ArialMT-121"/>
    </g>
   </g>
   <g id="text_27">
    <!-- Venezuela -->
    <defs>
     <path d="M 28.171875 0 
L 0.4375 71.578125 
L 10.6875 71.578125 
L 29.296875 19.578125 
Q 31.546875 13.328125 33.0625 7.859375 
Q 34.71875 13.71875 36.921875 19.578125 
L 56.25 71.578125 
L 65.921875 71.578125 
L 37.890625 0 
z
" id="ArialMT-86"/>
     <path d="M 1.953125 0 
L 1.953125 7.125 
L 34.96875 45.015625 
Q 29.34375 44.734375 25.046875 44.734375 
L 3.90625 44.734375 
L 3.90625 51.859375 
L 46.296875 51.859375 
L 46.296875 46.046875 
L 18.21875 13.140625 
L 12.796875 7.125 
Q 18.703125 7.5625 23.875 7.5625 
L 47.859375 7.5625 
L 47.859375 0 
z
" id="ArialMT-122"/>
    </defs>
    <g style="fill:#808080;" transform="translate(518.863636 358.718204)scale(0.05 -0.05)">
     <use xlink:href="#ArialMT-86"/>
     <use x="66.621094" xlink:href="#ArialMT-101"/>
     <use x="122.236328" xlink:href="#ArialMT-110"/>
     <use x="177.851562" xlink:href="#ArialMT-101"/>
     <use x="233.466797" xlink:href="#ArialMT-122"/>
     <use x="283.466797" xlink:href="#ArialMT-117"/>
     <use x="339.082031" xlink:href="#ArialMT-101"/>
     <use x="394.697266" xlink:href="#ArialMT-108"/>
     <use x="416.914062" xlink:href="#ArialMT-97"/>
    </g>
   </g>
   <g id="text_28">
    <!-- Viet Nam -->
    <defs>
     <path d="M 7.625 0 
L 7.625 71.578125 
L 17.328125 71.578125 
L 54.9375 15.375 
L 54.9375 71.578125 
L 64.015625 71.578125 
L 64.015625 0 
L 54.296875 0 
L 16.703125 56.25 
L 16.703125 0 
z
" id="ArialMT-78"/>
    </defs>
    <g style="fill:#808080;" transform="translate(518.863636 294.083721)scale(0.05 -0.05)">
     <use xlink:href="#ArialMT-86"/>
     <use x="66.683594" xlink:href="#ArialMT-105"/>
     <use x="88.900391" xlink:href="#ArialMT-101"/>
     <use x="144.515625" xlink:href="#ArialMT-116"/>
     <use x="172.298828" xlink:href="#ArialMT-32"/>
     <use x="200.082031" xlink:href="#ArialMT-78"/>
     <use x="272.298828" xlink:href="#ArialMT-97"/>
     <use x="327.914062" xlink:href="#ArialMT-109"/>
    </g>
   </g>
   <g id="text_29">
    <!-- Number of citations per publication by Country (1996-2018) -->
    <defs>
     <path d="M 23.390625 -21.046875 
Q 16.109375 -11.859375 11.078125 0.4375 
Q 6.0625 12.75 6.0625 25.921875 
Q 6.0625 37.546875 9.8125 48.1875 
Q 14.203125 60.546875 23.390625 72.796875 
L 29.6875 72.796875 
Q 23.78125 62.640625 21.875 58.296875 
Q 18.890625 51.5625 17.1875 44.234375 
Q 15.09375 35.109375 15.09375 25.875 
Q 15.09375 2.390625 29.6875 -21.046875 
z
" id="ArialMT-40"/>
     <path d="M 3.171875 21.484375 
L 3.171875 30.328125 
L 30.171875 30.328125 
L 30.171875 21.484375 
z
" id="ArialMT-45"/>
     <path d="M 12.359375 -21.046875 
L 6.0625 -21.046875 
Q 20.65625 2.390625 20.65625 25.875 
Q 20.65625 35.0625 18.5625 44.09375 
Q 16.890625 51.421875 13.921875 58.15625 
Q 12.015625 62.546875 6.0625 72.796875 
L 12.359375 72.796875 
Q 21.53125 60.546875 25.921875 48.1875 
Q 29.6875 37.546875 29.6875 25.921875 
Q 29.6875 12.75 24.625 0.4375 
Q 19.578125 -11.859375 12.359375 -21.046875 
z
" id="ArialMT-41"/>
    </defs>
    <g transform="translate(150.09375 66)scale(0.12 -0.12)">
     <use xlink:href="#ArialMT-78"/>
     <use x="72.216797" xlink:href="#ArialMT-117"/>
     <use x="127.832031" xlink:href="#ArialMT-109"/>
     <use x="211.132812" xlink:href="#ArialMT-98"/>
     <use x="266.748047" xlink:href="#ArialMT-101"/>
     <use x="322.363281" xlink:href="#ArialMT-114"/>
     <use x="355.664062" xlink:href="#ArialMT-32"/>
     <use x="383.447266" xlink:href="#ArialMT-111"/>
     <use x="439.0625" xlink:href="#ArialMT-102"/>
     <use x="466.845703" xlink:href="#ArialMT-32"/>
     <use x="494.628906" xlink:href="#ArialMT-99"/>
     <use x="544.628906" xlink:href="#ArialMT-105"/>
     <use x="566.845703" xlink:href="#ArialMT-116"/>
     <use x="594.628906" xlink:href="#ArialMT-97"/>
     <use x="650.244141" xlink:href="#ArialMT-116"/>
     <use x="678.027344" xlink:href="#ArialMT-105"/>
     <use x="700.244141" xlink:href="#ArialMT-111"/>
     <use x="755.859375" xlink:href="#ArialMT-110"/>
     <use x="811.474609" xlink:href="#ArialMT-115"/>
     <use x="861.474609" xlink:href="#ArialMT-32"/>
     <use x="889.257812" xlink:href="#ArialMT-112"/>
     <use x="944.873047" xlink:href="#ArialMT-101"/>
     <use x="1000.488281" xlink:href="#ArialMT-114"/>
     <use x="1033.789062" xlink:href="#ArialMT-32"/>
     <use x="1061.572266" xlink:href="#ArialMT-112"/>
     <use x="1117.1875" xlink:href="#ArialMT-117"/>
     <use x="1172.802734" xlink:href="#ArialMT-98"/>
     <use x="1228.417969" xlink:href="#ArialMT-108"/>
     <use x="1250.634766" xlink:href="#ArialMT-105"/>
     <use x="1272.851562" xlink:href="#ArialMT-99"/>
     <use x="1322.851562" xlink:href="#ArialMT-97"/>
     <use x="1378.466797" xlink:href="#ArialMT-116"/>
     <use x="1406.25" xlink:href="#ArialMT-105"/>
     <use x="1428.466797" xlink:href="#ArialMT-111"/>
     <use x="1484.082031" xlink:href="#ArialMT-110"/>
     <use x="1539.697266" xlink:href="#ArialMT-32"/>
     <use x="1567.480469" xlink:href="#ArialMT-98"/>
     <use x="1623.095703" xlink:href="#ArialMT-121"/>
     <use x="1673.095703" xlink:href="#ArialMT-32"/>
     <use x="1700.878906" xlink:href="#ArialMT-67"/>
     <use x="1773.095703" xlink:href="#ArialMT-111"/>
     <use x="1828.710938" xlink:href="#ArialMT-117"/>
     <use x="1884.326172" xlink:href="#ArialMT-110"/>
     <use x="1939.941406" xlink:href="#ArialMT-116"/>
     <use x="1967.724609" xlink:href="#ArialMT-114"/>
     <use x="2001.025391" xlink:href="#ArialMT-121"/>
     <use x="2051.025391" xlink:href="#ArialMT-32"/>
     <use x="2078.808594" xlink:href="#ArialMT-40"/>
     <use x="2112.109375" xlink:href="#ArialMT-49"/>
     <use x="2167.724609" xlink:href="#ArialMT-57"/>
     <use x="2223.339844" xlink:href="#ArialMT-57"/>
     <use x="2278.955078" xlink:href="#ArialMT-54"/>
     <use x="2334.570312" xlink:href="#ArialMT-45"/>
     <use x="2367.871094" xlink:href="#ArialMT-50"/>
     <use x="2423.486328" xlink:href="#ArialMT-48"/>
     <use x="2479.101562" xlink:href="#ArialMT-49"/>
     <use x="2534.716797" xlink:href="#ArialMT-56"/>
     <use x="2590.332031" xlink:href="#ArialMT-41"/>
    </g>
   </g>
  </g>
 </g>
 <defs>
  <clipPath id="p18b9c352f6">
   <rect height="462" width="465" x="75" y="72"/>
  </clipPath>
 </defs>
</svg>
