<?xml version="1.0" encoding="utf-8" standalone="no"?>
<!DOCTYPE svg PUBLIC "-//W3C//DTD SVG 1.1//EN"
  "http://www.w3.org/Graphics/SVG/1.1/DTD/svg11.dtd">
<!-- Created with matplotlib (https://matplotlib.org/) -->
<svg height="600pt" version="1.1" viewBox="0 0 600 600" width="600pt" xmlns="http://www.w3.org/2000/svg" xmlns:xlink="http://www.w3.org/1999/xlink">
 <defs>
  <style type="text/css">
*{stroke-linecap:butt;stroke-linejoin:round;}
  </style>
 </defs>
 <g id="figure_1">
  <g id="patch_1">
   <path d="M 0 600 
L 600 600 
L 600 0 
L 0 0 
z
" style="fill:#ffffff;"/>
  </g>
  <g id="axes_1">
   <g id="patch_2">
    <path d="M 75 534 
L 540 534 
L 540 72 
L 75 72 
z
" style="fill:#eaeaf2;"/>
   </g>
   <g id="matplotlib.axis_1">
    <g id="xtick_1">
     <g id="line2d_1">
      <path clip-path="url(#p641b0485f1)" d="M 76.921488 534 
L 76.921488 72 
" style="fill:none;stroke:#ffffff;stroke-linecap:round;"/>
     </g>
     <g id="text_1">
      <!-- 1995 -->
      <defs>
       <path d="M 37.25 0 
L 28.46875 0 
L 28.46875 56 
Q 25.296875 52.984375 20.140625 49.953125 
Q 14.984375 46.921875 10.890625 45.40625 
L 10.890625 53.90625 
Q 18.265625 57.375 23.78125 62.296875 
Q 29.296875 67.234375 31.59375 71.875 
L 37.25 71.875 
z
" id="ArialMT-49"/>
       <path d="M 5.46875 16.546875 
L 13.921875 17.328125 
Q 14.984375 11.375 18.015625 8.6875 
Q 21.046875 6 25.78125 6 
Q 29.828125 6 32.875 7.859375 
Q 35.9375 9.71875 37.890625 12.8125 
Q 39.84375 15.921875 41.15625 21.1875 
Q 42.484375 26.46875 42.484375 31.9375 
Q 42.484375 32.515625 42.4375 33.6875 
Q 39.796875 29.5 35.234375 26.875 
Q 30.671875 24.265625 25.34375 24.265625 
Q 16.453125 24.265625 10.296875 30.703125 
Q 4.15625 37.15625 4.15625 47.703125 
Q 4.15625 58.59375 10.578125 65.234375 
Q 17 71.875 26.65625 71.875 
Q 33.640625 71.875 39.421875 68.109375 
Q 45.21875 64.359375 48.21875 57.390625 
Q 51.21875 50.4375 51.21875 37.25 
Q 51.21875 23.53125 48.234375 15.40625 
Q 45.265625 7.28125 39.375 3.03125 
Q 33.5 -1.21875 25.59375 -1.21875 
Q 17.1875 -1.21875 11.859375 3.4375 
Q 6.546875 8.109375 5.46875 16.546875 
z
M 41.453125 48.140625 
Q 41.453125 55.71875 37.421875 60.15625 
Q 33.40625 64.59375 27.734375 64.59375 
Q 21.875 64.59375 17.53125 59.8125 
Q 13.1875 55.03125 13.1875 47.40625 
Q 13.1875 40.578125 17.3125 36.296875 
Q 21.4375 32.03125 27.484375 32.03125 
Q 33.59375 32.03125 37.515625 36.296875 
Q 41.453125 40.578125 41.453125 48.140625 
z
" id="ArialMT-57"/>
       <path d="M 4.15625 18.75 
L 13.375 19.53125 
Q 14.40625 12.796875 18.140625 9.390625 
Q 21.875 6 27.15625 6 
Q 33.5 6 37.890625 10.78125 
Q 42.28125 15.578125 42.28125 23.484375 
Q 42.28125 31 38.0625 35.34375 
Q 33.84375 39.703125 27 39.703125 
Q 22.75 39.703125 19.328125 37.765625 
Q 15.921875 35.84375 13.96875 32.765625 
L 5.71875 33.84375 
L 12.640625 70.609375 
L 48.25 70.609375 
L 48.25 62.203125 
L 19.671875 62.203125 
L 15.828125 42.96875 
Q 22.265625 47.46875 29.34375 47.46875 
Q 38.71875 47.46875 45.15625 40.96875 
Q 51.609375 34.46875 51.609375 24.265625 
Q 51.609375 14.546875 45.953125 7.46875 
Q 39.0625 -1.21875 27.15625 -1.21875 
Q 17.390625 -1.21875 11.203125 4.25 
Q 5.03125 9.71875 4.15625 18.75 
z
" id="ArialMT-53"/>
      </defs>
      <g style="fill:#262626;" transform="translate(56.123581 550.885109)scale(0.187 -0.187)">
       <use xlink:href="#ArialMT-49"/>
       <use x="55.615234" xlink:href="#ArialMT-57"/>
       <use x="111.230469" xlink:href="#ArialMT-57"/>
       <use x="166.845703" xlink:href="#ArialMT-53"/>
      </g>
     </g>
    </g>
    <g id="xtick_2">
     <g id="line2d_2">
      <path clip-path="url(#p641b0485f1)" d="M 172.995868 534 
L 172.995868 72 
" style="fill:none;stroke:#ffffff;stroke-linecap:round;"/>
     </g>
     <g id="text_2">
      <!-- 2000 -->
      <defs>
       <path d="M 50.34375 8.453125 
L 50.34375 0 
L 3.03125 0 
Q 2.9375 3.171875 4.046875 6.109375 
Q 5.859375 10.9375 9.828125 15.625 
Q 13.8125 20.3125 21.34375 26.46875 
Q 33.015625 36.03125 37.109375 41.625 
Q 41.21875 47.21875 41.21875 52.203125 
Q 41.21875 57.421875 37.46875 61 
Q 33.734375 64.59375 27.734375 64.59375 
Q 21.390625 64.59375 17.578125 60.78125 
Q 13.765625 56.984375 13.71875 50.25 
L 4.6875 51.171875 
Q 5.609375 61.28125 11.65625 66.578125 
Q 17.71875 71.875 27.9375 71.875 
Q 38.234375 71.875 44.234375 66.15625 
Q 50.25 60.453125 50.25 52 
Q 50.25 47.703125 48.484375 43.546875 
Q 46.734375 39.40625 42.65625 34.8125 
Q 38.578125 30.21875 29.109375 22.21875 
Q 21.1875 15.578125 18.9375 13.203125 
Q 16.703125 10.84375 15.234375 8.453125 
z
" id="ArialMT-50"/>
       <path d="M 4.15625 35.296875 
Q 4.15625 48 6.765625 55.734375 
Q 9.375 63.484375 14.515625 67.671875 
Q 19.671875 71.875 27.484375 71.875 
Q 33.25 71.875 37.59375 69.546875 
Q 41.9375 67.234375 44.765625 62.859375 
Q 47.609375 58.5 49.21875 52.21875 
Q 50.828125 45.953125 50.828125 35.296875 
Q 50.828125 22.703125 48.234375 14.96875 
Q 45.65625 7.234375 40.5 3 
Q 35.359375 -1.21875 27.484375 -1.21875 
Q 17.140625 -1.21875 11.234375 6.203125 
Q 4.15625 15.140625 4.15625 35.296875 
z
M 13.1875 35.296875 
Q 13.1875 17.671875 17.3125 11.828125 
Q 21.4375 6 27.484375 6 
Q 33.546875 6 37.671875 11.859375 
Q 41.796875 17.71875 41.796875 35.296875 
Q 41.796875 52.984375 37.671875 58.78125 
Q 33.546875 64.59375 27.390625 64.59375 
Q 21.34375 64.59375 17.71875 59.46875 
Q 13.1875 52.9375 13.1875 35.296875 
z
" id="ArialMT-48"/>
      </defs>
      <g style="fill:#262626;" transform="translate(152.197962 550.885109)scale(0.187 -0.187)">
       <use xlink:href="#ArialMT-50"/>
       <use x="55.615234" xlink:href="#ArialMT-48"/>
       <use x="111.230469" xlink:href="#ArialMT-48"/>
       <use x="166.845703" xlink:href="#ArialMT-48"/>
      </g>
     </g>
    </g>
    <g id="xtick_3">
     <g id="line2d_3">
      <path clip-path="url(#p641b0485f1)" d="M 269.070248 534 
L 269.070248 72 
" style="fill:none;stroke:#ffffff;stroke-linecap:round;"/>
     </g>
     <g id="text_3">
      <!-- 2005 -->
      <g style="fill:#262626;" transform="translate(248.272342 550.885109)scale(0.187 -0.187)">
       <use xlink:href="#ArialMT-50"/>
       <use x="55.615234" xlink:href="#ArialMT-48"/>
       <use x="111.230469" xlink:href="#ArialMT-48"/>
       <use x="166.845703" xlink:href="#ArialMT-53"/>
      </g>
     </g>
    </g>
    <g id="xtick_4">
     <g id="line2d_4">
      <path clip-path="url(#p641b0485f1)" d="M 365.144628 534 
L 365.144628 72 
" style="fill:none;stroke:#ffffff;stroke-linecap:round;"/>
     </g>
     <g id="text_4">
      <!-- 2010 -->
      <g style="fill:#262626;" transform="translate(344.346722 550.885109)scale(0.187 -0.187)">
       <use xlink:href="#ArialMT-50"/>
       <use x="55.615234" xlink:href="#ArialMT-48"/>
       <use x="111.230469" xlink:href="#ArialMT-49"/>
       <use x="166.845703" xlink:href="#ArialMT-48"/>
      </g>
     </g>
    </g>
    <g id="xtick_5">
     <g id="line2d_5">
      <path clip-path="url(#p641b0485f1)" d="M 461.219008 534 
L 461.219008 72 
" style="fill:none;stroke:#ffffff;stroke-linecap:round;"/>
     </g>
     <g id="text_5">
      <!-- 2015 -->
      <g style="fill:#262626;" transform="translate(440.421102 550.885109)scale(0.187 -0.187)">
       <use xlink:href="#ArialMT-50"/>
       <use x="55.615234" xlink:href="#ArialMT-48"/>
       <use x="111.230469" xlink:href="#ArialMT-49"/>
       <use x="166.845703" xlink:href="#ArialMT-53"/>
      </g>
     </g>
    </g>
    <g id="text_6">
     <!-- Year -->
     <defs>
      <path d="M 27.875 0 
L 27.875 30.328125 
L 0.296875 71.578125 
L 11.8125 71.578125 
L 25.921875 50 
Q 29.828125 43.953125 33.203125 37.890625 
Q 36.421875 43.5 41.015625 50.53125 
L 54.890625 71.578125 
L 65.921875 71.578125 
L 37.359375 30.328125 
L 37.359375 0 
z
" id="ArialMT-89"/>
      <path d="M 42.09375 16.703125 
L 51.171875 15.578125 
Q 49.03125 7.625 43.21875 3.21875 
Q 37.40625 -1.171875 28.375 -1.171875 
Q 17 -1.171875 10.328125 5.828125 
Q 3.65625 12.84375 3.65625 25.484375 
Q 3.65625 38.578125 10.390625 45.796875 
Q 17.140625 53.03125 27.875 53.03125 
Q 38.28125 53.03125 44.875 45.953125 
Q 51.46875 38.875 51.46875 26.03125 
Q 51.46875 25.25 51.421875 23.6875 
L 12.75 23.6875 
Q 13.234375 15.140625 17.578125 10.59375 
Q 21.921875 6.0625 28.421875 6.0625 
Q 33.25 6.0625 36.671875 8.59375 
Q 40.09375 11.140625 42.09375 16.703125 
z
M 13.234375 30.90625 
L 42.1875 30.90625 
Q 41.609375 37.453125 38.875 40.71875 
Q 34.671875 45.796875 27.984375 45.796875 
Q 21.921875 45.796875 17.796875 41.75 
Q 13.671875 37.703125 13.234375 30.90625 
z
" id="ArialMT-101"/>
      <path d="M 40.4375 6.390625 
Q 35.546875 2.25 31.03125 0.53125 
Q 26.515625 -1.171875 21.34375 -1.171875 
Q 12.796875 -1.171875 8.203125 3 
Q 3.609375 7.171875 3.609375 13.671875 
Q 3.609375 17.484375 5.34375 20.625 
Q 7.078125 23.78125 9.890625 25.6875 
Q 12.703125 27.59375 16.21875 28.5625 
Q 18.796875 29.25 24.03125 29.890625 
Q 34.671875 31.15625 39.703125 32.90625 
Q 39.75 34.71875 39.75 35.203125 
Q 39.75 40.578125 37.25 42.78125 
Q 33.890625 45.75 27.25 45.75 
Q 21.046875 45.75 18.09375 43.578125 
Q 15.140625 41.40625 13.71875 35.890625 
L 5.125 37.0625 
Q 6.296875 42.578125 8.984375 45.96875 
Q 11.671875 49.359375 16.75 51.1875 
Q 21.828125 53.03125 28.515625 53.03125 
Q 35.15625 53.03125 39.296875 51.46875 
Q 43.453125 49.90625 45.40625 47.53125 
Q 47.359375 45.171875 48.140625 41.546875 
Q 48.578125 39.3125 48.578125 33.453125 
L 48.578125 21.734375 
Q 48.578125 9.46875 49.140625 6.21875 
Q 49.703125 2.984375 51.375 0 
L 42.1875 0 
Q 40.828125 2.734375 40.4375 6.390625 
z
M 39.703125 26.03125 
Q 34.90625 24.078125 25.34375 22.703125 
Q 19.921875 21.921875 17.671875 20.9375 
Q 15.4375 19.96875 14.203125 18.09375 
Q 12.984375 16.21875 12.984375 13.921875 
Q 12.984375 10.40625 15.640625 8.0625 
Q 18.3125 5.71875 23.4375 5.71875 
Q 28.515625 5.71875 32.46875 7.9375 
Q 36.421875 10.15625 38.28125 14.015625 
Q 39.703125 17 39.703125 22.796875 
z
" id="ArialMT-97"/>
      <path d="M 6.5 0 
L 6.5 51.859375 
L 14.40625 51.859375 
L 14.40625 44 
Q 17.4375 49.515625 20 51.265625 
Q 22.5625 53.03125 25.640625 53.03125 
Q 30.078125 53.03125 34.671875 50.203125 
L 31.640625 42.046875 
Q 28.421875 43.953125 25.203125 43.953125 
Q 22.3125 43.953125 20.015625 42.21875 
Q 17.71875 40.484375 16.75 37.40625 
Q 15.28125 32.71875 15.28125 27.15625 
L 15.28125 0 
z
" id="ArialMT-114"/>
     </defs>
     <g style="fill:#262626;" transform="translate(285.970031 573.203672)scale(0.204 -0.204)">
      <use xlink:href="#ArialMT-89"/>
      <use x="66.558594" xlink:href="#ArialMT-101"/>
      <use x="122.173828" xlink:href="#ArialMT-97"/>
      <use x="177.789062" xlink:href="#ArialMT-114"/>
     </g>
    </g>
   </g>
   <g id="matplotlib.axis_2">
    <g id="ytick_1">
     <g id="line2d_6">
      <path clip-path="url(#p641b0485f1)" d="M 75 523.60446 
L 540 523.60446 
" style="fill:none;stroke:#ffffff;stroke-linecap:round;"/>
     </g>
     <g id="text_7">
      <!-- 1.5 -->
      <defs>
       <path d="M 9.078125 0 
L 9.078125 10.015625 
L 19.09375 10.015625 
L 19.09375 0 
z
" id="ArialMT-46"/>
      </defs>
      <g style="fill:#262626;" transform="translate(45.507 530.297014)scale(0.187 -0.187)">
       <use xlink:href="#ArialMT-49"/>
       <use x="55.615234" xlink:href="#ArialMT-46"/>
       <use x="83.398438" xlink:href="#ArialMT-53"/>
      </g>
     </g>
    </g>
    <g id="ytick_2">
     <g id="line2d_7">
      <path clip-path="url(#p641b0485f1)" d="M 75 457.146816 
L 540 457.146816 
" style="fill:none;stroke:#ffffff;stroke-linecap:round;"/>
     </g>
     <g id="text_8">
      <!-- 2.0 -->
      <g style="fill:#262626;" transform="translate(45.507 463.839371)scale(0.187 -0.187)">
       <use xlink:href="#ArialMT-50"/>
       <use x="55.615234" xlink:href="#ArialMT-46"/>
       <use x="83.398438" xlink:href="#ArialMT-48"/>
      </g>
     </g>
    </g>
    <g id="ytick_3">
     <g id="line2d_8">
      <path clip-path="url(#p641b0485f1)" d="M 75 390.689172 
L 540 390.689172 
" style="fill:none;stroke:#ffffff;stroke-linecap:round;"/>
     </g>
     <g id="text_9">
      <!-- 2.5 -->
      <g style="fill:#262626;" transform="translate(45.507 397.381727)scale(0.187 -0.187)">
       <use xlink:href="#ArialMT-50"/>
       <use x="55.615234" xlink:href="#ArialMT-46"/>
       <use x="83.398438" xlink:href="#ArialMT-53"/>
      </g>
     </g>
    </g>
    <g id="ytick_4">
     <g id="line2d_9">
      <path clip-path="url(#p641b0485f1)" d="M 75 324.231528 
L 540 324.231528 
" style="fill:none;stroke:#ffffff;stroke-linecap:round;"/>
     </g>
     <g id="text_10">
      <!-- 3.0 -->
      <defs>
       <path d="M 4.203125 18.890625 
L 12.984375 20.0625 
Q 14.5 12.59375 18.140625 9.296875 
Q 21.78125 6 27 6 
Q 33.203125 6 37.46875 10.296875 
Q 41.75 14.59375 41.75 20.953125 
Q 41.75 27 37.796875 30.921875 
Q 33.84375 34.859375 27.734375 34.859375 
Q 25.25 34.859375 21.53125 33.890625 
L 22.515625 41.609375 
Q 23.390625 41.5 23.921875 41.5 
Q 29.546875 41.5 34.03125 44.421875 
Q 38.53125 47.359375 38.53125 53.46875 
Q 38.53125 58.296875 35.25 61.46875 
Q 31.984375 64.65625 26.8125 64.65625 
Q 21.6875 64.65625 18.265625 61.421875 
Q 14.84375 58.203125 13.875 51.765625 
L 5.078125 53.328125 
Q 6.6875 62.15625 12.390625 67.015625 
Q 18.109375 71.875 26.609375 71.875 
Q 32.46875 71.875 37.390625 69.359375 
Q 42.328125 66.84375 44.9375 62.5 
Q 47.5625 58.15625 47.5625 53.265625 
Q 47.5625 48.640625 45.0625 44.828125 
Q 42.578125 41.015625 37.703125 38.765625 
Q 44.046875 37.3125 47.5625 32.6875 
Q 51.078125 28.078125 51.078125 21.140625 
Q 51.078125 11.765625 44.234375 5.25 
Q 37.40625 -1.265625 26.953125 -1.265625 
Q 17.53125 -1.265625 11.296875 4.34375 
Q 5.078125 9.96875 4.203125 18.890625 
z
" id="ArialMT-51"/>
      </defs>
      <g style="fill:#262626;" transform="translate(45.507 330.924083)scale(0.187 -0.187)">
       <use xlink:href="#ArialMT-51"/>
       <use x="55.615234" xlink:href="#ArialMT-46"/>
       <use x="83.398438" xlink:href="#ArialMT-48"/>
      </g>
     </g>
    </g>
    <g id="ytick_5">
     <g id="line2d_10">
      <path clip-path="url(#p641b0485f1)" d="M 75 257.773884 
L 540 257.773884 
" style="fill:none;stroke:#ffffff;stroke-linecap:round;"/>
     </g>
     <g id="text_11">
      <!-- 3.5 -->
      <g style="fill:#262626;" transform="translate(45.507 264.466439)scale(0.187 -0.187)">
       <use xlink:href="#ArialMT-51"/>
       <use x="55.615234" xlink:href="#ArialMT-46"/>
       <use x="83.398438" xlink:href="#ArialMT-53"/>
      </g>
     </g>
    </g>
    <g id="ytick_6">
     <g id="line2d_11">
      <path clip-path="url(#p641b0485f1)" d="M 75 191.31624 
L 540 191.31624 
" style="fill:none;stroke:#ffffff;stroke-linecap:round;"/>
     </g>
     <g id="text_12">
      <!-- 4.0 -->
      <defs>
       <path d="M 32.328125 0 
L 32.328125 17.140625 
L 1.265625 17.140625 
L 1.265625 25.203125 
L 33.9375 71.578125 
L 41.109375 71.578125 
L 41.109375 25.203125 
L 50.78125 25.203125 
L 50.78125 17.140625 
L 41.109375 17.140625 
L 41.109375 0 
z
M 32.328125 25.203125 
L 32.328125 57.46875 
L 9.90625 25.203125 
z
" id="ArialMT-52"/>
      </defs>
      <g style="fill:#262626;" transform="translate(45.507 198.008795)scale(0.187 -0.187)">
       <use xlink:href="#ArialMT-52"/>
       <use x="55.615234" xlink:href="#ArialMT-46"/>
       <use x="83.398438" xlink:href="#ArialMT-48"/>
      </g>
     </g>
    </g>
    <g id="ytick_7">
     <g id="line2d_12">
      <path clip-path="url(#p641b0485f1)" d="M 75 124.858597 
L 540 124.858597 
" style="fill:none;stroke:#ffffff;stroke-linecap:round;"/>
     </g>
     <g id="text_13">
      <!-- 4.5 -->
      <g style="fill:#262626;" transform="translate(45.507 131.551151)scale(0.187 -0.187)">
       <use xlink:href="#ArialMT-52"/>
       <use x="55.615234" xlink:href="#ArialMT-46"/>
       <use x="83.398438" xlink:href="#ArialMT-53"/>
      </g>
     </g>
    </g>
    <g id="text_14">
     <!-- Log10 of number of publications -->
     <defs>
      <path d="M 7.328125 0 
L 7.328125 71.578125 
L 16.796875 71.578125 
L 16.796875 8.453125 
L 52.046875 8.453125 
L 52.046875 0 
z
" id="ArialMT-76"/>
      <path d="M 3.328125 25.921875 
Q 3.328125 40.328125 11.328125 47.265625 
Q 18.015625 53.03125 27.640625 53.03125 
Q 38.328125 53.03125 45.109375 46.015625 
Q 51.90625 39.015625 51.90625 26.65625 
Q 51.90625 16.65625 48.90625 10.90625 
Q 45.90625 5.171875 40.15625 2 
Q 34.421875 -1.171875 27.640625 -1.171875 
Q 16.75 -1.171875 10.03125 5.8125 
Q 3.328125 12.796875 3.328125 25.921875 
z
M 12.359375 25.921875 
Q 12.359375 15.96875 16.703125 11.015625 
Q 21.046875 6.0625 27.640625 6.0625 
Q 34.1875 6.0625 38.53125 11.03125 
Q 42.875 16.015625 42.875 26.21875 
Q 42.875 35.84375 38.5 40.796875 
Q 34.125 45.75 27.640625 45.75 
Q 21.046875 45.75 16.703125 40.8125 
Q 12.359375 35.890625 12.359375 25.921875 
z
" id="ArialMT-111"/>
      <path d="M 4.984375 -4.296875 
L 13.53125 -5.5625 
Q 14.0625 -9.515625 16.5 -11.328125 
Q 19.78125 -13.765625 25.4375 -13.765625 
Q 31.546875 -13.765625 34.859375 -11.328125 
Q 38.1875 -8.890625 39.359375 -4.5 
Q 40.046875 -1.8125 39.984375 6.78125 
Q 34.234375 0 25.640625 0 
Q 14.9375 0 9.078125 7.71875 
Q 3.21875 15.4375 3.21875 26.21875 
Q 3.21875 33.640625 5.90625 39.90625 
Q 8.59375 46.1875 13.6875 49.609375 
Q 18.796875 53.03125 25.6875 53.03125 
Q 34.859375 53.03125 40.828125 45.609375 
L 40.828125 51.859375 
L 48.921875 51.859375 
L 48.921875 7.03125 
Q 48.921875 -5.078125 46.453125 -10.125 
Q 44 -15.1875 38.640625 -18.109375 
Q 33.296875 -21.046875 25.484375 -21.046875 
Q 16.21875 -21.046875 10.5 -16.875 
Q 4.78125 -12.703125 4.984375 -4.296875 
z
M 12.25 26.859375 
Q 12.25 16.65625 16.296875 11.96875 
Q 20.359375 7.28125 26.46875 7.28125 
Q 32.515625 7.28125 36.609375 11.9375 
Q 40.71875 16.609375 40.71875 26.5625 
Q 40.71875 36.078125 36.5 40.90625 
Q 32.28125 45.75 26.3125 45.75 
Q 20.453125 45.75 16.34375 40.984375 
Q 12.25 36.234375 12.25 26.859375 
z
" id="ArialMT-103"/>
      <path id="ArialMT-32"/>
      <path d="M 8.6875 0 
L 8.6875 45.015625 
L 0.921875 45.015625 
L 0.921875 51.859375 
L 8.6875 51.859375 
L 8.6875 57.375 
Q 8.6875 62.59375 9.625 65.140625 
Q 10.890625 68.5625 14.078125 70.671875 
Q 17.28125 72.796875 23.046875 72.796875 
Q 26.765625 72.796875 31.25 71.921875 
L 29.9375 64.265625 
Q 27.203125 64.75 24.75 64.75 
Q 20.75 64.75 19.09375 63.03125 
Q 17.4375 61.328125 17.4375 56.640625 
L 17.4375 51.859375 
L 27.546875 51.859375 
L 27.546875 45.015625 
L 17.4375 45.015625 
L 17.4375 0 
z
" id="ArialMT-102"/>
      <path d="M 6.59375 0 
L 6.59375 51.859375 
L 14.5 51.859375 
L 14.5 44.484375 
Q 20.21875 53.03125 31 53.03125 
Q 35.6875 53.03125 39.625 51.34375 
Q 43.5625 49.65625 45.515625 46.921875 
Q 47.46875 44.1875 48.25 40.4375 
Q 48.734375 37.984375 48.734375 31.890625 
L 48.734375 0 
L 39.9375 0 
L 39.9375 31.546875 
Q 39.9375 36.921875 38.90625 39.578125 
Q 37.890625 42.234375 35.28125 43.8125 
Q 32.671875 45.40625 29.15625 45.40625 
Q 23.53125 45.40625 19.453125 41.84375 
Q 15.375 38.28125 15.375 28.328125 
L 15.375 0 
z
" id="ArialMT-110"/>
      <path d="M 40.578125 0 
L 40.578125 7.625 
Q 34.515625 -1.171875 24.125 -1.171875 
Q 19.53125 -1.171875 15.546875 0.578125 
Q 11.578125 2.34375 9.640625 5 
Q 7.71875 7.671875 6.9375 11.53125 
Q 6.390625 14.109375 6.390625 19.734375 
L 6.390625 51.859375 
L 15.1875 51.859375 
L 15.1875 23.09375 
Q 15.1875 16.21875 15.71875 13.8125 
Q 16.546875 10.359375 19.234375 8.375 
Q 21.921875 6.390625 25.875 6.390625 
Q 29.828125 6.390625 33.296875 8.421875 
Q 36.765625 10.453125 38.203125 13.9375 
Q 39.65625 17.4375 39.65625 24.078125 
L 39.65625 51.859375 
L 48.4375 51.859375 
L 48.4375 0 
z
" id="ArialMT-117"/>
      <path d="M 6.59375 0 
L 6.59375 51.859375 
L 14.453125 51.859375 
L 14.453125 44.578125 
Q 16.890625 48.390625 20.9375 50.703125 
Q 25 53.03125 30.171875 53.03125 
Q 35.9375 53.03125 39.625 50.640625 
Q 43.3125 48.25 44.828125 43.953125 
Q 50.984375 53.03125 60.84375 53.03125 
Q 68.5625 53.03125 72.703125 48.75 
Q 76.859375 44.484375 76.859375 35.59375 
L 76.859375 0 
L 68.109375 0 
L 68.109375 32.671875 
Q 68.109375 37.9375 67.25 40.25 
Q 66.40625 42.578125 64.15625 43.984375 
Q 61.921875 45.40625 58.890625 45.40625 
Q 53.421875 45.40625 49.796875 41.765625 
Q 46.1875 38.140625 46.1875 30.125 
L 46.1875 0 
L 37.40625 0 
L 37.40625 33.6875 
Q 37.40625 39.546875 35.25 42.46875 
Q 33.109375 45.40625 28.21875 45.40625 
Q 24.515625 45.40625 21.359375 43.453125 
Q 18.21875 41.5 16.796875 37.734375 
Q 15.375 33.984375 15.375 26.90625 
L 15.375 0 
z
" id="ArialMT-109"/>
      <path d="M 14.703125 0 
L 6.546875 0 
L 6.546875 71.578125 
L 15.328125 71.578125 
L 15.328125 46.046875 
Q 20.90625 53.03125 29.546875 53.03125 
Q 34.328125 53.03125 38.59375 51.09375 
Q 42.875 49.171875 45.625 45.671875 
Q 48.390625 42.1875 49.953125 37.25 
Q 51.515625 32.328125 51.515625 26.703125 
Q 51.515625 13.375 44.921875 6.09375 
Q 38.328125 -1.171875 29.109375 -1.171875 
Q 19.921875 -1.171875 14.703125 6.5 
z
M 14.59375 26.3125 
Q 14.59375 17 17.140625 12.84375 
Q 21.296875 6.0625 28.375 6.0625 
Q 34.125 6.0625 38.328125 11.0625 
Q 42.53125 16.0625 42.53125 25.984375 
Q 42.53125 36.140625 38.5 40.96875 
Q 34.46875 45.796875 28.765625 45.796875 
Q 23 45.796875 18.796875 40.796875 
Q 14.59375 35.796875 14.59375 26.3125 
z
" id="ArialMT-98"/>
      <path d="M 6.59375 -19.875 
L 6.59375 51.859375 
L 14.59375 51.859375 
L 14.59375 45.125 
Q 17.4375 49.078125 21 51.046875 
Q 24.5625 53.03125 29.640625 53.03125 
Q 36.28125 53.03125 41.359375 49.609375 
Q 46.4375 46.1875 49.015625 39.953125 
Q 51.609375 33.734375 51.609375 26.3125 
Q 51.609375 18.359375 48.75 11.984375 
Q 45.90625 5.609375 40.453125 2.21875 
Q 35.015625 -1.171875 29 -1.171875 
Q 24.609375 -1.171875 21.109375 0.6875 
Q 17.625 2.546875 15.375 5.375 
L 15.375 -19.875 
z
M 14.546875 25.640625 
Q 14.546875 15.625 18.59375 10.84375 
Q 22.65625 6.0625 28.421875 6.0625 
Q 34.28125 6.0625 38.453125 11.015625 
Q 42.625 15.96875 42.625 26.375 
Q 42.625 36.28125 38.546875 41.203125 
Q 34.46875 46.140625 28.8125 46.140625 
Q 23.1875 46.140625 18.859375 40.890625 
Q 14.546875 35.640625 14.546875 25.640625 
z
" id="ArialMT-112"/>
      <path d="M 6.390625 0 
L 6.390625 71.578125 
L 15.1875 71.578125 
L 15.1875 0 
z
" id="ArialMT-108"/>
      <path d="M 6.640625 61.46875 
L 6.640625 71.578125 
L 15.4375 71.578125 
L 15.4375 61.46875 
z
M 6.640625 0 
L 6.640625 51.859375 
L 15.4375 51.859375 
L 15.4375 0 
z
" id="ArialMT-105"/>
      <path d="M 40.4375 19 
L 49.078125 17.875 
Q 47.65625 8.9375 41.8125 3.875 
Q 35.984375 -1.171875 27.484375 -1.171875 
Q 16.84375 -1.171875 10.375 5.78125 
Q 3.90625 12.75 3.90625 25.734375 
Q 3.90625 34.125 6.6875 40.421875 
Q 9.46875 46.734375 15.15625 49.875 
Q 20.84375 53.03125 27.546875 53.03125 
Q 35.984375 53.03125 41.359375 48.75 
Q 46.734375 44.484375 48.25 36.625 
L 39.703125 35.296875 
Q 38.484375 40.53125 35.375 43.15625 
Q 32.28125 45.796875 27.875 45.796875 
Q 21.234375 45.796875 17.078125 41.03125 
Q 12.9375 36.28125 12.9375 25.984375 
Q 12.9375 15.53125 16.9375 10.796875 
Q 20.953125 6.0625 27.390625 6.0625 
Q 32.5625 6.0625 36.03125 9.234375 
Q 39.5 12.40625 40.4375 19 
z
" id="ArialMT-99"/>
      <path d="M 25.78125 7.859375 
L 27.046875 0.09375 
Q 23.34375 -0.6875 20.40625 -0.6875 
Q 15.625 -0.6875 12.984375 0.828125 
Q 10.359375 2.34375 9.28125 4.8125 
Q 8.203125 7.28125 8.203125 15.1875 
L 8.203125 45.015625 
L 1.765625 45.015625 
L 1.765625 51.859375 
L 8.203125 51.859375 
L 8.203125 64.703125 
L 16.9375 69.96875 
L 16.9375 51.859375 
L 25.78125 51.859375 
L 25.78125 45.015625 
L 16.9375 45.015625 
L 16.9375 14.703125 
Q 16.9375 10.9375 17.40625 9.859375 
Q 17.875 8.796875 18.921875 8.15625 
Q 19.96875 7.515625 21.921875 7.515625 
Q 23.390625 7.515625 25.78125 7.859375 
z
" id="ArialMT-116"/>
      <path d="M 3.078125 15.484375 
L 11.765625 16.84375 
Q 12.5 11.625 15.84375 8.84375 
Q 19.1875 6.0625 25.203125 6.0625 
Q 31.25 6.0625 34.171875 8.515625 
Q 37.109375 10.984375 37.109375 14.3125 
Q 37.109375 17.28125 34.515625 19 
Q 32.71875 20.171875 25.53125 21.96875 
Q 15.875 24.421875 12.140625 26.203125 
Q 8.40625 27.984375 6.46875 31.125 
Q 4.546875 34.28125 4.546875 38.09375 
Q 4.546875 41.546875 6.125 44.5 
Q 7.71875 47.46875 10.453125 49.421875 
Q 12.5 50.921875 16.03125 51.96875 
Q 19.578125 53.03125 23.640625 53.03125 
Q 29.734375 53.03125 34.34375 51.265625 
Q 38.96875 49.515625 41.15625 46.5 
Q 43.359375 43.5 44.1875 38.484375 
L 35.59375 37.3125 
Q 35.015625 41.3125 32.203125 43.546875 
Q 29.390625 45.796875 24.265625 45.796875 
Q 18.21875 45.796875 15.625 43.796875 
Q 13.03125 41.796875 13.03125 39.109375 
Q 13.03125 37.40625 14.109375 36.03125 
Q 15.1875 34.625 17.484375 33.6875 
Q 18.796875 33.203125 25.25 31.453125 
Q 34.578125 28.953125 38.25 27.359375 
Q 41.9375 25.78125 44.03125 22.75 
Q 46.140625 19.734375 46.140625 15.234375 
Q 46.140625 10.84375 43.578125 6.953125 
Q 41.015625 3.078125 36.171875 0.953125 
Q 31.34375 -1.171875 25.25 -1.171875 
Q 15.140625 -1.171875 9.84375 3.03125 
Q 4.546875 7.234375 3.078125 15.484375 
z
" id="ArialMT-115"/>
     </defs>
     <g style="fill:#262626;" transform="translate(37.213437 448.153969)rotate(-90)scale(0.204 -0.204)">
      <use xlink:href="#ArialMT-76"/>
      <use x="55.615234" xlink:href="#ArialMT-111"/>
      <use x="111.230469" xlink:href="#ArialMT-103"/>
      <use x="166.845703" xlink:href="#ArialMT-49"/>
      <use x="222.460938" xlink:href="#ArialMT-48"/>
      <use x="278.076172" xlink:href="#ArialMT-32"/>
      <use x="305.859375" xlink:href="#ArialMT-111"/>
      <use x="361.474609" xlink:href="#ArialMT-102"/>
      <use x="389.257812" xlink:href="#ArialMT-32"/>
      <use x="417.041016" xlink:href="#ArialMT-110"/>
      <use x="472.65625" xlink:href="#ArialMT-117"/>
      <use x="528.271484" xlink:href="#ArialMT-109"/>
      <use x="611.572266" xlink:href="#ArialMT-98"/>
      <use x="667.1875" xlink:href="#ArialMT-101"/>
      <use x="722.802734" xlink:href="#ArialMT-114"/>
      <use x="756.103516" xlink:href="#ArialMT-32"/>
      <use x="783.886719" xlink:href="#ArialMT-111"/>
      <use x="839.501953" xlink:href="#ArialMT-102"/>
      <use x="867.285156" xlink:href="#ArialMT-32"/>
      <use x="895.068359" xlink:href="#ArialMT-112"/>
      <use x="950.683594" xlink:href="#ArialMT-117"/>
      <use x="1006.298828" xlink:href="#ArialMT-98"/>
      <use x="1061.914062" xlink:href="#ArialMT-108"/>
      <use x="1084.130859" xlink:href="#ArialMT-105"/>
      <use x="1106.347656" xlink:href="#ArialMT-99"/>
      <use x="1156.347656" xlink:href="#ArialMT-97"/>
      <use x="1211.962891" xlink:href="#ArialMT-116"/>
      <use x="1239.746094" xlink:href="#ArialMT-105"/>
      <use x="1261.962891" xlink:href="#ArialMT-111"/>
      <use x="1317.578125" xlink:href="#ArialMT-110"/>
      <use x="1373.193359" xlink:href="#ArialMT-115"/>
     </g>
    </g>
   </g>
   <g id="line2d_13">
    <path clip-path="url(#p641b0485f1)" d="M 96.136364 479.408942 
L 115.35124 496.01521 
L 134.566116 499.514728 
L 153.780992 504.537406 
L 172.995868 508.613761 
L 192.210744 513 
L 211.42562 498.324493 
L 230.640496 496.01521 
L 249.855372 494.894313 
L 269.070248 491.656584 
L 288.285124 478.566235 
L 307.5 469.310556 
L 326.714876 454.330434 
L 345.929752 440.252645 
L 365.144628 408.319598 
L 384.359504 398.33449 
L 403.57438 386.505143 
L 422.789256 364.590406 
L 442.004132 361.536691 
L 461.219008 367.814736 
L 480.433884 377.413185 
L 499.64876 381.62412 
L 518.863636 370.324887 
" style="fill:none;stroke:#808080;stroke-linecap:round;stroke-opacity:0.4;"/>
   </g>
   <g id="line2d_14">
    <path clip-path="url(#p641b0485f1)" d="M 96.136364 381.780343 
L 115.35124 377.268331 
L 134.566116 370.196753 
L 153.780992 364.823166 
L 172.995868 359.374476 
L 192.210744 350.173844 
L 211.42562 346.324126 
L 230.640496 330.441817 
L 249.855372 314.335889 
L 269.070248 308.776725 
L 288.285124 289.474078 
L 307.5 283.246973 
L 326.714876 271.640167 
L 345.929752 258.273972 
L 365.144628 257.998438 
L 384.359504 250.789645 
L 403.57438 240.899498 
L 422.789256 232.777344 
L 442.004132 229.78984 
L 461.219008 223.069631 
L 480.433884 215.952479 
L 499.64876 211.641798 
L 518.863636 212.235879 
" style="fill:none;stroke:#808080;stroke-linecap:round;stroke-opacity:0.4;"/>
   </g>
   <g id="line2d_15">
    <path clip-path="url(#p641b0485f1)" d="M 96.136364 377.268331 
L 115.35124 386.505143 
L 134.566116 384.175889 
L 153.780992 382.567864 
L 172.995868 367.082493 
L 192.210744 369.307691 
L 211.42562 366.001255 
L 230.640496 361.426635 
L 249.855372 359.69369 
L 269.070248 352.48128 
L 288.285124 355.180073 
L 307.5 350.628011 
L 326.714876 353.144242 
L 345.929752 345.483873 
L 365.144628 338.058077 
L 384.359504 325.280032 
L 403.57438 318.363634 
L 422.789256 322.806163 
L 442.004132 320.75918 
L 461.219008 322.35738 
L 480.433884 319.469197 
L 499.64876 320.21818 
L 518.863636 313.323578 
" style="fill:none;stroke:#808080;stroke-linecap:round;stroke-opacity:0.4;"/>
   </g>
   <g id="line2d_16">
    <path clip-path="url(#p641b0485f1)" d="M 96.136364 404.718157 
L 115.35124 405.420694 
L 134.566116 414.871336 
L 153.780992 417.715477 
L 172.995868 418.893566 
L 192.210744 418.596782 
L 211.42562 393.538012 
L 230.640496 384.50294 
L 249.855372 372.149285 
L 269.070248 372.681311 
L 288.285124 380.542239 
L 307.5 364.127683 
L 326.714876 354.201671 
L 345.929752 339.168907 
L 365.144628 336.896289 
L 384.359504 330.893548 
L 403.57438 324.347093 
L 422.789256 340.837796 
L 442.004132 346.408828 
L 461.219008 338.499847 
L 480.433884 323.485947 
L 499.64876 317.741263 
L 518.863636 312.047588 
" style="fill:none;stroke:#808080;stroke-linecap:round;stroke-opacity:0.4;"/>
   </g>
   <g id="line2d_17">
    <path clip-path="url(#p641b0485f1)" d="M 96.136364 446.143375 
L 115.35124 467.902574 
L 134.566116 450.091879 
L 153.780992 452.172262 
L 172.995868 459.50324 
L 192.210744 455.440552 
L 211.42562 465.852973 
L 230.640496 428.239875 
L 249.855372 420.400816 
L 269.070248 411.111211 
L 288.285124 402.436264 
L 307.5 403.565936 
L 326.714876 402.660437 
L 345.929752 394.700287 
L 365.144628 390.004661 
L 384.359504 389.109692 
L 403.57438 393.15573 
L 422.789256 375.138038 
L 442.004132 376.979708 
L 461.219008 385.162655 
L 480.433884 369.056168 
L 499.64876 364.590406 
L 518.863636 352.669922 
" style="fill:none;stroke:#808080;stroke-linecap:round;stroke-opacity:0.4;"/>
   </g>
   <g id="line2d_18">
    <path clip-path="url(#p641b0485f1)" d="M 96.136364 361.757434 
L 115.35124 359.800489 
L 134.566116 359.268463 
L 153.780992 355.974914 
L 172.995868 351.825846 
L 192.210744 353.144242 
L 211.42562 350.810683 
L 230.640496 334.433572 
L 249.855372 333.885117 
L 269.070248 326.168573 
L 288.285124 317.483909 
L 307.5 300.557554 
L 326.714876 294.732894 
L 345.929752 286.817485 
L 365.144628 275.132433 
L 384.359504 271.524232 
L 403.57438 256.497139 
L 422.789256 255.893248 
L 442.004132 247.215014 
L 461.219008 250.41884 
L 480.433884 242.180936 
L 499.64876 233.985587 
L 518.863636 231.051315 
" style="fill:none;stroke:#808080;stroke-linecap:round;stroke-opacity:0.4;"/>
   </g>
   <g id="line2d_19">
    <path clip-path="url(#p641b0485f1)" d="M 96.136364 307.380451 
L 115.35124 302.228588 
L 134.566116 303.908834 
L 153.780992 308.292937 
L 172.995868 305.305791 
L 192.210744 299.494879 
L 211.42562 296.348158 
L 230.640496 296.028552 
L 249.855372 296.134891 
L 269.070248 292.424969 
L 288.285124 298.303876 
L 307.5 292.959767 
L 326.714876 303.383513 
L 345.929752 296.170381 
L 365.144628 299.910029 
L 384.359504 294.387652 
L 403.57438 293.026967 
L 422.789256 292.22569 
L 442.004132 291.599141 
L 461.219008 293.533472 
L 480.433884 288.751532 
L 499.64876 283.932137 
L 518.863636 278.45653 
" style="fill:none;stroke:#808080;stroke-linecap:round;stroke-opacity:0.4;"/>
   </g>
   <g id="line2d_20">
    <path clip-path="url(#p641b0485f1)" d="M 96.136364 276.454328 
L 115.35124 276.859413 
L 134.566116 277.833038 
L 153.780992 276.783243 
L 172.995868 280.018532 
L 192.210744 279.08683 
L 211.42562 276.834012 
L 230.640496 272.082859 
L 249.855372 268.456903 
L 269.070248 261.745878 
L 288.285124 263.99892 
L 307.5 251.08151 
L 326.714876 252.981869 
L 345.929752 245.37474 
L 365.144628 247.275857 
L 384.359504 250.098327 
L 403.57438 244.788701 
L 422.789256 244.817862 
L 442.004132 244.136441 
L 461.219008 246.339929 
L 480.433884 241.958438 
L 499.64876 238.184434 
L 518.863636 231.97789 
" style="fill:none;stroke:#808080;stroke-linecap:round;stroke-opacity:0.4;"/>
   </g>
   <g id="line2d_21">
    <path clip-path="url(#p641b0485f1)" d="M 96.136364 291.206902 
L 115.35124 284.683692 
L 134.566116 286.576464 
L 153.780992 280.774876 
L 172.995868 277.063026 
L 192.210744 274.275791 
L 211.42562 262.493766 
L 230.640496 257.833746 
L 249.855372 251.784777 
L 269.070248 245.315867 
L 288.285124 233.804538 
L 307.5 230.173317 
L 326.714876 222.869858 
L 345.929752 217.240464 
L 365.144628 214.004379 
L 384.359504 207.784136 
L 403.57438 201.332597 
L 422.789256 198.505427 
L 442.004132 188.908118 
L 461.219008 185.919569 
L 480.433884 179.09492 
L 499.64876 178.463133 
L 518.863636 174.876169 
" style="fill:none;stroke:#808080;stroke-linecap:round;stroke-opacity:0.4;"/>
   </g>
   <g id="line2d_22">
    <path clip-path="url(#p641b0485f1)" d="M 96.136364 355.576125 
L 115.35124 347.868109 
L 134.566116 349.723222 
L 153.780992 340.301534 
L 172.995868 332.071637 
L 192.210744 334.571503 
L 211.42562 321.745946 
L 230.640496 315.664076 
L 249.855372 307.251266 
L 269.070248 298.784761 
L 288.285124 280.883738 
L 307.5 272.317225 
L 326.714876 251.933063 
L 345.929752 243.023028 
L 365.144628 234.924017 
L 384.359504 227.2498 
L 403.57438 217.703605 
L 422.789256 212.00412 
L 442.004132 205.510696 
L 461.219008 200.819914 
L 480.433884 192.8725 
L 499.64876 186.628371 
L 518.863636 183.258609 
" style="fill:none;stroke:#808080;stroke-linecap:round;stroke-opacity:0.4;"/>
   </g>
   <g id="line2d_23">
    <path clip-path="url(#p641b0485f1)" d="M 96.136364 290.784962 
L 115.35124 293.533472 
L 134.566116 288.53341 
L 153.780992 285.800025 
L 172.995868 278.45653 
L 192.210744 276.177472 
L 211.42562 269.00866 
L 230.640496 258.773273 
L 249.855372 256.372291 
L 269.070248 245.818207 
L 288.285124 246.896639 
L 307.5 237.769895 
L 326.714876 234.058165 
L 345.929752 226.321409 
L 365.144628 224.909729 
L 384.359504 217.394432 
L 403.57438 217.249509 
L 422.789256 217.794854 
L 442.004132 219.087728 
L 461.219008 218.142924 
L 480.433884 218.005277 
L 499.64876 214.35607 
L 518.863636 215.925949 
" style="fill:none;stroke:#808080;stroke-linecap:round;stroke-opacity:0.4;"/>
   </g>
   <g id="line2d_24">
    <path clip-path="url(#p641b0485f1)" d="M 96.136364 337.47426 
L 115.35124 327.314055 
L 134.566116 315.366271 
L 153.780992 310.388992 
L 172.995868 309.264602 
L 192.210744 305.807019 
L 211.42562 305.848985 
L 230.640496 316.41538 
L 249.855372 314.190182 
L 269.070248 303.625375 
L 288.285124 290.077861 
L 307.5 290.882059 
L 326.714876 290.946882 
L 345.929752 282.541805 
L 365.144628 286.696848 
L 384.359504 278.613461 
L 403.57438 277.781383 
L 422.789256 276.277993 
L 442.004132 279.113242 
L 461.219008 283.190242 
L 480.433884 288.192303 
L 499.64876 289.664065 
L 518.863636 296.241426 
" style="fill:none;stroke:#ff0000;stroke-linecap:round;stroke-opacity:0.7;stroke-width:4;"/>
   </g>
   <g id="line2d_25">
    <path clip-path="url(#p641b0485f1)" d="M 96.136364 432.598501 
L 115.35124 417.424673 
L 134.566116 411.111211 
L 153.780992 413.229774 
L 172.995868 403.794547 
L 192.210744 409.825537 
L 211.42562 389.645007 
L 230.640496 390.730764 
L 249.855372 368.680927 
L 269.070248 356.477305 
L 288.285124 349.098203 
L 307.5 338.573805 
L 326.714876 328.669438 
L 345.929752 312.942558 
L 365.144628 305.933009 
L 384.359504 301.25118 
L 403.57438 295.993149 
L 422.789256 288.1305 
L 442.004132 290.946882 
L 461.219008 287.822471 
L 480.433884 279.85774 
L 499.64876 272.528972 
L 518.863636 269.119647 
" style="fill:none;stroke:#808080;stroke-linecap:round;stroke-opacity:0.4;"/>
   </g>
   <g id="line2d_26">
    <path clip-path="url(#p641b0485f1)" d="M 96.136364 459.50324 
L 115.35124 430.378059 
L 134.566116 432.977023 
L 153.780992 440.685039 
L 172.995868 436.905367 
L 192.210744 442.896972 
L 211.42562 426.178071 
L 230.640496 417.135327 
L 249.855372 414.871336 
L 269.070248 397.097492 
L 288.285124 395.29032 
L 307.5 387.360334 
L 326.714876 378.733495 
L 345.929752 367.325543 
L 365.144628 372.281833 
L 384.359504 370.324887 
L 403.57438 352.764475 
L 422.789256 344.902889 
L 442.004132 325.930288 
L 461.219008 298.193469 
L 480.433884 275.528315 
L 499.64876 254.825382 
L 518.863636 242.348375 
" style="fill:none;stroke:#808080;stroke-linecap:round;stroke-opacity:0.4;"/>
   </g>
   <g id="line2d_27">
    <path clip-path="url(#p641b0485f1)" d="M 96.136364 262.573058 
L 115.35124 262.553225 
L 134.566116 261.278471 
L 153.780992 261.628671 
L 172.995868 255.769698 
L 192.210744 251.834163 
L 211.42562 248.755655 
L 230.640496 239.993627 
L 249.855372 237.345496 
L 269.070248 235.01009 
L 288.285124 229.219359 
L 307.5 222.373429 
L 326.714876 215.617332 
L 345.929752 201.981658 
L 365.144628 196.418738 
L 384.359504 186.617728 
L 403.57438 177.224453 
L 422.789256 171.351882 
L 442.004132 167.761132 
L 461.219008 163.829505 
L 480.433884 156.331628 
L 499.64876 158.35028 
L 518.863636 151.091566 
" style="fill:none;stroke:#808080;stroke-linecap:round;stroke-opacity:0.4;"/>
   </g>
   <g id="line2d_28">
    <path clip-path="url(#p641b0485f1)" d="M 96.136364 354.983061 
L 115.35124 353.526524 
L 134.566116 348.216898 
L 153.780992 347.435066 
L 172.995868 348.832396 
L 192.210744 343.034097 
L 211.42562 342.39801 
L 230.640496 336.04004 
L 249.855372 328.544898 
L 269.070248 320.325975 
L 288.285124 311.721329 
L 307.5 301.52319 
L 326.714876 295.745935 
L 345.929752 292.993357 
L 365.144628 281.734458 
L 384.359504 278.875964 
L 403.57438 273.671595 
L 422.789256 269.812571 
L 442.004132 263.654295 
L 461.219008 264.550528 
L 480.433884 262.513579 
L 499.64876 259.99331 
L 518.863636 261.297871 
" style="fill:none;stroke:#808080;stroke-linecap:round;stroke-opacity:0.4;"/>
   </g>
   <g id="line2d_29">
    <path clip-path="url(#p641b0485f1)" d="M 96.136364 401.109209 
L 115.35124 403.338226 
L 134.566116 404.951387 
L 153.780992 398.543258 
L 172.995868 405.656786 
L 192.210744 403.338226 
L 211.42562 394.700287 
L 230.640496 384.175889 
L 249.855372 381.780343 
L 269.070248 375.138038 
L 288.285124 364.01258 
L 307.5 354.688799 
L 326.714876 353.335066 
L 345.929752 342.635722 
L 365.144628 337.256842 
L 384.359504 323.372092 
L 403.57438 313.275813 
L 422.789256 303.222832 
L 442.004132 290.077861 
L 461.219008 289.791071 
L 480.433884 283.105249 
L 499.64876 266.068857 
L 518.863636 256.675963 
" style="fill:none;stroke:#808080;stroke-linecap:round;stroke-opacity:0.4;"/>
   </g>
   <g id="line2d_30">
    <path clip-path="url(#p641b0485f1)" d="M 96.136364 387.879598 
L 115.35124 383.205709 
L 134.566116 384.013056 
L 153.780992 379.781697 
L 172.995868 371.099722 
L 192.210744 366.599441 
L 211.42562 371.753459 
L 230.640496 376.1224 
L 249.855372 365.174075 
L 269.070248 349.813065 
L 288.285124 349.633518 
L 307.5 359.057018 
L 326.714876 350.902237 
L 345.929752 341.925502 
L 365.144628 347.607894 
L 384.359504 331.873611 
L 403.57438 327.071004 
L 422.789256 326.527854 
L 442.004132 322.63746 
L 461.219008 312.047588 
L 480.433884 296.348158 
L 499.64876 295.080214 
L 518.863636 289.127384 
" style="fill:none;stroke:#808080;stroke-linecap:round;stroke-opacity:0.4;"/>
   </g>
   <g id="line2d_31">
    <path clip-path="url(#p641b0485f1)" d="M 96.136364 420.400816 
L 115.35124 410.851775 
L 134.566116 412.426174 
L 153.780992 409.319179 
L 172.995868 412.160774 
L 192.210744 414.318946 
L 211.42562 408.817225 
L 230.640496 402.212959 
L 249.855372 390.366571 
L 269.070248 382.567864 
L 288.285124 380.084712 
L 307.5 363.099922 
L 326.714876 359.907485 
L 345.929752 346.748884 
L 365.144628 341.146484 
L 384.359504 328.794248 
L 403.57438 320.542171 
L 422.789256 315.913426 
L 442.004132 305.807019 
L 461.219008 296.848869 
L 480.433884 284.393473 
L 499.64876 279.3515 
L 518.863636 268.54483 
" style="fill:none;stroke:#808080;stroke-linecap:round;stroke-opacity:0.4;"/>
   </g>
   <g id="line2d_32">
    <path clip-path="url(#p641b0485f1)" d="M 96.136364 390.730764 
L 115.35124 386.505143 
L 134.566116 378.290028 
L 153.780992 379.933006 
L 172.995868 382.251565 
L 192.210744 377.268331 
L 211.42562 366.719825 
L 230.640496 365.645297 
L 249.855372 360.770669 
L 269.070248 350.083438 
L 288.285124 347.694502 
L 307.5 341.768855 
L 326.714876 335.969256 
L 345.929752 324.7534 
L 365.144628 317.023544 
L 384.359504 317.381288 
L 403.57438 310.890748 
L 422.789256 310.662137 
L 442.004132 308.118014 
L 461.219008 304.520976 
L 480.433884 298.821919 
L 499.64876 299.494879 
L 518.863636 298.267051 
" style="fill:none;stroke:#808080;stroke-linecap:round;stroke-opacity:0.4;"/>
   </g>
   <g id="line2d_33">
    <path clip-path="url(#p641b0485f1)" d="M 96.136364 355.476857 
L 115.35124 352.764475 
L 134.566116 353.430716 
L 153.780992 350.083438 
L 172.995868 341.534678 
L 192.210744 348.920862 
L 211.42562 343.515806 
L 230.640496 337.911568 
L 249.855372 326.949862 
L 269.070248 315.813557 
L 288.285124 308.688461 
L 307.5 308.161695 
L 326.714876 302.189173 
L 345.929752 284.277793 
L 365.144628 268.434942 
L 384.359504 255.558511 
L 403.57438 246.715495 
L 422.789256 230.787654 
L 442.004132 216.103045 
L 461.219008 203.887625 
L 480.433884 180.960451 
L 499.64876 151.455031 
L 518.863636 124.703239 
" style="fill:none;stroke:#808080;stroke-linecap:round;stroke-opacity:0.4;"/>
   </g>
   <g id="line2d_34">
    <path clip-path="url(#p641b0485f1)" d="M 96.136364 334.433572 
L 115.35124 320.379948 
L 134.566116 313.323578 
L 153.780992 304.030744 
L 172.995868 288.689127 
L 192.210744 279.034041 
L 211.42562 257.833746 
L 230.640496 238.431983 
L 249.855372 222.146498 
L 269.070248 202.933834 
L 288.285124 183.833789 
L 307.5 167.822577 
L 326.714876 152.745489 
L 345.929752 140.862188 
L 365.144628 129.101073 
L 384.359504 113.215386 
L 403.57438 110.876272 
L 422.789256 110.137437 
L 442.004132 106.57746 
L 461.219008 106.400853 
L 480.433884 97.515483 
L 499.64876 94.676534 
L 518.863636 93 
" style="fill:none;stroke:#808080;stroke-linecap:round;stroke-opacity:0.4;"/>
   </g>
   <g id="line2d_35">
    <path clip-path="url(#p641b0485f1)" d="M 96.136364 460.718535 
L 115.35124 455.440552 
L 134.566116 467.211256 
L 153.780992 473.753084 
L 172.995868 456.003722 
L 192.210744 456.003722 
L 211.42562 446.622418 
L 230.640496 436.905367 
L 249.855372 445.668274 
L 269.070248 420.400816 
L 288.285124 387.532904 
L 307.5 389.466016 
L 326.714876 372.281833 
L 345.929752 356.57831 
L 365.144628 339.243728 
L 384.359504 321.140921 
L 403.57438 307.337357 
L 422.789256 293.976068 
L 442.004132 285.889083 
L 461.219008 282.317958 
L 480.433884 260.546066 
L 499.64876 242.966505 
L 518.863636 202.955016 
" style="fill:none;stroke:#808080;stroke-linecap:round;stroke-opacity:0.4;"/>
   </g>
   <g id="line2d_36">
    <path clip-path="url(#p641b0485f1)" d="M 96.136364 370.969858 
L 115.35124 362.313015 
L 134.566116 355.081483 
L 153.780992 353.622491 
L 172.995868 347.090955 
L 192.210744 347.005247 
L 211.42562 340.530751 
L 230.640496 333.072084 
L 249.855372 325.989767 
L 269.070248 319.949569 
L 288.285124 308.909374 
L 307.5 298.710518 
L 326.714876 289.442474 
L 345.929752 284.509386 
L 365.144628 276.027017 
L 384.359504 273.026089 
L 403.57438 270.377504 
L 422.789256 273.312089 
L 442.004132 271.84944 
L 461.219008 271.616962 
L 480.433884 262.2171 
L 499.64876 256.963239 
L 518.863636 242.474273 
" style="fill:none;stroke:#808080;stroke-linecap:round;stroke-opacity:0.4;"/>
   </g>
   <g id="line2d_37">
    <path clip-path="url(#p641b0485f1)" d="M 96.136364 403.111411 
L 115.35124 418.007753 
L 134.566116 408.567875 
L 153.780992 413.500146 
L 172.995868 406.610929 
L 192.210744 406.131886 
L 211.42562 395.687053 
L 230.640496 384.339183 
L 249.855372 387.70599 
L 269.070248 382.409498 
L 288.285124 389.645007 
L 307.5 384.997018 
L 326.714876 385.495361 
L 345.929752 374.033232 
L 365.144628 367.20389 
L 384.359504 358.323002 
L 403.57438 336.395268 
L 422.789256 290.817309 
L 442.004132 274.714762 
L 461.219008 272.106253 
L 480.433884 254.376163 
L 499.64876 252.513379 
L 518.863636 250.194294 
" style="fill:none;stroke:#808080;stroke-linecap:round;stroke-opacity:0.4;"/>
   </g>
   <g id="line2d_38">
    <path clip-path="url(#p641b0485f1)" d="M 96.136364 350.355082 
L 115.35124 347.955109 
L 134.566116 353.526524 
L 153.780992 352.012355 
L 172.995868 352.764475 
L 192.210744 347.348846 
L 211.42562 341.768855 
L 230.640496 335.056876 
L 249.855372 333.072084 
L 269.070248 330.377572 
L 288.285124 324.289281 
L 307.5 315.813557 
L 326.714876 313.323578 
L 345.929752 305.765084 
L 365.144628 299.269686 
L 384.359504 291.599141 
L 403.57438 291.141787 
L 422.789256 284.335604 
L 442.004132 277.292953 
L 461.219008 276.00198 
L 480.433884 271.593765 
L 499.64876 266.407046 
L 518.863636 263.978591 
" style="fill:none;stroke:#808080;stroke-linecap:round;stroke-opacity:0.4;"/>
   </g>
   <g id="line2d_39">
    <path clip-path="url(#p641b0485f1)" d="M 96.136364 353.718619 
L 115.35124 352.012355 
L 134.566116 345.483873 
L 153.780992 343.354789 
" style="fill:none;stroke:#808080;stroke-linecap:round;stroke-opacity:0.4;"/>
   </g>
   <g id="line2d_40">
    <path clip-path="url(#p641b0485f1)" d="M 96.136364 379.480263 
L 115.35124 363.44048 
L 134.566116 371.360329 
L 153.780992 367.692048 
L 172.995868 374.307457 
L 192.210744 370.840286 
L 211.42562 366.719825 
L 230.640496 373.218286 
L 249.855372 369.814048 
L 269.070248 349.27609 
L 288.285124 355.278832 
L 307.5 346.155094 
L 326.714876 331.741971 
L 345.929752 329.233219 
L 365.144628 322.13429 
L 384.359504 295.394599 
L 403.57438 299.570139 
L 422.789256 296.38378 
L 442.004132 297.462771 
L 461.219008 285.063171 
L 480.433884 284.567429 
L 499.64876 276.530065 
L 518.863636 281.102081 
" style="fill:none;stroke:#808080;stroke-linecap:round;stroke-opacity:0.4;"/>
   </g>
   <g id="line2d_41">
    <path clip-path="url(#p641b0485f1)" d="M 96.136364 405.656786 
L 115.35124 392.210957 
L 134.566116 390.004661 
L 153.780992 377.703988 
L 172.995868 365.409205 
L 192.210744 360.87948 
L 211.42562 362.313015 
L 230.640496 351.177771 
L 249.855372 344.655675 
L 269.070248 335.616632 
L 288.285124 325.692983 
L 307.5 321.580309 
L 326.714876 316.465816 
L 345.929752 312.800321 
L 365.144628 309.264602 
L 384.359504 300.864804 
L 403.57438 292.424969 
L 422.789256 287.120183 
L 442.004132 280.584859 
L 461.219008 276.96113 
L 480.433884 268.920023 
L 499.64876 265.460896 
L 518.863636 259.27693 
" style="fill:none;stroke:#808080;stroke-linecap:round;stroke-opacity:0.4;"/>
   </g>
   <g id="line2d_42">
    <path clip-path="url(#p641b0485f1)" d="M 96.136364 357.701189 
L 115.35124 351.362194 
L 134.566116 345.483873 
L 153.780992 339.318646 
L 172.995868 336.609459 
L 192.210744 334.295969 
L 211.42562 312.658434 
L 230.640496 311.396904 
L 249.855372 298.673432 
L 269.070248 287.424476 
L 288.285124 279.777512 
L 307.5 280.179774 
L 326.714876 261.259078 
L 345.929752 264.488977 
L 365.144628 262.355267 
L 384.359504 258.680483 
L 403.57438 260.393052 
L 422.789256 260.393052 
L 442.004132 253.759883 
L 461.219008 253.505029 
L 480.433884 254.187156 
L 499.64876 250.034437 
L 518.863636 251.538477 
" style="fill:none;stroke:#808080;stroke-linecap:round;stroke-opacity:0.4;"/>
   </g>
   <g id="line2d_43">
    <path clip-path="url(#p641b0485f1)" d="M 96.136364 322.189982 
L 115.35124 314.628412 
L 134.566116 313.228087 
L 153.780992 305.555861 
L 172.995868 293.7033 
L 192.210744 300.023771 
L 211.42562 288.037919 
L 230.640496 274.837293 
L 249.855372 265.25273 
L 269.070248 254.514012 
L 288.285124 239.539313 
L 307.5 228.64344 
L 326.714876 205.695532 
L 345.929752 184.692008 
L 365.144628 166.324439 
L 384.359504 150.933625 
L 403.57438 145.779422 
L 422.789256 139.712766 
L 442.004132 132.426861 
L 461.219008 135.121417 
L 480.433884 129.713339 
L 499.64876 125.793017 
L 518.863636 125.81714 
" style="fill:none;stroke:#808080;stroke-linecap:round;stroke-opacity:0.4;"/>
   </g>
   <g id="line2d_44">
    <path clip-path="url(#p641b0485f1)" d="M 96.136364 335.406087 
L 115.35124 329.422376 
L 134.566116 320.272052 
L 153.780992 313.899866 
L 172.995868 311.258421 
L 192.210744 307.55315 
L 211.42562 308.161695 
L 230.640496 307.81317 
L 249.855372 303.949442 
L 269.070248 306.059275 
L 288.285124 302.189173 
L 307.5 297.281533 
L 326.714876 289.410887 
L 345.929752 280.422483 
L 365.144628 274.154445 
L 384.359504 263.19129 
L 403.57438 253.845085 
L 422.789256 249.446785 
L 442.004132 238.262493 
L 461.219008 237.000567 
L 480.433884 224.038285 
L 499.64876 216.53924 
L 518.863636 217.213335 
" style="fill:none;stroke:#808080;stroke-linecap:round;stroke-opacity:0.4;"/>
   </g>
   <g id="line2d_45">
    <path clip-path="url(#p641b0485f1)" d="M 96.136364 315.514982 
L 115.35124 314.67731 
L 134.566116 317.023544 
L 153.780992 315.267343 
L 172.995868 310.343594 
L 192.210744 311.166283 
L 211.42562 301.992496 
L 230.640496 295.781186 
L 249.855372 289.001828 
L 269.070248 276.859413 
L 288.285124 259.015226 
L 307.5 250.741144 
L 326.714876 246.354905 
L 345.929752 234.617656 
L 365.144628 229.241625 
L 384.359504 222.700593 
L 403.57438 225.376464 
L 422.789256 226.28966 
L 442.004132 222.531822 
L 461.219008 224.518516 
L 480.433884 216.87081 
L 499.64876 212.928396 
L 518.863636 201.752964 
" style="fill:none;stroke:#808080;stroke-linecap:round;stroke-opacity:0.4;"/>
   </g>
   <g id="line2d_46">
    <path clip-path="url(#p641b0485f1)" d="M 96.136364 329.548826 
L 115.35124 324.7534 
L 134.566116 314.775231 
L 153.780992 314.190182 
L 172.995868 311.53572 
L 192.210744 304.112161 
L 211.42562 298.267051 
L 230.640496 291.239487 
L 249.855372 283.2186 
L 269.070248 265.273512 
L 288.285124 253.538944 
L 307.5 241.81981 
L 326.714876 230.559359 
L 345.929752 218.244074 
L 365.144628 209.269615 
L 384.359504 197.758406 
L 403.57438 193.336917 
L 422.789256 185.0534 
L 442.004132 184.021709 
L 461.219008 181.052188 
L 480.433884 171.757686 
L 499.64876 162.609056 
L 518.863636 154.616071 
" style="fill:none;stroke:#808080;stroke-linecap:round;stroke-opacity:0.4;"/>
   </g>
   <g id="line2d_47">
    <path clip-path="url(#p641b0485f1)" d="M 96.136364 416.847425 
L 115.35124 410.851775 
L 134.566116 417.715477 
L 153.780992 400.890969 
L 172.995868 392.210957 
L 192.210744 388.053729 
L 211.42562 388.403574 
L 230.640496 368.060895 
L 249.855372 363.897705 
L 269.070248 357.392777 
L 288.285124 336.110911 
L 307.5 339.619295 
L 326.714876 336.324047 
L 345.929752 327.619314 
L 365.144628 322.525265 
L 384.359504 314.335889 
L 403.57438 310.252903 
L 422.789256 305.807019 
L 442.004132 297.826964 
L 461.219008 287.822471 
L 480.433884 279.3515 
L 499.64876 269.677806 
L 518.863636 261.726327 
" style="fill:none;stroke:#808080;stroke-linecap:round;stroke-opacity:0.4;"/>
   </g>
   <g id="line2d_48">
    <path clip-path="url(#p641b0485f1)" d="M 96.136364 369.433864 
L 115.35124 363.783059 
L 134.566116 364.243017 
L 153.780992 363.099922 
L 172.995868 355.081483 
L 192.210744 367.447453 
L 211.42562 350.719275 
L 230.640496 347.090955 
L 249.855372 347.262754 
L 269.070248 334.987287 
L 288.285124 334.295969 
L 307.5 330.057414 
L 326.714876 325.456649 
L 345.929752 319.416068 
L 365.144628 314.093248 
L 384.359504 300.328185 
L 403.57438 299.269686 
L 422.789256 291.994064 
L 442.004132 284.22004 
L 461.219008 271.779598 
L 480.433884 263.755442 
L 499.64876 259.108556 
L 518.863636 253.623821 
" style="fill:none;stroke:#808080;stroke-linecap:round;stroke-opacity:0.4;"/>
   </g>
   <g id="line2d_49">
    <path clip-path="url(#p641b0485f1)" d="M 96.136364 368.930816 
L 115.35124 364.823166 
L 134.566116 365.056868 
L 153.780992 368.930816 
L 172.995868 369.056168 
L 192.210744 370.453306 
L 211.42562 370.969858 
L 230.640496 352.105836 
L 249.855372 353.718619 
L 269.070248 340.454244 
L 288.285124 328.856754 
L 307.5 331.023265 
L 326.714876 325.162587 
L 345.929752 330.699516 
L 365.144628 327.497016 
L 384.359504 327.741871 
L 403.57438 330.185264 
L 422.789256 338.278539 
L 442.004132 337.546915 
L 461.219008 344.327695 
L 480.433884 338.647858 
L 499.64876 339.694702 
L 518.863636 344.655675 
" style="fill:none;stroke:#808080;stroke-linecap:round;stroke-opacity:0.4;"/>
   </g>
   <g id="line2d_50">
    <path clip-path="url(#p641b0485f1)" d="M 96.136364 478.566235 
L 115.35124 482.90846 
L 134.566116 472.988512 
L 153.780992 482.013491 
L 172.995868 482.013491 
L 192.210744 452.172262 
L 211.42562 444.265994 
L 230.640496 431.477604 
L 249.855372 417.715477 
L 269.070248 402.212959 
L 288.285124 394.700287 
L 307.5 376.692522 
L 326.714876 362.090141 
L 345.929752 353.526524 
L 365.144628 340.149227 
L 384.359504 328.482729 
L 403.57438 310.162355 
L 422.789256 290.623495 
L 442.004132 269.03084 
L 461.219008 260.988253 
L 480.433884 251.949562 
L 499.64876 253.657806 
L 518.863636 251.097768 
" style="fill:none;stroke:#808080;stroke-linecap:round;stroke-opacity:0.4;"/>
   </g>
   <g id="line2d_51">
    <path clip-path="url(#p641b0485f1)" d="M 96.136364 278.143942 
L 115.35124 268.193921 
L 134.566116 265.669815 
L 153.780992 264.673827 
L 172.995868 259.61516 
L 192.210744 258.680483 
L 211.42562 256.052488 
L 230.640496 248.740043 
L 249.855372 247.078353 
L 269.070248 236.860629 
L 288.285124 233.636069 
L 307.5 217.014783 
L 326.714876 200.015686 
L 345.929752 184.640565 
L 365.144628 176.06939 
L 384.359504 175.189629 
L 403.57438 171.687799 
L 422.789256 168.947769 
L 442.004132 169.883892 
L 461.219008 169.11649 
L 480.433884 170.023434 
L 499.64876 166.862324 
L 518.863636 171.967855 
" style="fill:none;stroke:#808080;stroke-linecap:round;stroke-opacity:0.4;"/>
   </g>
   <g id="line2d_52">
    <path clip-path="url(#p641b0485f1)" d="M 96.136364 285.004627 
L 115.35124 283.360604 
L 134.566116 283.502957 
L 153.780992 289.442474 
L 172.995868 285.829696 
L 192.210744 287.424476 
L 211.42562 284.887717 
L 230.640496 276.631203 
L 249.855372 276.783243 
L 269.070248 274.300091 
L 288.285124 269.319963 
L 307.5 265.045312 
L 326.714876 256.927252 
L 345.929752 239.659225 
L 365.144628 219.181193 
L 384.359504 196.336819 
L 403.57438 181.786487 
L 422.789256 169.273885 
L 442.004132 159.579592 
L 461.219008 154.762976 
L 480.433884 151.229759 
L 499.64876 150.139025 
L 518.863636 146.867569 
" style="fill:none;stroke:#808080;stroke-linecap:round;stroke-opacity:0.4;"/>
   </g>
   <g id="line2d_53">
    <path clip-path="url(#p641b0485f1)" d="M 96.136364 336.466577 
L 115.35124 325.574695 
L 134.566116 332.669822 
L 153.780992 332.336732 
L 172.995868 334.571503 
L 192.210744 328.296621 
L 211.42562 316.364988 
L 230.640496 316.972618 
L 249.855372 307.856621 
L 269.070248 289.664065 
L 288.285124 282.710261 
L 307.5 272.646945 
L 326.714876 245.257055 
L 345.929752 235.591358 
L 365.144628 228.423453 
L 384.359504 218.98509 
L 403.57438 205.363251 
L 422.789256 210.006987 
L 442.004132 211.240961 
L 461.219008 212.111607 
L 480.433884 209.49063 
L 499.64876 208.355134 
L 518.863636 211.338868 
" style="fill:none;stroke:#808080;stroke-linecap:round;stroke-opacity:0.4;"/>
   </g>
   <g id="line2d_54">
    <path clip-path="url(#p641b0485f1)" d="M 96.136364 268.809419 
L 115.35124 272.293746 
L 134.566116 268.654928 
L 153.780992 268.106526 
L 172.995868 266.068857 
L 192.210744 266.832587 
L 211.42562 264.632698 
L 230.640496 261.414408 
L 249.855372 256.017063 
L 269.070248 252.280552 
L 288.285124 248.521921 
L 307.5 243.46297 
L 326.714876 236.090707 
L 345.929752 237.43526 
L 365.144628 231.02834 
L 384.359504 226.693106 
L 403.57438 220.019773 
L 422.789256 215.872926 
L 442.004132 205.999951 
L 461.219008 209.625232 
L 480.433884 203.694171 
L 499.64876 201.038102 
L 518.863636 205.977622 
" style="fill:none;stroke:#808080;stroke-linecap:round;stroke-opacity:0.4;"/>
   </g>
   <g id="line2d_55">
    <path clip-path="url(#p641b0485f1)" d="M 96.136364 303.26296 
L 115.35124 297.900079 
L 134.566116 299.834325 
L 153.780992 287.791759 
L 172.995868 278.508793 
L 192.210744 281.020106 
L 211.42562 274.300091 
L 230.640496 262.177684 
L 249.855372 267.888616 
L 269.070248 256.53286 
L 288.285124 254.84273 
L 307.5 246.250155 
L 326.714876 239.766023 
L 345.929752 235.330919 
L 365.144628 233.684153 
L 384.359504 226.501649 
L 403.57438 224.24215 
L 422.789256 223.501499 
L 442.004132 222.929717 
L 461.219008 221.529433 
L 480.433884 221.900841 
L 499.64876 221.170081 
L 518.863636 223.471263 
" style="fill:none;stroke:#808080;stroke-linecap:round;stroke-opacity:0.4;"/>
   </g>
   <g id="line2d_56">
    <path clip-path="url(#p641b0485f1)" d="M 96.136364 312.658434 
L 115.35124 303.706221 
L 134.566116 296.419423 
L 153.780992 290.817309 
L 172.995868 277.833038 
L 192.210744 275.702371 
L 211.42562 263.171243 
L 230.640496 255.558511 
L 249.855372 246.715495 
L 269.070248 232.435045 
L 288.285124 221.519692 
L 307.5 215.284121 
L 326.714876 205.873534 
L 345.929752 202.750582 
L 365.144628 194.331826 
L 384.359504 189.902139 
L 403.57438 182.733861 
L 422.789256 181.70335 
L 442.004132 176.70226 
L 461.219008 178.638966 
L 480.433884 172.303234 
L 499.64876 166.526968 
L 518.863636 162.4618 
" style="fill:none;stroke:#808080;stroke-linecap:round;stroke-opacity:0.4;"/>
   </g>
   <g id="line2d_57">
    <path clip-path="url(#p641b0485f1)" d="M 96.136364 370.840286 
L 115.35124 352.764475 
L 134.566116 346.663682 
L 153.780992 341.301448 
L 172.995868 334.987287 
L 192.210744 324.347093 
L 211.42562 312.895106 
L 230.640496 307.509927 
L 249.855372 292.892646 
L 269.070248 279.404579 
L 288.285124 269.722693 
L 307.5 260.507774 
L 326.714876 250.098327 
L 345.929752 240.505658 
L 365.144628 235.765639 
L 384.359504 229.98126 
L 403.57438 227.985979 
L 422.789256 222.541736 
L 442.004132 217.831395 
L 461.219008 212.543565 
L 480.433884 206.771869 
L 499.64876 203.01154 
L 518.863636 205.73257 
" style="fill:none;stroke:#808080;stroke-linecap:round;stroke-opacity:0.4;"/>
   </g>
   <g id="line2d_58">
    <path clip-path="url(#p641b0485f1)" d="M 96.136364 377.558403 
L 115.35124 377.413185 
L 134.566116 372.149285 
L 153.780992 379.933006 
L 172.995868 365.056868 
L 192.210744 358.427291 
L 211.42562 353.718619 
L 230.640496 333.409458 
L 249.855372 329.675553 
L 269.070248 314.628412 
L 288.285124 306.439737 
L 307.5 305.139678 
L 326.714876 297.462771 
L 345.929752 286.787302 
L 365.144628 276.605902 
L 384.359504 269.409216 
L 403.57438 261.336691 
L 422.789256 256.550728 
L 442.004132 251.62046 
L 461.219008 238.171435 
L 480.433884 231.698352 
L 499.64876 223.019623 
L 518.863636 215.996722 
" style="fill:none;stroke:#808080;stroke-linecap:round;stroke-opacity:0.4;"/>
   </g>
   <g id="line2d_59">
    <path clip-path="url(#p641b0485f1)" d="M 96.136364 400.890969 
L 115.35124 388.403574 
L 134.566116 387.70599 
L 153.780992 387.188279 
L 172.995868 381.468319 
L 192.210744 383.045586 
L 211.42562 374.721254 
L 230.640496 368.432115 
L 249.855372 362.873995 
L 269.070248 355.675564 
L 288.285124 353.911355 
L 307.5 349.903049 
L 326.714876 339.619295 
L 345.929752 334.090177 
L 365.144628 331.676263 
L 384.359504 322.693639 
L 403.57438 321.856635 
L 422.789256 319.735576 
L 442.004132 306.908178 
L 461.219008 310.117134 
L 480.433884 301.640159 
L 499.64876 304.112161 
L 518.863636 298.562317 
" style="fill:none;stroke:#808080;stroke-linecap:round;stroke-opacity:0.4;"/>
   </g>
   <g id="line2d_60">
    <path clip-path="url(#p641b0485f1)" d="M 96.136364 322.078652 
L 115.35124 311.443139 
L 134.566116 312.752986 
L 153.780992 308.732576 
L 172.995868 305.681304 
L 192.210744 303.827704 
L 211.42562 301.718271 
L 230.640496 296.633746 
L 249.855372 298.083273 
L 269.070248 289.190264 
L 288.285124 286.847683 
L 307.5 285.268544 
L 326.714876 277.936487 
L 345.929752 276.177472 
L 365.144628 280.938247 
L 384.359504 287.730382 
L 403.57438 285.297942 
L 422.789256 288.502317 
L 442.004132 287.822471 
L 461.219008 295.534877 
L 480.433884 299.457286 
L 499.64876 299.645497 
L 518.863636 309.711733 
" style="fill:none;stroke:#808080;stroke-linecap:round;stroke-opacity:0.4;"/>
   </g>
   <g id="line2d_61">
    <path clip-path="url(#p641b0485f1)" d="M 96.136364 395.687053 
L 115.35124 387.879598 
L 134.566116 391.281398 
L 153.780992 382.251565 
L 172.995868 377.996264 
L 192.210744 372.815087 
L 211.42562 370.969858 
L 230.640496 350.445915 
L 249.855372 345.31728 
L 269.070248 334.502496 
L 288.285124 326.708337 
L 307.5 319.949569 
L 326.714876 302.268031 
L 345.929752 294.698277 
L 365.144628 281.900571 
L 384.359504 276.277993 
L 403.57438 260.316697 
L 422.789256 250.612006 
L 442.004132 246.309989 
L 461.219008 239.194293 
L 480.433884 224.816833 
L 499.64876 218.428438 
L 518.863636 204.86474 
" style="fill:none;stroke:#808080;stroke-linecap:round;stroke-opacity:0.4;"/>
   </g>
   <g id="patch_3">
    <path d="M 75 534 
L 75 72 
" style="fill:none;"/>
   </g>
   <g id="patch_4">
    <path d="M 540 534 
L 540 72 
" style="fill:none;"/>
   </g>
   <g id="patch_5">
    <path d="M 75 534 
L 540 534 
" style="fill:none;"/>
   </g>
   <g id="patch_6">
    <path d="M 75 72 
L 540 72 
" style="fill:none;"/>
   </g>
   <g id="text_15">
    <!-- Chile -->
    <defs>
     <path d="M 58.796875 25.09375 
L 68.265625 22.703125 
Q 65.28125 11.03125 57.546875 4.90625 
Q 49.8125 -1.21875 38.625 -1.21875 
Q 27.046875 -1.21875 19.796875 3.484375 
Q 12.546875 8.203125 8.765625 17.140625 
Q 4.984375 26.078125 4.984375 36.328125 
Q 4.984375 47.515625 9.25 55.828125 
Q 13.53125 64.15625 21.40625 68.46875 
Q 29.296875 72.796875 38.765625 72.796875 
Q 49.515625 72.796875 56.828125 67.328125 
Q 64.15625 61.859375 67.046875 51.953125 
L 57.71875 49.75 
Q 55.21875 57.5625 50.484375 61.125 
Q 45.75 64.703125 38.578125 64.703125 
Q 30.328125 64.703125 24.78125 60.734375 
Q 19.234375 56.78125 16.984375 50.109375 
Q 14.75 43.453125 14.75 36.375 
Q 14.75 27.25 17.40625 20.4375 
Q 20.0625 13.625 25.671875 10.25 
Q 31.296875 6.890625 37.84375 6.890625 
Q 45.796875 6.890625 51.3125 11.46875 
Q 56.84375 16.0625 58.796875 25.09375 
z
" id="ArialMT-67"/>
     <path d="M 6.59375 0 
L 6.59375 71.578125 
L 15.375 71.578125 
L 15.375 45.90625 
Q 21.53125 53.03125 30.90625 53.03125 
Q 36.671875 53.03125 40.921875 50.75 
Q 45.171875 48.484375 47 44.484375 
Q 48.828125 40.484375 48.828125 32.859375 
L 48.828125 0 
L 40.046875 0 
L 40.046875 32.859375 
Q 40.046875 39.453125 37.1875 42.453125 
Q 34.328125 45.453125 29.109375 45.453125 
Q 25.203125 45.453125 21.75 43.421875 
Q 18.3125 41.40625 16.84375 37.9375 
Q 15.375 34.46875 15.375 28.375 
L 15.375 0 
z
" id="ArialMT-104"/>
    </defs>
    <g style="fill:#808080;" transform="translate(518.863636 174.876169)scale(0.05 -0.05)">
     <use xlink:href="#ArialMT-67"/>
     <use x="72.216797" xlink:href="#ArialMT-104"/>
     <use x="127.832031" xlink:href="#ArialMT-105"/>
     <use x="150.048828" xlink:href="#ArialMT-108"/>
     <use x="172.265625" xlink:href="#ArialMT-101"/>
    </g>
   </g>
   <g id="text_16">
    <!-- Colombia -->
    <g style="fill:#808080;" transform="translate(518.863636 183.258609)scale(0.05 -0.05)">
     <use xlink:href="#ArialMT-67"/>
     <use x="72.216797" xlink:href="#ArialMT-111"/>
     <use x="127.832031" xlink:href="#ArialMT-108"/>
     <use x="150.048828" xlink:href="#ArialMT-111"/>
     <use x="205.664062" xlink:href="#ArialMT-109"/>
     <use x="288.964844" xlink:href="#ArialMT-98"/>
     <use x="344.580078" xlink:href="#ArialMT-105"/>
     <use x="366.796875" xlink:href="#ArialMT-97"/>
    </g>
   </g>
   <g id="text_17">
    <!-- Croatia -->
    <g style="fill:#808080;" transform="translate(518.863636 215.925949)scale(0.05 -0.05)">
     <use xlink:href="#ArialMT-67"/>
     <use x="72.216797" xlink:href="#ArialMT-114"/>
     <use x="105.517578" xlink:href="#ArialMT-111"/>
     <use x="161.132812" xlink:href="#ArialMT-97"/>
     <use x="216.748047" xlink:href="#ArialMT-116"/>
     <use x="244.53125" xlink:href="#ArialMT-105"/>
     <use x="266.748047" xlink:href="#ArialMT-97"/>
    </g>
   </g>
   <g id="text_18">
    <!-- Cuba -->
    <g style="fill:#ff0000;" transform="translate(499.64876 289.664065)scale(0.169932 -0.169932)">
     <use xlink:href="#ArialMT-67"/>
     <use x="72.216797" xlink:href="#ArialMT-117"/>
     <use x="127.832031" xlink:href="#ArialMT-98"/>
     <use x="183.447266" xlink:href="#ArialMT-97"/>
    </g>
   </g>
   <g id="text_19">
    <!-- Cyprus -->
    <defs>
     <path d="M 6.203125 -19.96875 
L 5.21875 -11.71875 
Q 8.109375 -12.5 10.25 -12.5 
Q 13.1875 -12.5 14.9375 -11.515625 
Q 16.703125 -10.546875 17.828125 -8.796875 
Q 18.65625 -7.46875 20.515625 -2.25 
Q 20.75 -1.515625 21.296875 -0.09375 
L 1.609375 51.859375 
L 11.078125 51.859375 
L 21.875 21.828125 
Q 23.96875 16.109375 25.640625 9.8125 
Q 27.15625 15.875 29.25 21.625 
L 40.328125 51.859375 
L 49.125 51.859375 
L 29.390625 -0.875 
Q 26.21875 -9.421875 24.46875 -12.640625 
Q 22.125 -17 19.09375 -19.015625 
Q 16.0625 -21.046875 11.859375 -21.046875 
Q 9.328125 -21.046875 6.203125 -19.96875 
z
" id="ArialMT-121"/>
    </defs>
    <g style="fill:#808080;" transform="translate(518.863636 269.119647)scale(0.05 -0.05)">
     <use xlink:href="#ArialMT-67"/>
     <use x="72.216797" xlink:href="#ArialMT-121"/>
     <use x="122.216797" xlink:href="#ArialMT-112"/>
     <use x="177.832031" xlink:href="#ArialMT-114"/>
     <use x="211.132812" xlink:href="#ArialMT-117"/>
     <use x="266.748047" xlink:href="#ArialMT-115"/>
    </g>
   </g>
   <g id="text_20">
    <!-- Ecuador -->
    <defs>
     <path d="M 7.90625 0 
L 7.90625 71.578125 
L 59.671875 71.578125 
L 59.671875 63.140625 
L 17.390625 63.140625 
L 17.390625 41.21875 
L 56.984375 41.21875 
L 56.984375 32.8125 
L 17.390625 32.8125 
L 17.390625 8.453125 
L 61.328125 8.453125 
L 61.328125 0 
z
" id="ArialMT-69"/>
     <path d="M 40.234375 0 
L 40.234375 6.546875 
Q 35.296875 -1.171875 25.734375 -1.171875 
Q 19.53125 -1.171875 14.328125 2.25 
Q 9.125 5.671875 6.265625 11.796875 
Q 3.421875 17.921875 3.421875 25.875 
Q 3.421875 33.640625 6 39.96875 
Q 8.59375 46.296875 13.765625 49.65625 
Q 18.953125 53.03125 25.34375 53.03125 
Q 30.03125 53.03125 33.6875 51.046875 
Q 37.359375 49.078125 39.65625 45.90625 
L 39.65625 71.578125 
L 48.390625 71.578125 
L 48.390625 0 
z
M 12.453125 25.875 
Q 12.453125 15.921875 16.640625 10.984375 
Q 20.84375 6.0625 26.5625 6.0625 
Q 32.328125 6.0625 36.34375 10.765625 
Q 40.375 15.484375 40.375 25.140625 
Q 40.375 35.796875 36.265625 40.765625 
Q 32.171875 45.75 26.171875 45.75 
Q 20.3125 45.75 16.375 40.96875 
Q 12.453125 36.1875 12.453125 25.875 
z
" id="ArialMT-100"/>
    </defs>
    <g style="fill:#808080;" transform="translate(518.863636 242.348375)scale(0.05 -0.05)">
     <use xlink:href="#ArialMT-69"/>
     <use x="66.699219" xlink:href="#ArialMT-99"/>
     <use x="116.699219" xlink:href="#ArialMT-117"/>
     <use x="172.314453" xlink:href="#ArialMT-97"/>
     <use x="227.929688" xlink:href="#ArialMT-100"/>
     <use x="283.544922" xlink:href="#ArialMT-111"/>
     <use x="339.160156" xlink:href="#ArialMT-114"/>
    </g>
   </g>
   <g id="text_21">
    <!-- Indonesia -->
    <defs>
     <path d="M 9.328125 0 
L 9.328125 71.578125 
L 18.796875 71.578125 
L 18.796875 0 
z
" id="ArialMT-73"/>
    </defs>
    <g style="fill:#808080;" transform="translate(518.863636 124.703239)scale(0.05 -0.05)">
     <use xlink:href="#ArialMT-73"/>
     <use x="27.783203" xlink:href="#ArialMT-110"/>
     <use x="83.398438" xlink:href="#ArialMT-100"/>
     <use x="139.013672" xlink:href="#ArialMT-111"/>
     <use x="194.628906" xlink:href="#ArialMT-110"/>
     <use x="250.244141" xlink:href="#ArialMT-101"/>
     <use x="305.859375" xlink:href="#ArialMT-115"/>
     <use x="355.859375" xlink:href="#ArialMT-105"/>
     <use x="378.076172" xlink:href="#ArialMT-97"/>
    </g>
   </g>
   <g id="text_22">
    <!-- Iran -->
    <g style="fill:#808080;" transform="translate(518.863636 93)scale(0.05 -0.05)">
     <use xlink:href="#ArialMT-73"/>
     <use x="27.783203" xlink:href="#ArialMT-114"/>
     <use x="61.083984" xlink:href="#ArialMT-97"/>
     <use x="116.699219" xlink:href="#ArialMT-110"/>
    </g>
   </g>
   <g id="text_23">
    <!-- Peru -->
    <defs>
     <path d="M 7.71875 0 
L 7.71875 71.578125 
L 34.71875 71.578125 
Q 41.84375 71.578125 45.609375 70.90625 
Q 50.875 70.015625 54.4375 67.546875 
Q 58.015625 65.09375 60.1875 60.640625 
Q 62.359375 56.203125 62.359375 50.875 
Q 62.359375 41.75 56.546875 35.421875 
Q 50.734375 29.109375 35.546875 29.109375 
L 17.1875 29.109375 
L 17.1875 0 
z
M 17.1875 37.546875 
L 35.6875 37.546875 
Q 44.875 37.546875 48.734375 40.96875 
Q 52.59375 44.390625 52.59375 50.59375 
Q 52.59375 55.078125 50.3125 58.265625 
Q 48.046875 61.46875 44.34375 62.5 
Q 41.9375 63.140625 35.5 63.140625 
L 17.1875 63.140625 
z
" id="ArialMT-80"/>
    </defs>
    <g style="fill:#808080;" transform="translate(518.863636 261.726327)scale(0.05 -0.05)">
     <use xlink:href="#ArialMT-80"/>
     <use x="66.699219" xlink:href="#ArialMT-101"/>
     <use x="122.314453" xlink:href="#ArialMT-114"/>
     <use x="155.615234" xlink:href="#ArialMT-117"/>
    </g>
   </g>
   <g id="text_24">
    <!-- Philippines -->
    <g style="fill:#808080;" transform="translate(518.863636 253.623821)scale(0.05 -0.05)">
     <use xlink:href="#ArialMT-80"/>
     <use x="66.699219" xlink:href="#ArialMT-104"/>
     <use x="122.314453" xlink:href="#ArialMT-105"/>
     <use x="144.53125" xlink:href="#ArialMT-108"/>
     <use x="166.748047" xlink:href="#ArialMT-105"/>
     <use x="188.964844" xlink:href="#ArialMT-112"/>
     <use x="244.580078" xlink:href="#ArialMT-112"/>
     <use x="300.195312" xlink:href="#ArialMT-105"/>
     <use x="322.412109" xlink:href="#ArialMT-110"/>
     <use x="378.027344" xlink:href="#ArialMT-101"/>
     <use x="433.642578" xlink:href="#ArialMT-115"/>
    </g>
   </g>
   <g id="text_25">
    <!-- Puerto Rico -->
    <defs>
     <path d="M 7.859375 0 
L 7.859375 71.578125 
L 39.59375 71.578125 
Q 49.171875 71.578125 54.140625 69.640625 
Q 59.125 67.71875 62.109375 62.828125 
Q 65.09375 57.953125 65.09375 52.046875 
Q 65.09375 44.4375 60.15625 39.203125 
Q 55.21875 33.984375 44.921875 32.5625 
Q 48.6875 30.765625 50.640625 29 
Q 54.78125 25.203125 58.5 19.484375 
L 70.953125 0 
L 59.03125 0 
L 49.5625 14.890625 
Q 45.40625 21.34375 42.71875 24.75 
Q 40.046875 28.171875 37.921875 29.53125 
Q 35.796875 30.90625 33.59375 31.453125 
Q 31.984375 31.78125 28.328125 31.78125 
L 17.328125 31.78125 
L 17.328125 0 
z
M 17.328125 39.984375 
L 37.703125 39.984375 
Q 44.1875 39.984375 47.84375 41.328125 
Q 51.515625 42.671875 53.421875 45.625 
Q 55.328125 48.578125 55.328125 52.046875 
Q 55.328125 57.125 51.640625 60.390625 
Q 47.953125 63.671875 39.984375 63.671875 
L 17.328125 63.671875 
z
" id="ArialMT-82"/>
    </defs>
    <g style="fill:#808080;" transform="translate(518.863636 344.655675)scale(0.05 -0.05)">
     <use xlink:href="#ArialMT-80"/>
     <use x="66.699219" xlink:href="#ArialMT-117"/>
     <use x="122.314453" xlink:href="#ArialMT-101"/>
     <use x="177.929688" xlink:href="#ArialMT-114"/>
     <use x="211.230469" xlink:href="#ArialMT-116"/>
     <use x="239.013672" xlink:href="#ArialMT-111"/>
     <use x="294.628906" xlink:href="#ArialMT-32"/>
     <use x="322.412109" xlink:href="#ArialMT-82"/>
     <use x="394.628906" xlink:href="#ArialMT-105"/>
     <use x="416.845703" xlink:href="#ArialMT-99"/>
     <use x="466.845703" xlink:href="#ArialMT-111"/>
    </g>
   </g>
   <g id="text_26">
    <!-- Thailand -->
    <defs>
     <path d="M 25.921875 0 
L 25.921875 63.140625 
L 2.34375 63.140625 
L 2.34375 71.578125 
L 59.078125 71.578125 
L 59.078125 63.140625 
L 35.40625 63.140625 
L 35.40625 0 
z
" id="ArialMT-84"/>
    </defs>
    <g style="fill:#808080;" transform="translate(518.863636 162.4618)scale(0.05 -0.05)">
     <use xlink:href="#ArialMT-84"/>
     <use x="61.083984" xlink:href="#ArialMT-104"/>
     <use x="116.699219" xlink:href="#ArialMT-97"/>
     <use x="172.314453" xlink:href="#ArialMT-105"/>
     <use x="194.53125" xlink:href="#ArialMT-108"/>
     <use x="216.748047" xlink:href="#ArialMT-97"/>
     <use x="272.363281" xlink:href="#ArialMT-110"/>
     <use x="327.978516" xlink:href="#ArialMT-100"/>
    </g>
   </g>
   <g id="text_27">
    <!-- Uruguay -->
    <defs>
     <path d="M 54.6875 71.578125 
L 64.15625 71.578125 
L 64.15625 30.21875 
Q 64.15625 19.4375 61.71875 13.078125 
Q 59.28125 6.734375 52.90625 2.75 
Q 46.53125 -1.21875 36.1875 -1.21875 
Q 26.125 -1.21875 19.71875 2.25 
Q 13.328125 5.71875 10.59375 12.28125 
Q 7.859375 18.84375 7.859375 30.21875 
L 7.859375 71.578125 
L 17.328125 71.578125 
L 17.328125 30.28125 
Q 17.328125 20.953125 19.0625 16.53125 
Q 20.796875 12.109375 25.015625 9.71875 
Q 29.25 7.328125 35.359375 7.328125 
Q 45.796875 7.328125 50.234375 12.0625 
Q 54.6875 16.796875 54.6875 30.28125 
z
" id="ArialMT-85"/>
    </defs>
    <g style="fill:#808080;" transform="translate(518.863636 298.562317)scale(0.05 -0.05)">
     <use xlink:href="#ArialMT-85"/>
     <use x="72.216797" xlink:href="#ArialMT-114"/>
     <use x="105.517578" xlink:href="#ArialMT-117"/>
     <use x="161.132812" xlink:href="#ArialMT-103"/>
     <use x="216.748047" xlink:href="#ArialMT-117"/>
     <use x="272.363281" xlink:href="#ArialMT-97"/>
     <use x="327.978516" xlink:href="#ArialMT-121"/>
    </g>
   </g>
   <g id="text_28">
    <!-- Venezuela -->
    <defs>
     <path d="M 28.171875 0 
L 0.4375 71.578125 
L 10.6875 71.578125 
L 29.296875 19.578125 
Q 31.546875 13.328125 33.0625 7.859375 
Q 34.71875 13.71875 36.921875 19.578125 
L 56.25 71.578125 
L 65.921875 71.578125 
L 37.890625 0 
z
" id="ArialMT-86"/>
     <path d="M 1.953125 0 
L 1.953125 7.125 
L 34.96875 45.015625 
Q 29.34375 44.734375 25.046875 44.734375 
L 3.90625 44.734375 
L 3.90625 51.859375 
L 46.296875 51.859375 
L 46.296875 46.046875 
L 18.21875 13.140625 
L 12.796875 7.125 
Q 18.703125 7.5625 23.875 7.5625 
L 47.859375 7.5625 
L 47.859375 0 
z
" id="ArialMT-122"/>
    </defs>
    <g style="fill:#808080;" transform="translate(518.863636 309.711733)scale(0.05 -0.05)">
     <use xlink:href="#ArialMT-86"/>
     <use x="66.621094" xlink:href="#ArialMT-101"/>
     <use x="122.236328" xlink:href="#ArialMT-110"/>
     <use x="177.851562" xlink:href="#ArialMT-101"/>
     <use x="233.466797" xlink:href="#ArialMT-122"/>
     <use x="283.466797" xlink:href="#ArialMT-117"/>
     <use x="339.082031" xlink:href="#ArialMT-101"/>
     <use x="394.697266" xlink:href="#ArialMT-108"/>
     <use x="416.914062" xlink:href="#ArialMT-97"/>
    </g>
   </g>
   <g id="text_29">
    <!-- Viet Nam -->
    <defs>
     <path d="M 7.625 0 
L 7.625 71.578125 
L 17.328125 71.578125 
L 54.9375 15.375 
L 54.9375 71.578125 
L 64.015625 71.578125 
L 64.015625 0 
L 54.296875 0 
L 16.703125 56.25 
L 16.703125 0 
z
" id="ArialMT-78"/>
    </defs>
    <g style="fill:#808080;" transform="translate(518.863636 204.86474)scale(0.05 -0.05)">
     <use xlink:href="#ArialMT-86"/>
     <use x="66.683594" xlink:href="#ArialMT-105"/>
     <use x="88.900391" xlink:href="#ArialMT-101"/>
     <use x="144.515625" xlink:href="#ArialMT-116"/>
     <use x="172.298828" xlink:href="#ArialMT-32"/>
     <use x="200.082031" xlink:href="#ArialMT-78"/>
     <use x="272.298828" xlink:href="#ArialMT-97"/>
     <use x="327.914062" xlink:href="#ArialMT-109"/>
    </g>
   </g>
   <g id="text_30">
    <!-- Number of publications by Country (1996-2018) -->
    <defs>
     <path d="M 23.390625 -21.046875 
Q 16.109375 -11.859375 11.078125 0.4375 
Q 6.0625 12.75 6.0625 25.921875 
Q 6.0625 37.546875 9.8125 48.1875 
Q 14.203125 60.546875 23.390625 72.796875 
L 29.6875 72.796875 
Q 23.78125 62.640625 21.875 58.296875 
Q 18.890625 51.5625 17.1875 44.234375 
Q 15.09375 35.109375 15.09375 25.875 
Q 15.09375 2.390625 29.6875 -21.046875 
z
" id="ArialMT-40"/>
     <path d="M 49.75 54.046875 
L 41.015625 53.375 
Q 39.84375 58.546875 37.703125 60.890625 
Q 34.125 64.65625 28.90625 64.65625 
Q 24.703125 64.65625 21.53125 62.3125 
Q 17.390625 59.28125 14.984375 53.46875 
Q 12.59375 47.65625 12.5 36.921875 
Q 15.671875 41.75 20.265625 44.09375 
Q 24.859375 46.4375 29.890625 46.4375 
Q 38.671875 46.4375 44.84375 39.96875 
Q 51.03125 33.5 51.03125 23.25 
Q 51.03125 16.5 48.125 10.71875 
Q 45.21875 4.9375 40.140625 1.859375 
Q 35.0625 -1.21875 28.609375 -1.21875 
Q 17.625 -1.21875 10.6875 6.859375 
Q 3.765625 14.9375 3.765625 33.5 
Q 3.765625 54.25 11.421875 63.671875 
Q 18.109375 71.875 29.4375 71.875 
Q 37.890625 71.875 43.28125 67.140625 
Q 48.6875 62.40625 49.75 54.046875 
z
M 13.875 23.1875 
Q 13.875 18.65625 15.796875 14.5 
Q 17.71875 10.359375 21.1875 8.171875 
Q 24.65625 6 28.46875 6 
Q 34.03125 6 38.03125 10.484375 
Q 42.046875 14.984375 42.046875 22.703125 
Q 42.046875 30.125 38.078125 34.390625 
Q 34.125 38.671875 28.125 38.671875 
Q 22.171875 38.671875 18.015625 34.390625 
Q 13.875 30.125 13.875 23.1875 
z
" id="ArialMT-54"/>
     <path d="M 3.171875 21.484375 
L 3.171875 30.328125 
L 30.171875 30.328125 
L 30.171875 21.484375 
z
" id="ArialMT-45"/>
     <path d="M 17.671875 38.8125 
Q 12.203125 40.828125 9.5625 44.53125 
Q 6.9375 48.25 6.9375 53.421875 
Q 6.9375 61.234375 12.546875 66.546875 
Q 18.171875 71.875 27.484375 71.875 
Q 36.859375 71.875 42.578125 66.421875 
Q 48.296875 60.984375 48.296875 53.171875 
Q 48.296875 48.1875 45.671875 44.5 
Q 43.0625 40.828125 37.75 38.8125 
Q 44.34375 36.671875 47.78125 31.875 
Q 51.21875 27.09375 51.21875 20.453125 
Q 51.21875 11.28125 44.71875 5.03125 
Q 38.234375 -1.21875 27.640625 -1.21875 
Q 17.046875 -1.21875 10.546875 5.046875 
Q 4.046875 11.328125 4.046875 20.703125 
Q 4.046875 27.6875 7.59375 32.390625 
Q 11.140625 37.109375 17.671875 38.8125 
z
M 15.921875 53.71875 
Q 15.921875 48.640625 19.1875 45.40625 
Q 22.46875 42.1875 27.6875 42.1875 
Q 32.765625 42.1875 36.015625 45.375 
Q 39.265625 48.578125 39.265625 53.21875 
Q 39.265625 58.0625 35.90625 61.359375 
Q 32.5625 64.65625 27.59375 64.65625 
Q 22.5625 64.65625 19.234375 61.421875 
Q 15.921875 58.203125 15.921875 53.71875 
z
M 13.09375 20.65625 
Q 13.09375 16.890625 14.875 13.375 
Q 16.65625 9.859375 20.171875 7.921875 
Q 23.6875 6 27.734375 6 
Q 34.03125 6 38.125 10.046875 
Q 42.234375 14.109375 42.234375 20.359375 
Q 42.234375 26.703125 38.015625 30.859375 
Q 33.796875 35.015625 27.4375 35.015625 
Q 21.234375 35.015625 17.15625 30.90625 
Q 13.09375 26.8125 13.09375 20.65625 
z
" id="ArialMT-56"/>
     <path d="M 12.359375 -21.046875 
L 6.0625 -21.046875 
Q 20.65625 2.390625 20.65625 25.875 
Q 20.65625 35.0625 18.5625 44.09375 
Q 16.890625 51.421875 13.921875 58.15625 
Q 12.015625 62.546875 6.0625 72.796875 
L 12.359375 72.796875 
Q 21.53125 60.546875 25.921875 48.1875 
Q 29.6875 37.546875 29.6875 25.921875 
Q 29.6875 12.75 24.625 0.4375 
Q 19.578125 -11.859375 12.359375 -21.046875 
z
" id="ArialMT-41"/>
    </defs>
    <g transform="translate(181.108125 66)scale(0.12 -0.12)">
     <use xlink:href="#ArialMT-78"/>
     <use x="72.216797" xlink:href="#ArialMT-117"/>
     <use x="127.832031" xlink:href="#ArialMT-109"/>
     <use x="211.132812" xlink:href="#ArialMT-98"/>
     <use x="266.748047" xlink:href="#ArialMT-101"/>
     <use x="322.363281" xlink:href="#ArialMT-114"/>
     <use x="355.664062" xlink:href="#ArialMT-32"/>
     <use x="383.447266" xlink:href="#ArialMT-111"/>
     <use x="439.0625" xlink:href="#ArialMT-102"/>
     <use x="466.845703" xlink:href="#ArialMT-32"/>
     <use x="494.628906" xlink:href="#ArialMT-112"/>
     <use x="550.244141" xlink:href="#ArialMT-117"/>
     <use x="605.859375" xlink:href="#ArialMT-98"/>
     <use x="661.474609" xlink:href="#ArialMT-108"/>
     <use x="683.691406" xlink:href="#ArialMT-105"/>
     <use x="705.908203" xlink:href="#ArialMT-99"/>
     <use x="755.908203" xlink:href="#ArialMT-97"/>
     <use x="811.523438" xlink:href="#ArialMT-116"/>
     <use x="839.306641" xlink:href="#ArialMT-105"/>
     <use x="861.523438" xlink:href="#ArialMT-111"/>
     <use x="917.138672" xlink:href="#ArialMT-110"/>
     <use x="972.753906" xlink:href="#ArialMT-115"/>
     <use x="1022.753906" xlink:href="#ArialMT-32"/>
     <use x="1050.537109" xlink:href="#ArialMT-98"/>
     <use x="1106.152344" xlink:href="#ArialMT-121"/>
     <use x="1156.152344" xlink:href="#ArialMT-32"/>
     <use x="1183.935547" xlink:href="#ArialMT-67"/>
     <use x="1256.152344" xlink:href="#ArialMT-111"/>
     <use x="1311.767578" xlink:href="#ArialMT-117"/>
     <use x="1367.382812" xlink:href="#ArialMT-110"/>
     <use x="1422.998047" xlink:href="#ArialMT-116"/>
     <use x="1450.78125" xlink:href="#ArialMT-114"/>
     <use x="1484.082031" xlink:href="#ArialMT-121"/>
     <use x="1534.082031" xlink:href="#ArialMT-32"/>
     <use x="1561.865234" xlink:href="#ArialMT-40"/>
     <use x="1595.166016" xlink:href="#ArialMT-49"/>
     <use x="1650.78125" xlink:href="#ArialMT-57"/>
     <use x="1706.396484" xlink:href="#ArialMT-57"/>
     <use x="1762.011719" xlink:href="#ArialMT-54"/>
     <use x="1817.626953" xlink:href="#ArialMT-45"/>
     <use x="1850.927734" xlink:href="#ArialMT-50"/>
     <use x="1906.542969" xlink:href="#ArialMT-48"/>
     <use x="1962.158203" xlink:href="#ArialMT-49"/>
     <use x="2017.773438" xlink:href="#ArialMT-56"/>
     <use x="2073.388672" xlink:href="#ArialMT-41"/>
    </g>
   </g>
  </g>
 </g>
 <defs>
  <clipPath id="p641b0485f1">
   <rect height="462" width="465" x="75" y="72"/>
  </clipPath>
 </defs>
</svg>
