<?xml version="1.0" encoding="utf-8" standalone="no"?>
<!DOCTYPE svg PUBLIC "-//W3C//DTD SVG 1.1//EN"
  "http://www.w3.org/Graphics/SVG/1.1/DTD/svg11.dtd">
<!-- Created with matplotlib (https://matplotlib.org/) -->
<svg height="600pt" version="1.1" viewBox="0 0 600 600" width="600pt" xmlns="http://www.w3.org/2000/svg" xmlns:xlink="http://www.w3.org/1999/xlink">
 <defs>
  <style type="text/css">
*{stroke-linecap:butt;stroke-linejoin:round;}
  </style>
 </defs>
 <g id="figure_1">
  <g id="patch_1">
   <path d="M 0 600 
L 600 600 
L 600 0 
L 0 0 
z
" style="fill:#ffffff;"/>
  </g>
  <g id="axes_1">
   <g id="patch_2">
    <path d="M 75 534 
L 540 534 
L 540 72 
L 75 72 
z
" style="fill:#eaeaf2;"/>
   </g>
   <g id="matplotlib.axis_1">
    <g id="xtick_1">
     <g id="line2d_1">
      <path clip-path="url(#p2624e0385c)" d="M 76.921488 534 
L 76.921488 72 
" style="fill:none;stroke:#ffffff;stroke-linecap:round;"/>
     </g>
     <g id="text_1">
      <!-- 1995 -->
      <defs>
       <path d="M 37.25 0 
L 28.46875 0 
L 28.46875 56 
Q 25.296875 52.984375 20.140625 49.953125 
Q 14.984375 46.921875 10.890625 45.40625 
L 10.890625 53.90625 
Q 18.265625 57.375 23.78125 62.296875 
Q 29.296875 67.234375 31.59375 71.875 
L 37.25 71.875 
z
" id="ArialMT-49"/>
       <path d="M 5.46875 16.546875 
L 13.921875 17.328125 
Q 14.984375 11.375 18.015625 8.6875 
Q 21.046875 6 25.78125 6 
Q 29.828125 6 32.875 7.859375 
Q 35.9375 9.71875 37.890625 12.8125 
Q 39.84375 15.921875 41.15625 21.1875 
Q 42.484375 26.46875 42.484375 31.9375 
Q 42.484375 32.515625 42.4375 33.6875 
Q 39.796875 29.5 35.234375 26.875 
Q 30.671875 24.265625 25.34375 24.265625 
Q 16.453125 24.265625 10.296875 30.703125 
Q 4.15625 37.15625 4.15625 47.703125 
Q 4.15625 58.59375 10.578125 65.234375 
Q 17 71.875 26.65625 71.875 
Q 33.640625 71.875 39.421875 68.109375 
Q 45.21875 64.359375 48.21875 57.390625 
Q 51.21875 50.4375 51.21875 37.25 
Q 51.21875 23.53125 48.234375 15.40625 
Q 45.265625 7.28125 39.375 3.03125 
Q 33.5 -1.21875 25.59375 -1.21875 
Q 17.1875 -1.21875 11.859375 3.4375 
Q 6.546875 8.109375 5.46875 16.546875 
z
M 41.453125 48.140625 
Q 41.453125 55.71875 37.421875 60.15625 
Q 33.40625 64.59375 27.734375 64.59375 
Q 21.875 64.59375 17.53125 59.8125 
Q 13.1875 55.03125 13.1875 47.40625 
Q 13.1875 40.578125 17.3125 36.296875 
Q 21.4375 32.03125 27.484375 32.03125 
Q 33.59375 32.03125 37.515625 36.296875 
Q 41.453125 40.578125 41.453125 48.140625 
z
" id="ArialMT-57"/>
       <path d="M 4.15625 18.75 
L 13.375 19.53125 
Q 14.40625 12.796875 18.140625 9.390625 
Q 21.875 6 27.15625 6 
Q 33.5 6 37.890625 10.78125 
Q 42.28125 15.578125 42.28125 23.484375 
Q 42.28125 31 38.0625 35.34375 
Q 33.84375 39.703125 27 39.703125 
Q 22.75 39.703125 19.328125 37.765625 
Q 15.921875 35.84375 13.96875 32.765625 
L 5.71875 33.84375 
L 12.640625 70.609375 
L 48.25 70.609375 
L 48.25 62.203125 
L 19.671875 62.203125 
L 15.828125 42.96875 
Q 22.265625 47.46875 29.34375 47.46875 
Q 38.71875 47.46875 45.15625 40.96875 
Q 51.609375 34.46875 51.609375 24.265625 
Q 51.609375 14.546875 45.953125 7.46875 
Q 39.0625 -1.21875 27.15625 -1.21875 
Q 17.390625 -1.21875 11.203125 4.25 
Q 5.03125 9.71875 4.15625 18.75 
z
" id="ArialMT-53"/>
      </defs>
      <g style="fill:#262626;" transform="translate(56.123581 550.885109)scale(0.187 -0.187)">
       <use xlink:href="#ArialMT-49"/>
       <use x="55.615234" xlink:href="#ArialMT-57"/>
       <use x="111.230469" xlink:href="#ArialMT-57"/>
       <use x="166.845703" xlink:href="#ArialMT-53"/>
      </g>
     </g>
    </g>
    <g id="xtick_2">
     <g id="line2d_2">
      <path clip-path="url(#p2624e0385c)" d="M 172.995868 534 
L 172.995868 72 
" style="fill:none;stroke:#ffffff;stroke-linecap:round;"/>
     </g>
     <g id="text_2">
      <!-- 2000 -->
      <defs>
       <path d="M 50.34375 8.453125 
L 50.34375 0 
L 3.03125 0 
Q 2.9375 3.171875 4.046875 6.109375 
Q 5.859375 10.9375 9.828125 15.625 
Q 13.8125 20.3125 21.34375 26.46875 
Q 33.015625 36.03125 37.109375 41.625 
Q 41.21875 47.21875 41.21875 52.203125 
Q 41.21875 57.421875 37.46875 61 
Q 33.734375 64.59375 27.734375 64.59375 
Q 21.390625 64.59375 17.578125 60.78125 
Q 13.765625 56.984375 13.71875 50.25 
L 4.6875 51.171875 
Q 5.609375 61.28125 11.65625 66.578125 
Q 17.71875 71.875 27.9375 71.875 
Q 38.234375 71.875 44.234375 66.15625 
Q 50.25 60.453125 50.25 52 
Q 50.25 47.703125 48.484375 43.546875 
Q 46.734375 39.40625 42.65625 34.8125 
Q 38.578125 30.21875 29.109375 22.21875 
Q 21.1875 15.578125 18.9375 13.203125 
Q 16.703125 10.84375 15.234375 8.453125 
z
" id="ArialMT-50"/>
       <path d="M 4.15625 35.296875 
Q 4.15625 48 6.765625 55.734375 
Q 9.375 63.484375 14.515625 67.671875 
Q 19.671875 71.875 27.484375 71.875 
Q 33.25 71.875 37.59375 69.546875 
Q 41.9375 67.234375 44.765625 62.859375 
Q 47.609375 58.5 49.21875 52.21875 
Q 50.828125 45.953125 50.828125 35.296875 
Q 50.828125 22.703125 48.234375 14.96875 
Q 45.65625 7.234375 40.5 3 
Q 35.359375 -1.21875 27.484375 -1.21875 
Q 17.140625 -1.21875 11.234375 6.203125 
Q 4.15625 15.140625 4.15625 35.296875 
z
M 13.1875 35.296875 
Q 13.1875 17.671875 17.3125 11.828125 
Q 21.4375 6 27.484375 6 
Q 33.546875 6 37.671875 11.859375 
Q 41.796875 17.71875 41.796875 35.296875 
Q 41.796875 52.984375 37.671875 58.78125 
Q 33.546875 64.59375 27.390625 64.59375 
Q 21.34375 64.59375 17.71875 59.46875 
Q 13.1875 52.9375 13.1875 35.296875 
z
" id="ArialMT-48"/>
      </defs>
      <g style="fill:#262626;" transform="translate(152.197962 550.885109)scale(0.187 -0.187)">
       <use xlink:href="#ArialMT-50"/>
       <use x="55.615234" xlink:href="#ArialMT-48"/>
       <use x="111.230469" xlink:href="#ArialMT-48"/>
       <use x="166.845703" xlink:href="#ArialMT-48"/>
      </g>
     </g>
    </g>
    <g id="xtick_3">
     <g id="line2d_3">
      <path clip-path="url(#p2624e0385c)" d="M 269.070248 534 
L 269.070248 72 
" style="fill:none;stroke:#ffffff;stroke-linecap:round;"/>
     </g>
     <g id="text_3">
      <!-- 2005 -->
      <g style="fill:#262626;" transform="translate(248.272342 550.885109)scale(0.187 -0.187)">
       <use xlink:href="#ArialMT-50"/>
       <use x="55.615234" xlink:href="#ArialMT-48"/>
       <use x="111.230469" xlink:href="#ArialMT-48"/>
       <use x="166.845703" xlink:href="#ArialMT-53"/>
      </g>
     </g>
    </g>
    <g id="xtick_4">
     <g id="line2d_4">
      <path clip-path="url(#p2624e0385c)" d="M 365.144628 534 
L 365.144628 72 
" style="fill:none;stroke:#ffffff;stroke-linecap:round;"/>
     </g>
     <g id="text_4">
      <!-- 2010 -->
      <g style="fill:#262626;" transform="translate(344.346722 550.885109)scale(0.187 -0.187)">
       <use xlink:href="#ArialMT-50"/>
       <use x="55.615234" xlink:href="#ArialMT-48"/>
       <use x="111.230469" xlink:href="#ArialMT-49"/>
       <use x="166.845703" xlink:href="#ArialMT-48"/>
      </g>
     </g>
    </g>
    <g id="xtick_5">
     <g id="line2d_5">
      <path clip-path="url(#p2624e0385c)" d="M 461.219008 534 
L 461.219008 72 
" style="fill:none;stroke:#ffffff;stroke-linecap:round;"/>
     </g>
     <g id="text_5">
      <!-- 2015 -->
      <g style="fill:#262626;" transform="translate(440.421102 550.885109)scale(0.187 -0.187)">
       <use xlink:href="#ArialMT-50"/>
       <use x="55.615234" xlink:href="#ArialMT-48"/>
       <use x="111.230469" xlink:href="#ArialMT-49"/>
       <use x="166.845703" xlink:href="#ArialMT-53"/>
      </g>
     </g>
    </g>
    <g id="text_6">
     <!-- Year -->
     <defs>
      <path d="M 27.875 0 
L 27.875 30.328125 
L 0.296875 71.578125 
L 11.8125 71.578125 
L 25.921875 50 
Q 29.828125 43.953125 33.203125 37.890625 
Q 36.421875 43.5 41.015625 50.53125 
L 54.890625 71.578125 
L 65.921875 71.578125 
L 37.359375 30.328125 
L 37.359375 0 
z
" id="ArialMT-89"/>
      <path d="M 42.09375 16.703125 
L 51.171875 15.578125 
Q 49.03125 7.625 43.21875 3.21875 
Q 37.40625 -1.171875 28.375 -1.171875 
Q 17 -1.171875 10.328125 5.828125 
Q 3.65625 12.84375 3.65625 25.484375 
Q 3.65625 38.578125 10.390625 45.796875 
Q 17.140625 53.03125 27.875 53.03125 
Q 38.28125 53.03125 44.875 45.953125 
Q 51.46875 38.875 51.46875 26.03125 
Q 51.46875 25.25 51.421875 23.6875 
L 12.75 23.6875 
Q 13.234375 15.140625 17.578125 10.59375 
Q 21.921875 6.0625 28.421875 6.0625 
Q 33.25 6.0625 36.671875 8.59375 
Q 40.09375 11.140625 42.09375 16.703125 
z
M 13.234375 30.90625 
L 42.1875 30.90625 
Q 41.609375 37.453125 38.875 40.71875 
Q 34.671875 45.796875 27.984375 45.796875 
Q 21.921875 45.796875 17.796875 41.75 
Q 13.671875 37.703125 13.234375 30.90625 
z
" id="ArialMT-101"/>
      <path d="M 40.4375 6.390625 
Q 35.546875 2.25 31.03125 0.53125 
Q 26.515625 -1.171875 21.34375 -1.171875 
Q 12.796875 -1.171875 8.203125 3 
Q 3.609375 7.171875 3.609375 13.671875 
Q 3.609375 17.484375 5.34375 20.625 
Q 7.078125 23.78125 9.890625 25.6875 
Q 12.703125 27.59375 16.21875 28.5625 
Q 18.796875 29.25 24.03125 29.890625 
Q 34.671875 31.15625 39.703125 32.90625 
Q 39.75 34.71875 39.75 35.203125 
Q 39.75 40.578125 37.25 42.78125 
Q 33.890625 45.75 27.25 45.75 
Q 21.046875 45.75 18.09375 43.578125 
Q 15.140625 41.40625 13.71875 35.890625 
L 5.125 37.0625 
Q 6.296875 42.578125 8.984375 45.96875 
Q 11.671875 49.359375 16.75 51.1875 
Q 21.828125 53.03125 28.515625 53.03125 
Q 35.15625 53.03125 39.296875 51.46875 
Q 43.453125 49.90625 45.40625 47.53125 
Q 47.359375 45.171875 48.140625 41.546875 
Q 48.578125 39.3125 48.578125 33.453125 
L 48.578125 21.734375 
Q 48.578125 9.46875 49.140625 6.21875 
Q 49.703125 2.984375 51.375 0 
L 42.1875 0 
Q 40.828125 2.734375 40.4375 6.390625 
z
M 39.703125 26.03125 
Q 34.90625 24.078125 25.34375 22.703125 
Q 19.921875 21.921875 17.671875 20.9375 
Q 15.4375 19.96875 14.203125 18.09375 
Q 12.984375 16.21875 12.984375 13.921875 
Q 12.984375 10.40625 15.640625 8.0625 
Q 18.3125 5.71875 23.4375 5.71875 
Q 28.515625 5.71875 32.46875 7.9375 
Q 36.421875 10.15625 38.28125 14.015625 
Q 39.703125 17 39.703125 22.796875 
z
" id="ArialMT-97"/>
      <path d="M 6.5 0 
L 6.5 51.859375 
L 14.40625 51.859375 
L 14.40625 44 
Q 17.4375 49.515625 20 51.265625 
Q 22.5625 53.03125 25.640625 53.03125 
Q 30.078125 53.03125 34.671875 50.203125 
L 31.640625 42.046875 
Q 28.421875 43.953125 25.203125 43.953125 
Q 22.3125 43.953125 20.015625 42.21875 
Q 17.71875 40.484375 16.75 37.40625 
Q 15.28125 32.71875 15.28125 27.15625 
L 15.28125 0 
z
" id="ArialMT-114"/>
     </defs>
     <g style="fill:#262626;" transform="translate(285.970031 573.203672)scale(0.204 -0.204)">
      <use xlink:href="#ArialMT-89"/>
      <use x="66.558594" xlink:href="#ArialMT-101"/>
      <use x="122.173828" xlink:href="#ArialMT-97"/>
      <use x="177.789062" xlink:href="#ArialMT-114"/>
     </g>
    </g>
   </g>
   <g id="matplotlib.axis_2">
    <g id="ytick_1">
     <g id="line2d_6">
      <path clip-path="url(#p2624e0385c)" d="M 75 500.882286 
L 540 500.882286 
" style="fill:none;stroke:#ffffff;stroke-linecap:round;"/>
     </g>
     <g id="text_7">
      <!-- 3.5 -->
      <defs>
       <path d="M 4.203125 18.890625 
L 12.984375 20.0625 
Q 14.5 12.59375 18.140625 9.296875 
Q 21.78125 6 27 6 
Q 33.203125 6 37.46875 10.296875 
Q 41.75 14.59375 41.75 20.953125 
Q 41.75 27 37.796875 30.921875 
Q 33.84375 34.859375 27.734375 34.859375 
Q 25.25 34.859375 21.53125 33.890625 
L 22.515625 41.609375 
Q 23.390625 41.5 23.921875 41.5 
Q 29.546875 41.5 34.03125 44.421875 
Q 38.53125 47.359375 38.53125 53.46875 
Q 38.53125 58.296875 35.25 61.46875 
Q 31.984375 64.65625 26.8125 64.65625 
Q 21.6875 64.65625 18.265625 61.421875 
Q 14.84375 58.203125 13.875 51.765625 
L 5.078125 53.328125 
Q 6.6875 62.15625 12.390625 67.015625 
Q 18.109375 71.875 26.609375 71.875 
Q 32.46875 71.875 37.390625 69.359375 
Q 42.328125 66.84375 44.9375 62.5 
Q 47.5625 58.15625 47.5625 53.265625 
Q 47.5625 48.640625 45.0625 44.828125 
Q 42.578125 41.015625 37.703125 38.765625 
Q 44.046875 37.3125 47.5625 32.6875 
Q 51.078125 28.078125 51.078125 21.140625 
Q 51.078125 11.765625 44.234375 5.25 
Q 37.40625 -1.265625 26.953125 -1.265625 
Q 17.53125 -1.265625 11.296875 4.34375 
Q 5.078125 9.96875 4.203125 18.890625 
z
" id="ArialMT-51"/>
       <path d="M 9.078125 0 
L 9.078125 10.015625 
L 19.09375 10.015625 
L 19.09375 0 
z
" id="ArialMT-46"/>
      </defs>
      <g style="fill:#262626;" transform="translate(45.507 507.57484)scale(0.187 -0.187)">
       <use xlink:href="#ArialMT-51"/>
       <use x="55.615234" xlink:href="#ArialMT-46"/>
       <use x="83.398438" xlink:href="#ArialMT-53"/>
      </g>
     </g>
    </g>
    <g id="ytick_2">
     <g id="line2d_7">
      <path clip-path="url(#p2624e0385c)" d="M 75 410.708636 
L 540 410.708636 
" style="fill:none;stroke:#ffffff;stroke-linecap:round;"/>
     </g>
     <g id="text_8">
      <!-- 4.0 -->
      <defs>
       <path d="M 32.328125 0 
L 32.328125 17.140625 
L 1.265625 17.140625 
L 1.265625 25.203125 
L 33.9375 71.578125 
L 41.109375 71.578125 
L 41.109375 25.203125 
L 50.78125 25.203125 
L 50.78125 17.140625 
L 41.109375 17.140625 
L 41.109375 0 
z
M 32.328125 25.203125 
L 32.328125 57.46875 
L 9.90625 25.203125 
z
" id="ArialMT-52"/>
      </defs>
      <g style="fill:#262626;" transform="translate(45.507 417.401191)scale(0.187 -0.187)">
       <use xlink:href="#ArialMT-52"/>
       <use x="55.615234" xlink:href="#ArialMT-46"/>
       <use x="83.398438" xlink:href="#ArialMT-48"/>
      </g>
     </g>
    </g>
    <g id="ytick_3">
     <g id="line2d_8">
      <path clip-path="url(#p2624e0385c)" d="M 75 320.534987 
L 540 320.534987 
" style="fill:none;stroke:#ffffff;stroke-linecap:round;"/>
     </g>
     <g id="text_9">
      <!-- 4.5 -->
      <g style="fill:#262626;" transform="translate(45.507 327.227542)scale(0.187 -0.187)">
       <use xlink:href="#ArialMT-52"/>
       <use x="55.615234" xlink:href="#ArialMT-46"/>
       <use x="83.398438" xlink:href="#ArialMT-53"/>
      </g>
     </g>
    </g>
    <g id="ytick_4">
     <g id="line2d_9">
      <path clip-path="url(#p2624e0385c)" d="M 75 230.361338 
L 540 230.361338 
" style="fill:none;stroke:#ffffff;stroke-linecap:round;"/>
     </g>
     <g id="text_10">
      <!-- 5.0 -->
      <g style="fill:#262626;" transform="translate(45.507 237.053892)scale(0.187 -0.187)">
       <use xlink:href="#ArialMT-53"/>
       <use x="55.615234" xlink:href="#ArialMT-46"/>
       <use x="83.398438" xlink:href="#ArialMT-48"/>
      </g>
     </g>
    </g>
    <g id="ytick_5">
     <g id="line2d_10">
      <path clip-path="url(#p2624e0385c)" d="M 75 140.187688 
L 540 140.187688 
" style="fill:none;stroke:#ffffff;stroke-linecap:round;"/>
     </g>
     <g id="text_11">
      <!-- 5.5 -->
      <g style="fill:#262626;" transform="translate(45.507 146.880243)scale(0.187 -0.187)">
       <use xlink:href="#ArialMT-53"/>
       <use x="55.615234" xlink:href="#ArialMT-46"/>
       <use x="83.398438" xlink:href="#ArialMT-53"/>
      </g>
     </g>
    </g>
    <g id="text_12">
     <!-- Log10 of number of publications -->
     <defs>
      <path d="M 7.328125 0 
L 7.328125 71.578125 
L 16.796875 71.578125 
L 16.796875 8.453125 
L 52.046875 8.453125 
L 52.046875 0 
z
" id="ArialMT-76"/>
      <path d="M 3.328125 25.921875 
Q 3.328125 40.328125 11.328125 47.265625 
Q 18.015625 53.03125 27.640625 53.03125 
Q 38.328125 53.03125 45.109375 46.015625 
Q 51.90625 39.015625 51.90625 26.65625 
Q 51.90625 16.65625 48.90625 10.90625 
Q 45.90625 5.171875 40.15625 2 
Q 34.421875 -1.171875 27.640625 -1.171875 
Q 16.75 -1.171875 10.03125 5.8125 
Q 3.328125 12.796875 3.328125 25.921875 
z
M 12.359375 25.921875 
Q 12.359375 15.96875 16.703125 11.015625 
Q 21.046875 6.0625 27.640625 6.0625 
Q 34.1875 6.0625 38.53125 11.03125 
Q 42.875 16.015625 42.875 26.21875 
Q 42.875 35.84375 38.5 40.796875 
Q 34.125 45.75 27.640625 45.75 
Q 21.046875 45.75 16.703125 40.8125 
Q 12.359375 35.890625 12.359375 25.921875 
z
" id="ArialMT-111"/>
      <path d="M 4.984375 -4.296875 
L 13.53125 -5.5625 
Q 14.0625 -9.515625 16.5 -11.328125 
Q 19.78125 -13.765625 25.4375 -13.765625 
Q 31.546875 -13.765625 34.859375 -11.328125 
Q 38.1875 -8.890625 39.359375 -4.5 
Q 40.046875 -1.8125 39.984375 6.78125 
Q 34.234375 0 25.640625 0 
Q 14.9375 0 9.078125 7.71875 
Q 3.21875 15.4375 3.21875 26.21875 
Q 3.21875 33.640625 5.90625 39.90625 
Q 8.59375 46.1875 13.6875 49.609375 
Q 18.796875 53.03125 25.6875 53.03125 
Q 34.859375 53.03125 40.828125 45.609375 
L 40.828125 51.859375 
L 48.921875 51.859375 
L 48.921875 7.03125 
Q 48.921875 -5.078125 46.453125 -10.125 
Q 44 -15.1875 38.640625 -18.109375 
Q 33.296875 -21.046875 25.484375 -21.046875 
Q 16.21875 -21.046875 10.5 -16.875 
Q 4.78125 -12.703125 4.984375 -4.296875 
z
M 12.25 26.859375 
Q 12.25 16.65625 16.296875 11.96875 
Q 20.359375 7.28125 26.46875 7.28125 
Q 32.515625 7.28125 36.609375 11.9375 
Q 40.71875 16.609375 40.71875 26.5625 
Q 40.71875 36.078125 36.5 40.90625 
Q 32.28125 45.75 26.3125 45.75 
Q 20.453125 45.75 16.34375 40.984375 
Q 12.25 36.234375 12.25 26.859375 
z
" id="ArialMT-103"/>
      <path id="ArialMT-32"/>
      <path d="M 8.6875 0 
L 8.6875 45.015625 
L 0.921875 45.015625 
L 0.921875 51.859375 
L 8.6875 51.859375 
L 8.6875 57.375 
Q 8.6875 62.59375 9.625 65.140625 
Q 10.890625 68.5625 14.078125 70.671875 
Q 17.28125 72.796875 23.046875 72.796875 
Q 26.765625 72.796875 31.25 71.921875 
L 29.9375 64.265625 
Q 27.203125 64.75 24.75 64.75 
Q 20.75 64.75 19.09375 63.03125 
Q 17.4375 61.328125 17.4375 56.640625 
L 17.4375 51.859375 
L 27.546875 51.859375 
L 27.546875 45.015625 
L 17.4375 45.015625 
L 17.4375 0 
z
" id="ArialMT-102"/>
      <path d="M 6.59375 0 
L 6.59375 51.859375 
L 14.5 51.859375 
L 14.5 44.484375 
Q 20.21875 53.03125 31 53.03125 
Q 35.6875 53.03125 39.625 51.34375 
Q 43.5625 49.65625 45.515625 46.921875 
Q 47.46875 44.1875 48.25 40.4375 
Q 48.734375 37.984375 48.734375 31.890625 
L 48.734375 0 
L 39.9375 0 
L 39.9375 31.546875 
Q 39.9375 36.921875 38.90625 39.578125 
Q 37.890625 42.234375 35.28125 43.8125 
Q 32.671875 45.40625 29.15625 45.40625 
Q 23.53125 45.40625 19.453125 41.84375 
Q 15.375 38.28125 15.375 28.328125 
L 15.375 0 
z
" id="ArialMT-110"/>
      <path d="M 40.578125 0 
L 40.578125 7.625 
Q 34.515625 -1.171875 24.125 -1.171875 
Q 19.53125 -1.171875 15.546875 0.578125 
Q 11.578125 2.34375 9.640625 5 
Q 7.71875 7.671875 6.9375 11.53125 
Q 6.390625 14.109375 6.390625 19.734375 
L 6.390625 51.859375 
L 15.1875 51.859375 
L 15.1875 23.09375 
Q 15.1875 16.21875 15.71875 13.8125 
Q 16.546875 10.359375 19.234375 8.375 
Q 21.921875 6.390625 25.875 6.390625 
Q 29.828125 6.390625 33.296875 8.421875 
Q 36.765625 10.453125 38.203125 13.9375 
Q 39.65625 17.4375 39.65625 24.078125 
L 39.65625 51.859375 
L 48.4375 51.859375 
L 48.4375 0 
z
" id="ArialMT-117"/>
      <path d="M 6.59375 0 
L 6.59375 51.859375 
L 14.453125 51.859375 
L 14.453125 44.578125 
Q 16.890625 48.390625 20.9375 50.703125 
Q 25 53.03125 30.171875 53.03125 
Q 35.9375 53.03125 39.625 50.640625 
Q 43.3125 48.25 44.828125 43.953125 
Q 50.984375 53.03125 60.84375 53.03125 
Q 68.5625 53.03125 72.703125 48.75 
Q 76.859375 44.484375 76.859375 35.59375 
L 76.859375 0 
L 68.109375 0 
L 68.109375 32.671875 
Q 68.109375 37.9375 67.25 40.25 
Q 66.40625 42.578125 64.15625 43.984375 
Q 61.921875 45.40625 58.890625 45.40625 
Q 53.421875 45.40625 49.796875 41.765625 
Q 46.1875 38.140625 46.1875 30.125 
L 46.1875 0 
L 37.40625 0 
L 37.40625 33.6875 
Q 37.40625 39.546875 35.25 42.46875 
Q 33.109375 45.40625 28.21875 45.40625 
Q 24.515625 45.40625 21.359375 43.453125 
Q 18.21875 41.5 16.796875 37.734375 
Q 15.375 33.984375 15.375 26.90625 
L 15.375 0 
z
" id="ArialMT-109"/>
      <path d="M 14.703125 0 
L 6.546875 0 
L 6.546875 71.578125 
L 15.328125 71.578125 
L 15.328125 46.046875 
Q 20.90625 53.03125 29.546875 53.03125 
Q 34.328125 53.03125 38.59375 51.09375 
Q 42.875 49.171875 45.625 45.671875 
Q 48.390625 42.1875 49.953125 37.25 
Q 51.515625 32.328125 51.515625 26.703125 
Q 51.515625 13.375 44.921875 6.09375 
Q 38.328125 -1.171875 29.109375 -1.171875 
Q 19.921875 -1.171875 14.703125 6.5 
z
M 14.59375 26.3125 
Q 14.59375 17 17.140625 12.84375 
Q 21.296875 6.0625 28.375 6.0625 
Q 34.125 6.0625 38.328125 11.0625 
Q 42.53125 16.0625 42.53125 25.984375 
Q 42.53125 36.140625 38.5 40.96875 
Q 34.46875 45.796875 28.765625 45.796875 
Q 23 45.796875 18.796875 40.796875 
Q 14.59375 35.796875 14.59375 26.3125 
z
" id="ArialMT-98"/>
      <path d="M 6.59375 -19.875 
L 6.59375 51.859375 
L 14.59375 51.859375 
L 14.59375 45.125 
Q 17.4375 49.078125 21 51.046875 
Q 24.5625 53.03125 29.640625 53.03125 
Q 36.28125 53.03125 41.359375 49.609375 
Q 46.4375 46.1875 49.015625 39.953125 
Q 51.609375 33.734375 51.609375 26.3125 
Q 51.609375 18.359375 48.75 11.984375 
Q 45.90625 5.609375 40.453125 2.21875 
Q 35.015625 -1.171875 29 -1.171875 
Q 24.609375 -1.171875 21.109375 0.6875 
Q 17.625 2.546875 15.375 5.375 
L 15.375 -19.875 
z
M 14.546875 25.640625 
Q 14.546875 15.625 18.59375 10.84375 
Q 22.65625 6.0625 28.421875 6.0625 
Q 34.28125 6.0625 38.453125 11.015625 
Q 42.625 15.96875 42.625 26.375 
Q 42.625 36.28125 38.546875 41.203125 
Q 34.46875 46.140625 28.8125 46.140625 
Q 23.1875 46.140625 18.859375 40.890625 
Q 14.546875 35.640625 14.546875 25.640625 
z
" id="ArialMT-112"/>
      <path d="M 6.390625 0 
L 6.390625 71.578125 
L 15.1875 71.578125 
L 15.1875 0 
z
" id="ArialMT-108"/>
      <path d="M 6.640625 61.46875 
L 6.640625 71.578125 
L 15.4375 71.578125 
L 15.4375 61.46875 
z
M 6.640625 0 
L 6.640625 51.859375 
L 15.4375 51.859375 
L 15.4375 0 
z
" id="ArialMT-105"/>
      <path d="M 40.4375 19 
L 49.078125 17.875 
Q 47.65625 8.9375 41.8125 3.875 
Q 35.984375 -1.171875 27.484375 -1.171875 
Q 16.84375 -1.171875 10.375 5.78125 
Q 3.90625 12.75 3.90625 25.734375 
Q 3.90625 34.125 6.6875 40.421875 
Q 9.46875 46.734375 15.15625 49.875 
Q 20.84375 53.03125 27.546875 53.03125 
Q 35.984375 53.03125 41.359375 48.75 
Q 46.734375 44.484375 48.25 36.625 
L 39.703125 35.296875 
Q 38.484375 40.53125 35.375 43.15625 
Q 32.28125 45.796875 27.875 45.796875 
Q 21.234375 45.796875 17.078125 41.03125 
Q 12.9375 36.28125 12.9375 25.984375 
Q 12.9375 15.53125 16.9375 10.796875 
Q 20.953125 6.0625 27.390625 6.0625 
Q 32.5625 6.0625 36.03125 9.234375 
Q 39.5 12.40625 40.4375 19 
z
" id="ArialMT-99"/>
      <path d="M 25.78125 7.859375 
L 27.046875 0.09375 
Q 23.34375 -0.6875 20.40625 -0.6875 
Q 15.625 -0.6875 12.984375 0.828125 
Q 10.359375 2.34375 9.28125 4.8125 
Q 8.203125 7.28125 8.203125 15.1875 
L 8.203125 45.015625 
L 1.765625 45.015625 
L 1.765625 51.859375 
L 8.203125 51.859375 
L 8.203125 64.703125 
L 16.9375 69.96875 
L 16.9375 51.859375 
L 25.78125 51.859375 
L 25.78125 45.015625 
L 16.9375 45.015625 
L 16.9375 14.703125 
Q 16.9375 10.9375 17.40625 9.859375 
Q 17.875 8.796875 18.921875 8.15625 
Q 19.96875 7.515625 21.921875 7.515625 
Q 23.390625 7.515625 25.78125 7.859375 
z
" id="ArialMT-116"/>
      <path d="M 3.078125 15.484375 
L 11.765625 16.84375 
Q 12.5 11.625 15.84375 8.84375 
Q 19.1875 6.0625 25.203125 6.0625 
Q 31.25 6.0625 34.171875 8.515625 
Q 37.109375 10.984375 37.109375 14.3125 
Q 37.109375 17.28125 34.515625 19 
Q 32.71875 20.171875 25.53125 21.96875 
Q 15.875 24.421875 12.140625 26.203125 
Q 8.40625 27.984375 6.46875 31.125 
Q 4.546875 34.28125 4.546875 38.09375 
Q 4.546875 41.546875 6.125 44.5 
Q 7.71875 47.46875 10.453125 49.421875 
Q 12.5 50.921875 16.03125 51.96875 
Q 19.578125 53.03125 23.640625 53.03125 
Q 29.734375 53.03125 34.34375 51.265625 
Q 38.96875 49.515625 41.15625 46.5 
Q 43.359375 43.5 44.1875 38.484375 
L 35.59375 37.3125 
Q 35.015625 41.3125 32.203125 43.546875 
Q 29.390625 45.796875 24.265625 45.796875 
Q 18.21875 45.796875 15.625 43.796875 
Q 13.03125 41.796875 13.03125 39.109375 
Q 13.03125 37.40625 14.109375 36.03125 
Q 15.1875 34.625 17.484375 33.6875 
Q 18.796875 33.203125 25.25 31.453125 
Q 34.578125 28.953125 38.25 27.359375 
Q 41.9375 25.78125 44.03125 22.75 
Q 46.140625 19.734375 46.140625 15.234375 
Q 46.140625 10.84375 43.578125 6.953125 
Q 41.015625 3.078125 36.171875 0.953125 
Q 31.34375 -1.171875 25.25 -1.171875 
Q 15.140625 -1.171875 9.84375 3.03125 
Q 4.546875 7.234375 3.078125 15.484375 
z
" id="ArialMT-115"/>
     </defs>
     <g style="fill:#262626;" transform="translate(37.213437 448.153969)rotate(-90)scale(0.204 -0.204)">
      <use xlink:href="#ArialMT-76"/>
      <use x="55.615234" xlink:href="#ArialMT-111"/>
      <use x="111.230469" xlink:href="#ArialMT-103"/>
      <use x="166.845703" xlink:href="#ArialMT-49"/>
      <use x="222.460938" xlink:href="#ArialMT-48"/>
      <use x="278.076172" xlink:href="#ArialMT-32"/>
      <use x="305.859375" xlink:href="#ArialMT-111"/>
      <use x="361.474609" xlink:href="#ArialMT-102"/>
      <use x="389.257812" xlink:href="#ArialMT-32"/>
      <use x="417.041016" xlink:href="#ArialMT-110"/>
      <use x="472.65625" xlink:href="#ArialMT-117"/>
      <use x="528.271484" xlink:href="#ArialMT-109"/>
      <use x="611.572266" xlink:href="#ArialMT-98"/>
      <use x="667.1875" xlink:href="#ArialMT-101"/>
      <use x="722.802734" xlink:href="#ArialMT-114"/>
      <use x="756.103516" xlink:href="#ArialMT-32"/>
      <use x="783.886719" xlink:href="#ArialMT-111"/>
      <use x="839.501953" xlink:href="#ArialMT-102"/>
      <use x="867.285156" xlink:href="#ArialMT-32"/>
      <use x="895.068359" xlink:href="#ArialMT-112"/>
      <use x="950.683594" xlink:href="#ArialMT-117"/>
      <use x="1006.298828" xlink:href="#ArialMT-98"/>
      <use x="1061.914062" xlink:href="#ArialMT-108"/>
      <use x="1084.130859" xlink:href="#ArialMT-105"/>
      <use x="1106.347656" xlink:href="#ArialMT-99"/>
      <use x="1156.347656" xlink:href="#ArialMT-97"/>
      <use x="1211.962891" xlink:href="#ArialMT-116"/>
      <use x="1239.746094" xlink:href="#ArialMT-105"/>
      <use x="1261.962891" xlink:href="#ArialMT-111"/>
      <use x="1317.578125" xlink:href="#ArialMT-110"/>
      <use x="1373.193359" xlink:href="#ArialMT-115"/>
     </g>
    </g>
   </g>
   <g id="line2d_11">
    <path clip-path="url(#p2624e0385c)" d="M 96.136364 341.259115 
L 115.35124 337.694886 
L 134.566116 334.762562 
L 153.780992 332.655593 
L 172.995868 327.763315 
L 192.210744 326.262111 
L 211.42562 322.19401 
L 230.640496 315.99251 
L 249.855372 308.633975 
L 269.070248 298.281207 
L 288.285124 292.623799 
L 307.5 286.637485 
L 326.714876 282.622569 
L 345.929752 275.300847 
L 365.144628 268.950791 
L 384.359504 263.081934 
L 403.57438 258.404977 
L 422.789256 251.541561 
L 442.004132 246.803956 
L 461.219008 245.179353 
L 480.433884 242.786952 
L 499.64876 241.464481 
L 518.863636 239.354182 
" style="fill:none;stroke:#808080;stroke-linecap:round;stroke-opacity:0.4;"/>
   </g>
   <g id="line2d_12">
    <path clip-path="url(#p2624e0385c)" d="M 96.136364 432.440975 
L 115.35124 425.775941 
L 134.566116 426.271181 
L 153.780992 422.530772 
L 172.995868 418.613541 
L 192.210744 414.273978 
L 211.42562 408.408687 
L 230.640496 400.569767 
L 249.855372 395.371775 
L 269.070248 386.855959 
L 288.285124 385.08553 
L 307.5 377.836381 
L 326.714876 373.86189 
L 345.929752 368.500848 
L 365.144628 365.1598 
L 384.359504 359.270044 
L 403.57438 354.813939 
L 422.789256 352.095358 
L 442.004132 349.324767 
L 461.219008 346.721471 
L 480.433884 344.854658 
L 499.64876 344.054639 
L 518.863636 345.108467 
" style="fill:none;stroke:#808080;stroke-linecap:round;stroke-opacity:0.4;"/>
   </g>
   <g id="line2d_13">
    <path clip-path="url(#p2624e0385c)" d="M 96.136364 400.790281 
L 115.35124 396.506875 
L 134.566116 391.563528 
L 153.780992 391.704736 
L 172.995868 389.732656 
L 192.210744 387.762252 
L 211.42562 382.617558 
L 230.640496 374.234651 
L 249.855372 369.074114 
L 269.070248 360.168685 
L 288.285124 358.45793 
L 307.5 353.36937 
L 326.714876 348.736761 
L 345.929752 343.26602 
L 365.144628 340.316061 
L 384.359504 335.481668 
L 403.57438 330.725028 
L 422.789256 328.292053 
L 442.004132 325.024851 
L 461.219008 324.327636 
L 480.433884 323.292032 
L 499.64876 323.363901 
L 518.863636 323.894685 
" style="fill:none;stroke:#808080;stroke-linecap:round;stroke-opacity:0.4;"/>
   </g>
   <g id="line2d_14">
    <path clip-path="url(#p2624e0385c)" d="M 96.136364 418.457742 
L 115.35124 402.007324 
L 134.566116 392.600864 
L 153.780992 386.786676 
L 172.995868 377.610205 
L 192.210744 372.455592 
L 211.42562 360.936572 
L 230.640496 353.13994 
L 249.855372 344.007833 
L 269.070248 335.039278 
L 288.285124 317.390913 
L 307.5 311.225323 
L 326.714876 300.556612 
L 345.929752 292.714036 
L 365.144628 287.164649 
L 384.359504 280.852233 
L 403.57438 273.28075 
L 422.789256 269.447189 
L 442.004132 264.741952 
L 461.219008 262.900168 
L 480.433884 258.724958 
L 499.64876 255.063282 
L 518.863636 253.738921 
" style="fill:none;stroke:#808080;stroke-linecap:round;stroke-opacity:0.4;"/>
   </g>
   <g id="line2d_15">
    <path clip-path="url(#p2624e0385c)" d="M 96.136364 418.457742 
L 115.35124 402.007324 
L 134.566116 392.600864 
L 153.780992 386.786676 
L 172.995868 377.610205 
L 192.210744 372.455592 
L 211.42562 360.936572 
L 230.640496 353.13994 
L 249.855372 344.007833 
L 269.070248 335.039278 
L 288.285124 317.390913 
L 307.5 311.225323 
L 326.714876 300.556612 
L 345.929752 292.714036 
L 365.144628 287.164649 
L 384.359504 280.852233 
L 403.57438 273.28075 
L 422.789256 269.447189 
L 442.004132 264.741952 
L 461.219008 262.900168 
L 480.433884 258.724958 
L 499.64876 255.063282 
L 518.863636 253.738921 
" style="fill:none;stroke:#0000ff;stroke-linecap:round;stroke-opacity:0.7;stroke-width:4;"/>
   </g>
   <g id="line2d_16">
    <path clip-path="url(#p2624e0385c)" d="M 96.136364 297.836918 
L 115.35124 297.44123 
L 134.566116 299.487282 
L 153.780992 300.303688 
L 172.995868 296.273289 
L 192.210744 297.389605 
L 211.42562 290.170403 
L 230.640496 282.650049 
L 249.855372 274.095141 
L 269.070248 264.410993 
L 288.285124 260.848297 
L 307.5 256.889206 
L 326.714876 254.870263 
L 345.929752 249.227578 
L 365.144628 247.221498 
L 384.359504 244.897843 
L 403.57438 241.081844 
L 422.789256 239.278665 
L 442.004132 237.194063 
L 461.219008 237.002858 
L 480.433884 235.754495 
L 499.64876 235.393688 
L 518.863636 234.340085 
" style="fill:none;stroke:#808080;stroke-linecap:round;stroke-opacity:0.4;"/>
   </g>
   <g id="line2d_17">
    <path clip-path="url(#p2624e0385c)" d="M 96.136364 322.971992 
L 115.35124 310.15504 
L 134.566116 297.457831 
L 153.780992 295.61466 
L 172.995868 282.073459 
L 192.210744 263.248626 
L 211.42562 260.447055 
L 230.640496 246.876455 
L 249.855372 218.289455 
L 269.070248 188.66792 
L 288.285124 177.423906 
L 307.5 167.536365 
L 326.714876 155.496414 
L 345.929752 142.918056 
L 365.144628 134.515619 
L 384.359504 123.724678 
L 403.57438 120.046927 
L 422.789256 112.835206 
L 442.004132 107.143969 
L 461.219008 112.382018 
L 480.433884 106.769485 
L 499.64876 101.267624 
L 518.863636 94.14764 
" style="fill:none;stroke:#808080;stroke-linecap:round;stroke-opacity:0.4;"/>
   </g>
   <g id="line2d_18">
    <path clip-path="url(#p2624e0385c)" d="M 96.136364 322.971992 
L 115.35124 310.15504 
L 134.566116 297.457831 
L 153.780992 295.61466 
L 172.995868 282.073459 
L 192.210744 263.248626 
L 211.42562 260.447055 
L 230.640496 246.876455 
L 249.855372 218.289455 
L 269.070248 188.66792 
L 288.285124 177.423906 
L 307.5 167.536365 
L 326.714876 155.496414 
L 345.929752 142.918056 
L 365.144628 134.515619 
L 384.359504 123.724678 
L 403.57438 120.046927 
L 422.789256 112.835206 
L 442.004132 107.143969 
L 461.219008 112.382018 
L 480.433884 106.769485 
L 499.64876 101.267624 
L 518.863636 94.14764 
" style="fill:none;stroke:#0000ff;stroke-linecap:round;stroke-opacity:0.7;stroke-width:4;"/>
   </g>
   <g id="line2d_19">
    <path clip-path="url(#p2624e0385c)" d="M 96.136364 458.970699 
L 115.35124 453.238834 
L 134.566116 452.247549 
L 153.780992 447.245908 
L 172.995868 442.438811 
L 192.210744 436.286187 
L 211.42562 431.40383 
L 230.640496 424.271475 
L 249.855372 416.671069 
L 269.070248 407.719606 
L 288.285124 398.894982 
L 307.5 390.739798 
L 326.714876 385.885832 
L 345.929752 381.009054 
L 365.144628 372.191705 
L 384.359504 366.644992 
L 403.57438 361.536278 
L 422.789256 357.909187 
L 442.004132 348.086209 
L 461.219008 345.128807 
L 480.433884 344.551168 
L 499.64876 341.874668 
L 518.863636 347.057827 
" style="fill:none;stroke:#808080;stroke-linecap:round;stroke-opacity:0.4;"/>
   </g>
   <g id="line2d_20">
    <path clip-path="url(#p2624e0385c)" d="M 96.136364 429.300307 
L 115.35124 423.594547 
L 134.566116 420.685443 
L 153.780992 420.756646 
L 172.995868 414.03662 
L 192.210744 411.440456 
L 211.42562 410.123399 
L 230.640496 404.521366 
L 249.855372 397.937638 
L 269.070248 393.030924 
L 288.285124 390.237624 
L 307.5 387.546348 
L 326.714876 385.61247 
L 345.929752 380.410955 
L 365.144628 378.498087 
L 384.359504 375.149515 
L 403.57438 371.771327 
L 422.789256 367.547107 
L 442.004132 363.693653 
L 461.219008 362.877126 
L 480.433884 360.436177 
L 499.64876 361.298345 
L 518.863636 361.473594 
" style="fill:none;stroke:#808080;stroke-linecap:round;stroke-opacity:0.4;"/>
   </g>
   <g id="line2d_21">
    <path clip-path="url(#p2624e0385c)" d="M 96.136364 277.046791 
L 115.35124 271.006851 
L 134.566116 270.544971 
L 153.780992 269.749653 
L 172.995868 267.971133 
L 192.210744 267.052361 
L 211.42562 264.458187 
L 230.640496 259.551706 
L 249.855372 254.953846 
L 269.070248 248.030926 
L 288.285124 244.387478 
L 307.5 241.783722 
L 326.714876 238.083642 
L 345.929752 233.077159 
L 365.144628 231.367974 
L 384.359504 228.570341 
L 403.57438 225.516475 
L 422.789256 223.155175 
L 442.004132 222.258055 
L 461.219008 222.988185 
L 480.433884 221.983802 
L 499.64876 222.147251 
L 518.863636 225.592347 
" style="fill:none;stroke:#808080;stroke-linecap:round;stroke-opacity:0.4;"/>
   </g>
   <g id="line2d_22">
    <path clip-path="url(#p2624e0385c)" d="M 96.136364 252.397139 
L 115.35124 244.658695 
L 134.566116 243.733489 
L 153.780992 244.049073 
L 172.995868 241.105198 
L 192.210744 239.330465 
L 211.42562 236.774707 
L 230.640496 232.216701 
L 249.855372 227.324072 
L 269.070248 219.080949 
L 288.285124 217.655576 
L 307.5 214.980056 
L 326.714876 213.068313 
L 345.929752 208.422957 
L 365.144628 205.608165 
L 384.359504 202.54433 
L 403.57438 198.333742 
L 422.789256 197.287548 
L 442.004132 194.714222 
L 461.219008 195.092251 
L 480.433884 193.135804 
L 499.64876 192.856793 
L 518.863636 194.317738 
" style="fill:none;stroke:#808080;stroke-linecap:round;stroke-opacity:0.4;"/>
   </g>
   <g id="line2d_23">
    <path clip-path="url(#p2624e0385c)" d="M 96.136364 464.312348 
L 115.35124 457.533524 
L 134.566116 454.338467 
L 153.780992 451.66403 
L 172.995868 441.388877 
L 192.210744 437.027978 
L 211.42562 428.323282 
L 230.640496 420.988506 
L 249.855372 409.434545 
L 269.070248 396.958991 
L 288.285124 385.817402 
L 307.5 381.795639 
L 326.714876 377.277271 
L 345.929752 372.417153 
L 365.144628 372.177337 
L 384.359504 370.960853 
L 403.57438 368.729651 
L 422.789256 368.569419 
L 442.004132 367.91814 
L 461.219008 369.674795 
L 480.433884 368.432337 
L 499.64876 370.014132 
L 518.863636 369.911711 
" style="fill:none;stroke:#808080;stroke-linecap:round;stroke-opacity:0.4;"/>
   </g>
   <g id="line2d_24">
    <path clip-path="url(#p2624e0385c)" d="M 96.136364 475.528917 
L 115.35124 458.01921 
L 134.566116 451.875716 
L 153.780992 450.535916 
L 172.995868 439.828544 
L 192.210744 430.491073 
L 211.42562 426.137539 
L 230.640496 415.388486 
L 249.855372 408.082322 
L 269.070248 400.157969 
L 288.285124 393.268782 
L 307.5 392.80625 
L 326.714876 392.501476 
L 345.929752 387.820707 
L 365.144628 390.135165 
L 384.359504 388.337001 
L 403.57438 385.062946 
L 422.789256 378.358043 
L 442.004132 374.165851 
L 461.219008 376.524445 
L 480.433884 371.523979 
L 499.64876 366.137925 
L 518.863636 358.117016 
" style="fill:none;stroke:#808080;stroke-linecap:round;stroke-opacity:0.4;"/>
   </g>
   <g id="line2d_25">
    <path clip-path="url(#p2624e0385c)" d="M 96.136364 352.425878 
L 115.35124 348.644506 
L 134.566116 346.967528 
L 153.780992 342.616491 
L 172.995868 340.293746 
L 192.210744 336.243752 
L 211.42562 329.663117 
L 230.640496 320.745245 
L 249.855372 314.604858 
L 269.070248 304.194115 
L 288.285124 293.488783 
L 307.5 284.891323 
L 326.714876 274.819927 
L 345.929752 264.646036 
L 365.144628 252.19401 
L 384.359504 236.916798 
L 403.57438 229.456462 
L 422.789256 224.14874 
L 442.004132 213.951311 
L 461.219008 210.019493 
L 480.433884 203.740019 
L 499.64876 204.062947 
L 518.863636 197.509677 
" style="fill:none;stroke:#808080;stroke-linecap:round;stroke-opacity:0.4;"/>
   </g>
   <g id="line2d_26">
    <path clip-path="url(#p2624e0385c)" d="M 96.136364 513 
L 115.35124 506.324803 
L 134.566116 501.211841 
L 153.780992 500.100496 
L 172.995868 489.433643 
L 192.210744 486.927572 
L 211.42562 478.486952 
L 230.640496 472.643994 
L 249.855372 456.472688 
L 269.070248 440.65073 
L 288.285124 436.286187 
L 307.5 427.971 
L 326.714876 421.67922 
L 345.929752 412.354954 
L 365.144628 405.138979 
L 384.359504 401.046027 
L 403.57438 401.351248 
L 422.789256 399.401803 
L 442.004132 397.360872 
L 461.219008 398.418195 
L 480.433884 393.570269 
L 499.64876 392.068131 
L 518.863636 389.493334 
" style="fill:none;stroke:#808080;stroke-linecap:round;stroke-opacity:0.4;"/>
   </g>
   <g id="line2d_27">
    <path clip-path="url(#p2624e0385c)" d="M 96.136364 406.485427 
L 115.35124 403.122625 
L 134.566116 404.225191 
L 153.780992 403.915766 
L 172.995868 397.070783 
L 192.210744 396.572238 
L 211.42562 392.520101 
L 230.640496 388.008057 
L 249.855372 384.803688 
L 269.070248 382.809307 
L 288.285124 378.992837 
L 307.5 377.088385 
L 326.714876 375.393631 
L 345.929752 374.505523 
L 365.144628 374.195329 
L 384.359504 371.414823 
L 403.57438 367.745979 
L 422.789256 367.687169 
L 442.004132 364.137537 
L 461.219008 362.368446 
L 480.433884 360.845353 
L 499.64876 359.799812 
L 518.863636 358.88516 
" style="fill:none;stroke:#808080;stroke-linecap:round;stroke-opacity:0.4;"/>
   </g>
   <g id="line2d_28">
    <path clip-path="url(#p2624e0385c)" d="M 96.136364 304.109723 
L 115.35124 300.658394 
L 134.566116 301.843382 
L 153.780992 300.627654 
L 172.995868 296.31691 
L 192.210744 293.949574 
L 211.42562 289.209834 
L 230.640496 281.421373 
L 249.855372 276.38855 
L 269.070248 269.833878 
L 288.285124 265.502496 
L 307.5 259.530107 
L 326.714876 256.305633 
L 345.929752 251.524113 
L 365.144628 249.902158 
L 384.359504 246.506931 
L 403.57438 240.538569 
L 422.789256 235.882138 
L 442.004132 232.74379 
L 461.219008 230.95098 
L 480.433884 229.482016 
L 499.64876 227.848717 
L 518.863636 228.365447 
" style="fill:none;stroke:#808080;stroke-linecap:round;stroke-opacity:0.4;"/>
   </g>
   <g id="line2d_29">
    <path clip-path="url(#p2624e0385c)" d="M 96.136364 239.12084 
L 115.35124 233.385084 
L 134.566116 233.202133 
L 153.780992 230.650887 
L 172.995868 228.136722 
L 192.210744 228.97328 
L 211.42562 226.489943 
L 230.640496 223.180897 
L 249.855372 220.300267 
L 269.070248 213.802184 
L 288.285124 213.117318 
L 307.5 215.907137 
L 326.714876 217.222575 
L 345.929752 213.989431 
L 365.144628 213.73311 
L 384.359504 212.451474 
L 403.57438 211.533381 
L 422.789256 210.955972 
L 442.004132 213.679921 
L 461.219008 217.147111 
L 480.433884 216.103409 
L 499.64876 215.870024 
L 518.863636 217.126603 
" style="fill:none;stroke:#808080;stroke-linecap:round;stroke-opacity:0.4;"/>
   </g>
   <g id="line2d_30">
    <path clip-path="url(#p2624e0385c)" d="M 96.136364 346.756081 
L 115.35124 343.874254 
L 134.566116 342.478707 
L 153.780992 345.840646 
L 172.995868 340.035981 
L 192.210744 340.609948 
L 211.42562 334.985643 
L 230.640496 329.332642 
L 249.855372 322.681252 
L 269.070248 314.13326 
L 288.285124 311.179153 
L 307.5 307.878055 
L 326.714876 304.562888 
L 345.929752 296.87156 
L 365.144628 293.609873 
L 384.359504 290.85412 
L 403.57438 284.952627 
L 422.789256 283.017379 
L 442.004132 281.12131 
L 461.219008 281.395823 
L 480.433884 279.558695 
L 499.64876 278.973739 
L 518.863636 278.937324 
" style="fill:none;stroke:#808080;stroke-linecap:round;stroke-opacity:0.4;"/>
   </g>
   <g id="line2d_31">
    <path clip-path="url(#p2624e0385c)" d="M 96.136364 468.522949 
L 115.35124 462.698634 
L 134.566116 458.912703 
L 153.780992 455.662049 
L 172.995868 456.024402 
L 192.210744 454.011037 
L 211.42562 452.527587 
L 230.640496 444.751033 
L 249.855372 437.247495 
L 269.070248 427.319554 
L 288.285124 423.400893 
L 307.5 418.052387 
L 326.714876 414.306773 
L 345.929752 408.866366 
L 365.144628 404.630003 
L 384.359504 396.213418 
L 403.57438 394.704912 
L 422.789256 392.60708 
L 442.004132 389.350092 
L 461.219008 390.153236 
L 480.433884 387.093137 
L 499.64876 384.640683 
L 518.863636 382.957549 
" style="fill:none;stroke:#808080;stroke-linecap:round;stroke-opacity:0.4;"/>
   </g>
   <g id="line2d_32">
    <path clip-path="url(#p2624e0385c)" d="M 96.136364 450.705406 
L 115.35124 444.256647 
L 134.566116 442.017147 
L 153.780992 446.426016 
L 172.995868 442.650497 
L 192.210744 441.134354 
L 211.42562 439.059882 
L 230.640496 432.534064 
L 249.855372 423.964742 
L 269.070248 412.434982 
L 288.285124 405.827706 
L 307.5 399.789193 
L 326.714876 396.93271 
L 345.929752 386.028586 
L 365.144628 383.051031 
L 384.359504 377.098583 
L 403.57438 370.716047 
L 422.789256 369.161619 
L 442.004132 364.033883 
L 461.219008 363.676465 
L 480.433884 357.765627 
L 499.64876 354.65296 
L 518.863636 352.533878 
" style="fill:none;stroke:#808080;stroke-linecap:round;stroke-opacity:0.4;"/>
   </g>
   <g id="line2d_33">
    <path clip-path="url(#p2624e0385c)" d="M 96.136364 394.749619 
L 115.35124 392.762638 
L 134.566116 390.014796 
L 153.780992 386.011442 
L 172.995868 379.312174 
L 192.210744 372.498858 
L 211.42562 365.01107 
L 230.640496 357.399943 
L 249.855372 347.371206 
L 269.070248 340.921005 
L 288.285124 335.107864 
L 307.5 334.439479 
L 326.714876 328.890493 
L 345.929752 326.762004 
L 365.144628 324.538496 
L 384.359504 320.080023 
L 403.57438 312.359508 
L 422.789256 306.937576 
L 442.004132 302.303208 
L 461.219008 299.547887 
L 480.433884 294.5374 
L 499.64876 293.381887 
L 518.863636 292.270793 
" style="fill:none;stroke:#808080;stroke-linecap:round;stroke-opacity:0.4;"/>
   </g>
   <g id="line2d_34">
    <path clip-path="url(#p2624e0385c)" d="M 96.136364 510.692421 
L 115.35124 496.834529 
L 134.566116 491.033468 
L 153.780992 480.122871 
L 172.995868 474.833176 
L 192.210744 466.261898 
L 211.42562 459.348724 
L 230.640496 446.760389 
L 249.855372 437.13766 
L 269.070248 426.51998 
L 288.285124 411.353539 
L 307.5 407.501276 
L 326.714876 395.623319 
L 345.929752 387.844102 
L 365.144628 379.11309 
L 384.359504 368.757152 
L 403.57438 360.774938 
L 422.789256 354.863833 
L 442.004132 351.207294 
L 461.219008 349.314036 
L 480.433884 347.959557 
L 499.64876 346.241982 
L 518.863636 345.393714 
" style="fill:none;stroke:#808080;stroke-linecap:round;stroke-opacity:0.4;"/>
   </g>
   <g id="line2d_35">
    <path clip-path="url(#p2624e0385c)" d="M 96.136364 319.920126 
L 115.35124 317.741462 
L 134.566116 314.412213 
L 153.780992 317.419471 
L 172.995868 314.178922 
L 192.210744 309.834626 
L 211.42562 308.470315 
L 230.640496 309.886496 
L 249.855372 307.758035 
L 269.070248 304.198136 
L 288.285124 313.268447 
L 307.5 311.555906 
L 326.714876 309.20199 
L 345.929752 305.796616 
L 365.144628 303.569363 
L 384.359504 297.851749 
L 403.57438 296.717908 
L 422.789256 288.616024 
L 442.004132 275.159175 
L 461.219008 263.021298 
L 480.433884 248.799233 
L 499.64876 241.595456 
L 518.863636 234.083401 
" style="fill:none;stroke:#808080;stroke-linecap:round;stroke-opacity:0.4;"/>
   </g>
   <g id="line2d_36">
    <path clip-path="url(#p2624e0385c)" d="M 96.136364 506.112687 
L 115.35124 485.327396 
L 134.566116 483.085416 
L 153.780992 467.126302 
L 172.995868 452.034857 
L 192.210744 450.003761 
L 211.42562 441.134354 
L 230.640496 429.688567 
L 249.855372 414.594321 
L 269.070248 408.196016 
L 288.285124 403.357586 
L 307.5 402.548873 
L 326.714876 396.945849 
L 345.929752 390.358335 
L 365.144628 381.958249 
L 384.359504 377.923943 
L 403.57438 371.130784 
L 422.789256 367.299226 
L 442.004132 363.607752 
L 461.219008 361.603197 
L 480.433884 358.093008 
L 499.64876 356.399111 
L 518.863636 356.799485 
" style="fill:none;stroke:#808080;stroke-linecap:round;stroke-opacity:0.4;"/>
   </g>
   <g id="line2d_37">
    <path clip-path="url(#p2624e0385c)" d="M 96.136364 408.728781 
L 115.35124 389.798598 
L 134.566116 383.669714 
L 153.780992 369.939631 
L 172.995868 363.926055 
L 192.210744 352.705493 
L 211.42562 345.152544 
L 230.640496 331.237293 
L 249.855372 318.984533 
L 269.070248 307.598293 
L 288.285124 296.402406 
L 307.5 288.644042 
L 326.714876 284.196761 
L 345.929752 279.760051 
L 365.144628 270.962118 
L 384.359504 264.498143 
L 403.57438 259.492606 
L 422.789256 255.674419 
L 442.004132 251.593927 
L 461.219008 249.16482 
L 480.433884 248.255017 
L 499.64876 248.124219 
L 518.863636 248.186149 
" style="fill:none;stroke:#808080;stroke-linecap:round;stroke-opacity:0.4;"/>
   </g>
   <g id="line2d_38">
    <path clip-path="url(#p2624e0385c)" d="M 96.136364 341.339833 
L 115.35124 333.574631 
L 134.566116 332.332429 
L 153.780992 328.313933 
L 172.995868 324.885958 
L 192.210744 320.959116 
L 211.42562 315.014654 
L 230.640496 308.866235 
L 249.855372 301.925366 
L 269.070248 291.895312 
L 288.285124 284.182745 
L 307.5 278.590047 
L 326.714876 273.78091 
L 345.929752 265.912064 
L 365.144628 261.777391 
L 384.359504 255.597631 
L 403.57438 250.565363 
L 422.789256 248.4837 
L 442.004132 245.50558 
L 461.219008 246.550258 
L 480.433884 244.390288 
L 499.64876 243.122701 
L 518.863636 243.880417 
" style="fill:none;stroke:#808080;stroke-linecap:round;stroke-opacity:0.4;"/>
   </g>
   <g id="line2d_39">
    <path clip-path="url(#p2624e0385c)" d="M 96.136364 371.462264 
L 115.35124 366.453344 
L 134.566116 363.882965 
L 153.780992 361.959663 
L 172.995868 359.701739 
L 192.210744 359.201031 
L 211.42562 358.46597 
L 230.640496 353.403277 
L 249.855372 349.96409 
L 269.070248 343.461602 
L 288.285124 341.507993 
L 307.5 339.132574 
L 326.714876 339.343279 
L 345.929752 333.032373 
L 365.144628 329.994992 
L 384.359504 325.538003 
L 403.57438 319.920126 
L 422.789256 316.118823 
L 442.004132 311.465408 
L 461.219008 309.735304 
L 480.433884 307.344638 
L 499.64876 306.51812 
L 518.863636 305.995911 
" style="fill:none;stroke:#808080;stroke-linecap:round;stroke-opacity:0.4;"/>
   </g>
   <g id="line2d_40">
    <path clip-path="url(#p2624e0385c)" d="M 96.136364 376.564954 
L 115.35124 371.542978 
L 134.566116 370.378342 
L 153.780992 368.22261 
L 172.995868 365.638524 
L 192.210744 367.791248 
L 211.42562 364.033883 
L 230.640496 354.381579 
L 249.855372 347.151709 
L 269.070248 340.20773 
L 288.285124 335.063127 
L 307.5 331.208903 
L 326.714876 328.563255 
L 345.929752 323.543861 
L 365.144628 318.928703 
L 384.359504 313.67583 
L 403.57438 307.869627 
L 422.789256 305.014627 
L 442.004132 302.00157 
L 461.219008 300.918252 
L 480.433884 299.175532 
L 499.64876 297.038356 
L 518.863636 298.357678 
" style="fill:none;stroke:#808080;stroke-linecap:round;stroke-opacity:0.4;"/>
   </g>
   <g id="line2d_41">
    <path clip-path="url(#p2624e0385c)" d="M 96.136364 405.350813 
L 115.35124 397.758187 
L 134.566116 394.724069 
L 153.780992 392.031098 
L 172.995868 387.28456 
L 192.210744 378.249292 
L 211.42562 373.291479 
L 230.640496 364.640476 
L 249.855372 351.500972 
L 269.070248 338.174291 
L 288.285124 328.791352 
L 307.5 320.467589 
L 326.714876 314.768059 
L 345.929752 308.597812 
L 365.144628 303.551415 
L 384.359504 298.581925 
L 403.57438 298.756159 
L 422.789256 297.840625 
L 442.004132 301.144161 
L 461.219008 308.804373 
L 480.433884 311.106654 
L 499.64876 313.848475 
L 518.863636 316.123506 
" style="fill:none;stroke:#808080;stroke-linecap:round;stroke-opacity:0.4;"/>
   </g>
   <g id="line2d_42">
    <path clip-path="url(#p2624e0385c)" d="M 96.136364 456.010434 
L 115.35124 450.705406 
L 134.566116 444.787331 
L 153.780992 432.131476 
L 172.995868 430.794145 
L 192.210744 414.866408 
L 211.42562 395.449087 
L 230.640496 378.513663 
L 249.855372 364.405948 
L 269.070248 356.646159 
L 288.285124 348.453248 
L 307.5 341.143027 
L 326.714876 338.672259 
L 345.929752 326.646773 
L 365.144628 320.911815 
L 384.359504 317.267284 
L 403.57438 314.069378 
L 422.789256 308.004592 
L 442.004132 306.549191 
L 461.219008 301.654365 
L 480.433884 296.108112 
L 499.64876 300.637259 
L 518.863636 302.428906 
" style="fill:none;stroke:#808080;stroke-linecap:round;stroke-opacity:0.4;"/>
   </g>
   <g id="line2d_43">
    <path clip-path="url(#p2624e0385c)" d="M 96.136364 454.873477 
L 115.35124 447.79731 
L 134.566116 443.574473 
L 153.780992 447.659095 
L 172.995868 446.253197 
L 192.210744 431.485481 
L 211.42562 438.499463 
L 230.640496 438.176247 
L 249.855372 437.368493 
L 269.070248 434.197142 
L 288.285124 442.157449 
L 307.5 440.181483 
L 326.714876 436.63439 
L 345.929752 437.943025 
L 365.144628 433.272336 
L 384.359504 427.494038 
L 403.57438 420.569875 
L 422.789256 411.956033 
L 442.004132 410.014638 
L 461.219008 409.18834 
L 480.433884 404.847731 
L 499.64876 398.304464 
L 518.863636 390.679124 
" style="fill:none;stroke:#808080;stroke-linecap:round;stroke-opacity:0.4;"/>
   </g>
   <g id="line2d_44">
    <path clip-path="url(#p2624e0385c)" d="M 96.136364 242.786952 
L 115.35124 238.365944 
L 134.566116 237.774798 
L 153.780992 238.285306 
L 172.995868 232.261627 
L 192.210744 236.237608 
L 211.42562 233.306973 
L 230.640496 229.06105 
L 249.855372 223.904574 
L 269.070248 217.186158 
L 288.285124 213.43218 
L 307.5 210.39432 
L 326.714876 209.878264 
L 345.929752 204.946884 
L 365.144628 203.17116 
L 384.359504 200.526784 
L 403.57438 197.121364 
L 422.789256 194.054197 
L 442.004132 192.260311 
L 461.219008 190.590453 
L 480.433884 188.953147 
L 499.64876 188.072713 
L 518.863636 187.817053 
" style="fill:none;stroke:#808080;stroke-linecap:round;stroke-opacity:0.4;"/>
   </g>
   <g id="line2d_45">
    <path clip-path="url(#p2624e0385c)" d="M 96.136364 132.692135 
L 115.35124 132.59676 
L 134.566116 133.634555 
L 153.780992 134.608517 
L 172.995868 131.413387 
L 192.210744 131.30695 
L 211.42562 126.820895 
L 230.640496 122.273884 
L 249.855372 116.253561 
L 269.070248 109.905005 
L 288.285124 108.828506 
L 307.5 109.450008 
L 326.714876 108.65212 
L 345.929752 103.865349 
L 365.144628 101.294904 
L 384.359504 98.586821 
L 403.57438 96.468832 
L 422.789256 95.131278 
L 442.004132 94.121776 
L 461.219008 94.073235 
L 480.433884 93.794812 
L 499.64876 93 
L 518.863636 94.02706 
" style="fill:none;stroke:#808080;stroke-linecap:round;stroke-opacity:0.4;"/>
   </g>
   <g id="line2d_46">
    <path clip-path="url(#p2624e0385c)" d="M 96.136364 132.692135 
L 115.35124 132.59676 
L 134.566116 133.634555 
L 153.780992 134.608517 
L 172.995868 131.413387 
L 192.210744 131.30695 
L 211.42562 126.820895 
L 230.640496 122.273884 
L 249.855372 116.253561 
L 269.070248 109.905005 
L 288.285124 108.828506 
L 307.5 109.450008 
L 326.714876 108.65212 
L 345.929752 103.865349 
L 365.144628 101.294904 
L 384.359504 98.586821 
L 403.57438 96.468832 
L 422.789256 95.131278 
L 442.004132 94.121776 
L 461.219008 94.073235 
L 480.433884 93.794812 
L 499.64876 93 
L 518.863636 94.02706 
" style="fill:none;stroke:#0000ff;stroke-linecap:round;stroke-opacity:0.7;stroke-width:4;"/>
   </g>
   <g id="line2d_47">
    <path clip-path="url(#p2624e0385c)" d="M 96.136364 478.747907 
L 115.35124 468.244886 
L 134.566116 468.032913 
L 153.780992 462.683424 
L 172.995868 457.149966 
L 192.210744 455.259854 
L 211.42562 449.84869 
L 230.640496 449.46235 
L 249.855372 445.626849 
L 269.070248 441.284654 
L 288.285124 432.751702 
L 307.5 430.48099 
L 326.714876 422.786225 
L 345.929752 413.881499 
L 365.144628 410.25567 
L 384.359504 404.254037 
L 403.57438 400.969907 
L 422.789256 400.356734 
L 442.004132 394.666612 
L 461.219008 394.641089 
L 480.433884 391.907783 
L 499.64876 390.322102 
L 518.863636 389.052508 
" style="fill:none;stroke:#808080;stroke-linecap:round;stroke-opacity:0.4;"/>
   </g>
   <g id="line2d_48">
    <path clip-path="url(#p2624e0385c)" d="M 96.136364 427.416441 
L 115.35124 416.535955 
L 134.566116 415.388486 
L 153.780992 415.939183 
L 172.995868 411.559135 
L 192.210744 412.091439 
L 211.42562 410.614704 
L 230.640496 403.800943 
L 249.855372 399.252796 
L 269.070248 393.287591 
L 288.285124 389.792601 
L 307.5 385.430757 
L 326.714876 382.732551 
L 345.929752 375.95951 
L 365.144628 370.640875 
L 384.359504 362.533405 
L 403.57438 355.318175 
L 422.789256 351.383369 
L 442.004132 343.860908 
L 461.219008 340.898516 
L 480.433884 339.592452 
L 499.64876 338.13397 
L 518.863636 336.8942 
" style="fill:none;stroke:#808080;stroke-linecap:round;stroke-opacity:0.4;"/>
   </g>
   <g id="line2d_49">
    <path clip-path="url(#p2624e0385c)" d="M 96.136364 471.682743 
L 115.35124 462.288997 
L 134.566116 455.620346 
L 153.780992 460.036743 
L 172.995868 452.915959 
L 192.210744 453.929393 
L 211.42562 448.835398 
L 230.640496 445.041885 
L 249.855372 440.66221 
L 269.070248 431.81294 
L 288.285124 431.638807 
L 307.5 426.443342 
L 326.714876 421.059985 
L 345.929752 422.448838 
L 365.144628 423.13425 
L 384.359504 415.671695 
L 403.57438 412.235064 
L 422.789256 413.336932 
L 442.004132 408.629565 
L 461.219008 409.859526 
L 480.433884 408.340266 
L 499.64876 407.126269 
L 518.863636 406.277908 
" style="fill:none;stroke:#808080;stroke-linecap:round;stroke-opacity:0.4;"/>
   </g>
   <g id="line2d_50">
    <path clip-path="url(#p2624e0385c)" d="M 96.136364 467.562108 
L 115.35124 458.450273 
L 134.566116 452.394111 
L 153.780992 446.834889 
L 172.995868 443.610229 
L 192.210744 438.521803 
L 211.42562 431.556996 
L 230.640496 420.649865 
L 249.855372 414.142933 
L 269.070248 403.421789 
L 288.285124 394.794352 
L 307.5 392.656825 
L 326.714876 385.714869 
L 345.929752 381.304444 
L 365.144628 377.887876 
L 384.359504 372.812048 
L 403.57438 367.759557 
L 422.789256 363.663577 
L 442.004132 357.646194 
L 461.219008 356.72475 
L 480.433884 352.169511 
L 499.64876 347.885771 
L 518.863636 347.141272 
" style="fill:none;stroke:#808080;stroke-linecap:round;stroke-opacity:0.4;"/>
   </g>
   <g id="line2d_51">
    <path clip-path="url(#p2624e0385c)" d="M 96.136364 472.920818 
L 115.35124 469.744978 
L 134.566116 469.545511 
L 153.780992 465.438429 
L 172.995868 465.564554 
L 192.210744 463.095134 
L 211.42562 455.301365 
L 230.640496 451.73012 
L 249.855372 440.880654 
L 269.070248 435.100909 
L 288.285124 426.357214 
L 307.5 423.354855 
L 326.714876 415.981061 
L 345.929752 406.300116 
L 365.144628 399.164879 
L 384.359504 389.780608 
L 403.57438 381.763158 
L 422.789256 374.574622 
L 442.004132 362.018531 
L 461.219008 362.605419 
L 480.433884 355.048332 
L 499.64876 351.042583 
L 518.863636 349.514582 
" style="fill:none;stroke:#808080;stroke-linecap:round;stroke-opacity:0.4;"/>
   </g>
   <g id="patch_3">
    <path d="M 75 534 
L 75 72 
" style="fill:none;"/>
   </g>
   <g id="patch_4">
    <path d="M 540 534 
L 540 72 
" style="fill:none;"/>
   </g>
   <g id="patch_5">
    <path d="M 75 534 
L 540 534 
" style="fill:none;"/>
   </g>
   <g id="patch_6">
    <path d="M 75 72 
L 540 72 
" style="fill:none;"/>
   </g>
   <g id="text_13">
    <!-- Belgium -->
    <defs>
     <path d="M 7.328125 0 
L 7.328125 71.578125 
L 34.1875 71.578125 
Q 42.390625 71.578125 47.34375 69.40625 
Q 52.296875 67.234375 55.09375 62.71875 
Q 57.90625 58.203125 57.90625 53.265625 
Q 57.90625 48.6875 55.421875 44.625 
Q 52.9375 40.578125 47.90625 38.09375 
Q 54.390625 36.1875 57.875 31.59375 
Q 61.375 27 61.375 20.75 
Q 61.375 15.71875 59.25 11.390625 
Q 57.125 7.078125 54 4.734375 
Q 50.875 2.390625 46.15625 1.1875 
Q 41.453125 0 34.625 0 
z
M 16.796875 41.5 
L 32.28125 41.5 
Q 38.578125 41.5 41.3125 42.328125 
Q 44.921875 43.40625 46.75 45.890625 
Q 48.578125 48.390625 48.578125 52.15625 
Q 48.578125 55.71875 46.875 58.421875 
Q 45.171875 61.140625 41.984375 62.140625 
Q 38.8125 63.140625 31.109375 63.140625 
L 16.796875 63.140625 
z
M 16.796875 8.453125 
L 34.625 8.453125 
Q 39.203125 8.453125 41.0625 8.796875 
Q 44.34375 9.375 46.53125 10.734375 
Q 48.734375 12.109375 50.140625 14.71875 
Q 51.5625 17.328125 51.5625 20.75 
Q 51.5625 24.75 49.515625 27.703125 
Q 47.46875 30.671875 43.828125 31.859375 
Q 40.1875 33.0625 33.34375 33.0625 
L 16.796875 33.0625 
z
" id="ArialMT-66"/>
    </defs>
    <g style="fill:#808080;" transform="translate(518.863636 323.894685)scale(0.05 -0.05)">
     <use xlink:href="#ArialMT-66"/>
     <use x="66.699219" xlink:href="#ArialMT-101"/>
     <use x="122.314453" xlink:href="#ArialMT-108"/>
     <use x="144.53125" xlink:href="#ArialMT-103"/>
     <use x="200.146484" xlink:href="#ArialMT-105"/>
     <use x="222.363281" xlink:href="#ArialMT-117"/>
     <use x="277.978516" xlink:href="#ArialMT-109"/>
    </g>
   </g>
   <g id="text_14">
    <!-- Brazil -->
    <defs>
     <path d="M 1.953125 0 
L 1.953125 7.125 
L 34.96875 45.015625 
Q 29.34375 44.734375 25.046875 44.734375 
L 3.90625 44.734375 
L 3.90625 51.859375 
L 46.296875 51.859375 
L 46.296875 46.046875 
L 18.21875 13.140625 
L 12.796875 7.125 
Q 18.703125 7.5625 23.875 7.5625 
L 47.859375 7.5625 
L 47.859375 0 
z
" id="ArialMT-122"/>
    </defs>
    <g style="fill:#0000ff;" transform="translate(518.863636 258.724958)scale(0.15 -0.15)">
     <use xlink:href="#ArialMT-66"/>
     <use x="66.699219" xlink:href="#ArialMT-114"/>
     <use x="100" xlink:href="#ArialMT-97"/>
     <use x="155.615234" xlink:href="#ArialMT-122"/>
     <use x="205.615234" xlink:href="#ArialMT-105"/>
     <use x="227.832031" xlink:href="#ArialMT-108"/>
    </g>
   </g>
   <g id="text_15">
    <!-- China -->
    <defs>
     <path d="M 58.796875 25.09375 
L 68.265625 22.703125 
Q 65.28125 11.03125 57.546875 4.90625 
Q 49.8125 -1.21875 38.625 -1.21875 
Q 27.046875 -1.21875 19.796875 3.484375 
Q 12.546875 8.203125 8.765625 17.140625 
Q 4.984375 26.078125 4.984375 36.328125 
Q 4.984375 47.515625 9.25 55.828125 
Q 13.53125 64.15625 21.40625 68.46875 
Q 29.296875 72.796875 38.765625 72.796875 
Q 49.515625 72.796875 56.828125 67.328125 
Q 64.15625 61.859375 67.046875 51.953125 
L 57.71875 49.75 
Q 55.21875 57.5625 50.484375 61.125 
Q 45.75 64.703125 38.578125 64.703125 
Q 30.328125 64.703125 24.78125 60.734375 
Q 19.234375 56.78125 16.984375 50.109375 
Q 14.75 43.453125 14.75 36.375 
Q 14.75 27.25 17.40625 20.4375 
Q 20.0625 13.625 25.671875 10.25 
Q 31.296875 6.890625 37.84375 6.890625 
Q 45.796875 6.890625 51.3125 11.46875 
Q 56.84375 16.0625 58.796875 25.09375 
z
" id="ArialMT-67"/>
     <path d="M 6.59375 0 
L 6.59375 71.578125 
L 15.375 71.578125 
L 15.375 45.90625 
Q 21.53125 53.03125 30.90625 53.03125 
Q 36.671875 53.03125 40.921875 50.75 
Q 45.171875 48.484375 47 44.484375 
Q 48.828125 40.484375 48.828125 32.859375 
L 48.828125 0 
L 40.046875 0 
L 40.046875 32.859375 
Q 40.046875 39.453125 37.1875 42.453125 
Q 34.328125 45.453125 29.109375 45.453125 
Q 25.203125 45.453125 21.75 43.421875 
Q 18.3125 41.40625 16.84375 37.9375 
Q 15.375 34.46875 15.375 28.375 
L 15.375 0 
z
" id="ArialMT-104"/>
    </defs>
    <g style="fill:#0000ff;" transform="translate(326.714876 106.769485)scale(0.15 -0.15)">
     <use xlink:href="#ArialMT-67"/>
     <use x="72.216797" xlink:href="#ArialMT-104"/>
     <use x="127.832031" xlink:href="#ArialMT-105"/>
     <use x="150.048828" xlink:href="#ArialMT-110"/>
     <use x="205.664062" xlink:href="#ArialMT-97"/>
    </g>
   </g>
   <g id="text_16">
    <!-- Finland -->
    <defs>
     <path d="M 8.203125 0 
L 8.203125 71.578125 
L 56.5 71.578125 
L 56.5 63.140625 
L 17.671875 63.140625 
L 17.671875 40.96875 
L 51.265625 40.96875 
L 51.265625 32.515625 
L 17.671875 32.515625 
L 17.671875 0 
z
" id="ArialMT-70"/>
     <path d="M 40.234375 0 
L 40.234375 6.546875 
Q 35.296875 -1.171875 25.734375 -1.171875 
Q 19.53125 -1.171875 14.328125 2.25 
Q 9.125 5.671875 6.265625 11.796875 
Q 3.421875 17.921875 3.421875 25.875 
Q 3.421875 33.640625 6 39.96875 
Q 8.59375 46.296875 13.765625 49.65625 
Q 18.953125 53.03125 25.34375 53.03125 
Q 30.03125 53.03125 33.6875 51.046875 
Q 37.359375 49.078125 39.65625 45.90625 
L 39.65625 71.578125 
L 48.390625 71.578125 
L 48.390625 0 
z
M 12.453125 25.875 
Q 12.453125 15.921875 16.640625 10.984375 
Q 20.84375 6.0625 26.5625 6.0625 
Q 32.328125 6.0625 36.34375 10.765625 
Q 40.375 15.484375 40.375 25.140625 
Q 40.375 35.796875 36.265625 40.765625 
Q 32.171875 45.75 26.171875 45.75 
Q 20.3125 45.75 16.375 40.96875 
Q 12.453125 36.1875 12.453125 25.875 
z
" id="ArialMT-100"/>
    </defs>
    <g style="fill:#808080;" transform="translate(518.863636 361.473594)scale(0.05 -0.05)">
     <use xlink:href="#ArialMT-70"/>
     <use x="61.083984" xlink:href="#ArialMT-105"/>
     <use x="83.300781" xlink:href="#ArialMT-110"/>
     <use x="138.916016" xlink:href="#ArialMT-108"/>
     <use x="161.132812" xlink:href="#ArialMT-97"/>
     <use x="216.748047" xlink:href="#ArialMT-110"/>
     <use x="272.363281" xlink:href="#ArialMT-100"/>
    </g>
   </g>
   <g id="text_17">
    <!-- France -->
    <g style="fill:#808080;" transform="translate(518.863636 225.592347)scale(0.05 -0.05)">
     <use xlink:href="#ArialMT-70"/>
     <use x="61.083984" xlink:href="#ArialMT-114"/>
     <use x="94.384766" xlink:href="#ArialMT-97"/>
     <use x="150" xlink:href="#ArialMT-110"/>
     <use x="205.615234" xlink:href="#ArialMT-99"/>
     <use x="255.615234" xlink:href="#ArialMT-101"/>
    </g>
   </g>
   <g id="text_18">
    <!-- Germany -->
    <defs>
     <path d="M 41.21875 28.078125 
L 41.21875 36.46875 
L 71.53125 36.53125 
L 71.53125 9.96875 
Q 64.546875 4.390625 57.125 1.578125 
Q 49.703125 -1.21875 41.890625 -1.21875 
Q 31.34375 -1.21875 22.71875 3.296875 
Q 14.109375 7.8125 9.71875 16.359375 
Q 5.328125 24.90625 5.328125 35.453125 
Q 5.328125 45.90625 9.6875 54.953125 
Q 14.0625 64.015625 22.265625 68.40625 
Q 30.46875 72.796875 41.15625 72.796875 
Q 48.921875 72.796875 55.1875 70.28125 
Q 61.46875 67.78125 65.03125 63.28125 
Q 68.609375 58.796875 70.453125 51.5625 
L 61.921875 49.21875 
Q 60.296875 54.6875 57.90625 57.8125 
Q 55.515625 60.9375 51.0625 62.8125 
Q 46.625 64.703125 41.21875 64.703125 
Q 34.71875 64.703125 29.984375 62.71875 
Q 25.25 60.75 22.34375 57.515625 
Q 19.4375 54.296875 17.828125 50.4375 
Q 15.09375 43.796875 15.09375 36.03125 
Q 15.09375 26.46875 18.390625 20.015625 
Q 21.6875 13.578125 27.984375 10.453125 
Q 34.28125 7.328125 41.359375 7.328125 
Q 47.515625 7.328125 53.375 9.6875 
Q 59.234375 12.0625 62.25 14.75 
L 62.25 28.078125 
z
" id="ArialMT-71"/>
     <path d="M 6.203125 -19.96875 
L 5.21875 -11.71875 
Q 8.109375 -12.5 10.25 -12.5 
Q 13.1875 -12.5 14.9375 -11.515625 
Q 16.703125 -10.546875 17.828125 -8.796875 
Q 18.65625 -7.46875 20.515625 -2.25 
Q 20.75 -1.515625 21.296875 -0.09375 
L 1.609375 51.859375 
L 11.078125 51.859375 
L 21.875 21.828125 
Q 23.96875 16.109375 25.640625 9.8125 
Q 27.15625 15.875 29.25 21.625 
L 40.328125 51.859375 
L 49.125 51.859375 
L 29.390625 -0.875 
Q 26.21875 -9.421875 24.46875 -12.640625 
Q 22.125 -17 19.09375 -19.015625 
Q 16.0625 -21.046875 11.859375 -21.046875 
Q 9.328125 -21.046875 6.203125 -19.96875 
z
" id="ArialMT-121"/>
    </defs>
    <g style="fill:#808080;" transform="translate(518.863636 194.317738)scale(0.05 -0.05)">
     <use xlink:href="#ArialMT-71"/>
     <use x="77.783203" xlink:href="#ArialMT-101"/>
     <use x="133.398438" xlink:href="#ArialMT-114"/>
     <use x="166.699219" xlink:href="#ArialMT-109"/>
     <use x="250" xlink:href="#ArialMT-97"/>
     <use x="305.615234" xlink:href="#ArialMT-110"/>
     <use x="361.230469" xlink:href="#ArialMT-121"/>
    </g>
   </g>
   <g id="text_19">
    <!-- India -->
    <defs>
     <path d="M 9.328125 0 
L 9.328125 71.578125 
L 18.796875 71.578125 
L 18.796875 0 
z
" id="ArialMT-73"/>
    </defs>
    <g style="fill:#808080;" transform="translate(518.863636 197.509677)scale(0.05 -0.05)">
     <use xlink:href="#ArialMT-73"/>
     <use x="27.783203" xlink:href="#ArialMT-110"/>
     <use x="83.398438" xlink:href="#ArialMT-100"/>
     <use x="139.013672" xlink:href="#ArialMT-105"/>
     <use x="161.230469" xlink:href="#ArialMT-97"/>
    </g>
   </g>
   <g id="text_20">
    <!-- Japan -->
    <defs>
     <path d="M 2.875 20.3125 
L 11.421875 21.484375 
Q 11.765625 13.28125 14.5 10.25 
Q 17.234375 7.234375 22.078125 7.234375 
Q 25.640625 7.234375 28.21875 8.859375 
Q 30.8125 10.5 31.78125 13.296875 
Q 32.765625 16.109375 32.765625 22.265625 
L 32.765625 71.578125 
L 42.234375 71.578125 
L 42.234375 22.796875 
Q 42.234375 13.8125 40.0625 8.875 
Q 37.890625 3.953125 33.171875 1.359375 
Q 28.46875 -1.21875 22.125 -1.21875 
Q 12.703125 -1.21875 7.6875 4.203125 
Q 2.6875 9.625 2.875 20.3125 
z
" id="ArialMT-74"/>
    </defs>
    <g style="fill:#808080;" transform="translate(518.863636 217.126603)scale(0.05 -0.05)">
     <use xlink:href="#ArialMT-74"/>
     <use x="50" xlink:href="#ArialMT-97"/>
     <use x="105.615234" xlink:href="#ArialMT-112"/>
     <use x="161.230469" xlink:href="#ArialMT-97"/>
     <use x="216.845703" xlink:href="#ArialMT-110"/>
    </g>
   </g>
   <g id="text_21">
    <!-- Netherlands -->
    <defs>
     <path d="M 7.625 0 
L 7.625 71.578125 
L 17.328125 71.578125 
L 54.9375 15.375 
L 54.9375 71.578125 
L 64.015625 71.578125 
L 64.015625 0 
L 54.296875 0 
L 16.703125 56.25 
L 16.703125 0 
z
" id="ArialMT-78"/>
    </defs>
    <g style="fill:#808080;" transform="translate(518.863636 278.937324)scale(0.05 -0.05)">
     <use xlink:href="#ArialMT-78"/>
     <use x="72.216797" xlink:href="#ArialMT-101"/>
     <use x="127.832031" xlink:href="#ArialMT-116"/>
     <use x="155.615234" xlink:href="#ArialMT-104"/>
     <use x="211.230469" xlink:href="#ArialMT-101"/>
     <use x="266.845703" xlink:href="#ArialMT-114"/>
     <use x="300.146484" xlink:href="#ArialMT-108"/>
     <use x="322.363281" xlink:href="#ArialMT-97"/>
     <use x="377.978516" xlink:href="#ArialMT-110"/>
     <use x="433.59375" xlink:href="#ArialMT-100"/>
     <use x="489.208984" xlink:href="#ArialMT-115"/>
    </g>
   </g>
   <g id="text_22">
    <!-- New Zealand -->
    <defs>
     <path d="M 16.15625 0 
L 0.296875 51.859375 
L 9.375 51.859375 
L 17.625 21.921875 
L 20.703125 10.796875 
Q 20.90625 11.625 23.390625 21.484375 
L 31.640625 51.859375 
L 40.671875 51.859375 
L 48.4375 21.78125 
L 51.03125 11.859375 
L 54 21.875 
L 62.890625 51.859375 
L 71.4375 51.859375 
L 55.21875 0 
L 46.09375 0 
L 37.84375 31.0625 
L 35.84375 39.890625 
L 25.34375 0 
z
" id="ArialMT-119"/>
     <path d="M 2 0 
L 2 8.796875 
L 38.671875 54.640625 
Q 42.578125 59.515625 46.09375 63.140625 
L 6.15625 63.140625 
L 6.15625 71.578125 
L 57.421875 71.578125 
L 57.421875 63.140625 
L 17.234375 13.484375 
L 12.890625 8.453125 
L 58.59375 8.453125 
L 58.59375 0 
z
" id="ArialMT-90"/>
    </defs>
    <g style="fill:#808080;" transform="translate(518.863636 382.957549)scale(0.05 -0.05)">
     <use xlink:href="#ArialMT-78"/>
     <use x="72.216797" xlink:href="#ArialMT-101"/>
     <use x="127.832031" xlink:href="#ArialMT-119"/>
     <use x="200.048828" xlink:href="#ArialMT-32"/>
     <use x="227.832031" xlink:href="#ArialMT-90"/>
     <use x="288.916016" xlink:href="#ArialMT-101"/>
     <use x="344.53125" xlink:href="#ArialMT-97"/>
     <use x="400.146484" xlink:href="#ArialMT-108"/>
     <use x="422.363281" xlink:href="#ArialMT-97"/>
     <use x="477.978516" xlink:href="#ArialMT-110"/>
     <use x="533.59375" xlink:href="#ArialMT-100"/>
    </g>
   </g>
   <g id="text_23">
    <!-- Norway -->
    <g style="fill:#808080;" transform="translate(518.863636 352.533878)scale(0.05 -0.05)">
     <use xlink:href="#ArialMT-78"/>
     <use x="72.216797" xlink:href="#ArialMT-111"/>
     <use x="127.832031" xlink:href="#ArialMT-114"/>
     <use x="161.132812" xlink:href="#ArialMT-119"/>
     <use x="233.349609" xlink:href="#ArialMT-97"/>
     <use x="288.964844" xlink:href="#ArialMT-121"/>
    </g>
   </g>
   <g id="text_24">
    <!-- Poland -->
    <defs>
     <path d="M 7.71875 0 
L 7.71875 71.578125 
L 34.71875 71.578125 
Q 41.84375 71.578125 45.609375 70.90625 
Q 50.875 70.015625 54.4375 67.546875 
Q 58.015625 65.09375 60.1875 60.640625 
Q 62.359375 56.203125 62.359375 50.875 
Q 62.359375 41.75 56.546875 35.421875 
Q 50.734375 29.109375 35.546875 29.109375 
L 17.1875 29.109375 
L 17.1875 0 
z
M 17.1875 37.546875 
L 35.6875 37.546875 
Q 44.875 37.546875 48.734375 40.96875 
Q 52.59375 44.390625 52.59375 50.59375 
Q 52.59375 55.078125 50.3125 58.265625 
Q 48.046875 61.46875 44.34375 62.5 
Q 41.9375 63.140625 35.5 63.140625 
L 17.1875 63.140625 
z
" id="ArialMT-80"/>
    </defs>
    <g style="fill:#808080;" transform="translate(518.863636 292.270793)scale(0.05 -0.05)">
     <use xlink:href="#ArialMT-80"/>
     <use x="66.699219" xlink:href="#ArialMT-111"/>
     <use x="122.314453" xlink:href="#ArialMT-108"/>
     <use x="144.53125" xlink:href="#ArialMT-97"/>
     <use x="200.146484" xlink:href="#ArialMT-110"/>
     <use x="255.761719" xlink:href="#ArialMT-100"/>
    </g>
   </g>
   <g id="text_25">
    <!-- Russian Federation -->
    <defs>
     <path d="M 7.859375 0 
L 7.859375 71.578125 
L 39.59375 71.578125 
Q 49.171875 71.578125 54.140625 69.640625 
Q 59.125 67.71875 62.109375 62.828125 
Q 65.09375 57.953125 65.09375 52.046875 
Q 65.09375 44.4375 60.15625 39.203125 
Q 55.21875 33.984375 44.921875 32.5625 
Q 48.6875 30.765625 50.640625 29 
Q 54.78125 25.203125 58.5 19.484375 
L 70.953125 0 
L 59.03125 0 
L 49.5625 14.890625 
Q 45.40625 21.34375 42.71875 24.75 
Q 40.046875 28.171875 37.921875 29.53125 
Q 35.796875 30.90625 33.59375 31.453125 
Q 31.984375 31.78125 28.328125 31.78125 
L 17.328125 31.78125 
L 17.328125 0 
z
M 17.328125 39.984375 
L 37.703125 39.984375 
Q 44.1875 39.984375 47.84375 41.328125 
Q 51.515625 42.671875 53.421875 45.625 
Q 55.328125 48.578125 55.328125 52.046875 
Q 55.328125 57.125 51.640625 60.390625 
Q 47.953125 63.671875 39.984375 63.671875 
L 17.328125 63.671875 
z
" id="ArialMT-82"/>
    </defs>
    <g style="fill:#808080;" transform="translate(518.863636 234.083401)scale(0.05 -0.05)">
     <use xlink:href="#ArialMT-82"/>
     <use x="72.216797" xlink:href="#ArialMT-117"/>
     <use x="127.832031" xlink:href="#ArialMT-115"/>
     <use x="177.832031" xlink:href="#ArialMT-115"/>
     <use x="227.832031" xlink:href="#ArialMT-105"/>
     <use x="250.048828" xlink:href="#ArialMT-97"/>
     <use x="305.664062" xlink:href="#ArialMT-110"/>
     <use x="361.279297" xlink:href="#ArialMT-32"/>
     <use x="389.0625" xlink:href="#ArialMT-70"/>
     <use x="450.146484" xlink:href="#ArialMT-101"/>
     <use x="505.761719" xlink:href="#ArialMT-100"/>
     <use x="561.376953" xlink:href="#ArialMT-101"/>
     <use x="616.992188" xlink:href="#ArialMT-114"/>
     <use x="650.292969" xlink:href="#ArialMT-97"/>
     <use x="705.908203" xlink:href="#ArialMT-116"/>
     <use x="733.691406" xlink:href="#ArialMT-105"/>
     <use x="755.908203" xlink:href="#ArialMT-111"/>
     <use x="811.523438" xlink:href="#ArialMT-110"/>
    </g>
   </g>
   <g id="text_26">
    <!-- South Korea -->
    <defs>
     <path d="M 4.5 23 
L 13.421875 23.78125 
Q 14.0625 18.40625 16.375 14.96875 
Q 18.703125 11.53125 23.578125 9.40625 
Q 28.46875 7.28125 34.578125 7.28125 
Q 39.984375 7.28125 44.140625 8.890625 
Q 48.296875 10.5 50.3125 13.296875 
Q 52.34375 16.109375 52.34375 19.4375 
Q 52.34375 22.796875 50.390625 25.3125 
Q 48.4375 27.828125 43.953125 29.546875 
Q 41.0625 30.671875 31.203125 33.03125 
Q 21.34375 35.40625 17.390625 37.5 
Q 12.25 40.1875 9.734375 44.15625 
Q 7.234375 48.140625 7.234375 53.078125 
Q 7.234375 58.5 10.296875 63.203125 
Q 13.375 67.921875 19.28125 70.359375 
Q 25.203125 72.796875 32.421875 72.796875 
Q 40.375 72.796875 46.453125 70.234375 
Q 52.546875 67.671875 55.8125 62.6875 
Q 59.078125 57.71875 59.328125 51.421875 
L 50.25 50.734375 
Q 49.515625 57.515625 45.28125 60.984375 
Q 41.0625 64.453125 32.8125 64.453125 
Q 24.21875 64.453125 20.28125 61.296875 
Q 16.359375 58.15625 16.359375 53.71875 
Q 16.359375 49.859375 19.140625 47.359375 
Q 21.875 44.875 33.421875 42.265625 
Q 44.96875 39.65625 49.265625 37.703125 
Q 55.515625 34.8125 58.484375 30.390625 
Q 61.46875 25.984375 61.46875 20.21875 
Q 61.46875 14.5 58.203125 9.4375 
Q 54.9375 4.390625 48.796875 1.578125 
Q 42.671875 -1.21875 35.015625 -1.21875 
Q 25.296875 -1.21875 18.71875 1.609375 
Q 12.15625 4.4375 8.421875 10.125 
Q 4.6875 15.828125 4.5 23 
z
" id="ArialMT-83"/>
     <path d="M 7.328125 0 
L 7.328125 71.578125 
L 16.796875 71.578125 
L 16.796875 36.078125 
L 52.34375 71.578125 
L 65.1875 71.578125 
L 35.15625 42.578125 
L 66.5 0 
L 54 0 
L 28.515625 36.234375 
L 16.796875 24.8125 
L 16.796875 0 
z
" id="ArialMT-75"/>
    </defs>
    <g style="fill:#808080;" transform="translate(518.863636 248.186149)scale(0.05 -0.05)">
     <use xlink:href="#ArialMT-83"/>
     <use x="66.699219" xlink:href="#ArialMT-111"/>
     <use x="122.314453" xlink:href="#ArialMT-117"/>
     <use x="177.929688" xlink:href="#ArialMT-116"/>
     <use x="205.712891" xlink:href="#ArialMT-104"/>
     <use x="261.328125" xlink:href="#ArialMT-32"/>
     <use x="289.111328" xlink:href="#ArialMT-75"/>
     <use x="355.810547" xlink:href="#ArialMT-111"/>
     <use x="411.425781" xlink:href="#ArialMT-114"/>
     <use x="444.726562" xlink:href="#ArialMT-101"/>
     <use x="500.341797" xlink:href="#ArialMT-97"/>
    </g>
   </g>
   <g id="text_27">
    <!-- Spain -->
    <g style="fill:#808080;" transform="translate(518.863636 243.880417)scale(0.05 -0.05)">
     <use xlink:href="#ArialMT-83"/>
     <use x="66.699219" xlink:href="#ArialMT-112"/>
     <use x="122.314453" xlink:href="#ArialMT-97"/>
     <use x="177.929688" xlink:href="#ArialMT-105"/>
     <use x="200.146484" xlink:href="#ArialMT-110"/>
    </g>
   </g>
   <g id="text_28">
    <!-- Sweden -->
    <g style="fill:#808080;" transform="translate(518.863636 305.995911)scale(0.05 -0.05)">
     <use xlink:href="#ArialMT-83"/>
     <use x="66.699219" xlink:href="#ArialMT-119"/>
     <use x="138.916016" xlink:href="#ArialMT-101"/>
     <use x="194.53125" xlink:href="#ArialMT-100"/>
     <use x="250.146484" xlink:href="#ArialMT-101"/>
     <use x="305.761719" xlink:href="#ArialMT-110"/>
    </g>
   </g>
   <g id="text_29">
    <!-- United Kingdom -->
    <defs>
     <path d="M 54.6875 71.578125 
L 64.15625 71.578125 
L 64.15625 30.21875 
Q 64.15625 19.4375 61.71875 13.078125 
Q 59.28125 6.734375 52.90625 2.75 
Q 46.53125 -1.21875 36.1875 -1.21875 
Q 26.125 -1.21875 19.71875 2.25 
Q 13.328125 5.71875 10.59375 12.28125 
Q 7.859375 18.84375 7.859375 30.21875 
L 7.859375 71.578125 
L 17.328125 71.578125 
L 17.328125 30.28125 
Q 17.328125 20.953125 19.0625 16.53125 
Q 20.796875 12.109375 25.015625 9.71875 
Q 29.25 7.328125 35.359375 7.328125 
Q 45.796875 7.328125 50.234375 12.0625 
Q 54.6875 16.796875 54.6875 30.28125 
z
" id="ArialMT-85"/>
    </defs>
    <g style="fill:#808080;" transform="translate(518.863636 187.817053)scale(0.05 -0.05)">
     <use xlink:href="#ArialMT-85"/>
     <use x="72.216797" xlink:href="#ArialMT-110"/>
     <use x="127.832031" xlink:href="#ArialMT-105"/>
     <use x="150.048828" xlink:href="#ArialMT-116"/>
     <use x="177.832031" xlink:href="#ArialMT-101"/>
     <use x="233.447266" xlink:href="#ArialMT-100"/>
     <use x="289.0625" xlink:href="#ArialMT-32"/>
     <use x="316.845703" xlink:href="#ArialMT-75"/>
     <use x="383.544922" xlink:href="#ArialMT-105"/>
     <use x="405.761719" xlink:href="#ArialMT-110"/>
     <use x="461.376953" xlink:href="#ArialMT-103"/>
     <use x="516.992188" xlink:href="#ArialMT-100"/>
     <use x="572.607422" xlink:href="#ArialMT-111"/>
     <use x="628.222656" xlink:href="#ArialMT-109"/>
    </g>
   </g>
   <g id="text_30">
    <!-- United States -->
    <g style="fill:#0000ff;" transform="translate(134.566116 93.794812)scale(0.15 -0.15)">
     <use xlink:href="#ArialMT-85"/>
     <use x="72.216797" xlink:href="#ArialMT-110"/>
     <use x="127.832031" xlink:href="#ArialMT-105"/>
     <use x="150.048828" xlink:href="#ArialMT-116"/>
     <use x="177.832031" xlink:href="#ArialMT-101"/>
     <use x="233.447266" xlink:href="#ArialMT-100"/>
     <use x="289.0625" xlink:href="#ArialMT-32"/>
     <use x="316.845703" xlink:href="#ArialMT-83"/>
     <use x="383.544922" xlink:href="#ArialMT-116"/>
     <use x="411.328125" xlink:href="#ArialMT-97"/>
     <use x="466.943359" xlink:href="#ArialMT-116"/>
     <use x="494.726562" xlink:href="#ArialMT-101"/>
     <use x="550.341797" xlink:href="#ArialMT-115"/>
    </g>
   </g>
   <g id="text_31">
    <!-- Number of publications by Country (1996-2018) -->
    <defs>
     <path d="M 23.390625 -21.046875 
Q 16.109375 -11.859375 11.078125 0.4375 
Q 6.0625 12.75 6.0625 25.921875 
Q 6.0625 37.546875 9.8125 48.1875 
Q 14.203125 60.546875 23.390625 72.796875 
L 29.6875 72.796875 
Q 23.78125 62.640625 21.875 58.296875 
Q 18.890625 51.5625 17.1875 44.234375 
Q 15.09375 35.109375 15.09375 25.875 
Q 15.09375 2.390625 29.6875 -21.046875 
z
" id="ArialMT-40"/>
     <path d="M 49.75 54.046875 
L 41.015625 53.375 
Q 39.84375 58.546875 37.703125 60.890625 
Q 34.125 64.65625 28.90625 64.65625 
Q 24.703125 64.65625 21.53125 62.3125 
Q 17.390625 59.28125 14.984375 53.46875 
Q 12.59375 47.65625 12.5 36.921875 
Q 15.671875 41.75 20.265625 44.09375 
Q 24.859375 46.4375 29.890625 46.4375 
Q 38.671875 46.4375 44.84375 39.96875 
Q 51.03125 33.5 51.03125 23.25 
Q 51.03125 16.5 48.125 10.71875 
Q 45.21875 4.9375 40.140625 1.859375 
Q 35.0625 -1.21875 28.609375 -1.21875 
Q 17.625 -1.21875 10.6875 6.859375 
Q 3.765625 14.9375 3.765625 33.5 
Q 3.765625 54.25 11.421875 63.671875 
Q 18.109375 71.875 29.4375 71.875 
Q 37.890625 71.875 43.28125 67.140625 
Q 48.6875 62.40625 49.75 54.046875 
z
M 13.875 23.1875 
Q 13.875 18.65625 15.796875 14.5 
Q 17.71875 10.359375 21.1875 8.171875 
Q 24.65625 6 28.46875 6 
Q 34.03125 6 38.03125 10.484375 
Q 42.046875 14.984375 42.046875 22.703125 
Q 42.046875 30.125 38.078125 34.390625 
Q 34.125 38.671875 28.125 38.671875 
Q 22.171875 38.671875 18.015625 34.390625 
Q 13.875 30.125 13.875 23.1875 
z
" id="ArialMT-54"/>
     <path d="M 3.171875 21.484375 
L 3.171875 30.328125 
L 30.171875 30.328125 
L 30.171875 21.484375 
z
" id="ArialMT-45"/>
     <path d="M 17.671875 38.8125 
Q 12.203125 40.828125 9.5625 44.53125 
Q 6.9375 48.25 6.9375 53.421875 
Q 6.9375 61.234375 12.546875 66.546875 
Q 18.171875 71.875 27.484375 71.875 
Q 36.859375 71.875 42.578125 66.421875 
Q 48.296875 60.984375 48.296875 53.171875 
Q 48.296875 48.1875 45.671875 44.5 
Q 43.0625 40.828125 37.75 38.8125 
Q 44.34375 36.671875 47.78125 31.875 
Q 51.21875 27.09375 51.21875 20.453125 
Q 51.21875 11.28125 44.71875 5.03125 
Q 38.234375 -1.21875 27.640625 -1.21875 
Q 17.046875 -1.21875 10.546875 5.046875 
Q 4.046875 11.328125 4.046875 20.703125 
Q 4.046875 27.6875 7.59375 32.390625 
Q 11.140625 37.109375 17.671875 38.8125 
z
M 15.921875 53.71875 
Q 15.921875 48.640625 19.1875 45.40625 
Q 22.46875 42.1875 27.6875 42.1875 
Q 32.765625 42.1875 36.015625 45.375 
Q 39.265625 48.578125 39.265625 53.21875 
Q 39.265625 58.0625 35.90625 61.359375 
Q 32.5625 64.65625 27.59375 64.65625 
Q 22.5625 64.65625 19.234375 61.421875 
Q 15.921875 58.203125 15.921875 53.71875 
z
M 13.09375 20.65625 
Q 13.09375 16.890625 14.875 13.375 
Q 16.65625 9.859375 20.171875 7.921875 
Q 23.6875 6 27.734375 6 
Q 34.03125 6 38.125 10.046875 
Q 42.234375 14.109375 42.234375 20.359375 
Q 42.234375 26.703125 38.015625 30.859375 
Q 33.796875 35.015625 27.4375 35.015625 
Q 21.234375 35.015625 17.15625 30.90625 
Q 13.09375 26.8125 13.09375 20.65625 
z
" id="ArialMT-56"/>
     <path d="M 12.359375 -21.046875 
L 6.0625 -21.046875 
Q 20.65625 2.390625 20.65625 25.875 
Q 20.65625 35.0625 18.5625 44.09375 
Q 16.890625 51.421875 13.921875 58.15625 
Q 12.015625 62.546875 6.0625 72.796875 
L 12.359375 72.796875 
Q 21.53125 60.546875 25.921875 48.1875 
Q 29.6875 37.546875 29.6875 25.921875 
Q 29.6875 12.75 24.625 0.4375 
Q 19.578125 -11.859375 12.359375 -21.046875 
z
" id="ArialMT-41"/>
    </defs>
    <g transform="translate(181.108125 66)scale(0.12 -0.12)">
     <use xlink:href="#ArialMT-78"/>
     <use x="72.216797" xlink:href="#ArialMT-117"/>
     <use x="127.832031" xlink:href="#ArialMT-109"/>
     <use x="211.132812" xlink:href="#ArialMT-98"/>
     <use x="266.748047" xlink:href="#ArialMT-101"/>
     <use x="322.363281" xlink:href="#ArialMT-114"/>
     <use x="355.664062" xlink:href="#ArialMT-32"/>
     <use x="383.447266" xlink:href="#ArialMT-111"/>
     <use x="439.0625" xlink:href="#ArialMT-102"/>
     <use x="466.845703" xlink:href="#ArialMT-32"/>
     <use x="494.628906" xlink:href="#ArialMT-112"/>
     <use x="550.244141" xlink:href="#ArialMT-117"/>
     <use x="605.859375" xlink:href="#ArialMT-98"/>
     <use x="661.474609" xlink:href="#ArialMT-108"/>
     <use x="683.691406" xlink:href="#ArialMT-105"/>
     <use x="705.908203" xlink:href="#ArialMT-99"/>
     <use x="755.908203" xlink:href="#ArialMT-97"/>
     <use x="811.523438" xlink:href="#ArialMT-116"/>
     <use x="839.306641" xlink:href="#ArialMT-105"/>
     <use x="861.523438" xlink:href="#ArialMT-111"/>
     <use x="917.138672" xlink:href="#ArialMT-110"/>
     <use x="972.753906" xlink:href="#ArialMT-115"/>
     <use x="1022.753906" xlink:href="#ArialMT-32"/>
     <use x="1050.537109" xlink:href="#ArialMT-98"/>
     <use x="1106.152344" xlink:href="#ArialMT-121"/>
     <use x="1156.152344" xlink:href="#ArialMT-32"/>
     <use x="1183.935547" xlink:href="#ArialMT-67"/>
     <use x="1256.152344" xlink:href="#ArialMT-111"/>
     <use x="1311.767578" xlink:href="#ArialMT-117"/>
     <use x="1367.382812" xlink:href="#ArialMT-110"/>
     <use x="1422.998047" xlink:href="#ArialMT-116"/>
     <use x="1450.78125" xlink:href="#ArialMT-114"/>
     <use x="1484.082031" xlink:href="#ArialMT-121"/>
     <use x="1534.082031" xlink:href="#ArialMT-32"/>
     <use x="1561.865234" xlink:href="#ArialMT-40"/>
     <use x="1595.166016" xlink:href="#ArialMT-49"/>
     <use x="1650.78125" xlink:href="#ArialMT-57"/>
     <use x="1706.396484" xlink:href="#ArialMT-57"/>
     <use x="1762.011719" xlink:href="#ArialMT-54"/>
     <use x="1817.626953" xlink:href="#ArialMT-45"/>
     <use x="1850.927734" xlink:href="#ArialMT-50"/>
     <use x="1906.542969" xlink:href="#ArialMT-48"/>
     <use x="1962.158203" xlink:href="#ArialMT-49"/>
     <use x="2017.773438" xlink:href="#ArialMT-56"/>
     <use x="2073.388672" xlink:href="#ArialMT-41"/>
    </g>
   </g>
  </g>
 </g>
 <defs>
  <clipPath id="p2624e0385c">
   <rect height="462" width="465" x="75" y="72"/>
  </clipPath>
 </defs>
</svg>
